<svg version="1.1" xmlns="http://www.w3.org/2000/svg" viewBox="0 0 1734.8000488281252 1013.150124686105"
  width="1734.8000488281252" height="1013.150124686105">
  <!-- svg-source:excalidraw -->

  <defs>
    <style>
      @font-face {
        font-family: "Virgil";
        src: url("https://excalidraw.com/Virgil.woff2");
      }

      @font-face {
        font-family: "Cascadia";
        src: url("https://excalidraw.com/Cascadia.woff2");
      }

      @font-face {
        font-family: 'Maison Neue Light';
        src: local('MaisonNeue-Light'), url(../../fonts/MaisonNeue-Light.otf) format('opentype');
      }

    </style>
  </defs>
  <g stroke-linecap="round"
    transform="translate(188.0763884044818 13.599964141845732) rotate(0 182.85716465541293 37.14284351893835)">
    <path d="M1.32 1.88 L366.31 0.01 L367.21 72.96 L0.81 75.07" stroke="none" stroke-width="0" fill="#2864a7"></path>
    <path
      d="M0.1 0.34 C143.64 2.4, 286.62 2.36, 366.72 0.85 M-0.28 0.38 C135.62 -1.87, 271.49 -1.98, 365.84 -0.45 M366.81 -1.44 C363.33 28.66, 363.44 52.99, 363.81 75.22 M366.49 0.25 C364.81 21.19, 364.23 41.73, 365.69 74.39 M365.48 74.81 C250.66 73.3, 133.34 72.3, 0.26 75.38 M365.93 74.86 C223.88 71.81, 81 72.64, -0.47 74.68 M1.18 74.18 C0.12 45.65, 2.38 16.48, -1.85 -0.73 M0.51 73.37 C0.86 55.81, 0.4 39.7, 0.41 0.67"
      stroke="#fff" stroke-width="2" fill="none"></path>
  </g>
  <g stroke-linecap="round" transform="translate(10 135.9500056675503) rotate(0 350.39999389648443 433.60005950927734)">
    <path d="M0 0 L700.8 0 L700.8 867.2 L0 867.2" stroke="none" stroke-width="0" fill="#e7eaed"></path>
    <path
      d="M0 0 C228.68 0, 457.36 0, 700.8 0 M0 0 C151.22 0, 302.43 0, 700.8 0 M700.8 0 C700.8 277.58, 700.8 555.16, 700.8 867.2 M700.8 0 C700.8 290.67, 700.8 581.34, 700.8 867.2 M700.8 867.2 C439.44 867.2, 178.08 867.2, 0 867.2 M700.8 867.2 C527.83 867.2, 354.85 867.2, 0 867.2 M0 867.2 C0 644.51, 0 421.83, 0 0 M0 867.2 C0 649.36, 0 431.51, 0 0"
      stroke="#343a40" stroke-width="2" fill="none"></path>
  </g>
  <g stroke-linecap="round"
    transform="translate(291.22392817905967 913.3698069812818) rotate(0 90.39999389648435 31.90587152059385)">
    <path
      d="M16.84 -0.31 L172.78 0.61 L178.14 4.09 L179.58 11.32 L180.36 56.12 L174.14 61.77 L163.54 64.42 L8.21 63.51 L2.96 58.14 L2.09 52.86 L-0.01 13.73 L2.26 5.45 L7.46 1.18 L14.56 -0.3"
      stroke="none" stroke-width="0" fill="#feffbf"></path>
    <path
      d="M15.95 0 M15.95 0 C60.56 -0.53, 100.87 -1.25, 164.85 0 M15.95 0 C47.8 -1, 81.52 0.96, 164.85 0 M164.85 0 C176.59 -1.76, 181.32 5.78, 180.8 15.95 M164.85 0 C176.56 -0.34, 182.25 3.83, 180.8 15.95 M180.8 15.95 C179.33 25.1, 180.57 31.28, 180.8 47.86 M180.8 15.95 C180.94 28.19, 181.58 40.43, 180.8 47.86 M180.8 47.86 C180.02 57.21, 175.63 63.41, 164.85 63.81 M180.8 47.86 C180 59.62, 175.47 62.18, 164.85 63.81 M164.85 63.81 C129.23 63.96, 91.25 62.69, 15.95 63.81 M164.85 63.81 C130.5 65.85, 97.52 65.7, 15.95 63.81 M15.95 63.81 C4.79 64.54, 1.52 58.55, 0 47.86 M15.95 63.81 C3.2 63.09, 0.94 58.05, 0 47.86 M0 47.86 C-2.16 35.86, 0.03 24.92, 0 15.95 M0 47.86 C-0.13 38.82, -0.24 29.73, 0 15.95 M0 15.95 C0.56 4.18, 5.37 -1.9, 15.95 0 M0 15.95 C-1.31 4.8, 5.7 1.86, 15.95 0"
      stroke="#000000" stroke-width="2" fill="none"></path>
  </g>
  <g stroke-linecap="round"
    transform="translate(50.82383401053289 914.3126998733018) rotate(0 90.39999389648438 31.90587152059385)">
    <path
      d="M15.65 0.95 L171.44 2.32 L176.91 3.02 L179.66 12.77 L181.08 54.41 L174.77 60.26 L165.46 63.05 L9.67 61.78 L2.3 61.66 L1.51 51.34 L1.76 10.49 L5.45 2.48 L9.16 -0.4 L15.65 -0.18"
      stroke="none" stroke-width="0" fill="#feffbf"></path>
    <path
      d="M15.95 0 M15.95 0 C54.09 -2.68, 92.03 -2.56, 164.85 0 M15.95 0 C61.83 1.43, 110.63 1.84, 164.85 0 M164.85 0 C173.72 0.52, 181.26 6.26, 180.8 15.95 M164.85 0 C175.14 1.45, 179.31 3.66, 180.8 15.95 M180.8 15.95 C182.98 22.61, 181.89 30.95, 180.8 47.86 M180.8 15.95 C180.4 29.11, 180.17 40.93, 180.8 47.86 M180.8 47.86 C179.52 58.64, 175.08 63.12, 164.85 63.81 M180.8 47.86 C181.92 58.48, 173.85 62.56, 164.85 63.81 M164.85 63.81 C129.26 64.07, 92.26 63.03, 15.95 63.81 M164.85 63.81 C119.46 62.37, 72.98 62.35, 15.95 63.81 M15.95 63.81 C6.05 65.33, 0.06 56.65, 0 47.86 M15.95 63.81 C4.6 64.75, -0.45 60.36, 0 47.86 M0 47.86 C0.3 36.68, 1.51 24.96, 0 15.95 M0 47.86 C0.1 39.21, 0.41 31.57, 0 15.95 M0 15.95 C-1.14 5.37, 3.42 -1.14, 15.95 0 M0 15.95 C-0.52 5.7, 7.18 -0.3, 15.95 0"
      stroke="#000000" stroke-width="2" fill="none"></path>
  </g>
  <g stroke-linecap="round"
    transform="translate(731.2000732421877 136.30001940046046) rotate(0 496.79998779296875 432.00002288818365)">
    <path d="M0 0 L993.6 0 L993.6 864 L0 864" stroke="none" stroke-width="0" fill="#e7eaed"></path>
    <path
      d="M0 0 C318.91 0, 637.83 0, 993.6 0 M0 0 C363.29 0, 726.58 0, 993.6 0 M993.6 0 C993.6 180.64, 993.6 361.28, 993.6 864 M993.6 0 C993.6 227.96, 993.6 455.91, 993.6 864 M993.6 864 C614.1 864, 234.61 864, 0 864 M993.6 864 C604.74 864, 215.88 864, 0 864 M0 864 C0 603.64, 0 343.28, 0 0 M0 864 C0 605.89, 0 347.77, 0 0"
      stroke="#343a40" stroke-width="1" fill="none"></path>
  </g>
  <g stroke-opacity="0.9" fill-opacity="0.9" stroke-linecap="round"
    transform="translate(138.3392327722653 481.892843791417) rotate(0 235.67745877621832 159.98538391271052)">
    <path
      d="M78.72 0.42 L401.96 0.5 L424.77 5.51 L445.02 13.92 L456.08 25.16 L462.47 37.4 L467.74 53.66 L471.85 70.43 L469.44 250.74 L465.89 275.29 L455.03 295.83 L441.03 308.11 L427.56 315.91 L411.74 318.43 L391.52 319.27 L71.51 318.42 L46.84 313.28 L23.39 305.8 L14.43 293.79 L9.37 280.75 L2.52 265.21 L0.12 251.63 L-1.76 78.49 L1.12 62.49 L5.19 44.01 L10.92 32.79 L27.24 16.58 L45.02 4.09 L59.93 -0.68 L80.58 1.23"
      stroke="none" stroke-width="0" fill="#f8933f"></path>
    <path
      d="M79.99 0 M79.99 0 C181.18 0.5, 283.18 -0.31, 391.36 0 M79.99 0 C179.36 1.6, 279.58 1.64, 391.36 0 M391.36 0 C443.79 0.39, 469.62 25.29, 471.35 79.99 M391.36 0 C445.23 1.49, 469.17 24.73, 471.35 79.99 M471.35 79.99 C473.43 130.74, 471.27 182.17, 471.35 239.98 M471.35 79.99 C469.36 115.08, 470.46 149.15, 471.35 239.98 M471.35 239.98 C471.26 291.98, 446.64 320.92, 391.36 319.97 M471.35 239.98 C473.33 295.1, 446.53 321.22, 391.36 319.97 M391.36 319.97 C273.74 322.18, 153.64 321.72, 79.99 319.97 M391.36 319.97 C309.05 322.32, 226.95 322.61, 79.99 319.97 M79.99 319.97 C25.28 319.47, 1.72 293.96, 0 239.98 M79.99 319.97 C26.97 322.19, -1.34 291.34, 0 239.98 M0 239.98 C-0.98 186.91, 1.67 138.21, 0 79.99 M0 239.98 C0.09 196.07, -0.38 154.54, 0 79.99 M0 79.99 C1.27 25, 24.98 -1.84, 79.99 0 M0 79.99 C-2.03 27.83, 26.78 0.03, 79.99 0"
      stroke="#000000" stroke-width="2" fill="none"></path>
  </g>
  <g transform="translate(237.0166915484836 496.4929109300889) rotate(0 136.99999999999997 21.5)"><text x="137" y="35"
      font-family="Maison Neue Light" font-size="36px" fill="#fff" text-anchor="middle" style="white-space: pre;"
      direction="ltr">Apache APISIX</text></g>
  <g stroke-linecap="round"
    transform="translate(187.80885303588127 698.2928682054795) rotate(0 90.39999389648438 31.90587152059385)">
    <path
      d="M14.23 0.69 L170.42 2.79 L176.66 5.47 L181.95 10.37 L178.3 53.27 L174.7 60.89 L163.55 62.35 L8.8 63.52 L4.06 59.47 L0.92 52.21 L1.58 10.72 L5.93 4.19 L9.32 -0.28 L14.02 -0.46"
      stroke="none" stroke-width="0" fill="#fff"></path>
    <path
      d="M15.95 0 M15.95 0 C47.96 -0.27, 76.95 1.23, 164.85 0 M15.95 0 C59.92 0.73, 105.48 -0.07, 164.85 0 M164.85 0 C176.36 -0.12, 182.27 5.12, 180.8 15.95 M164.85 0 C176.57 -0.83, 181.95 6.47, 180.8 15.95 M180.8 15.95 C181.99 23.91, 180.13 36.82, 180.8 47.86 M180.8 15.95 C180.56 24.96, 181.59 33.76, 180.8 47.86 M180.8 47.86 C182.69 60.13, 174.5 64.81, 164.85 63.81 M180.8 47.86 C181.4 60.08, 175.48 62.61, 164.85 63.81 M164.85 63.81 C129.48 63.92, 91.81 64.19, 15.95 63.81 M164.85 63.81 C134.93 65.05, 105.63 63.63, 15.95 63.81 M15.95 63.81 C3.72 64.98, -0.91 59.58, 0 47.86 M15.95 63.81 C4.5 64.96, 0.25 57.1, 0 47.86 M0 47.86 C-1.74 39.09, 1.59 34.53, 0 15.95 M0 47.86 C0.43 40.69, -0.91 34.49, 0 15.95 M0 15.95 C0.26 3.48, 5.08 1.94, 15.95 0 M0 15.95 C0.88 6.36, 5.2 -1.23, 15.95 0"
      stroke="#000000" stroke-width="2" fill="none"></path>
  </g>
  <g stroke-linecap="round"
    transform="translate(187.73090096882402 555.3870272024639) rotate(0 90.39999389648438 31.90587152059385)">
    <path
      d="M17.48 -1.53 L173.51 2.75 L176.54 5.01 L178.83 11.05 L180.98 53.3 L174.22 63.14 L163.47 61.89 L7.93 62.62 L3.67 58.12 L0.51 50.13 L-0.92 12.89 L2.46 5.83 L10.41 2.86 L15.35 0.98"
      stroke="none" stroke-width="0" fill="#ffffff"></path>
    <path
      d="M15.95 0 M15.95 0 C56.9 1.04, 100.23 -0.82, 164.85 0 M15.95 0 C55.14 0.34, 93.88 0.85, 164.85 0 M164.85 0 C174.33 1.81, 179.97 5.6, 180.8 15.95 M164.85 0 C176.57 2.23, 180.9 4.68, 180.8 15.95 M180.8 15.95 C182.25 27.74, 182.46 36.82, 180.8 47.86 M180.8 15.95 C181.02 26.68, 181.87 37.41, 180.8 47.86 M180.8 47.86 C181.4 57.01, 176.77 64.07, 164.85 63.81 M180.8 47.86 C182.3 59.27, 176.68 64.46, 164.85 63.81 M164.85 63.81 C133.92 66.38, 102.64 66.17, 15.95 63.81 M164.85 63.81 C118.86 62.24, 72.85 63.1, 15.95 63.81 M15.95 63.81 C4.96 63.43, -0.71 57.82, 0 47.86 M15.95 63.81 C3.74 65.61, -1.4 57.4, 0 47.86 M0 47.86 C-0.05 41.88, -0.42 33.1, 0 15.95 M0 47.86 C0.85 41.53, 0.11 34.58, 0 15.95 M0 15.95 C-1.17 3.84, 6.51 1.35, 15.95 0 M0 15.95 C0.99 5.55, 5.23 -0.64, 15.95 0"
      stroke="#000000" stroke-width="2" fill="none"></path>
  </g>
  <g transform="translate(206.6308948653084 572.7928987230578) rotate(0 71.5 14.5)"><text x="71.5" y="23"
      font-family="Maison Neue Light" font-size="24.44450378417968px" fill="#000000" text-anchor="middle"
      style="white-space: pre;" direction="ltr">Rate limit</text></g>
  <g stroke-linecap="round"
    transform="translate(380.33102914265214 554.1869844778545) rotate(0 90.39999389648438 31.90587152059385)">
    <path
      d="M14.8 1.81 L171 1.28 L177.76 5.93 L180.64 11.66 L180.74 53.75 L173.06 63.19 L165.57 65.64 L7.72 63.29 L5.11 58.76 L0.33 52.4 L2.04 13.8 L4.59 2.51 L10.26 1.26 L17.26 0.67"
      stroke="none" stroke-width="0" fill="#fff"></path>
    <path
      d="M15.95 0 M15.95 0 C69.78 2.79, 119.98 3.02, 164.85 0 M15.95 0 C47.2 -0.55, 76.54 -0.98, 164.85 0 M164.85 0 C173.75 -0.06, 180.45 4.94, 180.8 15.95 M164.85 0 C174.67 -0.78, 179.23 7.12, 180.8 15.95 M180.8 15.95 C181.06 25.44, 180.67 32.87, 180.8 47.86 M180.8 15.95 C180.72 25.9, 181.67 34.49, 180.8 47.86 M180.8 47.86 C180.92 59.32, 174.32 62.34, 164.85 63.81 M180.8 47.86 C182.17 60.05, 176.47 64.05, 164.85 63.81 M164.85 63.81 C119.37 63.42, 74.88 63.24, 15.95 63.81 M164.85 63.81 C110.09 63.42, 54.33 64.61, 15.95 63.81 M15.95 63.81 C6.92 62.32, 1.07 58.96, 0 47.86 M15.95 63.81 C6.83 63.55, 0.54 57.9, 0 47.86 M0 47.86 C1.69 35.28, 0.67 24.24, 0 15.95 M0 47.86 C0.24 38.08, -0.81 27.03, 0 15.95 M0 15.95 C-0.5 5.91, 3.39 1.73, 15.95 0 M0 15.95 C1.2 6.29, 4.48 1.01, 15.95 0"
      stroke="#000000" stroke-width="2" fill="none"></path>
  </g>
  <g transform="translate(441.89772022338127 570.6928315843858) rotate(0 28.83330281575519 14.723388671875)"><text
      x="28.833302815755182" y="23.446777343749982" font-family="Maison Neue Light" font-size="24.53898111979166px"
      fill="#000000" text-anchor="middle" style="white-space: pre;" direction="ltr">Auth</text></g>
  <g stroke-linecap="round"
    transform="translate(187.73096200398027 627.9869722708232) rotate(0 90.39999389648438 31.90587152059385)">
    <path
      d="M15.93 -0.73 L172.33 2.34 L176.16 3.08 L178.65 12.94 L180.12 53.23 L176.29 63.5 L165.3 64.44 L8.32 63.8 L4.15 60.25 L2.09 52.67 L-1 11.72 L2.92 4.47 L7.36 -0.28 L15.2 0.64"
      stroke="none" stroke-width="0" fill="#fff"></path>
    <path
      d="M15.95 0 M15.95 0 C59.63 1.18, 107.79 -0.36, 164.85 0 M15.95 0 C64.6 -1.2, 112.29 -0.74, 164.85 0 M164.85 0 C177.01 -1.53, 182.48 7.07, 180.8 15.95 M164.85 0 C175.16 1.17, 178.82 3.98, 180.8 15.95 M180.8 15.95 C182.13 26.03, 178.63 37.81, 180.8 47.86 M180.8 15.95 C180.88 24.49, 180.16 34.82, 180.8 47.86 M180.8 47.86 C179.27 60.34, 176.91 65.67, 164.85 63.81 M180.8 47.86 C180.11 59.63, 175.17 65.73, 164.85 63.81 M164.85 63.81 C121.32 63.39, 79.08 63.14, 15.95 63.81 M164.85 63.81 C119.93 65.01, 76.19 65.13, 15.95 63.81 M15.95 63.81 C4.49 64.09, 0.95 60.43, 0 47.86 M15.95 63.81 C5.42 63.18, 1.07 57.24, 0 47.86 M0 47.86 C1.57 39.43, 0.22 34.64, 0 15.95 M0 47.86 C0.88 40.77, 0.29 31.36, 0 15.95 M0 15.95 C1.29 5.58, 6.62 0.67, 15.95 0 M0 15.95 C1.19 5.97, 3.08 1.65, 15.95 0"
      stroke="#000000" stroke-width="2" fill="none"></path>
  </g>
  <g transform="translate(221.79761239460527 645.5098624707722) rotate(0 56.333343505859375 14.382981320644944)"><text
      x="56.33334350585938" y="22.765962641289896" font-family="Maison Neue Light" font-size="23.97163553440825px"
      fill="#000000" text-anchor="middle" style="white-space: pre;" direction="ltr">Security</text></g>
  <g stroke-linecap="round"
    transform="translate(382.9309742110115 625.5870699270732) rotate(0 90.39999389648438 31.90587152059385)">
    <path
      d="M16.42 1.32 L171.6 1.47 L176.3 5.84 L179.91 12.42 L181.39 54.79 L175.13 63.01 L165.48 63.03 L10.79 63.05 L5.58 57.96 L0.89 51.1 L0.84 10.29 L5.72 5.03 L9.82 0.27 L16.83 1.54"
      stroke="none" stroke-width="0" fill="#fff"></path>
    <path
      d="M15.95 0 M15.95 0 C66.53 0.97, 116.79 -0.62, 164.85 0 M15.95 0 C63.65 -0.6, 112.19 1.07, 164.85 0 M164.85 0 C174.7 -0.89, 181.75 6.87, 180.8 15.95 M164.85 0 C174.22 1.25, 180.42 5.59, 180.8 15.95 M180.8 15.95 C178.87 26.48, 180.49 37.92, 180.8 47.86 M180.8 15.95 C180.65 24.27, 179.78 32.57, 180.8 47.86 M180.8 47.86 C179.16 58.25, 173.8 64.4, 164.85 63.81 M180.8 47.86 C180.34 59.17, 175.74 64.1, 164.85 63.81 M164.85 63.81 C114.65 66.24, 66.93 63.4, 15.95 63.81 M164.85 63.81 C123.37 61.67, 83.46 63.54, 15.95 63.81 M15.95 63.81 C6.41 62.45, -1.18 59.68, 0 47.86 M15.95 63.81 C4.34 63.78, -0.89 60.47, 0 47.86 M0 47.86 C-0.54 36.64, 1.97 22.77, 0 15.95 M0 47.86 C0.34 36.83, -0.95 24.71, 0 15.95 M0 15.95 C0.76 3.5, 4.87 0.44, 15.95 0 M0 15.95 C-0.47 7.33, 6.37 -0.8, 15.95 0"
      stroke="#000000" stroke-width="2" fill="none"></path>
  </g>
  <g transform="translate(425.49747837157463 643.1594555264431) rotate(0 47.833489735921205 14.000045776367188)"><text
      x="47.83348973592122" y="23.00009155273437" font-family="Maison Neue Light" font-size="23.333409627278648px"
      fill="#000000" text-anchor="middle" style="white-space: pre;" direction="ltr">Logging</text></g>
  <g transform="translate(193.20884693236565 716.6987397260733) rotate(0 85 13.5)"><text x="85" y="22"
      font-family="Maison Neue Light" font-size="22.222188313802082px" fill="#000000" text-anchor="middle"
      style="white-space: pre;" direction="ltr">Custom plugin</text></g>
  <g stroke-linecap="round"
    transform="translate(386.330998625074 697.3869661673076) rotate(0 90.39999389648438 31.90587152059385)">
    <path
      d="M15.07 0.95 L173.38 -0.1 L177.9 3.66 L180.78 13.26 L178.24 56.61 L172.89 60.86 L164.79 63.31 L8.02 61.27 L5.28 60.02 L0.78 50.04 L1.28 10.58 L3.75 2.3 L9.56 0.6 L16.54 0.22"
      stroke="none" stroke-width="0" fill="#fff"></path>
    <path
      d="M15.95 0 M15.95 0 C63.98 -2.1, 110.4 -0.43, 164.85 0 M15.95 0 C48.56 -1.1, 81.75 -0.12, 164.85 0 M164.85 0 C177.27 1.09, 179.44 4.14, 180.8 15.95 M164.85 0 C176.84 -0.98, 180.77 4.43, 180.8 15.95 M180.8 15.95 C182.55 27.66, 182.48 42.49, 180.8 47.86 M180.8 15.95 C180.08 26.15, 181.19 34.61, 180.8 47.86 M180.8 47.86 C179.52 59.25, 173.67 63.36, 164.85 63.81 M180.8 47.86 C181.3 58.02, 177.49 64.87, 164.85 63.81 M164.85 63.81 C123.45 63.05, 87.63 63.6, 15.95 63.81 M164.85 63.81 C106.35 63.57, 47.05 65.39, 15.95 63.81 M15.95 63.81 C5.95 64.11, 1.38 59.4, 0 47.86 M15.95 63.81 C3.31 63.85, 1.7 58.93, 0 47.86 M0 47.86 C-1.9 38.36, 0.97 32.85, 0 15.95 M0 47.86 C-0.24 39.24, -0.65 31.21, 0 15.95 M0 15.95 C-0.59 4.81, 5.85 1.87, 15.95 0 M0 15.95 C-2.21 5.23, 5.94 -1.44, 15.95 0"
      stroke="#000000" stroke-width="2" fill="none"></path>
  </g>
  <g transform="translate(435.7309925215584 717.2928376879014) rotate(0 41 12)"><text x="41" y="19"
      font-family="Maison Neue Light" font-size="20px" fill="#000000" text-anchor="middle" style="white-space: pre;"
      direction="ltr">... ...</text></g>
  <g stroke-linecap="round"
    transform="translate(189.67384617669256 161.97856521606482) rotate(0 182.85716465541293 50.285709926060264)">
    <path
      d="M23.25 1.34 L341.08 -1.3 L353.49 0.26 L359.69 6.25 L364.05 8.45 L365.08 21.23 L365.59 73.7 L363.49 84.86 L362.91 92.6 L354.16 95.14 L340.69 101.29 L23.78 101.49 L14.73 100.37 L11.25 98.96 L3.09 92.14 L-1.09 80.6 L1.71 20.79 L2.2 12.44 L7.34 7.93 L15.52 0.95 L25.96 0.71"
      stroke="none" stroke-width="0" fill="#feffbf"></path>
    <path
      d="M25.14 0 M25.14 0 C140.11 -1.97, 254.65 -2.42, 340.57 0 M25.14 0 C108.08 2.2, 190.99 1.45, 340.57 0 M340.57 0 C359.01 -0.46, 364.07 9.7, 365.71 25.14 M340.57 0 C358.37 -0.59, 367.75 6.84, 365.71 25.14 M365.71 25.14 C366.7 41.9, 365.85 59.91, 365.71 75.43 M365.71 25.14 C365.21 40.2, 365.7 56.83, 365.71 75.43 M365.71 75.43 C365.82 91.12, 359.33 100.92, 340.57 100.57 M365.71 75.43 C363.97 92.51, 356.73 98.84, 340.57 100.57 M340.57 100.57 C259.94 103.21, 180.94 102.89, 25.14 100.57 M340.57 100.57 C216.9 101.94, 91.54 101.54, 25.14 100.57 M25.14 100.57 C6.95 100.29, -1.45 93.86, 0 75.43 M25.14 100.57 C7.61 102.47, 0.64 90.29, 0 75.43 M0 75.43 C-0.81 62.15, 0.26 49.86, 0 25.14 M0 75.43 C-1 60.9, 0.99 47.22, 0 25.14 M0 25.14 C-1.99 7.09, 7.5 -0.43, 25.14 0 M0 25.14 C-0.6 9.09, 9.2 -0.95, 25.14 0"
      stroke="#000000" stroke-width="2" fill="none"></path>
  </g>
  <g transform="translate(258.53106314795366 195.00715582711393) rotate(0 115 17)"><text x="115" y="27"
      font-family="Maison Neue Light" font-size="28px" fill="#000000" text-anchor="middle" style="white-space: pre;"
      direction="ltr">CLIENT/SERVICE</text></g>
  <g stroke-linecap="round">
    <g transform="translate(374.81671203885764 263.5499850681854) rotate(0 0.5050597899219724 103.28192668357401)">
      <path d="M-0.49 1.17 C-0.17 35.33, 0.47 171.84, 0.73 205.83 M1.45 0.73 C1.78 34.45, 0.27 169.65, 0.16 203.9"
        stroke="#000000" stroke-width="1" fill="none"></path>
    </g>
    <g transform="translate(374.81671203885764 263.5499850681854) rotate(0 0.5050597899219724 103.28192668357401)">
      <path
        d="M-7.95 176.85 C-7.03 183.15, -6.19 187.94, -0.08 202.97 M-9.38 175.93 C-5.84 184.22, -3.41 193.21, -0.51 204.13"
        stroke="#000000" stroke-width="1" fill="none"></path>
    </g>
    <g transform="translate(374.81671203885764 263.5499850681854) rotate(0 0.5050597899219724 103.28192668357401)">
      <path d="M12.57 177 C9.33 183.19, 6 187.94, -0.08 202.97 M11.14 176.08 C8.28 184.17, 4.31 193.11, -0.51 204.13"
        stroke="#000000" stroke-width="1" fill="none"></path>
    </g>
  </g>
  <g stroke-linecap="round"
    transform="translate(836.3963682179964 173.65028143588776) rotate(0 136.82029848045948 152.55686044033328)">
    <path d="M0.55 -1.77 L272.3 0.78 L274.94 305.49 L1.9 305.07" stroke="none" stroke-width="0" fill="#fe7f80"></path>
    <path
      d="M0 0.69 C85.43 1.44, 167.45 -1.41, 273.01 -1.26 M0.56 0.01 C55.99 0.53, 111.08 1.54, 274.24 0.62 M274.38 -1.04 C273.15 84.95, 271.55 171.67, 273.35 306.49 M272.99 0.43 C272.54 93.16, 272.39 186.41, 273.14 304.66 M275.08 304.81 C205.8 308, 138.71 308.43, -0.45 305.33 M274.19 304.56 C216.66 303.24, 157.78 304.37, 0.14 305.44 M-0.46 305.84 C0.67 220.48, 1.58 139.61, -0.34 1.01 M-0.34 305.75 C0.31 191.04, 0.46 77.27, 0.17 -0.37"
      stroke="#000000" stroke-width="2" fill="none"></path>
  </g>
  <g stroke-linecap="round"
    transform="translate(865.6739704268318 198.90245657822337) rotate(0 110.20951290597498 31.926026836755412)">
    <path
      d="M15.15 -1.63 L209.52 2.89 L215.21 5.44 L220.2 12.6 L217.44 53.29 L214.79 63.14 L206.04 63.48 L7.9 63.15 L5.02 58.43 L1.22 50.32 L-0.99 12.06 L3.59 5.89 L9.08 0.18 L14.52 -1.79"
      stroke="none" stroke-width="0" fill="#ffffff"></path>
    <path
      d="M15.96 0 M15.96 0 C82.87 0.7, 150.3 -1.66, 204.46 0 M15.96 0 C63.62 -1.9, 109.42 -1.08, 204.46 0 M204.46 0 C216.06 1.79, 219.84 5.6, 220.42 15.96 M204.46 0 C213.04 1.64, 218.82 6.93, 220.42 15.96 M220.42 15.96 C218.89 25.17, 221.04 31.4, 220.42 47.89 M220.42 15.96 C219.94 25.19, 219.93 32.57, 220.42 47.89 M220.42 47.89 C221.02 60.32, 214.63 65.24, 204.46 63.85 M220.42 47.89 C222.11 58.49, 213.84 62.79, 204.46 63.85 M204.46 63.85 C132.39 63.72, 58.5 62.52, 15.96 63.85 M204.46 63.85 C143.14 63.24, 81.22 63.54, 15.96 63.85 M15.96 63.85 C5.27 62.44, 1.89 58.46, 0 47.89 M15.96 63.85 C3.29 62.35, 1.1 60.36, 0 47.89 M0 47.89 C-0.96 39.37, 0.33 26.83, 0 15.96 M0 47.89 C0.14 40, 0.85 31.52, 0 15.96 M0 15.96 C0.85 4.54, 3.55 0.65, 15.96 0 M0 15.96 C1.04 6.86, 6.01 1.03, 15.96 0"
      stroke="#000" stroke-width="2" fill="none"></path>
  </g>
  <g transform="translate(909.0644283067613 203.8932950903241) rotate(0 66 27)"><text x="66" y="22"
      font-family="Maison Neue Light" font-size="22.490233310037066px" fill="#000000" text-anchor="middle"
      style="white-space: pre;" direction="ltr">Apache </text><text x="66" y="49" font-family="Maison Neue Light"
      font-size="22.490233310037066px" fill="#000000" text-anchor="middle" style="white-space: pre;"
      direction="ltr">Skywalking</text></g>
  <g stroke-linecap="round"
    transform="translate(858.0904942522275 388.73824874133516) rotate(0 111.73331360038162 32.611780795321295)">
    <path
      d="M15.47 -1.38 L212.46 -0.11 L220.04 4.4 L224.35 12.07 L222 56.54 L218.2 64.27 L206.16 65.9 L7.57 65.44 L0.43 59.01 L0.77 52 L1.26 11.81 L2.13 2.36 L7.96 2.53 L17.07 0.04"
      stroke="none" stroke-width="0" fill="#ffffff"></path>
    <path
      d="M16.31 0 M16.31 0 C91.49 -2.07, 162.84 -1.21, 207.16 0 M16.31 0 C83.67 0.83, 150.85 1.17, 207.16 0 M207.16 0 C217.25 1.71, 224.39 3.59, 223.47 16.31 M207.16 0 C216.99 -0.25, 225.42 6.15, 223.47 16.31 M223.47 16.31 C225.05 28.31, 221.72 37.53, 223.47 48.92 M223.47 16.31 C223.04 25.34, 222.4 34.86, 223.47 48.92 M223.47 48.92 C223.5 61.6, 217.22 66.57, 207.16 65.22 M223.47 48.92 C224.29 60.93, 216.59 67.5, 207.16 65.22 M207.16 65.22 C166.49 65.2, 129.5 66.58, 16.31 65.22 M207.16 65.22 C132.74 65.36, 58.11 65.91, 16.31 65.22 M16.31 65.22 C6.65 65.39, 1.32 59.86, 0 48.92 M16.31 65.22 C5.56 64.93, 1.83 59.67, 0 48.92 M0 48.92 C1.81 37.65, 0.84 29.91, 0 16.31 M0 48.92 C0.82 40.97, -0.8 31.31, 0 16.31 M0 16.31 C-0.88 6.29, 5.57 0.32, 16.31 0 M0 16.31 C-0.26 3.93, 5.07 0.49, 16.31 0"
      stroke="#000000" stroke-width="2" fill="none"></path>
  </g>
  <g transform="translate(913.6428406180198 405.9385272122808) rotate(0 68.5 14)"><text x="68.5" y="23"
      font-family="Maison Neue Light" font-size="23.333324856228266px" fill="#000000" text-anchor="middle"
      style="white-space: pre;" direction="ltr">Grafana...</text></g>
  <g stroke-linecap="round"
    transform="translate(859.2334211495488 291.5954351950182) rotate(0 111.73331360038162 33.75459870129222)">
    <path
      d="M15.04 -1.13 L205.46 -1.97 L215.11 0.64 L218.8 4.71 L224.3 14.26 L221.41 58.7 L215.27 66.37 L204.72 67.66 L17.39 66.77 L10.5 65.78 L2.28 61.58 L-0.95 56.09 L1.03 12.96 L4.13 7.46 L8.08 3.51 L16.23 -1.56"
      stroke="none" stroke-width="0" fill="#ffffff"></path>
    <path
      d="M16.88 0 M16.88 0 C73.98 -0.06, 132.91 -0.4, 206.59 0 M16.88 0 C63.36 -2.54, 108.46 -1.73, 206.59 0 M206.59 0 C219.54 0.62, 223.61 5, 223.47 16.88 M206.59 0 C216.76 1.94, 225.75 3.74, 223.47 16.88 M223.47 16.88 C224.87 28.37, 223.08 39.21, 223.47 50.63 M223.47 16.88 C223.06 28.18, 223.83 38.63, 223.47 50.63 M223.47 50.63 C222.22 63.87, 215.94 66.52, 206.59 67.51 M223.47 50.63 C223.49 60.08, 217.8 68.13, 206.59 67.51 M206.59 67.51 C138.09 68.89, 65.43 68.65, 16.88 67.51 M206.59 67.51 C157.8 67.7, 107.75 67.54, 16.88 67.51 M16.88 67.51 C7.21 67.4, -0.27 61.33, 0 50.63 M16.88 67.51 C5.85 69.49, -2.21 62.75, 0 50.63 M0 50.63 C0.12 42.76, 2.05 29.93, 0 16.88 M0 50.63 C0.22 39.79, 0.04 27.98, 0 16.88 M0 16.88 C-0.31 6.05, 4.37 0.91, 16.88 0 M0 16.88 C-1.45 6.43, 3.55 -0.23, 16.88 0"
      stroke="#000000" stroke-width="2" fill="none"></path>
  </g>
  <g transform="translate(899.5762047595747 311.0814766344812) rotate(0 68.5 14)"><text x="68.5" y="23"
      font-family="Maison Neue Light" font-size="23.33334604899088px" fill="#000000" text-anchor="middle"
      style="white-space: pre;" direction="ltr">Prometheus</text></g>
  <g stroke-opacity="0.6" fill-opacity="0.6" stroke-linecap="round"
    transform="translate(1252.5476824497719 309.0621085464878) rotate(0 134.26669983085037 58.55460175305002)">
    <path
      d="M30 -1.34 L238.96 0.45 L251.37 3.29 L262.38 5.69 L266.57 17.26 L269.22 23.46 L268.73 87.72 L266.58 100.91 L265.39 106.78 L257.57 111.96 L253.82 117.2 L240.18 116.29 L30.24 116.05 L14.55 113.36 L11.32 112.9 L3.81 105.63 L-0.83 94.37 L0.82 22.65 L4.59 11.66 L13.01 5.57 L21.52 -0.88 L28.98 1.29"
      stroke="none" stroke-width="0" fill="#fe7f80"></path>
    <path
      d="M29.28 0 M29.28 0 C86.51 -0.9, 143.91 -3.16, 239.26 0 M29.28 0 C82.26 0.71, 137.4 0.17, 239.26 0 M239.26 0 C259.9 1.57, 270.41 10.47, 268.53 29.28 M239.26 0 C260.88 1.04, 267.51 10.61, 268.53 29.28 M268.53 29.28 C270.01 50.77, 270 75.1, 268.53 87.83 M268.53 29.28 C268.17 41.59, 268.18 54.62, 268.53 87.83 M268.53 87.83 C268.57 108.33, 260.77 118.36, 239.26 117.11 M268.53 87.83 C270.19 106.25, 259 119.21, 239.26 117.11 M239.26 117.11 C187.02 117.15, 134.86 115.99, 29.28 117.11 M239.26 117.11 C172.09 117.13, 103.69 118.57, 29.28 117.11 M29.28 117.11 C9.47 115.82, 0.61 106.15, 0 87.83 M29.28 117.11 C9.19 118.83, -2.05 106.11, 0 87.83 M0 87.83 C-1.17 75.45, -0.04 62.46, 0 29.28 M0 87.83 C-0.51 70.33, -0.22 50.68, 0 29.28 M0 29.28 C-0.28 11.59, 9.45 1.64, 29.28 0 M0 29.28 C-0.94 8.63, 10 -1.73, 29.28 0"
      stroke="#000" stroke-width="2" fill="none"></path>
  </g>
  <g stroke-linecap="round"
    transform="translate(1286.1476749238504 368.7989358145103) rotate(0 100.66670735677155 20.000012715657533)">
    <path
      d="M10 0 L191.33 0 L195.71 0.63 L198.83 2.5 L200.71 5.63 L201.33 10 L201.33 30 L200.71 34.38 L198.83 37.5 L195.71 39.38 L191.33 40 L10 40 L5.63 39.38 L2.5 37.5 L0.63 34.38 L0 30 L0 10 L0.63 5.63 L2.5 2.5 L5.63 0.63 L10 0"
      stroke="none" stroke-width="0" fill="#fff"></path>
    <path
      d="M10 0 M10 0 C72.11 0, 134.23 0, 191.33 0 M10 0 C69.97 0, 129.94 0, 191.33 0 M191.33 0 C198 0, 201.33 3.33, 201.33 10 M191.33 0 C198 0, 201.33 3.33, 201.33 10 M201.33 10 C201.33 16.74, 201.33 23.47, 201.33 30 M201.33 10 C201.33 15.73, 201.33 21.45, 201.33 30 M201.33 30 C201.33 36.67, 198 40, 191.33 40 M201.33 30 C201.33 36.67, 198 40, 191.33 40 M191.33 40 C123.19 40, 55.05 40, 10 40 M191.33 40 C139.17 40, 87.01 40, 10 40 M10 40 C3.33 40, 0 36.67, 0 30 M10 40 C3.33 40, 0 36.67, 0 30 M0 30 C0 25.37, 0 20.74, 0 10 M0 30 C0 25.82, 0 21.64, 0 10 M0 10 C0 3.33, 3.33 0, 10 0 M0 10 C0 3.33, 3.33 0, 10 0"
      stroke="#000" stroke-width="2" fill="none"></path>
  </g>
  <g transform="translate(1315.314382280622 373.669271016816) rotate(0 71.5 13.5)"><text x="71.5" y="22"
      font-family="Maison Neue Light" font-size="22.264135588639963px" fill="#000000" text-anchor="middle"
      style="white-space: pre;" direction="ltr">Manager API</text></g>
  <g stroke-linecap="round">
    <g
      transform="translate(1231.7648667850387 370.3458755987938) rotate(359.68427288139605 -43.906547942289194 0.05038422700054923)">
      <path d="M-0.17 -0.77 C-14.7 -1.14, -72.32 -1.46, -86.88 -1.28 M-1.72 1.43 C-16.4 1.13, -73.18 0.38, -87.64 -0.12"
        stroke="#000000" stroke-width="1" fill="none"></path>
    </g>
    <g
      transform="translate(1231.7648667850387 370.3458755987938) rotate(359.68427288139605 -43.906547942289194 0.05038422700054923)">
      <path
        d="M-60.52 -9.14 C-69.51 -7.18, -75.97 -5.37, -88.72 -1.9 M-59.24 -9.56 C-70.14 -6.17, -80.46 -3, -88.22 0.64"
        stroke="#000000" stroke-width="1" fill="none"></path>
    </g>
    <g
      transform="translate(1231.7648667850387 370.3458755987938) rotate(359.68427288139605 -43.906547942289194 0.05038422700054923)">
      <path d="M-60.98 11.38 C-69.98 6.72, -76.29 1.92, -88.72 -1.9 M-59.7 10.96 C-70.32 6.75, -80.47 2.31, -88.22 0.64"
        stroke="#000000" stroke-width="1" fill="none"></path>
    </g>
  </g>
  <g stroke-linecap="round">
    <g transform="translate(616.5666754586357 623.2928831917903) rotate(0 104.41320159314665 -149.20888656761883)">
      <path
        d="M1.03 -0.63 C10.14 -5.56, 43.6 15.04, 55.24 -29.78 C66.88 -74.6, 45.29 -224.42, 70.86 -269.55 C96.44 -314.68, 185.49 -295.23, 208.71 -300.55 M0.12 1.66 C9.05 -3.09, 42.73 17.1, 54.5 -28.4 C66.26 -73.9, 45.06 -226.14, 70.7 -271.33 C96.35 -316.52, 185.34 -294.5, 208.37 -299.55"
        stroke="#000000" stroke-width="1" fill="none"></path>
    </g>
    <g transform="translate(616.5666754586357 623.2928831917903) rotate(0 104.41320159314665 -149.20888656761883)">
      <path
        d="M179.07 -288.82 C189.52 -291.32, 201.7 -298.63, 208.03 -298.99 M180.13 -289.59 C186.56 -291.14, 192.6 -292.9, 208.03 -299.01"
        stroke="#000000" stroke-width="1" fill="none"></path>
    </g>
    <g transform="translate(616.5666754586357 623.2928831917903) rotate(0 104.41320159314665 -149.20888656761883)">
      <path
        d="M179.2 -309.35 C189.58 -304.66, 201.71 -304.79, 208.03 -298.99 M180.26 -310.11 C186.8 -307.38, 192.81 -304.86, 208.03 -299.01"
        stroke="#000000" stroke-width="1" fill="none"></path>
    </g>
  </g>
  <g stroke-linecap="round"
    transform="translate(517.1095984322684 912.2470617329024) rotate(0 90.39999389648438 31.90587152059385)">
    <path
      d="M14.22 1.58 L171.62 -0.2 L177.7 3.68 L181.51 11.83 L181.13 54.94 L173.6 60.67 L165.4 65.09 L8.55 63.01 L2.68 60.43 L-0.51 52.29 L-0.78 10.53 L5.82 5.25 L8.71 2.51 L14.23 1.46"
      stroke="none" stroke-width="0" fill="#feffbf"></path>
    <path
      d="M15.95 0 M15.95 0 C49.06 0.86, 81.96 1.04, 164.85 0 M15.95 0 C69.57 0.48, 124.59 1.31, 164.85 0 M164.85 0 C173.75 -1.93, 181.07 7.3, 180.8 15.95 M164.85 0 C176.76 -2.02, 181.4 5.85, 180.8 15.95 M180.8 15.95 C179.46 25.58, 178.88 39.95, 180.8 47.86 M180.8 15.95 C181.49 24.56, 182.07 30.83, 180.8 47.86 M180.8 47.86 C180.47 58.03, 176.42 62.88, 164.85 63.81 M180.8 47.86 C179.9 57.02, 175.65 63.35, 164.85 63.81 M164.85 63.81 C123.91 62.71, 84.61 63.81, 15.95 63.81 M164.85 63.81 C112.52 62.73, 61.44 64.2, 15.95 63.81 M15.95 63.81 C3.71 65.73, -0.48 60.12, 0 47.86 M15.95 63.81 C4.71 64.65, 1.74 58.56, 0 47.86 M0 47.86 C-0.29 42.85, 1.24 33.75, 0 15.95 M0 47.86 C0.66 41.39, -0.43 35.86, 0 15.95 M0 15.95 C-0.52 6.04, 4.58 1.33, 15.95 0 M0 15.95 C0.65 4.01, 5.37 -2.18, 15.95 0"
      stroke="#000000" stroke-width="2" fill="none"></path>
  </g>
  <g transform="translate(91.96669987269809 931.6328911134825) rotate(0 51.66666666666666 15.121951219512198)"><text
      x="0" y="24.24390243902439" font-family="Maison Neue Light" font-size="25.20325203252033px" fill="#000000"
      text-anchor="start" style="white-space: pre;" direction="ltr">PARTNER</text></g>
  <g transform="translate(331.9954067411876 931.3423899276569) rotate(0 47.83340284559483 14.000020345052121)"><text
      x="47.83340284559482" y="23.000040690104285" font-family="Maison Neue Light" font-size="23.333367241753567px"
      fill="#000000" text-anchor="middle" style="white-space: pre;" direction="ltr">PRIVATE</text></g>
  <g transform="translate(567.4048058646066 931.0137243305586) rotate(0 41.80539608001709 14.33327865600586)"><text
      x="0" y="22.66655731201172" font-family="Maison Neue Light" font-size="23.888797760009766px" fill="#000000"
      text-anchor="start" style="white-space: pre;" direction="ltr">PUBLIC</text></g>
  <g stroke-linecap="round">
    <g transform="translate(369.82859584263394 806.0072337559292) rotate(0 -124.01612478910855 53.71827357675153)">
      <path
        d="M0.48 0.02 C-3.44 9.9, 12.6 51.29, -24.5 60.29 C-61.59 69.29, -185.2 46.02, -222.08 54.05 C-258.97 62.07, -241.55 99.44, -245.8 108.45 M-0.73 -1.01 C-4.77 9.05, 11.34 49.19, -25.71 58.62 C-62.76 68.04, -185.89 47.57, -223.04 55.54 C-260.2 63.51, -244.87 97.55, -248.66 106.43"
        stroke="#000000" stroke-width="1" fill="none"></path>
    </g>
    <g transform="translate(369.82859584263394 806.0072337559292) rotate(0 -124.01612478910855 53.71827357675153)">
      <path
        d="M-258.39 77.6 C-254.6 83.92, -253.34 92.45, -246.96 105.25 M-259.16 78.78 C-255.34 88.94, -250.81 98.88, -248.33 105.64"
        stroke="#000000" stroke-width="1" fill="none"></path>
    </g>
    <g transform="translate(369.82859584263394 806.0072337559292) rotate(0 -124.01612478910855 53.71827357675153)">
      <path
        d="M-238.11 77.87 C-238.78 84.21, -241.96 92.68, -246.96 105.25 M-238.87 79.05 C-242.25 89.23, -244.92 99.07, -248.33 105.64"
        stroke="#000000" stroke-width="1" fill="none"></path>
    </g>
  </g>
  <g stroke-linecap="round">
    <g transform="translate(369.4000244140626 804.8643068586077) rotate(0 128.22655465656487 53.00930213251621)">
      <path
        d="M0.92 -0.02 C6.07 9.73, -7.09 50.05, 31.67 59.21 C70.43 68.36, 196.38 46.93, 233.46 54.91 C270.54 62.89, 250.79 98.4, 254.14 107.1 M-0.05 -1.08 C4.94 8.28, -7.67 48.52, 31.15 57.57 C69.97 66.61, 195.61 45.29, 232.86 53.19 C270.1 61.09, 251.42 95.85, 254.61 104.97"
        stroke="#000000" stroke-width="1" fill="none"></path>
    </g>
    <g transform="translate(369.4000244140626 804.8643068586077) rotate(0 128.22655465656487 53.00930213251621)">
      <path
        d="M246.74 79.21 C251.35 88.27, 254.68 98.4, 255.97 104.74 M246.9 78.39 C249.19 88.1, 253.72 97.5, 253.96 104.04"
        stroke="#000000" stroke-width="1" fill="none"></path>
    </g>
    <g transform="translate(369.4000244140626 804.8643068586077) rotate(0 128.22655465656487 53.00930213251621)">
      <path
        d="M266 80.52 C263.54 89.24, 259.8 98.9, 255.97 104.74 M266.17 79.7 C261.36 88.84, 258.82 97.76, 253.96 104.04"
        stroke="#000000" stroke-width="1" fill="none"></path>
    </g>
  </g>
  <g stroke-linecap="round">
    <g transform="translate(370.971435546875 811.4714415413994) rotate(0 0.18717218201075525 48.89293466842008)">
      <path d="M-0.86 -0.1 C-0.68 16.08, 0.92 81.31, 1.24 98.05 M0.89 -1.2 C1 15, 0.94 82.35, 0.91 98.98"
        stroke="#000000" stroke-width="1" fill="none"></path>
    </g>
    <g transform="translate(370.971435546875 811.4714415413994) rotate(0 0.18717218201075525 48.89293466842008)">
      <path d="M-9.49 72.76 C-7.8 81.31, -0.73 89.26, 1.78 99.45 M-9.74 71.38 C-5.75 77.55, -4.03 83.77, 1.27 99.13"
        stroke="#000000" stroke-width="1" fill="none"></path>
    </g>
    <g transform="translate(370.971435546875 811.4714415413994) rotate(0 0.18717218201075525 48.89293466842008)">
      <path d="M11.03 72.78 C6.28 81.18, 6.9 89.12, 1.78 99.45 M10.78 71.4 C10.1 77.47, 7.15 83.68, 1.27 99.13"
        stroke="#000000" stroke-width="1" fill="none"></path>
    </g>
  </g>
  <g stroke-linecap="round"
    transform="translate(1150.7227051467726 608.7716716423607) rotate(0 259.67744133760254 50.84255728743145)">
    <path
      d="M27.18 -1.35 L497.99 -0.4 L508.27 4.98 L513.69 6.24 L517.04 14.49 L518.76 26.01 L520.3 83.98 L516.76 87.98 L511.23 95.27 L504.13 98.43 L495.92 101.43 L17.57 100.63 L13.83 101.35 L7.84 95.63 L2.25 87.11 L1.42 77.25 L-1.95 26.92 L2.62 14.64 L5.62 6.41 L12.61 1.98 L24.12 0.02"
      stroke="none" stroke-width="0" fill="#fe7f80"></path>
    <path
      d="M25.42 0 M25.42 0 C122.37 -1.7, 217.6 -1.61, 493.93 0 M25.42 0 C123.84 0.18, 221.54 0.34, 493.93 0 M493.93 0 C510.8 -0.65, 519.79 9.99, 519.35 25.42 M493.93 0 C510.33 0.9, 517.53 8.17, 519.35 25.42 M519.35 25.42 C520.04 42.09, 517.71 56.86, 519.35 76.26 M519.35 25.42 C518.7 37.9, 519.58 50.42, 519.35 76.26 M519.35 76.26 C518.58 93.05, 511.79 102.16, 493.93 101.69 M519.35 76.26 C519.53 93.6, 509.92 103.57, 493.93 101.69 M493.93 101.69 C380.41 102.1, 267.1 101.9, 25.42 101.69 M493.93 101.69 C388.28 103.33, 282.3 103.05, 25.42 101.69 M25.42 101.69 C8.71 100.32, 1.39 95.2, 0 76.26 M25.42 101.69 C7.41 103.48, 0.85 92.04, 0 76.26 M0 76.26 C0.29 58.75, 2.24 38.64, 0 25.42 M0 76.26 C-0.59 64.99, 0.09 55.57, 0 25.42 M0 25.42 C1.04 8.15, 10.1 -0.06, 25.42 0 M0 25.42 C0.53 10.26, 6.71 1.51, 25.42 0"
      stroke="#000000" stroke-width="2" fill="none"></path>
  </g>
  <g stroke-linecap="round"
    transform="translate(1174.2858472551616 628.766683873145) rotate(0 67.35237004883209 30.326035992028835)">
    <path
      d="M13.26 -0.8 L125.02 2.35 L133.26 5.81 L133.74 11.8 L133.16 52.71 L130.12 60.27 L118.54 61.25 L6.76 59.65 L2.86 55.19 L2.22 48.78 L-1.65 10.95 L3.32 5.05 L10.01 1.24 L15.82 -0.28"
      stroke="none" stroke-width="0" fill="#ffffff"></path>
    <path
      d="M15.16 0 M15.16 0 C55.38 2.05, 92.95 0.28, 119.54 0 M15.16 0 C46.13 -0.19, 77.45 -1.05, 119.54 0 M119.54 0 C131.33 1.11, 134.89 3.46, 134.7 15.16 M119.54 0 C130.07 -2.09, 133.69 5.16, 134.7 15.16 M134.7 15.16 C136.79 26.91, 134.24 39.25, 134.7 45.49 M134.7 15.16 C133.84 26.43, 134.77 38.41, 134.7 45.49 M134.7 45.49 C135.16 56.06, 130.38 58.79, 119.54 60.65 M134.7 45.49 C134.19 54.17, 127.7 58.51, 119.54 60.65 M119.54 60.65 C92.15 60.56, 61.33 62.25, 15.16 60.65 M119.54 60.65 C85.34 61.65, 51.39 61.74, 15.16 60.65 M15.16 60.65 C6.04 59.9, -1.38 54.58, 0 45.49 M15.16 60.65 C2.95 58.95, 2.02 57.42, 0 45.49 M0 45.49 C-1.4 34.49, -1.34 24.41, 0 15.16 M0 45.49 C0.51 32.87, 0.76 20.44, 0 15.16 M0 15.16 C1.13 4.93, 5.94 1.81, 15.16 0 M0 15.16 C-0.95 2.83, 3.98 -0.02, 15.16 0"
      stroke="#000000" stroke-width="2" fill="none"></path>
  </g>
  <g transform="translate(1211.4383087158203 645.4909259090086) rotate(0 28.722192340427 14.666651407877623)"><text
      x="0" y="23.333302815755218" font-family="Maison Neue Light" font-size="24.444419013129345px" fill="#000000"
      text-anchor="start" style="white-space: pre;" direction="ltr">etcd</text></g>
  <g stroke-linecap="round"
    transform="translate(1341.6192050069715 629.0024176168928) rotate(0 67.35237004883209 30.326035992028835)">
    <path
      d="M15.03 1.88 L127.25 -0.36 L133.83 4.32 L132.98 11.84 L135.58 50.49 L130.19 58.22 L118.41 62.19 L10.03 61.11 L4.34 55.62 L1.65 49.8 L2.16 11.61 L2.41 4.09 L9.45 -0.66 L16.64 1.71"
      stroke="none" stroke-width="0" fill="#ffffff"></path>
    <path
      d="M15.16 0 M15.16 0 C39.58 1.2, 59.07 -0.65, 119.54 0 M15.16 0 C48.13 1.22, 82.43 0.3, 119.54 0 M119.54 0 C131.01 0.78, 135.46 5.99, 134.7 15.16 M119.54 0 C127.99 2.24, 133.39 5.53, 134.7 15.16 M134.7 15.16 C135.08 22.23, 135.14 31.96, 134.7 45.49 M134.7 15.16 C135.36 22.6, 135.03 29.65, 134.7 45.49 M134.7 45.49 C133.44 54.54, 130.06 60.82, 119.54 60.65 M134.7 45.49 C135.57 56.41, 129.19 58.42, 119.54 60.65 M119.54 60.65 C91.3 60.14, 60.34 59.66, 15.16 60.65 M119.54 60.65 C82.74 62.22, 46.31 60.48, 15.16 60.65 M15.16 60.65 C3.62 61.39, -1.76 55.31, 0 45.49 M15.16 60.65 C4.02 61.92, 1.1 54.49, 0 45.49 M0 45.49 C1.52 36.74, 0.6 27.97, 0 15.16 M0 45.49 C1 35, 1.02 26.36, 0 15.16 M0 15.16 C-1.58 4.29, 3.28 1.86, 15.16 0 M0 15.16 C-1.45 4.91, 5.03 -0.23, 15.16 0"
      stroke="#000000" stroke-width="2" fill="none"></path>
  </g>
  <g transform="translate(1380.7715647423697 644.3933466644753) rotate(0 28.194474538167356 14.397178487574848)"><text
      x="0" y="22.794356975149675" font-family="Maison Neue Light" font-size="23.9952974792914px" fill="#000000"
      text-anchor="start" style="white-space: pre;" direction="ltr">etcd</text></g>
  <g stroke-linecap="round"
    transform="translate(1511.6192922000516 630.145300917674) rotate(0 67.35237004883209 30.326035992028835)">
    <path
      d="M16.32 -1.58 L125.41 -0.82 L134.44 4.66 L134.34 11.59 L133.55 50.55 L130.4 59.72 L120.04 61.05 L9.1 58.96 L4.44 55.32 L0.22 47.42 L0.27 12.89 L2 5.46 L10.11 1.37 L15.88 -0.87"
      stroke="none" stroke-width="0" fill="#ffffff"></path>
    <path
      d="M15.16 0 M15.16 0 C42.59 -1.61, 71 0.09, 119.54 0 M15.16 0 C40.33 0.62, 66.38 0.72, 119.54 0 M119.54 0 C130.32 -1.05, 133.33 3.28, 134.7 15.16 M119.54 0 C129.92 1.89, 136.36 3.62, 134.7 15.16 M134.7 15.16 C135.46 21.32, 135.04 30.42, 134.7 45.49 M134.7 15.16 C135.39 22.9, 134.66 31.55, 134.7 45.49 M134.7 45.49 C135.18 56.86, 127.89 61.99, 119.54 60.65 M134.7 45.49 C134.97 55.94, 129.11 60.59, 119.54 60.65 M119.54 60.65 C84.21 58.05, 48.01 61.64, 15.16 60.65 M119.54 60.65 C93 60.84, 64.43 59.81, 15.16 60.65 M15.16 60.65 C4.71 61.51, -1.05 55.87, 0 45.49 M15.16 60.65 C3.23 61.89, 0.06 57.37, 0 45.49 M0 45.49 C-1.54 35.71, -1.49 24.74, 0 15.16 M0 45.49 C-0.65 33.71, -0.49 21.99, 0 15.16 M0 15.16 C1.96 5.95, 5 1.12, 15.16 0 M0 15.16 C-1.48 4.75, 6.07 -0.31, 15.16 0"
      stroke="#000000" stroke-width="2" fill="none"></path>
  </g>
  <g transform="translate(1552.7717943508144 645.5360773773659) rotate(0 26.166727701822992 13.36173329454789)"><text
      x="0" y="21.723466589095796" font-family="Maison Neue Light" font-size="22.26955549091316px" fill="#000000"
      text-anchor="start" style="white-space: pre;" direction="ltr">etcd</text></g>
  <g stroke-linecap="round">
    <g transform="translate(1387.421306528366 452.65359129870205) rotate(0 -0.5567003290409502 66.5588251598515)">
      <path d="M0.65 -0.89 C0.64 21.04, -0.8 110.24, -1.11 132.38 M-0.46 1.25 C-0.49 23.34, -1.57 112.03, -1.77 134.01"
        stroke="#000000" stroke-width="1" fill="none"></path>
    </g>
    <g transform="translate(1387.421306528366 452.65359129870205) rotate(0 -0.5567003290409502 66.5588251598515)">
      <path
        d="M-13.21 106.63 C-9.12 112.5, -7.72 117.05, 0.17 134.28 M-11.43 106.07 C-8.45 113.84, -7.09 121.53, -2.18 134.92"
        stroke="#000000" stroke-width="1" fill="none"></path>
    </g>
    <g transform="translate(1387.421306528366 452.65359129870205) rotate(0 -0.5567003290409502 66.5588251598515)">
      <path d="M7.31 106.84 C7.03 112.78, 4.07 117.29, 0.17 134.28 M9.09 106.29 C6.04 113.9, 1.37 121.52, -2.18 134.92"
        stroke="#000000" stroke-width="1" fill="none"></path>
    </g>
  </g>
  <g stroke-linecap="round">
    <g transform="translate(1138.971487862723 663.8998996189663) rotate(0 -256.2119970124601 -0.15875912457704544)">
      <path d="M-0.47 0.51 C-85.98 0.55, -427.95 -0.8, -513.42 -0.83 M1.49 -0.27 C-84.07 0, -428.08 0.53, -513.91 0.28"
        stroke="#000000" stroke-width="1" fill="none"></path>
    </g>
    <g transform="translate(1138.971487862723 663.8998996189663) rotate(0 -256.2119970124601 -0.15875912457704544)">
      <path
        d="M-484.87 -8.53 C-494.83 -5.62, -500.51 -2.8, -514.4 0.07 M-486.48 -10.91 C-495.49 -6.03, -506.46 -2.44, -514.21 0.24"
        stroke="#000000" stroke-width="1" fill="none"></path>
    </g>
    <g transform="translate(1138.971487862723 663.8998996189663) rotate(0 -256.2119970124601 -0.15875912457704544)">
      <path
        d="M-484.88 11.99 C-494.65 9.34, -500.33 6.6, -514.4 0.07 M-486.49 9.62 C-495.58 6.65, -506.54 2.41, -514.21 0.24"
        stroke="#000000" stroke-width="1" fill="none"></path>
    </g>
  </g>
  <g transform="translate(253.16208902994913 35.25714656284882) rotate(0 123 17)"><text x="123" y="27"
      font-family="Maison Neue Light" font-size="28px" fill="#fff" text-anchor="middle" style="white-space: pre;"
      direction="ltr">Data Plane (DP)</text></g>
  <g stroke-linecap="round" transform="translate(1013.9999694824221 10) rotate(0 182.85716465541293 37.14284351893835)">
    <path d="M1.57 0.27 L367.42 -1.34 L366.6 72.8 L-1.21 72.58" stroke="none" stroke-width="0" fill="#2864a7"></path>
    <path
      d="M0.17 1.01 C104.15 -1.72, 208.04 -1.61, 366.17 -0.09 M0.35 -0.04 C136.43 -2.24, 272.04 -1.41, 365.93 -0.1 M366.85 -1.9 C365.52 14.73, 365.84 33.65, 364.52 74.3 M365.87 -0.71 C366.49 20.61, 365.59 43.4, 366.58 74.19 M366.58 74.8 C242.86 74.32, 120.33 73.16, 0.04 73.36 M366.22 74.58 C286.91 76.5, 209.32 75.88, -0.25 74.12 M-0.77 74.53 C-2.02 57.15, -0.01 42.86, -1.83 1.17 M-0.97 74.71 C-0.57 45.7, -0.94 18.67, 0.13 0.79"
      stroke="#fff" stroke-width="2" fill="none"></path>
  </g>
  <g transform="translate(1053.785618373326 28.85714612688338) rotate(0 147.5 17)"><text x="147.5" y="27"
      font-family="Maison Neue Light" font-size="28px" fill="#fff" text-anchor="middle" style="white-space: pre;"
      direction="ltr">Control Plane (CP)</text></g>
  <g stroke-opacity="0.6" fill-opacity="0.6" stroke-linecap="round"
    transform="translate(1284.0520016384794 170.77006758655634) rotate(0 93.066677451293 46.42128825614247)">
    <path
      d="M21.82 -1.51 L164.2 1.89 L178.78 3.3 L180.96 10.04 L185.09 18.64 L187 70.78 L181.49 83.47 L177.7 89.62 L163.88 91.43 L22.7 94.57 L8.81 90.65 L3.92 82.42 L-1.17 73.11 L-1.2 19.42 L4.01 10.88 L9.3 1.28 L23.47 0.11"
      stroke="none" stroke-width="0" fill="#b6bbc0"></path>
    <path
      d="M23.21 0 M23.21 0 C66.81 -0.28, 116.26 1.1, 162.92 0 M23.21 0 C66.64 0.16, 110.3 0.29, 162.92 0 M162.92 0 C180.32 0.13, 186.9 6.82, 186.13 23.21 M162.92 0 C176.49 -2.23, 185.21 6.57, 186.13 23.21 M186.13 23.21 C184.7 34.48, 184.82 41.87, 186.13 69.63 M186.13 23.21 C186.3 37.8, 186.85 51.7, 186.13 69.63 M186.13 69.63 C186.11 86.95, 179.87 92.54, 162.92 92.84 M186.13 69.63 C187.14 83.96, 177.55 92.23, 162.92 92.84 M162.92 92.84 C122.04 94.74, 81.65 94.6, 23.21 92.84 M162.92 92.84 C123.98 91.52, 85.84 91.74, 23.21 92.84 M23.21 92.84 C8.58 90.93, 1.37 86.81, 0 69.63 M23.21 92.84 C6.7 90.77, 1.03 85.96, 0 69.63 M0 69.63 C1.6 49.81, 0.38 34.35, 0 23.21 M0 69.63 C-1.23 58.69, -0.29 47.31, 0 23.21 M0 23.21 C-1.92 6.91, 8.9 -1.7, 23.21 0 M0 23.21 C1.43 5.81, 5.8 -0.51, 23.21 0"
      stroke="#000" stroke-width="2" fill="none"></path>
  </g>
  <g transform="translate(1319.1188723677676 180.64592973407807) rotate(0 57.5 33.5)"><text x="57.5" y="27.5"
      font-family="Maison Neue Light" font-size="28px" fill="#fff" text-anchor="middle" style="white-space: pre;"
      direction="ltr">$ _</text><text x="57.5" y="61" font-family="Maison Neue Light" font-size="28px" fill="#fff"
      text-anchor="middle" style="white-space: pre;" direction="ltr">CLI/API</text></g>
  <g stroke-linecap="round">
    <g transform="translate(1379.816215577982 275.4013488013094) rotate(0 -0.36353556795972963 12.027561892445917)">
      <path d="M0 0 C-0.12 4.01, -0.61 20.05, -0.73 24.06 M0 0 C-0.12 4.01, -0.61 20.05, -0.73 24.06" stroke="#000"
        stroke-width="2" fill="none"></path>
    </g>
    <g transform="translate(1379.816215577982 275.4013488013094) rotate(0 -0.36353556795972963 12.027561892445917)">
      <path d="M-4.5 12.63 C-3.38 16.02, -2.26 19.42, -0.73 24.06 M-4.5 12.63 C-3.65 15.2, -2.8 17.78, -0.73 24.06"
        stroke="#000" stroke-width="2" fill="none"></path>
    </g>
    <g transform="translate(1379.816215577982 275.4013488013094) rotate(0 -0.36353556795972963 12.027561892445917)">
      <path d="M3.73 12.88 C2.41 16.2, 1.08 19.52, -0.73 24.06 M3.73 12.88 C2.72 15.39, 1.72 17.91, -0.73 24.06"
        stroke="#000" stroke-width="2" fill="none"></path>
    </g>
  </g>
  <g stroke-linecap="round"
    transform="translate(1324.4832174106034 326.5940875506142) rotate(0 62.33116487001871 15.148535320906376)">
    <path
      d="M5.59 0.48 L121.96 1.02 L124.16 5 L122.6 27.33 L121.23 26.98 L116.04 30.66 L4.95 30.92 L-0.31 27.12 L1.52 9.38 L0.75 3.02 L7 0.57"
      stroke="none" stroke-width="0" fill="#fff"></path>
    <path
      d="M7.57 0 M7.57 0 C46.46 0.79, 87.86 -1.8, 117.09 0 M7.57 0 C37.62 -1.14, 68.66 -1.25, 117.09 0 M117.09 0 C120.28 0.67, 126.4 2.8, 124.66 7.57 M117.09 0 C123.75 -1.31, 126.48 3.18, 124.66 7.57 M124.66 7.57 C123.51 12.59, 125.57 18.87, 124.66 22.72 M124.66 7.57 C123.98 11.12, 124.37 14.54, 124.66 22.72 M124.66 22.72 C123.54 28.15, 123.91 28.81, 117.09 30.3 M124.66 22.72 C122.57 26.86, 121.63 28.56, 117.09 30.3 M117.09 30.3 C86.81 31.48, 55.82 30.95, 7.57 30.3 M117.09 30.3 C93.12 29.82, 68.21 30.49, 7.57 30.3 M7.57 30.3 C2.52 29.33, -0.01 27.18, 0 22.72 M7.57 30.3 C4.38 29, -2.23 26.16, 0 22.72 M0 22.72 C1 18.84, -1.07 10.82, 0 7.57 M0 22.72 C0.46 19.01, 0.46 15.35, 0 7.57 M0 7.57 C1.63 3.02, 3.61 -1.88, 7.57 0 M0 7.57 C-0.91 0.33, 4.45 -0.03, 7.57 0"
      stroke="#000" stroke-width="2" fill="none"></path>
  </g>
  <g transform="translate(1333.1869171110786 329.5759097349055) rotate(0 53 12)"><text x="53" y="19"
      font-family="Maison Neue Light" font-size="20px" fill="#000000" text-anchor="middle" style="white-space: pre;"
      direction="ltr">Dashboard</text></g>
</svg>