<svg version="1.1" xmlns="http://www.w3.org/2000/svg" viewBox="0 0 560.2300429146435 260" width="560.2300429146435"
    height="100%">
    <!-- svg-source:excalidraw -->

    <defs>
        <style>
            @font-face {
                font-family: "Virgil";
                src: url("https://excalidraw.com/Virgil.woff2");
            }

            @font-face {
                font-family: "Cascadia";
                src: url("https://excalidraw.com/Cascadia.woff2");
            }
        </style>
    </defs>
    <rect x="0" y="0" width="560.2300429146435" height="260" fill="#ffffff"></rect>
    <g stroke-linecap="round" transform="translate(10 10) rotate(0 120 120)">
        <path d="M0 0 L240 0 L240 240 L0 240" stroke="none" stroke-width="0" fill="#15aabf"></path>
        <path
            d="M0 0 C53.82 0, 107.64 0, 240 0 M0 0 C66.69 0, 133.37 0, 240 0 M240 0 C240 92.55, 240 185.09, 240 240 M240 0 C240 79.71, 240 159.43, 240 240 M240 240 C189.34 240, 138.68 240, 0 240 M240 240 C151.49 240, 62.97 240, 0 240 M0 240 C0 159.86, 0 79.71, 0 0 M0 240 C0 158.89, 0 77.79, 0 0"
            stroke="#000000" stroke-width="2" fill="none"></path>
    </g>
    <g stroke-linecap="round">
        <g transform="translate(134.22605251847926 66.1380620265204) rotate(0 34.24789151702794 54.60908076916803)"
            fill-rule="evenodd">
            <path
                d="M9.01 0.21 L50.66 -0.08 L41.91 41.45 L71.85 41.26 L12.53 109.3 L25.62 47.38 L-3.35 47.81 L9.01 0.21"
                stroke="none" stroke-width="0" fill="#15aabf" fill-rule="evenodd"></path>
            <path
                d="M9.01 0.21 C22.6 0.12, 36.19 0.02, 50.66 -0.08 M9.01 0.21 C17.9 0.15, 26.79 0.09, 50.66 -0.08 M50.66 -0.08 C47.82 13.36, 44.99 26.8, 41.91 41.45 M50.66 -0.08 C48.41 10.58, 46.17 21.23, 41.91 41.45 M41.91 41.45 C52.46 41.38, 63.01 41.31, 71.85 41.26 M41.91 41.45 C48.52 41.41, 55.14 41.36, 71.85 41.26 M71.85 41.26 C56.19 59.22, 40.53 77.18, 12.53 109.3 M71.85 41.26 C55.18 60.38, 38.5 79.51, 12.53 109.3 M12.53 109.3 C15.86 93.54, 19.19 77.78, 25.62 47.38 M12.53 109.3 C16.76 89.29, 20.99 69.27, 25.62 47.38 M25.62 47.38 C18.3 47.49, 10.98 47.6, -3.35 47.81 M25.62 47.38 C15.27 47.53, 4.93 47.69, -3.35 47.81 M-3.35 47.81 C0.44 33.22, 4.23 18.62, 9.01 0.21 M-3.35 47.81 C0.71 32.16, 4.78 16.5, 9.01 0.21 M9.01 0.21 C9.01 0.21, 9.01 0.21, 9.01 0.21 M9.01 0.21 C9.01 0.21, 9.01 0.21, 9.01 0.21"
                stroke="#000000" stroke-width="2" fill="none"></path>
        </g>
    </g>
    <g stroke-linecap="round">
        <g transform="translate(85.19949877147155 49.61997378110664) rotate(0 25.341574939302063 23.45791532671501)">
            <path
                d="M80.96 5.55 C78.07 4.74, 70.51 1.97, 63.61 0.7 C56.7 -0.57, 48.51 -1.99, 39.53 -2.07 C30.54 -2.15, 18.73 -1.29, 9.7 0.22 C0.67 1.72, -9.05 4.92, -14.63 6.97 C-20.22 9.02, -21.44 10.66, -23.79 12.52 C-26.14 14.39, -27.67 15.9, -28.73 18.17 C-29.79 20.43, -30.65 23.61, -30.12 26.11 C-29.6 28.62, -28.11 30.79, -25.59 33.21 C-23.08 35.63, -19.27 38.62, -15.06 40.65 C-10.85 42.68, -5.36 44.2, -0.33 45.42 C4.7 46.63, 9.63 47.33, 15.1 47.92 C20.57 48.52, 27.27 48.95, 32.49 48.98 C37.71 49.01, 44.11 48.25, 46.44 48.1 M80.96 5.55 C78.07 4.74, 70.51 1.97, 63.61 0.7 C56.7 -0.57, 48.51 -1.99, 39.53 -2.07 C30.54 -2.15, 18.73 -1.29, 9.7 0.22 C0.67 1.72, -9.05 4.92, -14.63 6.97 C-20.22 9.02, -21.44 10.66, -23.79 12.52 C-26.14 14.39, -27.67 15.9, -28.73 18.17 C-29.79 20.43, -30.65 23.61, -30.12 26.11 C-29.6 28.62, -28.11 30.79, -25.59 33.21 C-23.08 35.63, -19.27 38.62, -15.06 40.65 C-10.85 42.68, -5.36 44.2, -0.33 45.42 C4.7 46.63, 9.63 47.33, 15.1 47.92 C20.57 48.52, 27.27 48.95, 32.49 48.98 C37.71 49.01, 44.11 48.25, 46.44 48.1"
                stroke="#000000" stroke-width="2" fill="none"></path>
        </g>
    </g>
    <g stroke-linecap="round">
        <g transform="translate(55.70581233279836 72.21365310241572) rotate(0 -0.27989830097453705 57.98947198115275)">
            <path d="M0 0 C-0.09 19.33, -0.47 96.65, -0.56 115.98 M0 0 C-0.09 19.33, -0.47 96.65, -0.56 115.98"
                stroke="#000000" stroke-width="2" fill="none"></path>
        </g>
    </g>
    <g stroke-linecap="round">
        <g transform="translate(54.51221743440783 186.91941475837257) rotate(0 66.98914652324993 12.763306955602275)">
            <path
                d="M0 0 C0.26 0.94, 0.38 3.75, 1.57 5.66 C2.76 7.56, 4.55 9.48, 7.14 11.43 C9.74 13.38, 13.11 15.6, 17.16 17.36 C21.21 19.12, 26.57 20.77, 31.45 22 C36.33 23.23, 40.87 24.16, 46.45 24.75 C52.02 25.34, 58.45 25.5, 64.9 25.52 C71.34 25.54, 78.85 25.48, 85.11 24.87 C91.37 24.27, 96.88 23.33, 102.46 21.9 C108.04 20.47, 114.12 18.33, 118.58 16.28 C123.04 14.23, 126.64 12.19, 129.21 9.6 C131.77 7.01, 133.18 2.21, 133.98 0.73 M0 0 C0.26 0.94, 0.38 3.75, 1.57 5.66 C2.76 7.56, 4.55 9.48, 7.14 11.43 C9.74 13.38, 13.11 15.6, 17.16 17.36 C21.21 19.12, 26.57 20.77, 31.45 22 C36.33 23.23, 40.87 24.16, 46.45 24.75 C52.02 25.34, 58.45 25.5, 64.9 25.52 C71.34 25.54, 78.85 25.48, 85.11 24.87 C91.37 24.27, 96.88 23.33, 102.46 21.9 C108.04 20.47, 114.12 18.33, 118.58 16.28 C123.04 14.23, 126.64 12.19, 129.21 9.6 C131.77 7.01, 133.18 2.21, 133.98 0.73"
                stroke="#000000" stroke-width="2" fill="none"></path>
        </g>
    </g>
    <g stroke-linecap="round">
        <g
            transform="translate(188.62128825022728 188.03007082069007) rotate(0 -0.1478232046604262 -26.916454168057044)">
            <path d="M0 0 C-0.05 -8.97, -0.25 -44.86, -0.3 -53.83 M0 0 C-0.05 -8.97, -0.25 -44.86, -0.3 -53.83"
                stroke="#000000" stroke-width="2" fill="none"></path>
        </g>
    </g>
    <g stroke-linecap="round">
        <g transform="translate(54.990156306127574 103.20585825425997) rotate(0 39.329495157358906 11.930904715160523)">
            <path
                d="M0 0 C0.35 1.03, 0.57 4.06, 2.13 6.15 C3.68 8.25, 6.16 10.42, 9.31 12.55 C12.47 14.68, 17.08 17.49, 21.04 18.94 C24.99 20.4, 28.55 20.49, 33.03 21.29 C37.51 22.08, 42.62 23.36, 47.92 23.73 C53.23 24.1, 59.75 23.58, 64.87 23.52 C69.99 23.46, 76.36 23.4, 78.66 23.37 M0 0 C0.35 1.03, 0.57 4.06, 2.13 6.15 C3.68 8.25, 6.16 10.42, 9.31 12.55 C12.47 14.68, 17.08 17.49, 21.04 18.94 C24.99 20.4, 28.55 20.49, 33.03 21.29 C37.51 22.08, 42.62 23.36, 47.92 23.73 C53.23 24.1, 59.75 23.58, 64.87 23.52 C69.99 23.46, 76.36 23.4, 78.66 23.37"
                stroke="#000000" stroke-width="2" fill="none"></path>
        </g>
    </g>
    <g stroke-linecap="round">
        <g transform="translate(54.568723232773664 115.60570975235942) rotate(0 44.30596045930474 12.617730649237728)">
            <path
                d="M0 0 C0.28 1.07, 0.27 4.28, 1.69 6.42 C3.12 8.56, 5.22 10.71, 8.57 12.85 C11.92 14.99, 16.84 17.52, 21.81 19.25 C26.78 20.99, 32.44 22.25, 38.39 23.24 C44.33 24.23, 51.28 24.96, 57.48 25.18 C63.69 25.4, 70.44 24.96, 75.63 24.55 C80.82 24.13, 86.45 23, 88.61 22.69 M0 0 C0.28 1.07, 0.27 4.28, 1.69 6.42 C3.12 8.56, 5.22 10.71, 8.57 12.85 C11.92 14.99, 16.84 17.52, 21.81 19.25 C26.78 20.99, 32.44 22.25, 38.39 23.24 C44.33 24.23, 51.28 24.96, 57.48 25.18 C63.69 25.4, 70.44 24.96, 75.63 24.55 C80.82 24.13, 86.45 23, 88.61 22.69"
                stroke="#000000" stroke-width="2" fill="none"></path>
        </g>
    </g>
    <g stroke-linecap="round">
        <g transform="translate(54.758745601903684 146.05552410621885) rotate(0 43.969610415253555 12.021401922491577)">
            <path
                d="M0 0 C0.33 1.04, 0.67 4.19, 1.97 6.23 C3.28 8.27, 4.54 10.05, 7.83 12.24 C11.12 14.43, 16.38 17.62, 21.71 19.36 C27.04 21.09, 34.08 21.9, 39.82 22.67 C45.55 23.44, 50.12 23.82, 56.15 23.98 C62.17 24.14, 70.65 23.99, 75.95 23.64 C81.25 23.28, 85.94 22.14, 87.94 21.85 M0 0 C0.33 1.04, 0.67 4.19, 1.97 6.23 C3.28 8.27, 4.54 10.05, 7.83 12.24 C11.12 14.43, 16.38 17.62, 21.71 19.36 C27.04 21.09, 34.08 21.9, 39.82 22.67 C45.55 23.44, 50.12 23.82, 56.15 23.98 C62.17 24.14, 70.65 23.99, 75.95 23.64 C81.25 23.28, 85.94 22.14, 87.94 21.85"
                stroke="#000000" stroke-width="2" fill="none"></path>
        </g>
    </g>
    <g stroke-linecap="round">
        <g transform="translate(53.92429406228621 158.87397086761348) rotate(0 67.59893526090491 12.071102886700146)">
            <path
                d="M0 1.93 C0.68 3, 1.75 6.16, 4.06 8.33 C6.38 10.5, 10.29 13.18, 13.89 14.96 C17.5 16.73, 19.87 17.42, 25.68 18.97 C31.49 20.52, 41.23 23.32, 48.77 24.25 C56.32 25.19, 63.98 24.83, 70.95 24.58 C77.93 24.33, 84.5 23.62, 90.61 22.77 C96.72 21.91, 102.11 21.04, 107.62 19.47 C113.13 17.89, 119.6 15.48, 123.65 13.3 C127.7 11.12, 130 8.74, 131.92 6.4 C133.85 4.07, 134.65 0.47, 135.2 -0.72 M0 1.93 C0.68 3, 1.75 6.16, 4.06 8.33 C6.38 10.5, 10.29 13.18, 13.89 14.96 C17.5 16.73, 19.87 17.42, 25.68 18.97 C31.49 20.52, 41.23 23.32, 48.77 24.25 C56.32 25.19, 63.98 24.83, 70.95 24.58 C77.93 24.33, 84.5 23.62, 90.61 22.77 C96.72 21.91, 102.11 21.04, 107.62 19.47 C113.13 17.89, 119.6 15.48, 123.65 13.3 C127.7 11.12, 130 8.74, 131.92 6.4 C133.85 4.07, 134.65 0.47, 135.2 -0.72"
                stroke="#000000" stroke-width="2" fill="none"></path>
        </g>
    </g>
    <g stroke-linecap="round">
        <g transform="translate(167.75774745592662 152.02913749761865) rotate(0 9.990607142280624 2.9846277695303343)">
            <path
                d="M0 9.51 C2.41 8.18, 11.16 3.72, 14.49 1.55 C17.82 -0.62, 19.07 -2.69, 19.98 -3.54 M0 9.51 C2.41 8.18, 11.16 3.72, 14.49 1.55 C17.82 -0.62, 19.07 -2.69, 19.98 -3.54"
                stroke="#000000" stroke-width="2" fill="none"></path>
        </g>
    </g>
    <g stroke-linecap="round">
        <g transform="translate(66.45999761448002 96.68203319670965) rotate(0 8.136712909308244 8.410327713960442)"
            fill-rule="evenodd">
            <path d="M0.4 0 L16.42 6.33 L15.98 16.82 L-0.15 10.55 L0.4 0" stroke="none" stroke-width="0" fill="#15aabf"
                fill-rule="evenodd"></path>
            <path
                d="M0.4 0 C4.85 1.76, 9.3 3.52, 16.42 6.33 M0.4 0 C6.58 2.44, 12.76 4.88, 16.42 6.33 M16.42 6.33 C16.28 9.81, 16.13 13.3, 15.98 16.82 M16.42 6.33 C16.33 8.54, 16.24 10.76, 15.98 16.82 M15.98 16.82 C10.03 14.51, 4.08 12.19, -0.15 10.55 M15.98 16.82 C10.6 14.73, 5.21 12.63, -0.15 10.55 M-0.15 10.55 C0.04 6.98, 0.22 3.42, 0.4 0 M-0.15 10.55 C0 7.66, 0.15 4.77, 0.4 0 M0.4 0 C0.4 0, 0.4 0, 0.4 0 M0.4 0 C0.4 0, 0.4 0, 0.4 0"
                stroke="#000000" stroke-width="2" fill="none"></path>
        </g>
    </g>
    <g stroke-linecap="round">
        <g transform="translate(66.66688523465746 140.24161620517725) rotate(0 8.136712909308244 8.410327713960442)"
            fill-rule="evenodd">
            <path d="M0.4 0 L16.42 6.33 L15.98 16.82 L-0.15 10.55 L0.4 0" stroke="none" stroke-width="0" fill="#15aabf"
                fill-rule="evenodd"></path>
            <path
                d="M0.4 0 C3.82 1.35, 7.24 2.7, 16.42 6.33 M0.4 0 C5.59 2.05, 10.77 4.09, 16.42 6.33 M16.42 6.33 C16.31 9.02, 16.2 11.71, 15.98 16.82 M16.42 6.33 C16.27 10.02, 16.11 13.72, 15.98 16.82 M15.98 16.82 C12.42 15.43, 8.86 14.05, -0.15 10.55 M15.98 16.82 C11.72 15.16, 7.47 13.51, -0.15 10.55 M-0.15 10.55 C0.01 7.58, 0.16 4.62, 0.4 0 M-0.15 10.55 C-0.01 7.86, 0.13 5.18, 0.4 0 M0.4 0 C0.4 0, 0.4 0, 0.4 0 M0.4 0 C0.4 0, 0.4 0, 0.4 0"
                stroke="#000000" stroke-width="2" fill="none"></path>
        </g>
    </g>
    <g stroke-linecap="round">
        <g transform="translate(67.23639377069958 182.1439810866541) rotate(0 8.136712909308244 8.410327713960442)"
            fill-rule="evenodd">
            <path d="M0.4 0 L16.42 6.33 L15.98 16.82 L-0.15 10.55 L0.4 0" stroke="none" stroke-width="0" fill="#15aabf"
                fill-rule="evenodd"></path>
            <path
                d="M0.4 0 C5.08 1.85, 9.77 3.7, 16.42 6.33 M0.4 0 C4.91 1.78, 9.43 3.56, 16.42 6.33 M16.42 6.33 C16.29 9.51, 16.16 12.69, 15.98 16.82 M16.42 6.33 C16.3 9.26, 16.18 12.2, 15.98 16.82 M15.98 16.82 C11.48 15.07, 6.97 13.31, -0.15 10.55 M15.98 16.82 C9.91 14.46, 3.84 12.1, -0.15 10.55 M-0.15 10.55 C0.01 7.45, 0.17 4.35, 0.4 0 M-0.15 10.55 C0.04 6.98, 0.22 3.42, 0.4 0 M0.4 0 C0.4 0, 0.4 0, 0.4 0 M0.4 0 C0.4 0, 0.4 0, 0.4 0"
                stroke="#000000" stroke-width="2" fill="none"></path>
        </g>
    </g>
    <g stroke-opacity="0.9" fill-opacity="0.9" stroke-linecap="round"
        transform="translate(310 10) rotate(0 120.11502145732175 120)">
        <path d="M0 0 L240.23 0 L240.23 240 L0 240" stroke="none" stroke-width="0" fill="#fa5252"></path>
        <path
            d="M0 0 C70.96 0, 141.93 0, 240.23 0 M0 0 C65.69 0, 131.37 0, 240.23 0 M240.23 0 C240.23 95.91, 240.23 191.82, 240.23 240 M240.23 0 C240.23 72.13, 240.23 144.27, 240.23 240 M240.23 240 C158.23 240, 76.23 240, 0 240 M240.23 240 C184.55 240, 128.87 240, 0 240 M0 240 C0 148.98, 0 57.97, 0 0 M0 240 C0 165.47, 0 90.93, 0 0"
            stroke="#000000" stroke-width="2" fill="none"></path>
    </g>
    <g stroke-opacity="0.9" fill-opacity="0.9" stroke-linecap="round"
        transform="translate(375.1652295550125 137.11317979412252) rotate(0 15.877579119135817 15.877579119135817)">
        <path
            d="M15.88 0 C19.11 -0.2, 23.48 1.53, 26.08 3.71 C28.69 5.9, 30.92 9.77, 31.51 13.12 C32.1 16.47, 31.33 20.87, 29.63 23.82 C27.93 26.76, 24.5 29.63, 21.31 30.8 C18.11 31.96, 13.64 31.96, 10.45 30.8 C7.25 29.63, 3.83 26.76, 2.13 23.82 C0.43 20.87, -0.35 16.47, 0.24 13.12 C0.83 9.77, 3.07 5.9, 5.67 3.71 C8.28 1.53, 14.18 0.57, 15.88 0 C17.58 -0.57, 15.88 0.05, 15.88 0.32 M15.88 0 C19.11 -0.2, 23.48 1.53, 26.08 3.71 C28.69 5.9, 30.92 9.77, 31.51 13.12 C32.1 16.47, 31.33 20.87, 29.63 23.82 C27.93 26.76, 24.5 29.63, 21.31 30.8 C18.11 31.96, 13.64 31.96, 10.45 30.8 C7.25 29.63, 3.83 26.76, 2.13 23.82 C0.43 20.87, -0.35 16.47, 0.24 13.12 C0.83 9.77, 3.07 5.9, 5.67 3.71 C8.28 1.53, 14.18 0.57, 15.88 0 C17.58 -0.57, 15.88 0.05, 15.88 0.32"
            stroke="none" stroke-width="0" fill="#fa5252"></path>
        <path
            d="M15.88 0 C19.11 -0.2, 23.48 1.53, 26.08 3.71 C28.69 5.9, 30.92 9.77, 31.51 13.12 C32.1 16.47, 31.33 20.87, 29.63 23.82 C27.93 26.76, 24.5 29.63, 21.31 30.8 C18.11 31.96, 13.64 31.96, 10.45 30.8 C7.25 29.63, 3.83 26.76, 2.13 23.82 C0.43 20.87, -0.35 16.47, 0.24 13.12 C0.83 9.77, 3.07 5.9, 5.67 3.71 C8.28 1.53, 14.18 0.57, 15.88 0 C17.58 -0.57, 15.88 0.05, 15.88 0.32 M15.88 0 C19.11 -0.2, 23.48 1.53, 26.08 3.71 C28.69 5.9, 30.92 9.77, 31.51 13.12 C32.1 16.47, 31.33 20.87, 29.63 23.82 C27.93 26.76, 24.5 29.63, 21.31 30.8 C18.11 31.96, 13.64 31.96, 10.45 30.8 C7.25 29.63, 3.83 26.76, 2.13 23.82 C0.43 20.87, -0.35 16.47, 0.24 13.12 C0.83 9.77, 3.07 5.9, 5.67 3.71 C8.28 1.53, 14.18 0.57, 15.88 0 C17.58 -0.57, 15.88 0.05, 15.88 0.32"
            stroke="#000000" stroke-width="2" fill="none"></path>
    </g>
    <g stroke-opacity="0.9" fill-opacity="0.9" stroke-linecap="round"
        transform="translate(452.97961946183705 136.6412257340935) rotate(0 15.877579119135817 15.877579119135817)">
        <path
            d="M15.88 0 C19.11 -0.2, 23.48 1.53, 26.08 3.71 C28.69 5.9, 30.92 9.77, 31.51 13.12 C32.1 16.47, 31.33 20.87, 29.63 23.82 C27.93 26.76, 24.5 29.63, 21.31 30.8 C18.11 31.96, 13.64 31.96, 10.45 30.8 C7.25 29.63, 3.83 26.76, 2.13 23.82 C0.43 20.87, -0.35 16.47, 0.24 13.12 C0.83 9.77, 3.07 5.9, 5.67 3.71 C8.28 1.53, 14.18 0.57, 15.88 0 C17.58 -0.57, 15.88 0.05, 15.88 0.32 M15.88 0 C19.11 -0.2, 23.48 1.53, 26.08 3.71 C28.69 5.9, 30.92 9.77, 31.51 13.12 C32.1 16.47, 31.33 20.87, 29.63 23.82 C27.93 26.76, 24.5 29.63, 21.31 30.8 C18.11 31.96, 13.64 31.96, 10.45 30.8 C7.25 29.63, 3.83 26.76, 2.13 23.82 C0.43 20.87, -0.35 16.47, 0.24 13.12 C0.83 9.77, 3.07 5.9, 5.67 3.71 C8.28 1.53, 14.18 0.57, 15.88 0 C17.58 -0.57, 15.88 0.05, 15.88 0.32"
            stroke="none" stroke-width="0" fill="#fa5252"></path>
        <path
            d="M15.88 0 C19.11 -0.2, 23.48 1.53, 26.08 3.71 C28.69 5.9, 30.92 9.77, 31.51 13.12 C32.1 16.47, 31.33 20.87, 29.63 23.82 C27.93 26.76, 24.5 29.63, 21.31 30.8 C18.11 31.96, 13.64 31.96, 10.45 30.8 C7.25 29.63, 3.83 26.76, 2.13 23.82 C0.43 20.87, -0.35 16.47, 0.24 13.12 C0.83 9.77, 3.07 5.9, 5.67 3.71 C8.28 1.53, 14.18 0.57, 15.88 0 C17.58 -0.57, 15.88 0.05, 15.88 0.32 M15.88 0 C19.11 -0.2, 23.48 1.53, 26.08 3.71 C28.69 5.9, 30.92 9.77, 31.51 13.12 C32.1 16.47, 31.33 20.87, 29.63 23.82 C27.93 26.76, 24.5 29.63, 21.31 30.8 C18.11 31.96, 13.64 31.96, 10.45 30.8 C7.25 29.63, 3.83 26.76, 2.13 23.82 C0.43 20.87, -0.35 16.47, 0.24 13.12 C0.83 9.77, 3.07 5.9, 5.67 3.71 C8.28 1.53, 14.18 0.57, 15.88 0 C17.58 -0.57, 15.88 0.05, 15.88 0.32"
            stroke="#000000" stroke-width="2" fill="none"></path>
    </g>
    <g stroke-opacity="0.9" fill-opacity="0.9" stroke-linecap="round"
        transform="translate(415.1082755377579 77.21850876987719) rotate(0 15.877579119135817 15.877579119135817)">
        <path
            d="M15.88 0 C19.11 -0.2, 23.48 1.53, 26.08 3.71 C28.69 5.9, 30.92 9.77, 31.51 13.12 C32.1 16.47, 31.33 20.87, 29.63 23.82 C27.93 26.76, 24.5 29.63, 21.31 30.8 C18.11 31.96, 13.64 31.96, 10.45 30.8 C7.25 29.63, 3.83 26.76, 2.13 23.82 C0.43 20.87, -0.35 16.47, 0.24 13.12 C0.83 9.77, 3.07 5.9, 5.67 3.71 C8.28 1.53, 14.18 0.57, 15.88 0 C17.58 -0.57, 15.88 0.05, 15.88 0.32 M15.88 0 C19.11 -0.2, 23.48 1.53, 26.08 3.71 C28.69 5.9, 30.92 9.77, 31.51 13.12 C32.1 16.47, 31.33 20.87, 29.63 23.82 C27.93 26.76, 24.5 29.63, 21.31 30.8 C18.11 31.96, 13.64 31.96, 10.45 30.8 C7.25 29.63, 3.83 26.76, 2.13 23.82 C0.43 20.87, -0.35 16.47, 0.24 13.12 C0.83 9.77, 3.07 5.9, 5.67 3.71 C8.28 1.53, 14.18 0.57, 15.88 0 C17.58 -0.57, 15.88 0.05, 15.88 0.32"
            stroke="none" stroke-width="0" fill="#fa5252"></path>
        <path
            d="M15.88 0 C19.11 -0.2, 23.48 1.53, 26.08 3.71 C28.69 5.9, 30.92 9.77, 31.51 13.12 C32.1 16.47, 31.33 20.87, 29.63 23.82 C27.93 26.76, 24.5 29.63, 21.31 30.8 C18.11 31.96, 13.64 31.96, 10.45 30.8 C7.25 29.63, 3.83 26.76, 2.13 23.82 C0.43 20.87, -0.35 16.47, 0.24 13.12 C0.83 9.77, 3.07 5.9, 5.67 3.71 C8.28 1.53, 14.18 0.57, 15.88 0 C17.58 -0.57, 15.88 0.05, 15.88 0.32 M15.88 0 C19.11 -0.2, 23.48 1.53, 26.08 3.71 C28.69 5.9, 30.92 9.77, 31.51 13.12 C32.1 16.47, 31.33 20.87, 29.63 23.82 C27.93 26.76, 24.5 29.63, 21.31 30.8 C18.11 31.96, 13.64 31.96, 10.45 30.8 C7.25 29.63, 3.83 26.76, 2.13 23.82 C0.43 20.87, -0.35 16.47, 0.24 13.12 C0.83 9.77, 3.07 5.9, 5.67 3.71 C8.28 1.53, 14.18 0.57, 15.88 0 C17.58 -0.57, 15.88 0.05, 15.88 0.32"
            stroke="#000000" stroke-width="2" fill="none"></path>
    </g>
    <g stroke-linecap="round">
        <g stroke-opacity="0.9" fill-opacity="0.9"
            transform="translate(440.52431222728455 107.1825906789827) rotate(0 10.368551568849853 15.637103369401984)">
            <path d="M0 0 C4.92 7.43, 9.85 14.85, 20.74 31.27 M0 0 C7.2 10.86, 14.4 21.72, 20.74 31.27" stroke="#000000"
                stroke-width="2" fill="none"></path>
        </g>
    </g>
    <g stroke-linecap="round">
        <g stroke-opacity="0.9" fill-opacity="0.9"
            transform="translate(422.57186777425477 106.96648473809637) rotate(0 -11.202314290677577 16.505935180784263)">
            <path d="M0 0 C-7.63 11.24, -15.25 22.47, -22.4 33.01 M0 0 C-6.61 9.73, -13.21 19.47, -22.4 33.01"
                stroke="#000000" stroke-width="2" fill="none"></path>
        </g>
    </g>
    <g stroke-linecap="round">
        <g stroke-opacity="0.9" fill-opacity="0.9"
            transform="translate(407.76874171147983 152.8704443160359) rotate(0 23.225794887961456 0)">
            <path d="M0 0 C15.24 0, 30.48 0, 46.45 0 M0 0 C16.87 0, 33.74 0, 46.45 0" stroke="#000000" stroke-width="2"
                fill="none"></path>
        </g>
    </g>
    <g stroke-linecap="round">
        <g stroke-opacity="0.9" fill-opacity="0.9"
            transform="translate(380.2487331205102 19.96535350400245) rotate(37.028882682348716 18.09983938841424 76.45397880396422)">
            <path
                d="M57.47 0 C52.69 1.26, 37.01 4.14, 28.8 7.54 C20.6 10.94, 14.13 15.52, 8.24 20.41 C2.34 25.31, -2.13 29.71, -6.56 36.91 C-11 44.12, -15.97 55.77, -18.39 63.64 C-20.81 71.51, -21.71 75.79, -21.08 84.14 C-20.45 92.49, -17.78 105.15, -14.61 113.74 C-11.44 122.33, -7.28 129.15, -2.08 135.67 C3.13 142.2, 13.49 150.04, 16.6 152.91 M57.47 0 C52.69 1.26, 37.01 4.14, 28.8 7.54 C20.6 10.94, 14.13 15.52, 8.24 20.41 C2.34 25.31, -2.13 29.71, -6.56 36.91 C-11 44.12, -15.97 55.77, -18.39 63.64 C-20.81 71.51, -21.71 75.79, -21.08 84.14 C-20.45 92.49, -17.78 105.15, -14.61 113.74 C-11.44 122.33, -7.28 129.15, -2.08 135.67 C3.13 142.2, 13.49 150.04, 16.6 152.91"
                stroke="#000000" stroke-width="2" fill="none"></path>
        </g>
    </g>
    <g stroke-linecap="round">
        <g stroke-opacity="0.9" fill-opacity="0.9"
            transform="translate(441.79110342949343 84.97281488602675) rotate(217.02888268234867 18.09983938841401 76.45397880396422)">
            <path
                d="M57.47 0 C52.69 1.26, 37.01 4.14, 28.8 7.54 C20.6 10.94, 14.13 15.52, 8.24 20.41 C2.34 25.31, -2.13 29.71, -6.56 36.91 C-11 44.12, -15.97 55.77, -18.39 63.64 C-20.81 71.51, -21.71 75.79, -21.08 84.14 C-20.45 92.49, -17.78 105.15, -14.61 113.74 C-11.44 122.33, -7.28 129.15, -2.08 135.67 C3.13 142.2, 13.49 150.04, 16.6 152.91 M57.47 0 C52.69 1.26, 37.01 4.14, 28.8 7.54 C20.6 10.94, 14.13 15.52, 8.24 20.41 C2.34 25.31, -2.13 29.71, -6.56 36.91 C-11 44.12, -15.97 55.77, -18.39 63.64 C-20.81 71.51, -21.71 75.79, -21.08 84.14 C-20.45 92.49, -17.78 105.15, -14.61 113.74 C-11.44 122.33, -7.28 129.15, -2.08 135.67 C3.13 142.2, 13.49 150.04, 16.6 152.91"
                stroke="#000000" stroke-width="2" fill="none"></path>
        </g>
    </g>
    <g stroke-linecap="round">
        <g stroke-opacity="0.9" fill-opacity="0.9"
            transform="translate(340.2386566115315 135.62496682408164) rotate(0 7.477288409224457 11.541263705939173)">
            <path
                d="M23.62 0 C19.67 7.47, 15.72 14.94, 11.42 23.08 M23.62 0 C20.49 5.92, 17.36 11.84, 11.42 23.08 M11.42 23.08 C4.34 18.24, -2.74 13.4, -8.66 9.34 M11.42 23.08 C6.98 20.05, 2.55 17.01, -8.66 9.34"
                stroke="#000000" stroke-width="2" fill="none"></path>
        </g>
    </g>
    <g stroke-linecap="round">
        <g stroke-opacity="0.9" fill-opacity="0.9"
            transform="translate(501.9715924509255 97.55790982166491) rotate(167.4823380314929 6.895409163893419 10.17012929789621)">
            <path
                d="M21.78 0 C17.83 5.73, 13.88 11.46, 7.76 20.34 M21.78 0 C17.53 6.17, 13.28 12.33, 7.76 20.34 M7.76 20.34 C3.36 15.19, -1.05 10.03, -7.99 1.92 M7.76 20.34 C3.36 15.19, -1.04 10.05, -7.99 1.92"
                stroke="#000000" stroke-width="2" fill="none"></path>
        </g>
    </g>
</svg>