<svg width="604" height="100%" viewBox="0 0 604 745" fill="none" xmlns="http://www.w3.org/2000/svg">
    <path fill-rule="evenodd" clip-rule="evenodd"
        d="M64.8607 44.2572L62.5107 88.5572L66.0807 95.3072L74.6707 105.557L85.8307 117.197L108.241 123.497L128.731 127.277L163.661 130.507L191.741 126.147L216.151 125.127L235.351 119.687L251.471 110.907L261.281 98.3772L263.491 91.7372L264.201 52.5272L258.761 36.9572L248.131 25.5372L240.891 16.8872L234.501 11.7272L211.621 4.84723L187.451 1.07722L158.211 0.467224L130.621 4.37722L106.311 9.77723L83.3107 19.0272L76.0407 23.5772L64.5807 41.3272"
        fill="#FE7F80" />
    <path
        d="M62.7408 44.1172C62.6308 48.7972 61.8408 62.0872 62.4408 70.7372C63.0308 79.3872 62.1708 88.1772 66.3008 96.0072C70.4408 103.847 76.3408 112.187 87.2608 117.737C98.1808 123.277 114.301 127.797 131.801 129.277C149.311 130.757 175.071 128.777 192.311 126.617C209.541 124.457 224.191 120.847 235.221 116.297C246.261 111.747 254.061 106.927 258.511 99.3172C262.961 91.7072 262.151 80.5272 261.951 70.6472C261.751 60.7572 262.131 49.7272 257.301 40.0172C252.471 30.3072 244.931 18.5572 232.971 12.3772C221.001 6.19723 202.321 4.31723 185.481 2.93723C168.641 1.55724 148.851 1.48724 131.911 4.11724C114.961 6.74724 95.0708 12.0672 83.8108 18.7272C72.5508 25.3972 67.9608 40.2372 64.3508 44.0972M63.7908 41.9972C63.8408 46.4272 63.3908 60.3272 63.4008 69.1772C63.4108 78.0272 59.9208 87.1472 63.8608 95.0772C67.8108 103.007 76.0808 111.187 87.0908 116.747C98.1008 122.297 112.091 126.607 129.931 128.417C147.771 130.227 176.591 129.397 194.131 127.617C211.661 125.827 224.241 122.377 235.131 117.717C246.021 113.067 254.801 107.857 259.461 99.6772C264.131 91.4972 263.071 78.5972 263.111 68.6272C263.161 58.6672 264.821 48.9072 259.741 39.8872C254.671 30.8672 244.791 20.6572 232.671 14.5172C220.541 8.37723 203.941 4.73724 187.021 3.04724C170.091 1.35724 148.181 1.80723 131.141 4.39723C114.101 6.99723 96.0308 12.0272 84.7808 18.6372C73.5408 25.2472 67.1008 39.8572 63.6708 44.0572L63.7908 41.9972Z"
        stroke="black" stroke-width="2" stroke-linecap="round" />
    <path
        d="M145.361 8.42787C157.021 6.99787 172.021 7.94787 184.291 9.29787C196.561 10.6479 209.581 13.1879 218.981 16.5379C228.391 19.8979 236.981 24.4879 240.701 29.4179C244.421 34.3479 244.281 40.9779 241.301 46.1079C238.331 51.2379 231.731 56.6779 222.851 60.1879C213.981 63.6979 200.611 65.6979 188.041 67.1679C175.471 68.6279 160.141 69.8179 147.421 68.9679C134.711 68.1179 121.671 65.0279 111.731 62.0579C101.801 59.0979 92.981 55.7679 87.801 51.1879C82.621 46.5979 79.561 39.6279 80.671 34.5679C81.791 29.4979 86.861 24.6379 94.511 20.8079C102.151 16.9779 117.401 13.6079 126.571 11.5779C135.741 9.54787 144.581 9.28787 149.511 8.63787C154.441 7.97787 155.851 7.20787 156.161 7.62787L145.361 8.42787ZM170.371 6.84787C182.771 6.77787 198.821 8.97787 209.611 11.8079C220.411 14.6379 229.831 19.1079 235.151 23.8279C240.481 28.5379 242.301 35.1179 241.571 40.0979C240.831 45.0879 237.201 49.7179 230.731 53.7179C224.251 57.7179 213.921 61.4679 202.731 64.0979C191.541 66.7379 176.891 69.3279 163.591 69.5279C150.291 69.7179 134.521 67.4479 122.921 65.2879C111.311 63.1179 100.831 60.6479 93.951 56.5279C87.071 52.4179 82.421 45.8679 81.611 40.5979C80.811 35.3279 83.791 29.2379 89.131 24.9379C94.471 20.6379 103.661 17.8079 113.671 14.7779C123.691 11.7479 139.681 7.90787 149.231 6.76787C158.781 5.63787 167.471 7.75787 170.981 7.97787C174.491 8.19787 170.261 7.43787 170.281 8.08787"
        fill="#FE7F80" />
    <path
        d="M188.011 10.5379C200.331 11.5779 212.831 12.5679 221.561 16.2279C230.291 19.8779 237.101 27.6179 240.401 32.4879C243.701 37.3579 244.891 40.9879 241.351 45.4579C237.801 49.9179 228.231 55.5779 219.131 59.2579C210.041 62.9479 198.831 65.7879 186.791 67.5479C174.751 69.3179 159.711 70.5079 146.881 69.8579C134.061 69.2079 120.161 66.7979 109.831 63.6579C99.5009 60.5179 89.8109 55.6779 84.9109 51.0179C80.0109 46.3479 78.6209 40.8579 80.4309 35.6679C82.2509 30.4879 88.1009 24.1579 95.8009 19.8879C103.511 15.6179 114.581 12.1479 126.651 10.0579C138.711 7.97786 158.221 7.30786 168.201 7.38786C178.171 7.45786 183.521 10.1279 186.481 10.4879C189.451 10.8379 186.381 9.21786 185.991 9.50786M163.171 7.31786C175.611 7.17786 190.251 9.83786 201.681 12.3579C213.111 14.8879 225.041 18.3579 231.751 22.4679C238.461 26.5779 241.461 32.0779 241.941 37.0379C242.411 41.9979 240.101 47.8179 234.611 52.2379C229.121 56.6579 219.591 60.5479 209.001 63.5579C198.421 66.5679 184.211 69.5679 171.111 70.3079C158.021 71.0579 142.611 70.0179 130.441 68.0279C118.261 66.0379 106.041 62.2679 98.0709 58.3779C90.0909 54.4779 84.8509 49.5679 82.6009 44.6579C80.3509 39.7379 80.3709 33.5679 84.5609 28.8679C88.7609 24.1779 97.8809 19.7779 107.771 16.4779C117.661 13.1779 133.531 10.4479 143.891 9.08786C154.251 7.71786 164.871 8.45786 169.921 8.28786C174.971 8.10786 174.361 7.65786 174.191 8.01786L163.171 7.31786Z"
        stroke="black" stroke-width="2" stroke-linecap="round" />
    <path fill-rule="evenodd" clip-rule="evenodd"
        d="M65.2291 113.367L65.7391 151.747L66.1291 167.497L79.1791 177.297L90.1791 184.887L112.569 192.757L132.739 193.297L164.099 196.857L194.659 196.187L218.139 192.547L235.459 185.887L248.649 179.587L257.659 170.727L258.089 164.017L259.919 129.087L258.309 113.087L255.229 118.277L243.729 123.687L230.789 129.347L213.239 134.047L193.199 138.797L151.669 139.637L111.639 136.437L91.4991 129.737L85.5991 124.817L65.0391 114.797"
        fill="#FE7F80" />
    <path
        d="M62.3691 112.887C62.4791 117.327 65.0091 130.187 65.6991 139.417C66.3991 148.647 62.2791 160.837 66.5491 168.257C70.8191 175.677 80.0591 179.447 91.3091 183.937C102.569 188.427 116.749 193.667 134.089 195.197C151.419 196.717 178.589 194.667 195.299 193.107C212.009 191.537 224.199 189.557 234.359 185.827C244.509 182.097 252.049 177.557 256.249 170.717C260.449 163.877 258.939 153.657 259.559 144.777C260.179 135.907 260.999 121.887 259.969 117.477C258.939 113.057 258.269 115.887 253.399 118.277C248.529 120.677 240.969 128.617 230.759 131.867C220.549 135.117 207.629 136.437 192.129 137.807C176.629 139.167 154.499 141.157 137.739 140.047C120.969 138.937 103.999 135.707 91.5291 131.147C79.0691 126.587 67.8391 115.577 62.9591 112.677M63.8491 113.907C63.6391 118.127 62.8491 129.407 63.4491 138.257C64.0391 147.117 62.7391 159.087 67.3891 167.047C72.0491 175.007 80.0891 181.407 91.3791 186.027C102.669 190.647 117.949 193.397 135.129 194.757C152.299 196.127 178.019 195.487 194.429 194.227C210.849 192.957 223.249 191.007 233.639 187.187C244.029 183.367 252.239 178.257 256.769 171.317C261.289 164.387 260.379 154.567 260.789 145.577C261.199 136.597 260.489 121.547 259.219 117.387C257.959 113.227 257.799 118.247 253.199 120.647C248.599 123.037 241.799 128.797 231.629 131.747C221.459 134.697 207.759 137.027 192.169 138.337C176.579 139.657 154.409 140.827 138.089 139.637C121.769 138.457 106.429 135.397 94.2491 131.227C82.0691 127.067 70.0991 117.657 64.9991 114.667L63.8491 113.907Z"
        stroke="black" stroke-width="2" stroke-linecap="round" />
    <path fill-rule="evenodd" clip-rule="evenodd"
        d="M63.4818 182.926L62.6918 218.806L67.8718 235.376L77.3418 241.536L91.8218 252.606L112.652 255.066L133.022 259.106L166.542 260.216L197.382 261.096L217.822 259.266L232.272 254.796L245.672 248.526L254.792 237.816L256.492 231.826L260.922 195.576L256.862 184.406L251.762 187.336L242.632 192.806L229.322 197.576L212.922 202.566L193.782 205.666L151.512 204.166L114.652 201.066L92.5818 199.206L62.3818 182.776"
        fill="#FE7F80" />
    <path
        d="M62.5818 182.906C63.1618 187.156 65.3518 198.846 66.0118 207.346C66.6718 215.846 61.9318 226.876 66.5418 233.916C71.1618 240.956 82.5918 245.406 93.6818 249.586C104.762 253.756 115.882 257.386 133.062 258.966C150.232 260.546 179.892 260.026 196.742 259.036C213.602 258.056 224.632 256.406 234.192 253.046C243.752 249.696 249.792 246.086 254.102 238.896C258.412 231.716 259.402 219.206 260.052 209.926C260.712 200.646 258.912 187.146 258.032 183.246C257.142 179.346 259.282 184.276 254.752 186.536C250.222 188.786 241.002 193.706 230.852 196.796C220.692 199.886 209.222 203.346 193.842 205.076C178.452 206.796 155.042 208.216 138.542 207.166C122.052 206.116 107.532 202.876 94.8718 198.776C82.2118 194.666 67.4718 185.656 62.5718 182.516M64.0218 180.746C64.1218 184.796 63.1118 197.196 63.6818 205.886C64.2418 214.586 62.5418 225.276 67.4218 232.916C72.3018 240.546 81.7918 247.336 92.9618 251.706C104.142 256.076 117.412 257.736 134.482 259.126C151.562 260.506 178.902 260.886 195.412 260.006C211.932 259.136 223.572 257.426 233.572 253.886C243.562 250.346 250.792 245.886 255.392 238.796C259.982 231.706 260.312 220.496 261.142 211.326C261.972 202.166 261.552 187.596 260.382 183.816C259.212 180.036 258.902 186.386 254.122 188.666C249.342 190.946 241.852 194.676 231.722 197.496C221.582 200.306 208.832 204.006 193.322 205.546C177.812 207.086 155.192 207.876 138.652 206.746C122.112 205.606 106.382 202.966 94.0718 198.746C81.7518 194.516 69.8918 184.106 64.7818 181.386L64.0218 180.746Z"
        stroke="black" stroke-width="2" stroke-linecap="round" />
    <path fill-rule="evenodd" clip-rule="evenodd"
        d="M401.793 264.21L400.903 310.35L405.583 313.98L411.353 326.31L425.613 334.75L446.823 342.89L469.993 346.23L500.593 347.22L533.873 348.64L555.453 342.05L574.693 336.69L591.503 328.44L597.893 318.99L599.693 312.97L600.593 273.2L598.413 256.99L588.013 243.3L581.833 240.04L573.563 233.5L553.043 225.92L528.063 220.87L499.373 221.99L468.633 224.55L445.323 227.26L426.763 239.56L416.573 242.78L404.473 261.05"
        fill="#FE7F80" />
    <path
        d="M402.003 262.36C402.113 266.67 403.493 280 403.973 288.68C404.443 297.35 401.103 306.16 404.833 314.41C408.573 322.66 415.413 332.87 426.373 338.19C437.333 343.5 452.883 344.88 470.593 346.3C488.303 347.72 514.963 348.07 532.623 346.69C550.283 345.32 565.533 342.39 576.583 338.05C587.633 333.72 594.843 328.69 598.923 320.69C603.003 312.7 601.183 300.35 601.053 290.08C600.923 279.81 603.083 268.69 598.133 259.08C593.183 249.46 583.163 238.39 571.363 232.36C559.573 226.34 544.443 224.32 527.393 222.92C510.333 221.52 485.853 221.75 469.053 223.96C452.253 226.18 437.473 229.49 426.593 236.22C415.713 242.95 407.593 259.96 403.773 264.35M403.233 263.16C403.433 267.36 404.003 278.89 404.343 287.75C404.673 296.62 401.553 308.15 405.233 316.35C408.923 324.55 415.403 331.96 426.443 336.97C437.483 341.97 453.503 344.62 471.473 346.39C489.443 348.16 516.853 348.86 534.263 347.59C551.683 346.32 565.053 343.31 575.953 338.8C586.853 334.28 595.243 328.94 599.663 320.5C604.083 312.07 602.763 298.4 602.463 288.18C602.153 277.97 602.973 268.15 597.823 259.19C592.673 250.24 583.153 240.47 571.553 234.43C559.943 228.39 545.253 224.66 528.203 222.96C511.143 221.26 486.543 221.9 469.203 224.22C451.853 226.55 435.133 230.66 424.143 236.91C413.143 243.17 406.803 257.6 403.223 261.75L403.233 263.16Z"
        stroke="black" stroke-width="2" stroke-linecap="round" />
    <path
        d="M519.843 227.2C532.413 227.85 546.853 232.66 556.493 236.03C566.123 239.4 573.343 243.01 577.663 247.43C581.993 251.85 584.533 257.61 582.423 262.56C580.323 267.52 573.303 273.12 565.013 277.15C556.733 281.19 544.813 284.62 532.713 286.78C520.623 288.95 505.493 290.61 492.463 290.13C479.423 289.66 464.983 287.04 454.513 283.93C444.043 280.82 435.323 276.01 429.643 271.47C423.963 266.92 420.163 261.62 420.453 256.65C420.733 251.68 424.813 245.69 431.353 241.65C437.903 237.61 448.253 234.67 459.713 232.39C471.183 230.11 488.993 228.6 500.143 227.97C511.293 227.33 520.943 228.19 526.613 228.59C532.273 228.98 534.593 229.79 534.153 230.36L519.843 227.2ZM527.433 230.27C539.723 231.36 554.083 234.13 562.803 237.73C571.513 241.33 577.083 247 579.703 251.87C582.323 256.74 581.673 262.35 578.523 266.95C575.373 271.55 569.933 275.87 560.793 279.46C551.663 283.05 536.603 286.73 523.723 288.47C510.843 290.22 495.833 290.91 483.513 289.91C471.193 288.91 459.263 285.77 449.813 282.46C440.353 279.15 431.673 274.65 426.803 270.05C421.933 265.46 419.173 260.05 420.603 254.9C422.023 249.75 427.523 243.4 435.343 239.14C443.163 234.88 455.503 231.52 467.543 229.33C479.573 227.15 497.643 226.22 507.573 226.04C517.493 225.86 523.893 227.68 527.093 228.26C530.303 228.83 526.853 229.07 526.773 229.5"
        fill="#FE7F80" />
    <path
        d="M464.523 230.88C475.183 228.54 492.093 227.02 505.213 227.05C518.343 227.07 532.303 228.26 543.283 231.02C554.263 233.77 564.363 239.27 571.093 243.56C577.823 247.84 583.523 251.99 583.673 256.71C583.823 261.44 578.413 267.15 572.003 271.92C565.603 276.7 556.133 282.64 545.243 285.37C534.353 288.1 519.613 288.34 506.683 288.32C493.743 288.31 479.303 287.39 467.653 285.29C455.993 283.2 444.533 279.56 436.753 275.75C428.983 271.94 423.053 267.2 421.003 262.43C418.953 257.66 419.983 251.65 424.443 247.14C428.913 242.63 440.683 238.01 447.803 235.35C454.923 232.69 464.013 231.75 467.193 231.19C470.373 230.62 466.523 231.49 466.903 231.95M463.283 231.02C473.743 228.18 490.723 226.41 503.993 226.51C517.263 226.61 531.763 228.85 542.903 231.62C554.043 234.39 564.133 238.76 570.823 243.12C577.513 247.47 582.393 253.05 583.053 257.77C583.703 262.49 580.703 267.01 574.753 271.43C568.793 275.84 558.193 281.15 547.313 284.27C536.433 287.39 522.133 289.58 509.463 290.13C496.793 290.68 483.273 289.5 471.273 287.57C459.283 285.64 445.923 282.69 437.503 278.57C429.083 274.44 422.813 267.99 420.753 262.8C418.683 257.61 420.773 252.12 425.123 247.42C429.473 242.72 438.033 237.61 446.863 234.58C455.703 231.56 470.323 230.3 478.113 229.29C485.903 228.28 493.043 228.3 493.593 228.54L463.283 231.02Z"
        stroke="black" stroke-width="2" stroke-linecap="round" />
    <path fill-rule="evenodd" clip-rule="evenodd"
        d="M404.721 332.04L402.421 372.5L405.911 385.05L417.771 396.7L431.441 403.84L449.501 409.47L474.871 415.78L503.401 413.79L534.001 413.2L558.171 410.08L572.061 406.5L584.851 400.82L594.051 391.39L597.731 384.05L599.801 346.85L599.251 336.23L594.281 340.06L585.141 344.76L571.401 349.14L554.401 355.57L531.201 358.97L490.671 357.13L455.081 356.97L432.031 348.94L425.491 344.54L403.111 332.93"
        fill="#FE7F80" />
    <path
        d="M403.901 334.479C403.891 338.339 403.941 348.779 404.231 357.809C404.531 366.849 401.351 380.899 405.661 388.709C409.971 396.509 418.641 400.189 430.101 404.619C441.561 409.049 456.641 413.559 474.401 415.269C492.161 416.979 519.931 416.209 536.651 414.859C553.381 413.519 564.981 411.309 574.761 407.199C584.551 403.079 591.081 397.379 595.351 390.149C599.621 382.919 599.891 372.619 600.401 363.839C600.901 355.059 599.831 341.719 598.371 337.459C596.911 333.199 596.111 335.889 591.641 338.259C587.171 340.639 581.631 348.259 571.571 351.709C561.501 355.159 546.981 358.129 531.251 358.949C515.511 359.769 493.531 357.829 477.151 356.639C460.781 355.459 445.231 355.859 433.001 351.859C420.771 347.849 408.551 335.369 403.791 332.619M404.781 332.479C404.901 336.719 404.491 350.399 404.811 359.529C405.141 368.669 402.061 379.859 406.741 387.269C411.431 394.679 421.501 399.419 432.921 403.999C444.341 408.579 458.211 412.849 475.271 414.739C492.321 416.619 518.821 416.419 535.251 415.299C551.681 414.179 563.701 412.079 573.841 408.009C583.981 403.939 591.941 398.059 596.111 390.869C600.281 383.689 598.541 373.819 598.871 364.889C599.201 355.959 598.851 341.359 598.101 337.299C597.361 333.249 599.121 338.179 594.381 340.549C589.641 342.929 580.171 348.899 569.691 351.569C559.211 354.249 546.861 355.659 531.521 356.619C516.181 357.579 494.101 358.569 477.641 357.329C461.171 356.099 445.171 353.019 432.741 349.219C420.311 345.419 408.101 337.039 403.071 334.549L404.781 332.479Z"
        stroke="black" stroke-width="2" stroke-linecap="round" />
    <path fill-rule="evenodd" clip-rule="evenodd"
        d="M402.174 399.588L403.464 438.568L405.444 453.938L416.764 462.778L430.804 469.518L449.394 477.168L475.534 478.388L503.494 479.538L534.404 481.108L555.364 475.848L572.904 470.978L586.924 464.898L595.484 457.438L596.544 451.688L598.714 416.488L600.024 403.448L593.554 408.738L583.724 413.398L569.134 418.718L554.474 420.548L533.974 424.658L489.014 427.588L455.204 421.578L431.804 419.078L402.124 400.828"
        fill="#FE7F80" />
    <path
        d="M404.204 401.418C404.194 405.878 403.954 417.898 404.424 426.438C404.894 434.988 402.634 445.438 407.014 452.678C411.404 459.918 419.694 465.278 430.724 469.878C441.744 474.478 455.794 478.708 473.154 480.298C490.514 481.898 518.404 480.788 534.864 479.428C551.324 478.068 561.534 476.028 571.924 472.138C582.314 468.238 592.684 462.748 597.214 456.058C601.744 449.358 598.994 440.458 599.134 431.968C599.264 423.478 598.764 409.238 598.034 405.128C597.304 401.018 599.304 404.908 594.754 407.318C590.204 409.718 581.284 416.698 570.714 419.558C560.144 422.418 546.664 423.568 531.344 424.468C516.034 425.368 495.384 426.378 478.824 424.958C462.254 423.528 444.654 419.918 431.944 415.928C419.224 411.938 407.274 403.138 402.534 400.998M402.614 402.098C402.734 405.888 404.134 416.498 404.974 425.218C405.814 433.938 403.334 446.658 407.664 454.428C411.994 462.198 419.824 467.578 430.954 471.828C442.094 476.078 456.894 478.528 474.484 479.928C492.074 481.318 519.854 481.308 536.514 480.188C553.164 479.068 564.674 477.098 574.414 473.208C584.154 469.318 590.614 464.028 594.964 456.858C599.304 449.688 599.574 438.838 600.474 430.198C601.364 421.548 601.384 408.898 600.314 404.978C599.244 401.068 598.844 404.728 594.054 406.708C589.264 408.678 581.964 413.768 571.564 416.828C561.154 419.888 547.484 423.678 531.614 425.078C515.754 426.478 492.954 426.598 476.364 425.218C459.774 423.838 444.024 420.948 432.074 416.798C420.134 412.648 409.294 402.778 404.684 400.318L402.614 402.098Z"
        stroke="black" stroke-width="2" stroke-linecap="round" />
    <path fill-rule="evenodd" clip-rule="evenodd"
        d="M3.37701 522.37L3.61701 569.98L3.77701 577.71L13.587 587.08L28.967 596.73L48.747 604.93L69.637 607.73L101.637 608.6L132.807 610.24L159.497 605.57L177.037 601.08L192.177 592.33L202.087 581.66L201.607 573.7L204.717 533.23L198.397 519.96L190.987 506.13L182.207 498.37L172.407 493.62L150.857 487.19L127.157 484.62L99.667 482.97L68.977 484.84L46.347 488.7L27.197 498.65L19.067 504.11L2.93701 525.25"
        fill="#FE7F80" />
    <path
        d="M1.99707 525.78C2.25707 530.45 5.52707 543.63 6.01707 552.17C6.50707 560.71 1.14707 569.28 4.92707 577.01C8.71707 584.75 17.6371 593.53 28.7171 598.56C39.7971 603.59 53.7571 605.77 71.4171 607.19C89.0771 608.62 117.287 608.54 134.667 607.12C152.037 605.71 164.577 603.12 175.667 598.7C186.747 594.29 196.907 588.85 201.177 580.65C205.447 572.46 201.527 559.54 201.287 549.51C201.047 539.49 204.157 529.88 199.747 520.52C195.337 511.16 186.897 499.18 174.817 493.34C162.727 487.5 144.577 486.94 127.237 485.47C109.907 484 87.9171 482.15 70.7871 484.52C53.6571 486.89 35.5971 493.12 24.4671 499.69C13.3371 506.27 7.23707 519.6 3.99707 523.96M3.57707 523.57C3.47707 528 3.27707 541.82 3.62707 550.6C3.96707 559.38 1.52707 568.36 5.64707 576.22C9.75707 584.08 17.2071 592.15 28.3271 597.77C39.4471 603.39 54.8171 608.16 72.3571 609.94C89.8971 611.72 115.927 610.13 133.547 608.43C151.177 606.74 167.167 604.35 178.097 599.79C189.017 595.22 194.947 589.21 199.097 581.04C203.237 572.87 202.937 560.83 202.957 550.78C202.977 540.72 204.027 529.9 199.227 520.7C194.427 511.51 185.947 501.95 174.157 495.63C162.357 489.31 145.697 484.54 128.447 482.8C111.207 481.05 87.8371 482.32 70.6771 485.15C53.5271 487.98 36.6471 493.2 25.4871 499.75C14.3271 506.3 7.30707 520.33 3.71707 524.46L3.57707 523.57Z"
        stroke="black" stroke-width="2" stroke-linecap="round" />
    <path
        d="M107.817 487.991C120.507 487.771 135.677 490.621 146.707 493.341C157.747 496.061 167.957 499.791 174.047 504.311C180.137 508.831 183.427 515.371 183.257 520.461C183.077 525.541 179.177 530.491 173.017 534.831C166.857 539.171 157.117 543.791 146.287 546.501C135.457 549.201 121.097 550.981 108.047 551.071C94.9873 551.151 79.8873 549.261 67.9573 547.011C56.0173 544.771 43.9973 541.381 36.4273 537.591C28.8673 533.811 24.1973 529.251 22.5573 524.301C20.9173 519.341 21.7773 512.741 26.5873 507.861C31.3973 502.981 41.2973 498.131 51.3973 495.021C61.4873 491.911 76.1473 489.961 87.1673 489.191C98.1873 488.421 110.997 489.991 117.497 490.391C124.007 490.781 126.387 491.071 126.207 491.561L107.817 487.991ZM115.517 489.131C127.997 489.881 143.237 493.391 153.507 496.641C163.777 499.891 172.177 504.331 177.147 508.651C182.127 512.961 184.437 517.731 183.337 522.521C182.237 527.311 177.987 533.361 170.537 537.391C163.087 541.411 150.477 544.321 138.627 546.681C126.777 549.031 112.657 551.481 99.4373 551.531C86.2173 551.581 70.6873 549.791 59.3073 546.991C47.9273 544.201 37.2773 539.181 31.1473 534.771C25.0073 530.361 22.6373 525.521 22.4773 520.511C22.3173 515.511 24.3873 509.081 30.1873 504.711C35.9873 500.351 46.4873 497.211 57.2573 494.341C68.0273 491.471 85.0373 488.391 94.7973 487.511C104.567 486.631 112.247 488.671 115.857 489.061C119.467 489.461 116.517 489.181 116.457 489.871"
        fill="#FE7F80" />
    <path
        d="M89.4773 490.411C101.757 488.941 118.537 488.171 130.797 489.571C143.057 490.971 154.737 494.991 163.057 498.821C171.377 502.641 177.687 507.301 180.707 512.501C183.727 517.701 184.727 525.071 181.207 530.011C177.687 534.951 168.827 538.701 159.577 542.151C150.337 545.591 138.227 549.091 125.747 550.671C113.257 552.251 97.5173 553.001 84.6773 551.631C71.8273 550.251 58.5573 545.801 48.6873 542.421C38.8073 539.041 30.0173 536.131 25.4273 531.361C20.8373 526.591 18.9273 518.721 21.1373 513.821C23.3373 508.931 30.3973 505.711 38.6773 502.001C46.9473 498.291 62.3473 493.811 70.7973 491.541C79.2573 489.271 86.2073 488.921 89.4073 488.401C92.5973 487.891 89.6373 487.911 89.9773 488.451M104.707 488.411C117.237 488.351 133.007 491.421 144.157 493.931C155.307 496.451 164.857 499.311 171.597 503.511C178.327 507.711 184.107 514.101 184.557 519.141C185.007 524.171 180.247 529.321 174.267 533.741C168.297 538.161 159.337 542.741 148.707 545.661C138.067 548.581 123.327 550.661 110.447 551.241C97.5773 551.821 83.3573 551.301 71.4773 549.141C59.5873 546.981 47.3573 542.251 39.1673 538.291C30.9673 534.331 24.5873 530.111 22.2973 525.371C19.9973 520.641 21.0873 514.641 25.4073 509.901C29.7273 505.171 38.4273 500.291 48.2173 496.951C58.0073 493.611 74.1573 491.351 84.1673 489.861C94.1873 488.371 103.627 488.101 108.327 488.001C113.027 487.911 112.557 488.561 112.347 489.281L104.707 488.411Z"
        stroke="black" stroke-width="2" stroke-linecap="round" />
    <path fill-rule="evenodd" clip-rule="evenodd"
        d="M2.92529 595.77L4.64529 633.27L9.26529 647.03L19.6953 658.73L31.0853 665.34L50.5353 670.85L73.8153 677.39L107.445 677.3L136.335 677.58L158.845 673.97L176.265 669.17L186.765 661.55L198.175 651.43L197.715 647.02L202.775 609.68L199.625 594.56L193.135 600.18L182.965 606.03L170.505 612.89L154.695 616.55L131.545 619.27L91.6953 618.56L55.5153 616.05L34.5253 610.27L23.9553 608.74L3.54529 595.06"
        fill="#FE7F80" />
    <path
        d="M5.94543 594.31C5.94543 598.65 3.98543 611.29 4.32543 620.42C4.67543 629.55 2.96543 641.56 8.00543 649.08C13.0454 656.59 23.1754 661.08 34.5854 665.51C45.9954 669.95 59.5854 674.04 76.4454 675.7C93.3054 677.37 119.585 676.94 135.735 675.51C151.895 674.09 163.395 670.87 173.365 667.16C183.335 663.45 190.805 660.23 195.585 653.25C200.355 646.27 200.975 634.42 202.015 625.28C203.055 616.15 202.955 602.52 201.815 598.44C200.675 594.36 200.515 598.51 195.155 600.82C189.795 603.12 180.035 609.28 169.645 612.27C159.245 615.26 148.155 617.49 132.785 618.77C117.405 620.04 93.7854 621.13 77.3854 619.91C60.9854 618.69 46.3854 615.65 34.3854 611.45C22.3754 607.26 10.5054 597.44 5.32543 594.73M4.06543 595.33C4.19543 599.48 4.46543 610.61 5.22543 619.4C5.98543 628.2 3.86543 640.05 8.62543 648.07C13.3854 656.1 22.8154 662.96 33.8054 667.55C44.7954 672.13 57.2854 674.12 74.5554 675.58C91.8154 677.04 120.945 677.46 137.395 676.29C153.855 675.12 163.405 672.35 173.265 668.55C183.135 664.74 192.105 660.49 196.605 653.46C201.105 646.44 199.585 635.56 200.275 626.4C200.955 617.24 201.655 602.84 200.715 598.51C199.765 594.17 199.555 598.06 194.625 600.39C189.705 602.72 181.465 609.32 171.175 612.5C160.885 615.68 148.385 618.2 132.875 619.46C117.365 620.71 94.6154 621.3 78.1354 620.04C61.6554 618.78 46.2754 616.24 33.9954 611.92C21.7054 607.59 9.32543 596.96 4.42543 594.09L4.06543 595.33Z"
        stroke="black" stroke-width="2" stroke-linecap="round" />
    <path fill-rule="evenodd" clip-rule="evenodd"
        d="M5.2784 662.449L3.6084 702.549L6.8084 716.499L18.1684 723.049L31.6684 731.179L50.1484 736.739L76.5084 743.059L106.378 742.499L138.168 742.409L158.638 740.679L174.948 733.519L187.028 729.649L194.888 718.059L198.888 715.289L200.918 677.499L197.728 662.919L193.048 667.189L184.358 673.129L172.258 679.639L154.828 681.519L133.638 686.309L89.8284 688.649L53.6684 684.699L32.5084 678.169L5.6984 661.889"
        fill="#FE7F80" />
    <path
        d="M3.4082 662.139C3.8682 666.039 5.8482 677.089 6.4082 685.749C6.9682 694.419 2.0582 706.329 6.7682 714.129C11.4682 721.929 23.0082 728.229 34.6482 732.549C46.2882 736.859 59.9182 738.389 76.6182 740.009C93.3282 741.639 118.508 743.489 134.888 742.319C151.278 741.149 164.728 736.999 174.918 732.989C185.108 728.989 191.848 725.069 196.028 718.299C200.198 711.529 199.558 701.159 199.948 692.379C200.348 683.599 199.538 669.389 198.388 665.609C197.228 661.829 197.648 667.609 193.028 669.679C188.398 671.759 180.448 675.449 170.638 678.059C160.838 680.669 149.668 683.839 134.198 685.329C118.728 686.809 94.4082 688.169 77.8082 686.959C61.1982 685.759 46.8682 681.879 34.5682 678.089C22.2682 674.299 8.7282 666.859 4.0182 664.209M4.8382 663.129C4.8682 667.349 3.7182 678.929 4.2182 687.729C4.7182 696.529 2.8982 708.609 7.8482 715.939C12.7882 723.279 22.7382 727.279 33.8782 731.739C45.0182 736.199 57.5382 741.279 74.6982 742.699C91.8682 744.109 120.268 741.639 136.878 740.239C153.478 738.849 164.318 737.889 174.318 734.339C184.328 730.779 192.418 725.709 196.928 718.889C201.428 712.069 200.698 702.269 201.358 693.429C202.018 684.589 202.238 669.959 200.898 665.859C199.548 661.749 198.098 666.659 193.268 668.819C188.428 670.969 181.768 675.909 171.858 678.799C161.958 681.699 149.408 684.819 133.838 686.199C118.268 687.579 95.0582 688.329 78.4482 687.099C61.8282 685.859 46.6282 682.799 34.1482 678.779C21.6782 674.759 8.5882 665.779 3.5982 662.979L4.8382 663.129Z"
        stroke="black" stroke-width="2" stroke-linecap="round" />
    <path
        d="M502.16 251.88C499.8 248.96 496.89 247.6 494.65 244.63M161.35 57.6C163.29 52.82 163.23 51.74 167.97 47.07L161.35 57.6ZM160.14 55.98C163.41 52.97 165.49 50.69 169.01 46.18L160.14 55.98ZM158.94 71.53C163.69 66.74 164.63 62.68 175.84 49.07L158.94 71.53ZM158.63 69.76C164.81 62.54 171.32 55.57 175.26 50.04L158.63 69.76ZM154.91 84.76C164.05 79.24 170.24 69.19 182.53 53.93L154.91 84.76ZM156.01 84.34C166.27 73.9 175.28 64.03 181.89 54.73L156.01 84.34ZM154.56 97.91C169.26 82.8 178.94 70.57 189.02 58.67L154.56 97.91ZM154.59 100.05C163.42 87.82 173.44 76.79 189.99 60.07L154.59 100.05ZM151.01 115.01C164.31 101.88 173.02 89.96 195.37 61.94L151.01 115.01ZM152.88 113.87C167.81 96.6 181.04 79.59 197.51 63.7L152.88 113.87ZM150.8 127.29C165.81 112.97 177.84 98.48 202.69 66.29L150.8 127.29ZM152.13 126.64C165.08 112.91 176.43 98.06 203.4 67.23L152.13 126.64ZM151.44 139.84C161.57 129.12 174.65 115.34 209.24 73.41L151.44 139.84ZM149.57 142.2C172.19 114.85 195.94 88.15 209.4 71.89L149.57 142.2ZM149.65 154.91C164.19 135.41 179.02 119.12 216.79 74.13L149.65 154.91ZM148.22 154.99C169.06 131.6 191.56 106.75 217.95 74.89L148.22 154.99ZM146.98 170.66C172.91 139.42 198.44 106.79 224.86 78.44L146.98 170.66ZM146.14 169.2C178.34 134.88 208.21 97.72 224.09 79.82L146.14 169.2ZM142.69 184.13C173.41 150.11 204.36 113.4 230.92 82.72L142.69 184.13ZM144.97 184.13C170.37 155.73 194.07 126.53 231.29 84.24L144.97 184.13ZM142.03 199.03C170.35 166.56 197.62 135.68 236.64 87.75L142.03 199.03ZM141.8 198.3C166.13 172.02 188.41 145.67 237.32 88.08L141.8 198.3ZM140.47 213.43C176.37 172.06 216.47 126.06 246.24 92.72L140.47 213.43ZM141.04 213.63C161.81 189.08 185.02 163.72 244.22 92.02L141.04 213.63ZM139.96 227.6C162.19 200.4 184.55 173.37 250.59 98.47L139.96 227.6ZM138.29 227.5C181.46 176.74 224.34 126.62 252.03 97.07L138.29 227.5ZM137.17 239.67C182.63 189.44 226.64 137.78 257.58 101.45L137.17 239.67ZM136.25 240.91C169.57 203.63 201.36 166.94 258.76 101.02L136.25 240.91ZM135.75 257.44C188.5 194.23 239.74 133.99 266.32 103.81L135.75 257.44ZM134.54 256.59C165.9 219.12 198.94 180.51 266.28 104.75L134.54 256.59ZM135.08 269.33C184.22 210.86 235.15 152 271.52 108.75L135.08 269.33ZM134.24 268.52C165.58 232.32 199.02 195.11 272.15 109.9L134.24 268.52ZM132.58 283.26C178.08 231.86 218.5 184.74 280.91 113.67L132.58 283.26ZM131.43 284.34C169.53 239.3 208.56 194.6 279.44 113.24L131.43 284.34ZM130.69 297.59C175.33 245.62 221.28 190.03 287.53 117.94L130.69 297.59ZM130.07 298.56C173.88 246.98 217.48 196.54 286.63 118.69L130.07 298.56ZM127.78 312.19C165.16 272.31 199.55 233.08 292.07 123.95L127.78 312.19ZM128.58 312.06C161.77 271.98 196.85 231.72 293.72 122.22L128.58 312.06ZM125.73 327.27C192.53 252.38 259.47 176.31 300.36 125.93L125.73 327.27ZM127.36 325.95C184.18 260.15 241.59 193.61 300.1 126.05L127.36 325.95ZM123.53 340.04C163.33 298.25 202.6 253.26 308.56 131.65L123.53 340.04ZM125.39 341.57C176.83 278.54 230.79 218.03 307.28 130.99L125.39 341.57ZM123.8 353.94C197.77 268.06 271.62 182.72 314.32 135.19L123.8 353.94ZM123.32 354.59C184.03 286 244.38 215.92 313.12 135.45L123.32 354.59ZM120.85 368.85C172.96 311.5 222.24 252.6 320.84 138.01L120.85 368.85ZM121.67 368.97C171.31 310.32 222.06 251.77 320.79 139.28L121.67 368.97ZM118.96 384.24C200.32 288.27 283.8 191.77 328.75 144.41L118.96 384.24ZM119.4 383.2C190.44 302.5 261.29 220.64 327.43 143.13L119.4 383.2ZM117.48 399.06C168.64 339.05 222.17 279.99 334.71 148.52L117.48 399.06ZM118.1 397.96C170.02 335.53 223.02 273.43 334.1 148.27L118.1 397.96ZM114.32 411.67C163.17 355.9 213.59 300.39 341.19 150.79L114.32 411.67ZM116.24 411.96C177.31 339.22 240.27 267.22 342.11 151.95L116.24 411.96ZM114.67 426.67C202.02 326.6 290.16 226.14 348.57 156.59L114.67 426.67ZM114.06 425.38C205.43 321.03 297.67 215.19 348.37 156.68L114.06 425.38ZM112.7 439.39C198.23 339.45 283.48 240.57 354.37 161.25L112.7 439.39ZM113.2 440.15C161.77 383.5 211.27 327.48 355.82 160.45L113.2 440.15ZM111.33 454.5C207.22 342.47 304.11 232.29 361.69 165.28L111.33 454.5ZM110.4 454.38C212.75 339.77 312.29 223.95 362.36 165.32L110.4 454.38ZM109.55 468.63C174.46 394.36 238.65 318.4 369.62 168.81L109.55 468.63ZM108.68 469.17C201.61 363.19 293.68 257.25 368.88 168.79L108.68 469.17ZM108.08 484.16C192.7 387.16 276.88 290.67 375.4 173.97L108.08 484.16ZM106.71 483.11C200.66 374.8 294.38 266.86 375.61 173.76L106.71 483.11ZM105.06 497.53C177.06 412.62 249.88 328.7 383.92 177.79L105.06 497.53ZM104.86 497.04C208.59 381.37 310.07 264.2 383.75 177.81L104.86 497.04ZM102.67 512.4C197.66 404.32 290.44 297.37 390.21 181.36L102.67 512.4ZM103.81 511.67C193.76 408.15 283.99 304.56 390.19 181.61L103.81 511.67ZM104.62 521.93C179.76 434.35 254.39 347.92 396.67 186.82L104.62 521.93ZM105.4 521.19C175.29 440.92 245.8 359.5 396.72 186.24L105.4 521.19ZM129.68 504.37C214.83 407.73 300.1 311.26 404.73 189.39L129.68 504.37ZM130.9 504.55C223.67 396.64 318.43 288.96 403.66 190.35L130.9 504.55ZM155.61 487.84C215.99 417.48 276.91 348.47 410.93 193.71L155.61 487.84ZM156.28 487.6C252.82 377.99 347.47 268.42 411.14 194.64L156.28 487.6ZM181.41 469.77C244.31 399.05 308.21 328.74 417.3 199.42L181.41 469.77ZM181.85 471.04C245.24 397.42 308.93 325.41 417.39 199.44L181.85 471.04ZM206.54 454.02C274.96 374.57 339.33 299.17 425.68 201.85L206.54 454.02ZM207.05 454.12C278.1 369.34 351.16 285.75 424.58 202.61L207.05 454.12ZM230.9 437.24C295.63 364.44 358.34 292.67 432.77 207.17L230.9 437.24ZM232.48 436.94C290.16 369.05 348 302.05 431.04 208.07L232.48 436.94ZM258.36 420.42C313.3 357.91 364.77 295.81 439.36 212.25L258.36 420.42ZM257.1 419.95C306.71 363.65 355.26 306.66 437.56 211.96L257.1 419.95ZM282.15 404.29C333.11 345.19 379.59 292.31 446.06 217.28L282.15 404.29ZM282.97 403.07C318.91 360.61 354.24 319.89 445.41 216.27L282.97 403.07ZM308.68 385.43C362.96 326.12 413.94 266.64 451.53 218.57L308.68 385.43ZM308.29 385.45C354.99 330.69 402.58 277.55 452.69 220.94L308.29 385.45ZM333.81 369.1C379.01 315.44 423.5 261.32 460.38 223.96L333.81 369.1ZM332.8 368.76C361.69 336.47 389.14 304.59 459.64 225.48L332.8 368.76ZM361.39 352.97C398.28 306.44 435.9 263.96 466.47 228.2L361.39 352.97ZM358.76 351.06C382.96 326.21 403.39 300.68 466.42 227.71L358.76 351.06ZM383.31 335.53C404.44 315.55 422.33 291.27 473.86 234.89L383.31 335.53ZM384.8 334.88C408.21 311 430.01 285.04 473.56 232.67L384.8 334.88ZM408.79 318.16C428.62 293.82 449.77 270.69 481.67 237.26L408.79 318.16ZM409.29 317.34C423.64 299.83 439.98 283.98 479.42 237.75L409.29 317.34ZM435.44 298.93C447.43 288.8 458.16 277.65 486.25 239.93L435.44 298.93ZM434.93 300.3C448.04 285.43 459.02 271.37 486.23 241.19L434.93 300.3ZM462.69 282.25C469.27 274.95 479.23 262.22 495.45 244.93L462.69 282.25ZM461.85 282.49C468.95 274.7 475.16 267.07 493.91 246.51L461.85 282.49ZM486.82 264.72C490.2 262.96 496.13 255.27 500.82 250.92L486.82 264.72ZM486.28 267.62C491.54 261.77 495.2 256.64 499.96 250.07L486.28 267.62ZM109.55 514.24C108.37 513.35 106.7 510.97 103.93 510.17L109.55 514.24ZM109.37 514.44C107.32 512.69 104.94 510.9 103.85 509.48L109.37 514.44ZM116.54 509.95C111.38 505.77 109.33 502.68 105.76 499.5L116.54 509.95ZM116.39 509.52C112.87 507.69 110.99 505.05 105.38 500.39L116.39 509.52ZM123.82 503.83C116.81 502.08 110.47 494.06 107.16 491.09L123.82 503.83ZM122.99 506.31C119.12 501.32 113.26 495.51 105.25 491.05L122.99 506.31ZM128.62 499.22C123.57 492.37 112.93 488.26 109.47 479.58L128.62 499.22ZM130.65 499.92C122.15 494.39 115.08 487.52 108.6 480.33L130.65 499.92ZM135.61 497.66C127.35 489.15 118.31 479.16 106.82 471.82L135.61 497.66ZM137.35 495.77C127.94 487.27 117.54 478.52 108.57 470.23L137.35 495.77ZM145.71 491.26C132.75 484.5 125.41 475.47 110.68 461.84L145.71 491.26ZM144.02 491.51C131.12 480.26 120.34 470.96 109.01 462.47L144.02 491.51ZM149.35 487.31C140.62 476.06 131.3 468.35 109.25 449.94L149.35 487.31ZM151.29 485.74C135.06 473.77 121.4 461.84 111.33 452.24L151.29 485.74ZM158.66 479.98C143.6 469.11 128.18 454.64 113.73 443.69L158.66 479.98ZM157.35 482.22C145.71 471.2 132.61 460.31 112.4 441.62L157.35 482.22ZM164.53 478.74C145.99 460.31 123.97 444.15 113.27 433.08L164.53 478.74ZM164.6 478.55C145.79 460.96 125.27 444.66 113.17 433.07L164.6 478.55ZM169.78 473.51C153.19 456.76 132.04 439.52 113.5 424.28L169.78 473.51ZM172.52 473.79C155.79 460.02 139.64 447.03 114.77 423.54L172.52 473.79ZM178 466.3C166.26 458.02 153.5 443.55 115.03 413.29L178 466.3ZM178.03 468.39C154.4 446.08 130.59 425.37 116.67 414.56L178.03 468.39ZM186.73 464.39C167.82 447.95 150.24 434.83 117.21 405.82L186.73 464.39ZM184.38 463.81C166.08 446.18 146.21 430.35 118.04 404.43L184.38 463.81ZM192.5 460.7C175.17 445.56 159.21 430.38 116.59 394.96L192.5 460.7ZM191.76 459.21C163.59 434.66 136.4 409.62 117.86 394.32L191.76 459.21ZM199.81 454.19C176.28 432.48 150.4 413.61 117.47 386.93L199.81 454.19ZM199.94 454.3C180.58 438.78 160.93 421.36 119.08 384.35L199.94 454.3ZM206.39 451.01C178.64 427.81 149.72 401.78 118.87 376.2L206.39 451.01ZM205.15 450.79C178.95 426.6 150.55 401.12 119.19 375.13L205.15 450.79ZM211.95 444.18C186.56 423.44 161.05 401.53 120.78 366.54L211.95 444.18ZM212.42 444.48C189.42 425.72 166.74 405.67 122.18 365.13L212.42 444.48ZM219.41 438.71C193.8 419.23 167.81 397.5 123.18 358.14L219.41 438.71ZM220.5 440.75C181.78 408.3 147.51 376.97 123.08 356.23L220.5 440.75ZM227.95 436C199.93 409.58 168.76 387.69 124.5 345.33L227.95 436ZM226.46 435.34C204.64 416.6 183.18 397.12 124.1 345.78L226.46 435.34ZM233.18 429.63C191.61 395.43 150.44 360.97 124.17 338.33L233.18 429.63ZM233.56 430.49C205.09 406.63 178.47 382.88 124.83 336.71L233.56 430.49ZM240.23 425.68C207.13 396.47 170.85 366.6 126.35 327.01L240.23 425.68ZM239.9 427.69C195.38 388.31 152.65 351.57 127.52 327.74L239.9 427.69ZM248.92 423.97C218.18 395.27 186.09 370.32 126.41 318.65L248.92 423.97ZM247.27 423.21C212.22 392.99 178.54 364.12 127.24 317.44L247.27 423.21ZM254.58 417.63C216.91 387.02 184.27 354.5 129.46 307.67L254.58 417.63ZM253.51 418.17C224.76 393.75 195.77 369.39 128.04 308.34L253.51 418.17ZM261.25 414.33C227.47 383.32 194.67 354.99 129.32 298.73L261.25 414.33ZM261.47 411.99C214.39 373.97 169.67 334.68 129.51 298.44L261.47 411.99ZM266.69 408.62C228.9 376.96 191.78 345.06 130.8 287.77L266.69 408.62ZM267.51 407.21C218.13 364.28 164.91 318.7 130.72 288.64L267.51 407.21ZM274.65 401.68C244.05 374.41 211.28 344.34 132.7 281.18L274.65 401.68ZM273.47 403.64C228.69 364.49 182.93 325.21 132.8 280.21L273.47 403.64ZM283.85 397.77C246.27 369.85 213.33 336.16 134.25 269.48L283.85 397.77ZM281.28 399.07C245.13 367.21 210.04 337.17 133.06 270.91L281.28 399.07ZM289.18 393.47C234.45 347.22 177.99 298.23 133.82 261.04L289.18 393.47ZM287.88 394.8C249.5 357.55 207.79 322.43 135.13 261.05L287.88 394.8ZM294.83 388.8C254.64 356.62 214.39 318.76 136.06 250.18L294.83 388.8ZM295.2 389.83C259.91 358.82 226.55 329.25 136.45 251.8L295.2 389.83ZM302.46 385.04C245.85 335.27 189.6 286.1 135.61 241.74L302.46 385.04ZM301.87 385.92C267.87 354.36 232.06 323.25 136.27 241.22L301.87 385.92ZM309.77 381.03C250.32 329.69 188.81 276.16 137.86 231.13L309.77 381.03ZM308.94 381.2C261.68 339.91 213.7 297.63 139.21 232.03L308.94 381.2ZM314.1 376.65C249.82 319.18 179.84 260.5 139.63 220.69L314.1 376.65ZM316.33 375.57C249.78 316.59 182.16 256.58 139.64 221.83L316.33 375.57ZM323.47 373.17C280.37 334.77 235.24 298.21 139.21 214.03L323.47 373.17ZM323.51 371.35C287.55 339.59 251.41 308.7 141.32 213.58L323.51 371.35ZM330.09 367.14C285.74 327.46 244.79 292.03 141.16 204.82L330.09 367.14ZM329.77 367.34C260.81 305.01 189.12 244.71 141.83 204.4L329.77 367.34ZM335.44 360.73C267.81 301.44 198.65 241.96 142.06 195.22L335.44 360.73ZM336.89 363.01C277.35 309.48 217.71 256.8 143.02 194.32L336.89 363.01ZM343.75 358.67C280.39 300.74 216.69 246.15 143.08 184.37L343.75 358.67ZM342.81 357.61C269.5 292.19 195.93 228.55 144.95 185.03L342.81 357.61ZM350.18 352.81C294.85 303.4 237.12 254.62 145.46 173.98L350.18 352.81ZM350.34 352.48C283.73 296.55 216.35 238.21 146.23 174.44L350.34 352.48ZM357.1 347.54C309.22 306.98 258.27 262.59 146.66 163.61L357.1 347.54ZM357.47 347.92C288.42 286.34 219.24 225.95 146.15 165.05L357.47 347.92ZM365.38 344.15C306.18 293.63 250.69 243.86 149.13 155.65L365.38 344.15ZM364.44 343.99C288.75 278.11 212.78 211.42 148.31 155.09L364.44 343.99ZM371.76 338.32C310.84 289.46 254.52 237.4 149.07 144.51L371.76 338.32ZM372.01 339.56C281.77 263.21 195.01 186.77 149.12 146.39L372.01 339.56ZM379.51 335.85C301.31 269.72 225.17 204.54 148.78 136.75L379.51 335.85ZM378.38 334.83C312.85 278.71 248.33 222.94 149.92 136.05L378.38 334.83ZM383.81 329.08C338.96 286.82 290.42 245.46 151.23 128.27L383.81 329.08ZM385.06 330.22C314.4 271.75 246.11 211.38 151.49 126.94L385.06 330.22ZM390.2 323.85C296.77 240.98 203.34 159.62 151.06 118.15L390.2 323.85ZM391.56 325.71C302.08 246.33 213.64 170.08 151.81 117.8L391.56 325.71ZM397.24 321.56C301.13 236.13 203.41 153.56 154.27 107.36L397.24 321.56ZM398.29 320.92C318.32 251.17 237.15 180.59 154.03 108.42L398.29 320.92ZM406.18 317.27C333.73 251.85 264.76 191.15 154.07 97.44L406.18 317.27ZM405.72 315.87C339.3 255.69 272.03 198.58 154.82 98.58L405.72 315.87ZM412.63 310.92C342.16 249.09 267.7 187.03 155.63 89.36L412.63 310.92ZM412.73 311.17C314.62 225.47 214.38 138.89 156.24 88.62L412.73 311.17ZM419.42 307.88C325.38 226.69 232.95 143.94 156.39 80.12L419.42 307.88ZM419.67 306.56C366.45 262.51 314 216.92 156.99 78.79L419.67 306.56ZM425.54 302.96C364.81 251.3 306.38 199.47 157.37 68.87L425.54 302.96ZM426.59 302.44C333.38 222.13 243.63 143.66 157.81 68.82L426.59 302.44ZM432.42 296.96C351.67 228.41 273.58 157.26 158.6 59.01L432.42 296.96ZM432.65 296.76C330.93 210.05 228.84 120.59 159.44 60.47L432.65 296.76ZM438.9 293.51C354.95 218.64 271.03 145 161.79 50.84L438.9 293.51ZM439.84 292.69C375.11 237.69 309.66 180.88 161.21 50.65L439.84 292.69ZM447.21 289.56C367.88 217.87 287.13 149.77 163.48 41.67L447.21 289.56ZM447.3 287.99C337.7 192.08 227.57 96.36 162.72 41.66L447.3 287.99ZM455.3 282.74C372.02 211.23 288.35 138.48 204.5 67.4L455.3 282.74ZM454.59 283.69C379.49 219.09 304.57 154.33 204.28 66.57L454.59 283.69ZM460.84 280.51C409.48 236.52 360.19 192.17 244.6 92.69L460.84 280.51ZM460.92 279.69C417.2 240.44 373.94 202.81 245.42 92.53L460.92 279.69ZM466.82 275.94C427.28 240.64 386.46 205.69 286.35 117.99L466.82 275.94ZM467.35 273.72C403.15 221.34 342.24 166.99 287.85 117.28L467.35 273.72ZM475.15 269.34C417.16 221.2 364.29 174.87 329.31 141.15L475.15 269.34ZM473.4 268.82C419.35 220.97 365.47 172.59 329.17 143.05L473.4 268.82ZM481.57 264.66C455.89 244.27 433.07 223.19 368.18 168.87L481.57 264.66ZM480.38 264.64C440.29 228.63 399.49 191.71 370.36 169.09L480.38 264.64ZM487.7 262.14C468.25 243.64 446.57 222.76 413.36 192.6L487.7 262.14ZM487.8 261.88C470.4 244.06 451.49 228.79 411.5 194.55L487.8 261.88ZM495.05 254.43C484.29 246.01 472.24 235.31 451.65 220.12L495.05 254.43ZM494.35 256.63C480.61 243.85 466.1 231.08 452.84 218.96L494.35 256.63ZM501.79 250.98C500.05 249.85 497.04 247.36 494.37 244.13L501.79 250.98Z"
        stroke="#FAB005" stroke-linecap="round" />
    <path fill-rule="evenodd" clip-rule="evenodd"
        d="M161.98 42.2C147.71 154.31 134.47 267.52 102.44 518.69L161.98 42.2ZM162.03 41.98C138.87 222.57 116.73 402.08 102.57 519.47L162.03 41.98ZM101.88 518.75C226.03 437.17 348.79 354.21 503.29 250.87L101.88 518.75ZM102.18 518.82C246.97 421.47 391.98 324.55 502.48 250.84L102.18 518.82ZM501.95 251.95C400.07 189.04 298.69 127.47 161.64 42.11L501.95 251.95ZM502.97 251.12C402.17 187.32 301.24 125.81 162.04 41.98L502.97 251.12Z"
        stroke="black" stroke-width="2" stroke-linecap="round" />
    <path fill-rule="evenodd" clip-rule="evenodd"
        d="M291.159 202.076L222.289 284.916L264.559 278.126L223.839 342.896L316.009 260.436L265.529 263.376L288.679 202.316"
        fill="#FA5252" />
    <path fill-rule="evenodd" clip-rule="evenodd"
        d="M292.219 201.996C270.689 223.866 254.839 247.026 221.999 284.556L292.219 201.996ZM290.929 203.316C268.099 231.296 244.189 259.856 224.009 283.836L290.929 203.316ZM224.029 282.596C232.229 280.606 243.939 280.516 262.659 281.296L224.029 282.596ZM223.459 282.996C232.959 282.036 241.869 280.726 263.839 280.586L223.459 282.996ZM263.689 279.666C252.209 301.016 235.559 325.056 227.289 342.906L263.689 279.666ZM264.559 279.476C254.019 295.316 244.239 311.536 225.119 343.686L264.559 279.476ZM224.089 341.926C245.689 324.196 265.829 304.376 315.539 259.606L224.089 341.926ZM225.499 343.616C259.539 310.956 291.629 279.936 314.929 259.086L225.499 343.616ZM315.319 260.166C295.669 261.706 274.769 262.276 265.849 264.116L315.319 260.166ZM314.619 258.606C298.179 259.266 282.119 261.136 263.569 262.796L314.619 258.606ZM264.259 261.666C272.619 244.026 281.219 225.236 291.669 205.136L264.259 261.666ZM264.509 262.666C272.819 244.036 283.459 222.716 290.469 202.796L264.509 262.666Z"
        stroke="black" stroke-width="2" stroke-linecap="round" />
</svg>