<svg width="1013" height="100%" viewBox="0 0 1013 796" fill="none" xmlns="http://www.w3.org/2000/svg">
    <path
        d="M295.398 243.989C300.568 242.209 308.598 242.239 313.868 244.169C319.148 246.089 324.388 250.499 327.048 255.539C329.718 260.569 331.098 268.849 329.878 274.359C328.668 279.869 324.308 285.289 319.788 288.589C315.258 291.879 308.568 294.469 302.758 294.119C296.938 293.759 288.968 290.099 284.878 286.449C280.788 282.799 278.888 277.619 278.218 272.219C277.538 266.809 277.448 258.919 280.838 254.029C284.238 249.139 295.368 244.879 298.578 242.879C301.778 240.879 300.218 241.659 300.058 242.029L295.398 243.989ZM302.678 241.689C307.928 240.899 315.038 243.289 319.338 246.599C323.628 249.909 327.148 255.959 328.438 261.539C329.718 267.119 329.528 275.059 327.038 280.089C324.548 285.109 318.578 289.369 313.518 291.689C308.458 294.009 302.018 295.459 296.678 294.019C291.338 292.579 284.638 287.929 281.478 283.059C278.308 278.179 277.038 270.409 277.678 264.769C278.318 259.129 281.048 252.819 285.308 249.229C289.578 245.639 300.388 244.499 303.278 243.239C306.178 241.979 302.978 241.229 302.668 241.679"
        fill="#FE7F80" />
    <path
        d="M314.979 243.629C319.619 245.659 323.939 251.729 326.369 256.989C328.799 262.249 330.829 269.629 329.549 275.189C328.259 280.749 323.529 287.179 318.659 290.329C313.799 293.479 305.809 294.759 300.359 294.089C294.919 293.419 289.989 290.439 285.989 286.329C281.989 282.209 276.879 275.139 276.359 269.389C275.839 263.629 279.519 256.009 282.859 251.809C286.209 247.609 290.859 245.179 296.419 244.169C301.979 243.169 313.289 245.729 316.219 245.779C319.159 245.829 314.469 244.159 314.039 244.449M291.699 244.129C296.519 241.769 304.929 242.279 310.469 243.639C316.019 244.999 321.649 247.729 324.959 252.299C328.269 256.869 330.769 265.209 330.329 271.079C329.879 276.939 326.379 283.709 322.289 287.479C318.199 291.249 311.339 293.189 305.769 293.679C300.189 294.169 293.329 293.529 288.849 290.439C284.379 287.339 280.319 280.679 278.909 275.129C277.499 269.569 277.809 262.299 280.409 257.109C282.999 251.919 291.739 246.329 294.459 243.989C297.189 241.659 296.439 242.659 296.779 243.089L291.699 244.129Z"
        stroke="black" stroke-width="2" stroke-linecap="round" />
    <path
        d="M361.487 404.78C366.157 402.17 373.267 401.24 378.477 402.58C383.687 403.91 389.297 408.32 392.757 412.79C396.207 417.26 399.407 423.87 399.207 429.39C399.017 434.9 395.457 441.99 391.597 445.87C387.727 449.75 381.637 451.92 376.017 452.65C370.397 453.38 362.417 453.23 357.867 450.25C353.307 447.26 350.187 440.03 348.657 434.74C347.127 429.46 346.377 423.64 348.677 418.54C350.967 413.43 360.017 406.73 362.427 404.14C364.847 401.54 363.067 402.66 363.187 402.98L361.487 404.78ZM375.817 402.1C380.977 402.29 387.677 405.57 391.407 409.7C395.147 413.83 397.847 421.27 398.207 426.88C398.577 432.48 396.987 438.83 393.597 443.32C390.217 447.82 383.227 452.62 377.877 453.82C372.527 455.02 366.267 453.23 361.487 450.53C356.697 447.84 351.497 442.83 349.167 437.65C346.847 432.47 345.917 424.57 347.537 419.45C349.147 414.33 353.887 409.76 358.857 406.93C363.837 404.11 374.647 403.38 377.377 402.5C380.097 401.62 375.257 401.5 375.217 401.64"
        fill="#FE7F80" />
    <path
        d="M375.187 400.77C380.427 401.4 387.447 406.83 391.307 411.31C395.167 415.79 397.967 422.24 398.367 427.63C398.757 433.02 397.027 439.15 393.657 443.65C390.297 448.16 383.657 453.67 378.167 454.66C372.677 455.65 365.727 452.42 360.747 449.6C355.757 446.77 350.527 442.89 348.267 437.71C346.007 432.53 345.167 423.72 347.177 418.53C349.187 413.34 355.317 409.5 360.337 406.56C365.367 403.63 374.807 401.69 377.327 400.92C379.857 400.15 375.627 401.44 375.467 401.95M364.097 403.17C369.217 401.32 377.897 401.37 383.007 403.52C388.117 405.68 392.127 411.15 394.787 416.1C397.447 421.06 399.777 427.92 398.947 433.25C398.127 438.58 394.407 444.63 389.847 448.09C385.287 451.56 377.157 454.11 371.577 454.06C365.997 454.01 360.417 451.47 356.357 447.8C352.287 444.13 348.137 437.71 347.157 432.06C346.177 426.4 347.347 418.81 350.487 413.86C353.627 408.92 363.307 404.06 365.987 402.38C368.657 400.7 366.387 403.19 366.527 403.81L364.097 403.17Z"
        stroke="black" stroke-width="2" stroke-linecap="round" />
    <path
        d="M559.694 436.364C564.684 433.974 572.254 433.574 577.634 435.514C583.004 437.464 589.114 443.154 591.964 448.034C594.804 452.924 595.734 459.404 594.714 464.824C593.704 470.254 590.394 477.054 585.894 480.584C581.394 484.124 573.304 485.854 567.724 486.034C562.144 486.204 556.684 485.084 552.414 481.654C548.144 478.224 543.034 471.054 542.084 465.454C541.134 459.844 543.604 453.064 546.704 448.004C549.814 442.954 558.374 437.134 560.724 435.134C563.074 433.144 560.744 435.424 560.804 436.044L559.694 436.364ZM569.964 434.094C575.094 433.984 581.624 437.084 585.724 441.014C589.824 444.944 593.854 452.114 594.584 457.684C595.314 463.264 593.064 469.644 590.124 474.454C587.174 479.264 582.224 484.734 576.904 486.554C571.584 488.384 563.444 487.764 558.194 485.404C552.944 483.044 547.974 477.434 545.404 472.384C542.824 467.334 541.324 460.304 542.754 455.094C544.184 449.894 549.374 444.714 553.974 441.164C558.584 437.604 567.864 434.544 570.364 433.764C572.864 432.984 569.274 436.074 568.974 436.474"
        fill="#FE7F80" />
    <path
        d="M562.264 434.374C567.614 433.124 576.814 434.554 582.044 437.444C587.264 440.324 591.764 446.374 593.604 451.654C595.444 456.944 594.774 463.864 593.094 469.144C591.414 474.424 588.454 480.464 583.524 483.324C578.584 486.184 569.194 487.294 563.474 486.284C557.754 485.274 552.884 481.164 549.194 477.244C545.504 473.334 541.354 468.104 541.344 462.794C541.334 457.494 545.614 450.164 549.124 445.424C552.634 440.684 560.094 435.904 562.404 434.344C564.724 432.784 562.854 435.594 563.024 436.044M561.684 436.344C566.854 434.504 574.154 433.834 579.354 436.134C584.544 438.434 590.384 444.824 592.844 450.154C595.304 455.494 595.624 462.914 594.094 468.144C592.564 473.364 588.214 478.264 583.664 481.524C579.114 484.784 572.274 488.014 566.804 487.694C561.334 487.384 554.804 483.704 550.844 479.634C546.894 475.574 543.754 468.844 543.074 463.304C542.404 457.774 543.524 451.144 546.794 446.424C550.054 441.694 559.564 436.694 562.664 434.964C565.764 433.234 565.104 435.504 565.394 436.054L561.684 436.344Z"
        stroke="black" stroke-width="2" stroke-linecap="round" />
    <path
        d="M433.171 143.783C438.051 142.463 445.091 144.193 450.081 146.833C455.081 149.483 461.001 154.543 463.161 159.643C465.331 164.753 464.851 172.413 463.051 177.493C461.251 182.573 457.171 187.153 452.361 190.133C447.541 193.113 439.551 196.103 434.171 195.363C428.781 194.623 423.641 189.773 420.041 185.683C416.431 181.583 412.851 176.163 412.531 170.763C412.221 165.363 414.651 157.963 418.161 153.253C421.671 148.553 430.661 144.163 433.571 142.523C436.491 140.883 435.361 142.873 435.631 143.433L433.171 143.783ZM443.811 143.073C449.031 143.943 455.311 148.973 458.821 153.463C462.321 157.943 465.121 164.323 464.861 169.973C464.601 175.623 460.961 183.263 457.261 187.373C453.561 191.473 448.041 193.993 442.651 194.583C437.271 195.173 429.851 193.953 424.951 190.903C420.061 187.853 415.001 181.423 413.281 176.283C411.561 171.143 412.191 165.043 414.621 160.053C417.051 155.073 423.051 149.233 427.861 146.363C432.671 143.483 440.531 143.373 443.481 142.813C446.431 142.243 445.691 142.563 445.561 142.983"
        fill="#FE7F80" />
    <path
        d="M435.611 144.003C441.001 143.553 448.441 145.443 453.211 148.473C457.971 151.513 462.701 156.693 464.191 162.203C465.691 167.713 464.601 176.643 462.201 181.533C459.791 186.423 454.891 189.383 449.761 191.533C444.631 193.673 436.991 195.843 431.421 194.373C425.861 192.913 419.281 187.193 416.381 182.723C413.471 178.253 413.211 173.083 414.011 167.543C414.811 162.003 417.571 153.633 421.171 149.463C424.761 145.293 432.971 143.593 435.581 142.523C438.191 141.443 436.751 142.673 436.811 143.033M429.251 144.953C433.941 142.713 440.171 143.183 445.501 144.893C450.831 146.603 457.911 150.663 461.221 155.223C464.521 159.793 466.241 166.743 465.341 172.283C464.431 177.823 459.891 184.563 455.781 188.443C451.671 192.333 446.151 195.303 440.681 195.593C435.211 195.883 427.551 193.723 422.961 190.203C418.361 186.673 414.291 180.033 413.101 174.453C411.911 168.873 413.011 161.583 415.801 156.713C418.591 151.843 427.071 147.163 429.861 145.233C432.651 143.313 432.261 145.003 432.521 145.183L429.251 144.953Z"
        stroke="black" stroke-width="2" stroke-linecap="round" />
    <path
        d="M616.83 204.131C622.08 205.591 628.41 211.591 631.34 216.431C634.26 221.271 635.3 227.731 634.37 233.171C633.44 238.611 630.23 245.471 625.78 249.071C621.34 252.671 613.29 254.511 607.71 254.771C602.14 255.041 596.64 254.021 592.31 250.651C587.99 247.291 582.78 240.191 581.74 234.601C580.71 229.011 583.22 222.151 586.09 217.111C588.97 212.071 593.74 206.311 598.99 204.361C604.24 202.401 614.17 204.901 617.62 205.371C621.07 205.841 619.74 206.661 619.7 207.181L616.83 204.131ZM603.08 203.251C608.24 202.141 616.46 204.341 621.32 207.161C626.18 209.981 630.27 214.821 632.25 220.171C634.24 225.531 635.13 233.881 633.24 239.301C631.35 244.721 625.83 250.071 620.9 252.661C615.97 255.261 609.17 255.901 603.65 254.851C598.14 253.801 591.21 250.381 587.82 246.351C584.43 242.321 583.14 236.431 583.29 230.671C583.45 224.921 585.49 216.091 588.74 211.821C591.99 207.551 600.5 206.511 602.81 205.071C605.11 203.641 602.5 203.111 602.57 203.191"
        fill="#FE7F80" />
    <path
        d="M598.06 205.461C603.04 203.111 610.39 203.181 615.6 204.701C620.81 206.211 625.97 210.001 629.29 214.551C632.61 219.101 636.16 226.501 635.52 232.021C634.88 237.531 629.59 243.861 625.45 247.641C621.32 251.431 616.24 253.961 610.68 254.731C605.12 255.511 596.56 255.231 592.09 252.321C587.63 249.411 585.34 243.031 583.91 237.261C582.47 231.491 581.36 222.861 583.47 217.691C585.58 212.521 594.36 208.241 596.58 206.241C598.8 204.241 596.68 205.551 596.79 205.671M601.86 203.331C607.03 201.721 615.29 203.991 620.35 206.741C625.41 209.481 630.11 214.881 632.24 219.801C634.37 224.721 634.67 230.881 633.13 236.261C631.58 241.631 627.49 248.821 622.96 252.061C618.43 255.301 611.47 256.421 605.95 255.681C600.43 254.941 593.87 251.611 589.86 247.611C585.85 243.621 582.4 237.341 581.89 231.711C581.37 226.091 583.06 218.401 586.76 213.851C590.45 209.301 600.96 205.971 604.06 204.431C607.17 202.891 605.54 204.271 605.4 204.601L601.86 203.331Z"
        stroke="black" stroke-width="2" stroke-linecap="round" />
    <path
        d="M637.371 321.762C642.741 322.082 650.541 325.362 654.431 329.362C658.311 333.372 660.471 340.432 660.701 345.772C660.941 351.112 659.251 356.932 655.831 361.422C652.401 365.912 645.451 371.382 640.161 372.692C634.871 374.002 628.931 371.732 624.081 369.262C619.231 366.792 613.381 362.842 611.061 357.882C608.751 352.932 608.731 345.152 610.191 339.542C611.661 333.932 614.511 327.222 619.861 324.242C625.221 321.252 637.821 321.672 642.301 321.622C646.781 321.572 646.771 323.562 646.761 323.942L637.371 321.762ZM636.531 320.942C641.991 321.062 649.561 323.842 653.571 327.832C657.581 331.832 659.941 339.352 660.571 344.932C661.201 350.502 660.371 356.802 657.351 361.302C654.341 365.802 648.081 370.482 642.491 371.952C636.891 373.422 628.951 372.262 623.781 370.132C618.611 368.012 613.641 364.082 611.491 359.192C609.351 354.302 609.661 346.532 610.901 340.782C612.151 335.042 614.391 328.252 618.961 324.732C623.541 321.212 635.531 320.382 638.351 319.672C641.181 318.962 636.301 319.692 635.921 320.492"
        fill="#FE7F80" />
    <path
        d="M625.191 323.212C630.231 320.792 638.491 320.012 643.861 321.932C649.221 323.852 654.521 330.092 657.391 334.712C660.251 339.332 661.971 344.332 661.051 349.662C660.131 354.982 656.251 362.982 651.871 366.662C647.481 370.332 640.041 371.502 634.731 371.722C629.431 371.952 624.091 371.512 620.021 368.022C615.961 364.532 611.801 356.512 610.351 350.782C608.901 345.062 608.721 338.482 611.321 333.672C613.931 328.872 623.671 323.892 625.971 321.942C628.261 319.992 625.231 321.682 625.111 321.982M636.831 321.612C642.141 321.872 650.241 325.052 654.421 328.922C658.601 332.792 661.711 339.292 661.921 344.862C662.131 350.432 658.951 357.712 655.671 362.332C652.391 366.962 647.561 371.222 642.261 372.622C636.951 374.012 629.001 373.282 623.811 370.712C618.631 368.132 613.421 362.402 611.161 357.172C608.911 351.942 608.821 344.512 610.311 339.332C611.791 334.152 615.131 329.002 620.071 326.102C625.011 323.212 636.401 322.732 639.961 321.962C643.521 321.202 641.611 321.372 641.441 321.502L636.831 321.612Z"
        stroke="black" stroke-width="2" stroke-linecap="round" />
    <path
        d="M416.821 174.847C401.271 187.597 337.031 238.647 321.261 250.907M414.921 175.757C399.421 188.217 337.671 236.907 321.841 249.317L414.921 175.757Z"
        stroke="black" stroke-width="2" stroke-linecap="round" />
    <path
        d="M306.203 294.571C314.783 313.031 348.553 386.541 357.323 404.731M307.533 295.251C316.183 313.561 349.623 385.411 358.223 403.811L307.533 295.251Z"
        stroke="black" stroke-width="2" stroke-linecap="round" />
    <path
        d="M395.186 442.55C419.876 444.65 518.306 454.54 542.796 456.71M396.276 443.55C420.566 445.98 516.326 455.96 540.706 458.32L396.276 443.55Z"
        stroke="black" stroke-width="2" stroke-linecap="round" />
    <path
        d="M629.185 379.958C621.985 389.478 594.715 427.998 587.675 437.648M630.595 377.968C623.485 387.888 595.285 429.128 588.105 439.418L630.595 377.968Z"
        stroke="black" stroke-width="2" stroke-linecap="round" />
    <path
        d="M616.528 253.552C618.448 264.772 626.588 309.182 628.728 320.872M614.958 254.082C617.038 265.682 626.878 311.412 629.318 322.792L614.958 254.082Z"
        stroke="black" stroke-width="2" stroke-linecap="round" />
    <path
        d="M466.515 165.841C489.255 172.541 580.415 197.941 603.095 204.561M467.455 166.531C490.335 173.451 581.185 199.851 603.845 206.181L467.455 166.531Z"
        stroke="black" stroke-width="2" stroke-linecap="round" />
    <path
        d="M158.614 490.926C163.724 489.576 172.804 492.106 177.804 494.796C182.794 497.486 186.384 502.046 188.594 507.086C190.814 512.126 192.554 519.856 191.084 525.046C189.614 530.246 184.734 535.286 179.774 538.256C174.824 541.236 166.994 543.406 161.374 542.906C155.754 542.416 149.734 539.266 146.064 535.286C142.404 531.306 139.674 524.626 139.364 519.026C139.044 513.426 139.964 506.376 144.184 501.686C148.404 497.006 160.324 492.446 164.664 490.896C168.994 489.356 170.104 491.986 170.204 492.436L158.614 490.926ZM160.674 492.046C165.764 490.616 173.744 491.576 178.554 494.316C183.374 497.056 187.484 502.946 189.574 508.456C191.654 513.966 192.844 522.306 191.054 527.376C189.274 532.446 184.064 536.106 178.864 538.896C173.674 541.676 165.694 545.116 159.904 544.086C154.124 543.046 147.744 537.326 144.174 532.676C140.604 528.026 138.064 521.406 138.464 516.176C138.864 510.946 143.064 505.376 146.574 501.306C150.084 497.236 157.114 493.096 159.534 491.766C161.954 490.446 160.924 492.736 161.074 493.356"
        fill="#FE7F80" />
    <path
        d="M163.614 490.836C168.714 490.206 177.524 492.296 181.894 496.076C186.264 499.846 188.594 507.726 189.814 513.486C191.024 519.246 191.844 526.136 189.184 530.656C186.514 535.176 179.274 538.706 173.824 540.626C168.374 542.556 161.714 543.986 156.504 542.226C151.294 540.456 145.554 535.066 142.574 530.016C139.594 524.956 137.894 517.396 138.634 511.896C139.384 506.406 142.534 500.446 147.044 497.056C151.564 493.666 162.784 492.366 165.724 491.566C168.654 490.766 165.034 491.616 164.674 492.226M175.644 494.026C180.774 495.876 186.454 500.606 189.064 505.416C191.664 510.226 192.644 517.386 191.294 522.866C189.944 528.346 185.524 534.946 180.954 538.286C176.394 541.626 169.274 543.136 163.884 542.896C158.494 542.666 152.554 540.546 148.634 536.886C144.714 533.216 141.324 526.556 140.384 520.916C139.434 515.276 140.244 507.936 142.954 503.056C145.664 498.186 150.554 492.746 156.654 491.656C162.754 490.576 175.074 495.106 179.564 496.556C184.054 498.006 183.724 500.136 183.614 500.366L175.644 494.026Z"
        stroke="black" stroke-width="2" stroke-linecap="round" />
    <path
        d="M360.453 608.315C365.813 609.385 373.373 612.565 376.733 617.175C380.083 621.795 381.183 630.265 380.603 636.015C380.023 641.765 377.333 647.965 373.243 651.675C369.163 655.375 361.713 657.815 356.093 658.245C350.473 658.675 343.923 657.305 339.533 654.245C335.153 651.185 331.133 645.305 329.793 639.875C328.443 634.435 329.153 626.815 331.483 621.645C333.813 616.485 338.393 611.115 343.773 608.865C349.143 606.615 359.943 607.905 363.733 608.145C367.513 608.385 366.633 609.875 366.493 610.305L360.453 608.315ZM360.613 607.525C365.673 608.295 371.463 612.005 374.813 616.625C378.153 621.235 380.663 629.445 380.703 635.185C380.753 640.925 378.993 647.265 375.083 651.075C371.173 654.885 362.753 657.575 357.233 658.055C351.713 658.545 346.743 656.965 341.973 653.995C337.213 651.015 330.683 645.165 328.613 640.215C326.543 635.265 327.103 629.585 329.563 624.295C332.023 619.015 338.243 611.305 343.373 608.515C348.513 605.715 357.363 607.755 360.343 607.505C363.333 607.245 361.213 606.785 361.313 606.975"
        fill="#FE7F80" />
    <path
        d="M366.333 610.075C371.023 612.235 375.493 616.585 377.913 621.865C380.343 627.155 382.273 636.415 380.873 641.775C379.483 647.125 374.653 651.215 369.563 653.985C364.473 656.755 355.993 659.015 350.353 658.375C344.713 657.735 339.463 654.335 335.713 650.145C331.963 645.955 328.353 638.905 327.823 633.215C327.293 627.535 329.123 620.155 332.553 616.035C335.983 611.915 342.643 609.535 348.393 608.485C354.143 607.435 363.973 609.645 367.073 609.745C370.163 609.845 366.993 608.595 366.973 609.065M355.043 607.465C360.453 607.075 367.023 609.815 371.213 613.205C375.403 616.585 379.073 622.415 380.163 627.775C381.263 633.135 380.543 640.275 377.783 645.355C375.023 650.445 368.813 656.085 363.613 658.285C358.423 660.485 351.783 660.605 346.623 658.555C341.463 656.505 335.603 651.095 332.623 646.005C329.653 640.915 328.063 633.575 328.763 628.015C329.473 622.455 331.393 616.125 336.833 612.655C342.283 609.195 356.383 607.575 361.443 607.225C366.503 606.875 367.423 610.075 367.193 610.555L355.043 607.465Z"
        stroke="black" stroke-width="2" stroke-linecap="round" />
    <path
        d="M346.853 428.859C320.313 440.349 215.193 487.939 188.663 499.809M347.813 429.929C320.943 441.829 212.943 489.729 186.303 501.759L347.813 429.929Z"
        stroke="black" stroke-width="2" stroke-linecap="round" />
    <path
        d="M369.209 454.183C367.159 479.483 360.559 580.483 358.979 606.173M370.699 451.913C368.799 477.623 361.509 581.943 359.739 607.783L370.699 451.913Z"
        stroke="black" stroke-width="2" stroke-linecap="round" />
    <path
        d="M601.405 561.587C606.055 558.807 615.135 558.537 620.745 559.687C626.365 560.847 632.035 564.077 635.105 568.517C638.185 572.947 639.595 580.517 639.185 586.307C638.775 592.087 636.375 599.027 632.665 603.197C628.945 607.377 622.505 610.737 616.915 611.367C611.325 611.987 603.875 610.137 599.115 606.927C594.355 603.727 589.965 597.487 588.355 592.127C586.745 586.767 586.955 579.957 589.445 574.767C591.935 569.577 600.835 563.147 603.275 560.967C605.705 558.787 603.815 561.257 604.065 561.667L601.405 561.587ZM617.565 559.177C623.065 559.917 630.945 564.837 634.775 568.877C638.605 572.917 640.785 577.837 640.555 583.437C640.325 589.047 637.205 598.197 633.405 602.507C629.615 606.827 623.285 608.607 617.795 609.327C612.305 610.057 604.995 609.217 600.465 606.877C595.945 604.537 592.765 600.307 590.645 595.287C588.525 590.267 586.135 581.977 587.755 576.747C589.385 571.527 595.555 566.627 600.405 563.937C605.265 561.237 614.205 561.437 616.885 560.567C619.555 559.707 616.285 558.597 616.445 558.727"
        fill="#FE7F80" />
    <path
        d="M609.455 560.426C614.795 559.706 624.205 561.246 628.935 563.886C633.655 566.536 636.365 571.056 637.785 576.296C639.205 581.526 639.525 590.126 637.455 595.306C635.375 600.486 630.385 605.086 625.335 607.366C620.295 609.646 612.745 610.206 607.195 609.006C601.635 607.806 595.085 604.306 592.015 600.156C588.945 596.006 588.335 589.506 588.765 584.106C589.205 578.716 591.185 571.726 594.615 567.796C598.035 563.866 606.585 561.756 609.335 560.526C612.075 559.286 610.935 560.066 611.075 560.396M624.705 560.926C629.575 562.746 634.585 568.626 636.965 573.566C639.345 578.516 640.075 585.116 638.985 590.576C637.885 596.036 634.675 602.876 630.385 606.326C626.095 609.786 619.055 611.736 613.245 611.316C607.435 610.896 599.905 607.806 595.535 603.796C591.175 599.796 587.735 592.686 587.055 587.286C586.365 581.876 588.265 575.806 591.425 571.346C594.585 566.896 600.005 562.016 606.005 560.546C612.005 559.086 623.485 561.636 627.435 562.536C631.385 563.436 629.945 565.696 629.705 565.956L624.705 560.926Z"
        stroke="black" stroke-width="2" stroke-linecap="round" />
    <path
        d="M579.729 484.741C584.329 497.441 603.439 547.421 608.199 559.821M580.999 485.271C585.699 497.701 604.169 546.101 608.779 558.201L580.999 485.271Z"
        stroke="black" stroke-width="2" stroke-linecap="round" />
    <path
        d="M330.648 638.871C315.588 649.241 254.498 691.051 239.218 701.921M331.598 639.551C316.618 650.301 255.388 693.161 240.088 703.711L331.598 639.551Z"
        stroke="black" stroke-width="2" stroke-linecap="round" />
    <path
        d="M355.438 661.908C354.728 674.068 352.848 724.808 352.108 737.488M356.538 662.878C355.958 674.938 353.508 723.758 352.728 736.038L356.538 662.878Z"
        stroke="black" stroke-width="2" stroke-linecap="round" />
    <path
        d="M378.408 645.273C385.568 658.313 416.348 711.753 424.118 724.993M379.788 645.983C387.208 658.903 417.508 710.653 425.148 723.573L379.788 645.983Z"
        stroke="black" stroke-width="2" stroke-linecap="round" />
    <path
        d="M445.907 720.421C450.827 722.251 456.717 728.321 459.337 733.491C461.947 738.661 462.867 746.081 461.587 751.461C460.307 756.831 456.237 762.571 451.677 765.721C447.107 768.881 439.897 770.821 434.197 770.371C428.497 769.921 421.477 766.831 417.487 763.011C413.487 759.191 410.767 753.001 410.237 747.461C409.707 741.921 411.117 734.301 414.327 729.761C417.537 725.221 423.737 721.451 429.487 720.241C435.247 719.041 445.307 721.971 448.867 722.541C452.437 723.111 451.077 723.351 450.857 723.671L445.907 720.421ZM445.827 720.391C450.817 722.011 458.367 727.531 460.737 732.571C463.107 737.611 461.797 744.851 460.047 750.621C458.297 756.401 454.427 764.101 450.237 767.231C446.047 770.371 440.277 770.071 434.897 769.451C429.517 768.831 421.887 767.351 417.967 763.501C414.047 759.651 411.707 752.151 411.367 746.361C411.017 740.561 413.127 733.111 415.907 728.731C418.697 724.341 422.997 721.131 428.077 720.061C433.157 718.991 443.377 721.951 446.377 722.311C449.387 722.681 446.037 721.881 446.107 722.261"
        fill="#FE7F80" />
    <path
        d="M443.577 719.741C448.607 721.241 455.737 726.241 458.637 730.961C461.547 735.671 462.157 742.601 461.007 748.021C459.857 753.441 455.927 759.481 451.747 763.471C447.557 767.451 441.187 771.651 435.897 771.921C430.607 772.181 424.167 768.941 420.007 765.061C415.847 761.181 411.847 754.031 410.947 748.641C410.057 743.241 411.887 737.491 414.637 732.691C417.387 727.891 422.347 721.971 427.457 719.841C432.567 717.711 442.727 720.001 445.317 719.911C447.907 719.821 443.127 718.651 442.997 719.291M433.167 719.871C438.447 719.231 446.557 721.371 451.277 724.321C455.997 727.261 460.097 732.451 461.487 737.531C462.877 742.621 462.107 749.791 459.607 754.841C457.107 759.881 451.417 765.311 446.507 767.791C441.607 770.271 435.367 771.001 430.177 769.731C424.977 768.451 418.707 764.651 415.337 760.151C411.967 755.651 409.457 748.291 409.977 742.711C410.497 737.131 413.977 730.681 418.447 726.651C422.917 722.631 432.937 719.791 436.777 718.561C440.617 717.321 441.497 718.641 441.467 719.261L433.167 719.871Z"
        stroke="black" stroke-width="2" stroke-linecap="round" />
    <path
        d="M225.026 696.298C230.266 696.328 237.866 699.588 242.176 703.418C246.476 707.248 250.076 713.798 250.846 719.308C251.616 724.818 249.826 731.858 246.796 736.488C243.766 741.118 237.986 745.328 232.666 747.078C227.346 748.838 219.956 749.058 214.856 747.008C209.756 744.958 204.706 739.658 202.076 734.778C199.446 729.908 197.866 723.238 199.066 717.778C200.266 712.308 203.856 705.398 209.296 701.998C214.736 698.608 227.216 697.798 231.706 697.408C236.206 697.008 236.396 699.088 236.236 699.648L225.026 696.298ZM232.966 699.198C237.796 700.628 243.556 703.698 246.376 708.168C249.206 712.638 250.466 720.148 249.896 726.018C249.336 731.888 247.356 739.578 242.996 743.388C238.636 747.208 229.496 748.808 223.726 748.908C217.956 749.008 212.606 747.368 208.366 743.988C204.136 740.618 199.546 734.558 198.306 728.678C197.066 722.798 197.946 713.888 200.926 708.718C203.906 703.558 210.536 699.548 216.196 697.678C221.856 695.808 231.896 697.188 234.886 697.498C237.886 697.798 234.346 699.118 234.186 699.518"
        fill="#FE7F80" />
    <path
        d="M231.666 697.778C236.946 698.938 243.046 702.848 246.106 707.198C249.156 711.558 250.666 718.298 249.996 723.888C249.316 729.478 245.726 736.548 242.026 740.738C238.326 744.918 233.196 748.418 227.786 748.998C222.376 749.588 214.466 747.348 209.576 744.248C204.686 741.138 199.716 735.748 198.446 730.368C197.176 724.988 199.436 717.108 201.966 711.978C204.496 706.848 208.656 702.228 213.636 699.598C218.616 696.958 229.006 696.288 231.826 696.178C234.656 696.058 230.466 698.448 230.566 698.908M229.446 697.188C234.946 697.698 241.656 701.338 245.186 705.378C248.716 709.418 250.696 716.028 250.616 721.448C250.536 726.858 248.156 733.298 244.696 737.868C241.236 742.428 235.236 747.408 229.856 748.808C224.486 750.208 217.246 748.988 212.436 746.248C207.626 743.518 203.056 737.518 200.996 732.418C198.936 727.318 198.376 721.068 200.066 715.638C201.756 710.208 205.966 702.838 211.146 699.828C216.326 696.808 227.416 697.828 231.146 697.528C234.866 697.228 233.396 697.518 233.476 698.028L229.446 697.188Z"
        stroke="black" stroke-width="2" stroke-linecap="round" />
    <path
        d="M349.997 733.435C355.497 734.095 362.327 738.175 366.087 742.375C369.857 746.565 372.537 753.115 372.597 758.615C372.647 764.105 370.077 771.005 366.417 775.315C362.747 779.625 356.107 783.325 350.607 784.465C345.117 785.595 338.307 784.855 333.447 782.145C328.587 779.425 323.377 773.345 321.437 768.195C319.507 763.035 320.007 756.375 321.857 751.215C323.707 746.045 327.007 739.965 332.557 737.185C338.107 734.405 350.727 734.485 355.167 734.535C359.597 734.575 359.177 736.865 359.167 737.445L349.997 733.435ZM352.727 732.745C357.957 733.535 362.347 737.775 365.417 742.565C368.487 747.345 371.017 755.985 371.157 761.465C371.297 766.945 369.827 771.475 366.257 775.435C362.697 779.385 355.247 784.365 349.767 785.185C344.297 786.015 337.947 783.585 333.407 780.365C328.877 777.155 324.647 771.005 322.557 765.905C320.477 760.805 319.087 754.515 320.897 749.765C322.707 745.015 328.387 739.955 333.417 737.405C338.437 734.855 347.857 734.805 351.027 734.475C354.207 734.135 352.557 735.215 352.447 735.415"
        fill="#FE7F80" />
    <path
        d="M338.107 734.085C343.067 732.025 349.977 732.205 354.897 734.165C359.807 736.135 364.917 740.645 367.597 745.875C370.267 751.115 371.797 759.945 370.967 765.575C370.127 771.215 366.767 776.605 362.567 779.705C358.377 782.795 351.187 784.235 345.767 784.165C340.357 784.085 334.227 782.875 330.097 779.245C325.977 775.615 321.917 768.035 321.007 762.385C320.097 756.725 322.067 750.185 324.647 745.315C327.227 740.435 334.127 734.675 336.497 733.145C338.877 731.605 338.717 735.465 338.897 736.095M343.437 734.325C348.787 733.145 356.097 734.335 360.677 737.105C365.247 739.875 369.447 745.625 370.877 750.935C372.317 756.255 371.347 763.785 369.277 769.005C367.197 774.225 363.237 779.595 358.457 782.245C353.677 784.885 346.157 786.105 340.587 784.865C335.017 783.635 328.317 779.325 325.047 774.825C321.787 770.335 320.767 763.515 320.977 757.895C321.197 752.285 321.957 745.355 326.337 741.145C330.717 736.935 343.267 733.665 347.257 732.655C351.247 731.645 350.217 734.465 350.277 735.085L343.437 734.325Z"
        stroke="black" stroke-width="2" stroke-linecap="round" />
    <path
        d="M722.175 371.937C719.748 367.145 719.373 359.326 720.8 353.965C722.226 348.603 726.267 342.897 730.714 339.777C735.16 336.667 741.914 334.772 747.47 335.265C753.035 335.769 760.124 338.94 764.096 342.797C768.068 346.645 770.764 352.847 771.302 358.4C771.84 363.944 770.51 371.57 767.324 376.077C764.127 380.593 757.604 384.108 752.152 385.44C746.7 386.782 739.925 387.065 734.589 384.118C729.243 381.171 722.388 371.294 720.116 367.769C717.833 364.233 720.382 363.206 720.922 362.935L722.175 371.937ZM719.448 369.896C717.137 364.948 717.895 357.321 720.349 351.777C722.813 346.243 729.075 339.177 734.2 336.662C739.315 334.137 745.546 335.325 751.071 336.668C756.586 338.01 763.695 340.351 767.339 344.687C770.973 349.022 773.488 356.879 772.916 362.682C772.334 368.485 767.912 375.578 763.877 379.503C759.84 383.439 754.158 385.873 748.721 386.245C743.274 386.606 735.728 384.71 731.235 381.704C726.731 378.708 723.504 370.605 721.739 368.249C719.964 365.902 720.325 367.506 720.622 367.597"
        fill="#FE7F80" />
    <path
        d="M719.668 368.503C717.587 363.574 717.918 356.141 720.193 351.131C722.467 346.12 728 341.209 733.325 338.431C738.65 335.654 746.5 333.309 752.122 334.475C757.743 335.64 763.597 340.557 767.062 345.437C770.526 350.317 773.238 358.251 772.918 363.733C772.597 369.225 769.125 374.422 765.159 378.36C761.192 382.307 755.049 386.686 749.139 387.401C743.228 388.126 734.312 385.679 729.677 382.698C725.033 379.716 722.937 372.155 721.303 369.503C719.678 366.862 719.407 367.163 719.899 366.84M720.22 364.641C718.808 359.716 720.077 352.928 722.645 348.358C725.214 343.779 730.237 339.129 735.611 337.214C740.985 335.289 749.399 335.046 754.888 336.827C760.366 338.608 765.802 343.22 768.523 347.892C771.244 352.564 772.036 359.398 771.186 364.86C770.346 370.323 767.82 377.026 763.464 380.669C759.108 384.313 750.778 386.63 745.061 386.712C739.334 386.803 733.52 385.16 729.142 381.187C724.754 377.205 720.155 366.68 718.754 362.856C717.353 359.022 720.277 358.419 720.735 358.205L720.22 364.641Z"
        stroke="black" stroke-width="2" stroke-linecap="round" />
    <path
        d="M663.472 345.971C672.885 347.155 709.723 353.633 718.884 355.149M661.058 347.944C670.863 349.102 710.841 353.714 720.765 354.887L661.058 347.944Z"
        stroke="black" stroke-width="2" stroke-linecap="round" />
    <path
        d="M877.499 397.564C883.863 407.163 908.373 446.263 914.751 456.022M877.859 399.499C884.508 408.968 910.172 446.059 916.315 455.389L877.859 399.499Z"
        stroke="black" stroke-width="2" stroke-linecap="round" />
    <path
        d="M774.004 359.857C786.374 360.899 835.226 365.304 847.978 366.861M774.834 359.047C787.525 360.07 837.517 365.058 849.94 366.572L774.834 359.047Z"
        stroke="black" stroke-width="2" stroke-linecap="round" />
    <path
        d="M757.592 337.281C771.333 330.108 824.629 301.313 837.816 294.24M758.096 336.089C771.17 328.811 823.58 300.454 836.555 293.423L758.096 336.089Z"
        stroke="black" stroke-width="2" stroke-linecap="round" />
    <path
        d="M833.855 281.207C833.945 276.007 837.307 269.435 841.345 265.47C845.372 261.514 852.466 257.97 858.049 257.444C863.631 256.917 870.193 259.198 874.861 262.34C879.52 265.483 884.455 270.916 886.029 276.297C887.604 281.688 886.797 289.534 884.318 294.667C881.829 299.8 876.256 304.71 871.146 307.095C866.025 309.479 858.872 310.529 853.635 308.977C848.398 307.425 842.962 303.124 839.735 297.762C836.518 292.412 834.692 280.767 834.326 276.811C833.96 272.855 837.17 273.733 837.56 274.027L833.855 281.207ZM833.507 288.279C831.85 282.975 834.593 276.361 837.237 271.344C839.882 266.327 844.448 260.51 849.376 258.168C854.315 255.817 861.312 255.211 866.851 257.275C872.389 259.338 879.198 265.511 882.617 270.549C886.036 275.577 888.032 282.004 887.362 287.473C886.702 292.943 882.739 299.813 878.617 303.345C874.485 306.886 868.435 308.427 862.622 308.685C856.809 308.943 848.52 308.2 843.727 304.903C838.945 301.596 835.359 291.278 833.906 288.874C832.463 286.46 834.478 290.726 835.049 290.457"
        fill="#FE7F80" />
    <path
        d="M836.11 291.006C834.583 285.676 834.622 277.482 836.616 272.212C838.619 266.941 842.925 261.935 848.081 259.391C853.247 256.858 862.08 255.57 867.572 256.971C873.055 258.372 877.945 263.114 881.027 267.779C884.108 272.455 886.678 279.083 886.072 285.005C885.456 290.916 881.085 299.342 877.359 303.289C873.642 307.246 869.092 308.251 863.732 308.715C858.381 309.18 849.979 309.354 845.236 306.079C840.492 302.803 837.111 291.803 835.28 289.064C833.449 286.325 833.927 289.395 834.247 289.667M833.941 288.465C832.844 283.141 834.569 274.538 837.574 269.525C840.569 264.511 846.604 260.108 851.93 258.401C857.256 256.684 864.297 257.332 869.511 259.243C874.724 261.155 880.543 264.859 883.233 269.841C885.923 274.832 886.836 283.522 885.67 289.143C884.515 294.764 880.411 300.008 876.269 303.549C872.137 307.091 866.237 310.528 860.839 310.391C855.44 310.244 848.422 307.346 843.889 302.677C839.356 298.009 834.954 286.751 833.644 282.35C832.343 277.95 835.616 276.298 836.067 276.264L833.941 288.465Z"
        stroke="black" stroke-width="2" stroke-linecap="round" />
    <path
        d="M903.91 471.409C904.961 466.214 910.008 460.084 914.611 456.79C919.204 453.495 925.884 451.157 931.5 451.633C937.117 452.108 944.338 455.764 948.289 459.641C952.25 463.528 954.834 469.486 955.256 474.945C955.677 480.404 954.04 487.679 950.826 492.385C947.602 497.1 941.19 501.71 935.921 503.208C930.653 504.717 924.177 503.93 919.226 501.408C914.275 498.876 908.561 493.674 906.215 488.034C903.879 482.395 904.957 471.808 905.181 467.573C905.395 463.348 907.149 462.451 907.542 462.656L903.91 471.409ZM904.523 486.432C902.777 481.615 904.365 472.396 906.805 467.222C909.246 462.038 914.551 457.618 919.176 455.366C923.792 453.102 929.404 452.587 934.528 453.675C939.661 454.773 946.554 457.836 949.957 461.913C953.351 466 955.039 472.656 954.927 478.185C954.815 483.725 953.136 491.058 949.256 495.109C945.385 499.161 937.318 501.678 931.654 502.522C925.979 503.356 920.012 502.898 915.24 500.142C910.467 497.376 904.489 488.442 902.999 485.956C901.509 483.47 905.558 485.469 906.308 485.216"
        fill="#FE7F80" />
    <path
        d="M906.23 487.895C903.855 483.075 903.104 476.223 904.679 471.187C906.254 466.151 911.085 461.004 915.689 457.69C920.303 454.366 926.854 450.903 932.324 451.272C937.795 451.632 944.896 455.824 948.511 459.869C952.126 463.913 953.481 469.837 954.004 475.52C954.537 481.203 954.811 489.598 951.669 493.977C948.537 498.345 940.514 500.494 935.204 501.761C929.894 503.028 924.614 503.746 919.8 501.589C914.986 499.422 908.759 490.719 906.328 488.799C903.906 486.869 904.958 490.13 905.232 490.02M904.034 479.549C903.669 474.182 905.958 466.841 909.218 462.257C912.487 457.683 918.119 453.336 923.639 452.066C929.169 450.797 937.519 452.053 942.368 454.631C947.227 457.21 950.732 462.351 952.754 467.539C954.766 472.726 956.15 480.311 954.48 485.764C952.81 491.217 947.351 497.401 942.735 500.235C938.118 503.058 932.283 503.646 926.763 502.734C921.242 501.832 913.555 499.13 909.611 494.793C905.656 490.466 904.015 480.329 903.065 476.742C902.126 473.155 903.543 473.257 903.923 473.271L904.034 479.549Z"
        stroke="black" stroke-width="2" stroke-linecap="round" />
    <path
        d="M845.178 377.924C844.207 372.716 846.478 364.803 849.463 360.049C852.449 355.295 857.702 351.194 863.09 349.419C868.478 347.654 876.515 347.347 881.802 349.442C887.089 351.536 892.344 356.981 894.823 361.975C897.302 366.969 897.909 373.936 896.688 379.405C895.458 384.874 891.714 391.481 887.481 394.789C883.247 398.097 876.96 399.558 871.267 399.25C865.575 398.943 857.509 397.297 853.326 392.942C849.142 388.576 847.427 377.186 846.175 373.098C844.924 368.999 845.647 368.365 845.846 368.392L845.178 377.924ZM847.695 363.256C849.611 358.203 854.272 351.949 859.072 349.292C863.862 346.635 870.825 345.579 876.456 347.315C882.086 349.042 889.159 354.854 892.855 359.692C896.561 364.53 899.002 370.844 898.671 376.345C898.35 381.847 894.79 388.912 890.91 392.693C887.029 396.474 881.164 398.431 875.378 399.03C869.582 399.629 861.168 399.322 856.185 396.298C851.202 393.274 846.939 386.144 845.46 380.887C843.981 375.639 846.875 367.9 847.299 364.783C847.733 361.677 847.457 362.367 848.033 362.218"
        fill="#FE7F80" />
    <path
        d="M846.647 381.811C844.313 376.672 843.907 369.152 846.074 363.798C848.251 358.434 854.668 352.334 859.679 349.655C864.7 346.976 870.833 346.47 876.171 347.705C881.51 348.951 888.41 352.365 891.729 357.099C895.058 361.844 896.06 370.586 896.106 376.161C896.153 381.747 895.531 386.447 892.017 390.592C888.504 394.726 880.727 400.256 875.027 400.969C869.337 401.692 862.823 398.132 857.867 394.909C852.911 391.686 847.152 383.61 845.303 381.631C843.454 379.643 846.062 383.03 846.773 383.016M847.145 383.52C844.895 378.554 845.068 371.086 846.739 365.873C848.42 360.661 852.536 355.358 857.213 352.236C861.89 349.125 869.285 346.393 874.8 347.175C880.305 347.966 886.574 352.748 890.263 356.955C893.962 361.173 896.476 366.859 896.953 372.44C897.439 378.031 896.325 386.066 893.163 390.454C889.99 394.851 883.638 397.551 877.939 398.784C872.25 400.027 864.2 400.684 858.989 397.882C853.778 395.07 848.88 385.074 846.682 381.952C844.495 378.83 845.61 379.261 845.833 379.179L847.145 383.52Z"
        stroke="black" stroke-width="2" stroke-linecap="round" />
    <path
        d="M892.673 357.449C904.296 353.2 949.622 334.142 961.063 329.646M890.672 355.815C902.102 351.91 948.248 336.133 959.832 331.853L890.672 355.815Z"
        stroke="black" stroke-width="2" stroke-linecap="round" />
    <path
        d="M469.88 41.2899C468.487 36.1556 469.26 28.949 471.973 23.9847C474.686 19.0104 480.849 13.5516 486.149 11.4636C491.439 9.38522 498.582 9.68607 503.75 11.4858C508.918 13.2856 514.277 17.5239 517.165 22.2725C520.054 27.021 521.709 34.5865 521.081 39.9972C520.464 45.3982 517.685 51.0706 513.42 54.6874C509.145 58.3039 501.031 61.2998 495.453 61.6965C489.874 62.1032 484.433 60.9439 479.93 57.0971C475.427 53.2502 470.223 42.3131 468.427 38.6151C466.63 34.917 468.461 35.204 469.141 34.9387L469.88 41.2899ZM470.671 45.6716C467.927 40.7783 467.178 32.7956 468.862 27.7937C470.545 22.8018 475.765 18.5194 480.772 15.6702C485.78 12.811 493.28 10.2129 498.907 10.6586C504.525 11.1038 510.581 14.6071 514.497 18.3325C518.424 22.0583 522.21 27.46 522.436 33.032C522.653 38.6136 519.419 47.1513 515.847 51.804C512.265 56.4564 506.293 59.4205 500.953 60.9567C495.614 62.4929 488.72 63.5721 483.81 61.0012C478.911 58.4208 473.358 48.0012 471.526 45.5328C469.686 43.0539 472.28 45.9906 472.805 46.1498"
        fill="#FE7F80" />
    <path
        d="M469.759 26.2354C471.442 20.9933 478.177 14.6649 483.151 11.9145C488.125 9.15414 494.241 8.53691 499.603 9.69329C504.964 10.8497 511.918 14.1656 515.309 18.8525C518.7 23.5393 519.814 32.2357 519.95 37.8144C520.086 43.4031 519.563 48.1472 516.117 52.3443C512.672 56.5413 504.942 62.163 499.258 62.9762C493.585 63.7798 487.047 60.3289 482.048 57.1844C477.049 54.0399 471.18 48.9724 469.258 44.079C467.335 39.1756 470.09 30.6104 470.523 27.7843C470.946 24.9679 471.236 27.1799 471.827 27.1515M470.421 42.6305C468.698 37.7444 469.188 30.6275 471.479 25.4576C473.758 20.2974 479.133 13.9593 484.121 11.6397C489.119 9.32054 496.148 10.0375 501.436 11.5414C506.735 13.0358 512.447 16.1062 515.904 20.6454C519.351 25.1841 522.378 33.26 522.157 38.7656C521.936 44.2612 518.727 49.6577 514.579 53.639C510.431 57.6203 502.899 61.9283 497.269 62.6434C491.629 63.3681 485.438 61.3609 480.779 57.9486C476.121 54.5364 471.266 44.9829 469.327 42.1703C467.388 39.3677 468.716 41.1073 469.157 41.0733L470.421 42.6305Z"
        stroke="black" stroke-width="2" stroke-linecap="round" />
    <path
        d="M612.067 205.376C614.597 185.436 623.757 103.236 626.077 82.9657M610.337 203.156C612.927 182.956 623.917 101.796 626.597 81.6557L610.337 203.156Z"
        stroke="black" stroke-width="2" stroke-linecap="round" />
    <path
        d="M420.459 149.58C404.399 135.47 337.729 77.6202 321.419 63.6802M418.649 150.19C402.689 136.35 338.499 79.7102 322.599 65.4602L418.649 150.19Z"
        stroke="black" stroke-width="2" stroke-linecap="round" />
    <path
        d="M451.936 143.105C458.226 129.005 482.596 72.8548 488.536 59.4048M452.956 144.375C459.276 130.605 483.236 75.2848 489.136 61.4048L452.956 144.375Z"
        stroke="black" stroke-width="2" stroke-linecap="round" />
    <path
        d="M291.848 243.846C279.358 224.276 227.228 147.646 214.248 128.016M289.868 244.556C277.458 224.856 227.598 145.986 215.078 126.526L289.868 244.556Z"
        stroke="black" stroke-width="2" stroke-linecap="round" />
    <path
        d="M275.292 259.569C260.502 250.629 202.442 215.139 188.292 206.269M276.412 260.499C261.862 251.319 203.602 214.019 189.292 204.759L276.412 260.499Z"
        stroke="black" stroke-width="2" stroke-linecap="round" />
    <path
        d="M278.289 274.524C262.319 275.604 198.729 281.984 182.919 283.534M279.629 275.624C263.779 277.064 199.819 283.824 183.889 285.054L279.629 275.624Z"
        stroke="black" stroke-width="2" stroke-linecap="round" />
    <path
        d="M286.87 290.048C274.11 299.168 225.13 337.298 212.93 346.568M288.39 291.128C275.74 300.048 226.14 336.058 213.28 344.958L288.39 291.128Z"
        stroke="black" stroke-width="2" stroke-linecap="round" />
    <path
        d="M601.423 49.8678C602.602 44.6974 607.562 39.0446 612.421 35.8698C617.28 32.705 625.124 30.2496 630.557 30.8282C636 31.3971 641.242 34.9908 645.058 39.2929C648.873 43.605 653.189 50.9173 653.458 56.691C653.718 62.4543 650.231 69.4517 646.636 73.9135C643.04 78.3753 637.079 82.4205 631.888 83.4418C626.687 84.4627 620.314 82.5089 615.461 80.0401C610.608 77.5814 604.652 74.342 602.757 68.6791C600.863 63.0162 603.439 50.2717 604.093 46.0727C604.736 41.8834 606.521 43.1694 606.648 43.5143L601.423 49.8678ZM601.524 54.2344C601.976 48.6872 606.589 40.7503 610.546 37.0622C614.504 33.3641 620.042 32.1454 625.287 32.1067C630.522 32.0577 637.535 33.1944 641.977 36.7988C646.408 40.4029 650.648 48.423 651.906 53.7224C653.153 59.0214 651.991 64.0023 649.492 68.5842C646.993 73.1661 641.992 78.8474 636.912 81.2236C631.842 83.6002 624.595 84.4964 619.051 82.843C613.498 81.1893 606.664 75.9665 603.602 71.3016C600.55 66.6372 601.183 57.7944 600.71 54.8652C600.247 51.9263 600.34 54.0311 600.793 53.6974"
        fill="#FE7F80" />
    <path
        d="M599.606 63.7208C598.514 58.5575 602.069 48.8808 605.01 43.9748C607.961 39.0692 612.204 36.3422 617.272 34.2857C622.34 32.2293 630.344 30.0799 635.41 31.6458C640.487 33.212 644.927 38.4876 647.689 43.6818C650.452 48.8661 652.592 57.1197 651.986 62.7513C651.39 68.3933 648.142 74.0386 644.093 77.4931C640.034 80.9573 633.302 83.3733 627.693 83.5087C622.075 83.6338 614.911 81.6712 610.382 78.2736C605.864 74.8665 601.997 65.6593 600.559 63.1151C599.121 60.561 601.286 63.2217 601.744 62.9983M600.14 54.8643C600.494 49.5537 605.04 43.7057 609.219 39.7055C613.387 35.7149 619.87 31.3686 625.191 30.9024C630.511 30.4362 636.663 33.5127 641.142 36.9084C645.621 40.3141 650.639 45.9409 652.064 51.2965C653.48 56.6517 652.253 63.9418 649.666 69.0308C647.078 74.1198 641.591 79.4431 636.53 81.8301C631.459 84.2266 624.454 85.0616 619.272 83.3714C614.091 81.6812 608.273 77.3861 605.45 71.6793C602.626 65.9725 602.236 53.63 602.33 49.1305C602.425 44.6309 605.558 44.5852 605.996 44.6712L600.14 54.8643Z"
        stroke="black" stroke-width="2" stroke-linecap="round" />
    <path
        d="M950.405 316.39C949.945 311.169 953.259 303.725 956.749 299.12C960.24 294.504 966.114 289.845 971.338 288.715C976.563 287.575 983.298 289.762 988.079 292.298C992.859 294.834 997.87 298.75 1000.03 303.922C1002.2 309.094 1002.46 317.76 1001.04 323.342C999.63 328.924 996.3 334.616 991.545 337.405C986.78 340.193 978.159 340.889 972.496 340.061C966.832 339.224 961.26 337.54 957.575 332.412C953.889 327.284 951.249 314.089 950.373 309.314C949.506 304.549 951.758 303.45 952.326 303.791L950.405 316.39ZM951.802 317.591C950.761 312.39 951.161 304.169 954.047 299.681C956.942 295.194 963.923 292.017 969.125 290.675C974.328 289.334 979.913 289.568 985.271 291.645C990.618 293.722 998.317 298.286 1001.23 303.115C1004.15 307.945 1004.29 315.345 1002.76 320.622C1001.22 325.9 996.583 331.535 992.021 334.79C987.459 338.046 981.068 340.154 975.364 340.156C969.66 340.158 961.898 338.434 957.798 334.802C953.708 331.16 951.707 321.01 950.814 318.346C949.921 315.671 952.135 318.864 952.448 318.806"
        fill="#FE7F80" />
    <path
        d="M952.529 308.642C953.796 303.245 956.575 295.111 961.337 291.852C966.099 288.594 975.278 288.248 981.091 289.101C986.904 289.944 992.789 292.65 996.215 296.938C999.641 301.216 1001.45 309.147 1001.64 314.798C1001.82 320.458 1000.48 326.694 997.327 330.871C994.173 335.039 988.215 338.734 982.721 339.824C977.228 340.905 969.48 339.881 964.358 337.373C959.226 334.864 954.181 329.716 951.96 324.762C949.729 319.807 950.947 310.585 951.014 307.656C951.081 304.726 951.916 307.058 952.362 307.165M951.318 323.988C949.332 318.912 950.972 310.176 952.961 304.755C954.96 299.344 958.578 293.983 963.282 291.493C967.986 289.003 975.641 288.712 981.195 289.815C986.738 290.918 993.066 293.821 996.552 298.121C1000.05 302.432 1002.28 309.878 1002.14 315.647C1002 321.415 999.144 328.526 995.708 332.753C992.272 336.971 986.927 340.288 981.537 341.002C976.138 341.705 968.574 340.869 963.321 337.005C958.069 333.14 951.981 322.001 950.012 317.816C948.054 313.622 951.047 311.96 951.54 311.878L951.318 323.988Z"
        stroke="black" stroke-width="2" stroke-linecap="round" />
    <path
        d="M286.481 38.2298C287.338 32.8275 292.188 25.5296 296.423 21.9017C300.658 18.2738 306.29 16.1479 311.882 16.4622C317.474 16.7864 325.783 19.9717 329.966 23.8169C334.158 27.6724 336.376 34.0676 337.015 39.5846C337.664 45.1019 336.459 52.3528 333.831 56.9099C331.203 61.4671 326.41 65.0146 321.247 66.9175C316.095 68.8107 308.06 70.1685 302.885 68.2884C297.7 66.408 292.578 61.1776 290.168 55.646C287.748 50.114 288.603 39.0178 288.367 35.0866C288.13 31.1553 288.527 32.0704 288.737 32.0581L286.481 38.2298ZM289.582 31.1183C291.284 26.1671 295.578 22.3112 300.294 20.0317C305.001 17.7419 312.373 15.8797 317.841 17.4302C323.308 18.9707 329.745 24.9296 333.107 29.3151C336.479 33.7011 338.325 38.5117 338.033 43.7545C337.732 48.997 335.157 56.488 331.348 60.7819C327.528 65.0854 320.984 68.9192 315.157 69.557C309.34 70.1852 301.147 67.6546 296.426 64.5703C291.696 61.4856 288.217 56.4553 286.784 51.0394C285.351 45.6135 287.497 35.335 287.848 32.0156C288.2 28.6962 288.273 30.8103 288.872 31.1124"
        fill="#FE7F80" />
    <path
        d="M287.175 43.6188C286.769 38.3004 287.891 33.0478 291.089 28.4915C294.277 23.9448 301.083 17.8791 306.324 16.3193C311.564 14.7694 317.612 16.2811 322.5 19.1914C327.397 22.092 333.187 28.4875 335.687 33.7522C338.177 39.0066 338.918 45.578 337.488 50.7393C336.049 55.9002 331.788 61.5985 327.071 64.7185C322.365 67.8289 314.982 69.9509 309.248 69.4313C303.503 68.9014 296.439 65.6014 292.614 61.5492C288.779 57.4966 287.324 48.0171 286.269 45.1267C285.214 42.2463 285.769 44.3079 286.271 44.2562M286.994 46.1038C286.368 40.7774 288.357 32.0742 291.297 27.4584C294.237 22.8526 299.314 19.7458 304.635 18.4391C309.956 17.1323 318.125 17.3305 323.214 19.6277C328.304 21.915 332.989 27.0793 335.174 32.1825C337.369 37.286 337.777 44.7658 336.366 50.228C334.956 55.7002 331.064 61.9924 326.701 65.0052C322.348 68.0284 315.631 68.9139 310.198 68.3353C304.755 67.7663 297.943 65.5162 294.065 61.5521C290.197 57.5883 288.121 47.8461 286.951 44.5512C285.79 41.2567 286.729 41.8613 287.101 41.7949L286.994 46.1038Z"
        stroke="black" stroke-width="2" stroke-linecap="round" />
    <path
        d="M176.941 104.246C177.031 98.7657 180.013 91.0994 183.62 87.1384C187.237 83.1777 193.244 81.1656 198.612 80.501C203.97 79.836 211.136 80.0677 215.796 83.1598C220.456 86.2619 224.745 93.4932 226.573 99.0836C228.41 104.684 229.088 111.854 226.808 116.744C224.529 121.634 218.013 126.039 212.903 128.414C207.784 130.779 201.514 132.301 196.129 130.974C190.734 129.636 183.953 125.716 180.564 120.409C177.175 115.102 176.135 103.036 175.807 99.1213C175.48 95.2068 177.89 96.6257 178.589 96.9414L176.941 104.246ZM175.724 108.545C174.474 103.576 177.364 97.3269 180.138 92.8952C182.921 88.4638 186.904 83.796 192.385 81.9448C197.867 80.0835 207.491 79.8645 213.035 81.7681C218.57 83.6713 223.272 88.6362 225.631 93.3654C227.99 98.0946 228.396 104.794 227.17 110.123C225.945 115.462 222.738 121.629 218.258 125.368C213.779 129.107 205.838 132.539 200.274 132.556C194.72 132.564 188.711 129.142 184.904 125.431C181.106 121.73 178.915 112.944 177.46 110.309C176.005 107.684 176.003 109.936 176.174 109.652"
        fill="#FE7F80" />
    <path
        d="M177.228 115.294C174.826 110.373 176.521 103.981 178.312 98.7725C180.103 93.5744 183.735 87.0025 187.975 84.0753C192.205 81.1376 198.261 80.5182 203.701 81.1571C209.151 81.8064 216.548 84.2179 220.646 87.9299C224.753 91.6422 227.942 98.0428 228.295 103.429C228.649 108.826 226.184 115.75 222.766 120.299C219.348 124.847 213.235 129.187 207.785 130.749C202.334 132.301 194.938 132.061 190.054 129.631C185.169 127.212 180.428 118.383 178.466 116.19C176.505 114.007 177.776 116.745 178.285 116.503M176.935 101.664C177.286 96.1633 179.827 89.6017 183.75 86.0424C187.672 82.4832 194.849 80.5237 200.48 80.309C206.122 80.0947 213.159 81.4024 217.559 84.7552C221.97 88.1083 225.759 94.791 226.934 100.418C228.1 106.044 226.934 113.566 224.602 118.535C222.269 123.493 217.954 128.218 212.918 130.196C207.893 132.174 200.007 132.196 194.428 130.422C188.839 128.636 182.349 124.697 179.435 119.537C176.522 114.368 177.325 103.039 176.957 99.4235C176.588 95.8176 176.88 97.6995 177.214 97.8618L176.935 101.664Z"
        stroke="black" stroke-width="2" stroke-linecap="round" />
    <path
        d="M138.754 198.848C137.699 193.505 138.382 186.306 141.456 181.855C144.53 177.414 151.865 173.579 157.19 172.162C162.506 170.745 168.495 171.154 173.398 173.355C178.29 175.565 183.828 180.65 186.587 185.404C189.345 190.158 191.11 196.376 189.947 201.897C188.795 207.409 184.075 215.022 179.625 218.482C175.186 221.942 168.742 223.038 163.292 222.669C157.841 222.31 151.276 220.689 146.923 216.307C142.57 211.915 138.563 200.532 137.175 196.348C135.787 192.155 138.105 191.429 138.594 191.177L138.754 198.848ZM137.973 190.644C138.651 185.515 143.285 178.089 147.921 174.986C152.548 171.873 160.039 171.696 165.753 171.975C171.476 172.264 178.072 173.055 182.213 176.668C186.364 180.272 189.994 187.73 190.639 193.637C191.284 199.535 189.508 207.355 186.073 212.073C182.629 216.79 175.543 220.384 170.012 221.953C164.471 223.532 157.913 223.913 152.866 221.538C147.819 219.172 142.113 213.19 139.751 207.74C137.378 202.3 138.646 191.669 138.669 188.858C138.682 186.036 139.681 190.476 139.857 190.842"
        fill="#FE7F80" />
    <path
        d="M140.04 208.581C137.373 203.81 137.659 194.044 138.947 188.378C140.235 182.711 143.261 177.378 147.775 174.6C152.29 171.813 160.164 171.03 166.034 171.685C171.894 172.339 178.851 174.744 182.955 178.547C187.049 182.349 190.224 188.849 190.629 194.477C191.034 200.106 188.838 207.631 185.394 212.318C181.951 217.006 175.395 221.169 169.979 222.603C164.563 224.026 157.911 223.423 152.891 220.868C147.871 218.313 141.809 209.476 139.877 207.294C137.946 205.112 140.881 208.041 141.291 207.756M139.262 202.498C137.366 197.416 137.414 190.883 139.754 185.995C142.094 181.108 148.191 175.556 153.301 173.191C158.401 170.816 165.186 170.243 170.383 171.783C175.58 173.334 181.302 177.766 184.474 182.445C187.655 187.124 189.788 194.487 189.452 199.848C189.116 205.209 186.33 210.801 182.469 214.603C178.607 218.415 171.751 222.017 166.293 222.698C160.824 223.379 154.308 222.611 149.678 218.689C145.048 214.768 140.327 202.928 138.532 199.19C136.737 195.452 138.71 196.244 138.899 196.271L139.262 202.498Z"
        stroke="black" stroke-width="2" stroke-linecap="round" />
    <path
        d="M135.64 287.673C134.738 282.506 136.55 276.428 139.668 271.899C142.785 267.38 148.901 261.829 154.333 260.516C159.754 259.213 166.951 261.347 172.205 264.061C177.45 266.774 183.636 271.923 185.83 276.797C188.014 281.659 187.03 288.058 185.348 293.29C183.666 298.522 180.343 305.125 175.748 308.19C171.153 311.254 163.465 312.434 157.758 311.696C152.051 310.957 145.254 307.997 141.517 303.748C137.79 299.499 136.158 289.633 135.363 286.191C134.568 282.75 136.265 283.142 136.737 283.11L135.64 287.673ZM137.085 278.229C138.509 273.478 141.944 267.669 146.99 264.851C152.046 262.034 161.57 260.441 167.402 261.324C173.223 262.217 178.736 266.071 181.968 270.201C185.199 274.342 186.948 280.7 186.769 286.147C186.591 291.584 184.632 298.367 180.875 302.863C177.129 307.359 169.753 312.053 164.27 313.114C158.778 314.174 152.39 312.08 147.971 309.227C143.553 306.374 139.727 301.261 137.748 295.985C135.769 290.709 136.253 280.73 136.099 277.563C135.944 274.405 136.463 276.625 136.83 276.999"
        fill="#FE7F80" />
    <path
        d="M137.754 278.544C139.387 273.58 143.688 267.052 148.06 264.33C152.432 261.608 158.557 261.321 163.977 262.219C169.388 263.118 176.634 265.834 180.545 269.719C184.466 273.605 187.35 280.124 187.443 285.531C187.545 290.939 184.765 297.762 181.142 302.152C177.519 306.553 171.227 310.606 165.715 311.916C160.204 313.226 152.85 312.657 148.083 310.001C143.317 307.346 139.118 301.228 137.097 296.011C135.076 290.794 135.848 281.706 135.958 278.698C136.068 275.68 137.201 277.803 137.777 277.934M135.885 294.386C133.704 289.713 134.523 282.899 136.612 277.761C138.701 272.624 143.566 266.277 148.418 263.573C153.279 260.878 160.335 260.295 165.732 261.583C171.138 262.871 177.145 266.923 180.848 271.281C184.542 275.629 187.951 282.308 187.934 287.701C187.917 293.094 184.688 299.57 180.758 303.629C176.827 307.689 169.799 311.335 164.339 312.066C158.879 312.787 152.801 311.264 147.997 307.987C143.184 304.699 137.501 295.346 135.468 292.369C133.435 289.403 135.484 290.028 135.819 290.161L135.885 294.386Z"
        stroke="black" stroke-width="2" stroke-linecap="round" />
    <path
        d="M166.27 362.052C166.045 356.96 170.468 350.387 174.117 346.367C177.756 342.347 182.84 338.781 188.125 337.903C193.42 337.035 200.812 338.496 205.848 341.152C210.875 343.797 216.4 348.442 218.335 353.806C220.271 359.17 219.438 367.985 217.463 373.317C215.486 378.658 211.249 383.167 206.489 385.825C201.729 388.483 194.631 390.215 188.891 389.285C183.141 388.355 175.701 385.211 172.029 380.254C168.348 375.286 167.538 363.499 166.832 359.52C166.127 355.542 167.209 356.342 167.798 356.363L166.27 362.052ZM168.061 352.46C169.891 347.554 175.721 343.824 180.844 341.099C185.976 338.385 193.187 335.206 198.807 336.141C204.426 337.077 211.085 341.893 214.582 346.684C218.08 351.485 220.319 359.222 219.77 364.925C219.221 370.639 215.266 376.749 211.31 380.937C207.365 385.136 201.573 389.448 196.056 390.097C190.549 390.746 182.903 388.286 178.226 384.853C173.558 381.42 169.47 374.707 168.039 369.491C166.609 364.265 169.665 356.202 169.663 353.53C169.661 350.848 167.632 353.235 168.035 353.44"
        fill="#FE7F80" />
    <path
        d="M169.056 351.786C170.561 346.468 174.693 341.555 179.546 339.351C184.411 337.137 192.453 337.21 198.209 338.531C203.974 339.852 210.503 343.033 214.1 347.277C217.688 351.511 220.041 358.331 219.775 363.975C219.519 369.609 216.483 376.854 212.514 381.122C208.556 385.38 201.537 388.796 195.995 389.564C190.454 390.323 183.933 388.854 179.244 385.721C174.546 382.577 169.459 376.087 167.844 370.735C166.218 365.382 169.309 356.629 169.53 353.585C169.752 350.541 168.861 352.47 169.171 352.471M169.115 351.809C171.149 347.08 177.785 341.548 182.95 339.305C188.106 337.062 194.905 336.649 200.068 338.319C205.22 339.988 210.837 344.566 213.906 349.321C216.974 354.066 218.946 361.473 218.48 366.82C218.015 372.166 215.062 377.682 211.114 381.391C207.165 385.109 200.245 388.549 194.771 389.099C189.298 389.65 182.71 388.109 178.271 384.695C173.833 381.28 169.364 374.323 168.142 368.604C166.929 362.896 170.539 353.632 170.968 350.385C171.397 347.139 170.354 348.832 170.744 349.126L169.115 351.809Z"
        stroke="black" stroke-width="2" stroke-linecap="round" />
    <path
        d="M736.783 142.494C738.674 137.58 744.449 130.966 749.572 128.772C754.696 126.577 761.928 127.482 767.524 129.317C773.121 131.153 780.112 135.381 783.122 139.803C786.143 144.227 786.366 150.439 785.608 155.865C784.85 161.281 782.574 168.513 778.563 172.319C774.552 176.115 767.251 178.46 761.52 178.661C755.799 178.853 748.537 176.576 744.197 173.496C739.846 170.425 736.188 165.908 735.436 160.217C734.693 154.526 738.669 143.194 739.72 139.34C740.772 135.485 741.396 137.029 741.753 137.112L736.783 142.494ZM733.581 159.209C732.471 153.985 736.234 146.017 739.309 141.016C742.393 136.025 747.156 131.376 752.057 129.233C756.969 127.091 763.616 126.463 768.747 128.171C773.888 129.88 780.176 134.442 782.893 139.505C785.62 144.558 785.978 152.856 785.091 158.508C784.204 164.159 781.427 169.802 777.582 173.424C773.727 177.035 767.699 180.178 761.993 180.219C756.298 180.272 747.944 177.485 743.359 173.705C738.783 169.936 735.986 159.947 734.52 157.602C733.055 155.247 734.174 159.681 734.547 159.604"
        fill="#FE7F80" />
    <path
        d="M736.543 162.229C734.052 157.545 733.241 151.001 735.06 145.834C736.89 140.667 742.427 134.285 747.482 131.217C752.547 128.15 759.968 126.61 765.412 127.429C770.866 128.239 776.74 131.795 780.165 136.123C783.589 140.441 786.031 147.565 785.97 153.346C785.91 159.118 783.278 166.507 779.81 170.783C776.341 175.059 770.638 178.063 765.16 178.994C759.683 179.915 751.663 179.222 746.945 176.338C742.227 173.454 738.519 164.012 736.863 161.69C735.207 159.368 736.805 162.449 737.007 162.396M735.951 144.746C737.604 139.743 742.856 133.22 747.698 130.495C752.541 127.78 759.588 127.156 764.996 128.414C770.404 129.663 776.431 133.695 780.155 138.024C783.879 142.363 787.319 149.023 787.332 154.417C787.345 159.811 784.146 166.308 780.235 170.388C776.333 174.469 769.324 178.145 763.873 178.897C758.412 179.648 752.225 177.821 747.498 174.907C742.771 172.003 737.109 167.283 735.512 161.431C733.914 155.588 737.179 143.72 737.911 139.844C738.633 135.958 739.361 137.945 739.883 138.165L735.951 144.746Z"
        stroke="black" stroke-width="2" stroke-linecap="round" />
    <path
        d="M632.407 217.826C650.227 209.856 720.277 176.956 738.177 168.856M633.317 218.446C651.177 210.276 721.437 176.106 738.777 167.726L633.317 218.446Z"
        stroke="black" stroke-width="2" stroke-linecap="round" />
    <path
        d="M138.832 270.657C127.312 260.347 80.802 217.447 68.622 207.047M139.872 271.357C127.892 260.387 78.512 216.667 66.312 205.917L139.872 271.357Z"
        stroke="black" stroke-width="2" stroke-linecap="round" />
    <path
        d="M138.642 301.137C125.302 305.877 73.962 324.967 60.622 329.687M139.752 298.917C126.112 303.567 71.722 323.437 58.312 328.337L139.752 298.917Z"
        stroke="black" stroke-width="2" stroke-linecap="round" />
    <path
        d="M18.0167 199.873C16.8342 194.986 19.2489 187.229 21.8196 182.05C24.3999 176.88 28.3948 171.062 33.4591 168.845C38.533 166.639 46.8827 167.074 52.2443 168.771C57.5956 170.477 62.8045 174.44 65.608 179.055C68.4115 183.671 69.6872 190.662 69.0355 196.452C68.3838 202.242 65.5738 209.865 61.6875 213.805C57.8011 217.746 51.2549 219.989 45.7065 220.116C40.1578 220.254 32.8564 218.517 28.3966 214.591C23.9469 210.666 20.7041 199.721 18.988 196.566C17.2616 193.421 17.8791 195.695 18.0693 195.692L18.0167 199.873ZM20.8257 204.338C18.0628 199.434 17.0839 191.163 18.516 185.651C19.958 180.14 24.9107 174.127 29.4376 171.28C33.9648 168.424 40.1029 167.767 45.6894 168.511C51.2756 169.266 58.6793 171.768 62.9355 175.786C67.1914 179.814 70.9785 187.087 71.2257 192.649C71.4726 198.222 67.9862 204.909 64.4176 209.192C60.849 213.475 55.2842 216.794 49.8139 218.345C44.3437 219.897 36.6595 220.967 31.5965 218.491C26.5331 216.024 21.0531 206.058 19.4147 203.516C17.7864 200.975 21.2868 203.494 21.7767 203.232"
        fill="#FE7F80" />
    <path
        d="M18.3166 188.926C19.2501 183.367 23.6406 176.582 27.9472 172.917C32.2638 169.252 38.7591 166.757 44.197 166.916C49.6352 167.064 56.4342 169.954 60.5953 173.839C64.7563 177.723 68.175 184.673 69.1639 190.202C70.1425 195.742 69.3724 202.308 66.4972 207.056C63.6221 211.805 57.0882 217 51.9019 218.722C46.7156 220.444 40.429 219.413 35.3899 217.378C30.3412 215.333 24.5352 211.278 21.6491 206.46C18.7627 201.651 18.4971 191.385 18.0532 188.466C17.6094 185.548 18.2816 189.065 18.9558 188.96M17.5381 197.093C16.5521 192.034 18.316 184.834 21.6286 180.161C24.931 175.499 31.9045 170.87 37.3824 169.109C42.8607 167.337 49.6309 167.455 54.5076 169.554C59.3839 171.663 64.1174 176.859 66.6605 181.755C69.2035 186.652 71.034 193.523 69.7762 198.921C68.5181 204.328 63.6989 210.797 59.1127 214.172C54.5261 217.557 47.9275 219.317 42.2584 219.19C36.5888 219.073 29.0388 217.567 25.1167 213.441C21.2046 209.315 19.879 197.659 18.7652 194.456C17.6417 191.243 18.0818 194.261 18.4149 194.183L17.5381 197.093Z"
        stroke="black" stroke-width="2" stroke-linecap="round" />
    <path
        d="M11.5492 325.668C13.6314 320.44 20.0325 313.949 25.1732 311.555C30.304 309.161 36.9135 309.843 42.3743 311.293C47.845 312.743 54.5279 315.799 57.9572 320.267C61.3968 324.726 63.5997 332.361 62.9805 338.083C62.3514 343.803 58.2767 350.709 54.2122 354.594C50.1478 358.478 44.09 361.049 38.5943 361.378C33.0986 361.708 25.727 359.698 21.2481 356.572C16.7595 353.436 13.1481 348.201 11.7025 342.575C10.2572 336.938 12.1135 326.109 12.5844 322.804C13.0553 319.499 14.2438 322.304 14.5382 322.735L11.5492 325.668ZM10.7685 336.637C10.2485 331.694 12.7514 325.081 15.8326 320.721C18.9038 316.36 23.9382 311.67 29.2351 310.483C34.5223 309.285 42.5611 311.11 47.5941 313.585C52.6175 316.05 57.1657 320.569 59.4044 325.304C61.6431 330.038 62.4075 336.511 61.0265 341.994C59.6359 347.467 55.9745 354.838 51.0796 358.172C46.1747 361.505 37.1678 362.627 31.6164 362.014C26.0548 361.411 21.2077 358.502 17.7309 354.513C14.2641 350.523 11.7854 341.127 10.7863 338.068C9.78721 335.01 11.3017 336.286 11.7361 336.172"
        fill="#FE7F80" />
    <path
        d="M12.8447 346.909C10.4804 342.05 10.1576 334.173 11.5735 328.831C12.9793 323.489 16.9548 317.93 21.3294 314.867C25.7144 311.795 32.2878 309.904 37.8528 310.417C43.4178 310.931 50.7159 314.129 54.6997 317.937C58.6737 321.735 61.167 327.72 61.7255 333.254C62.2936 338.798 61.2547 346.695 58.0696 351.162C54.8842 355.639 48.1042 358.804 42.6138 360.084C37.133 361.375 30.2413 361.023 25.1566 358.866C20.0715 356.719 13.9514 349.211 12.1246 347.173C10.2981 345.125 13.6409 347.028 14.2069 346.599M9.18892 333.297C9.48041 328.054 13.422 321.503 17.6825 317.456C21.9431 313.409 29.052 309.456 34.7523 309.003C40.4623 308.561 47.3301 311.214 51.9229 314.784C56.5257 318.354 61.0139 325.062 62.3484 330.444C63.6833 335.817 62.4933 342.098 59.9317 347.027C57.3698 351.967 52.3444 357.778 46.9771 360.073C41.6094 362.379 33.0948 362.348 27.7462 360.842C22.3976 359.336 17.8591 356.198 14.8658 351.026C11.8726 345.853 10.1909 333.533 9.77668 329.806C9.36278 326.068 11.7876 328.448 12.3909 328.64L9.18892 333.297Z"
        stroke="black" stroke-width="2" stroke-linecap="round" />
</svg>