<svg width="2587" height="100%" viewBox="0 0 2587 1155" fill="none" xmlns="http://www.w3.org/2000/svg">
<path d="M885.57 683.152C785.238 683.899 686.33 684.833 449.052 680.537M448.937 678.295C447.198 808.685 449.67 932.006 447.098 1029.48L448.937 678.295ZM448.65 680.221C451.207 751.652 450.877 821.733 448.621 1028.07L448.65 680.221ZM449.239 1028.01C510.038 1060.04 573.18 1091.16 673.799 1140.62L449.239 1028.01ZM448.52 1028.25C535.114 1070.23 625.042 1113.95 674.331 1139.55L448.52 1028.25ZM674.891 1136.24C730.92 1111.14 786.029 1080.21 883.472 1030.6L674.891 1136.24ZM674.431 1139.37C757.088 1094.64 837.833 1051.43 885.584 1027.06L674.431 1139.37ZM884.521 1029.49C883.256 890.233 884.894 754.785 883.731 684.014L884.521 1029.49ZM883.874 1028.37C884.32 928.571 885.714 829.996 884.564 682.419L883.874 1028.37ZM883.659 682.707C716.176 680.206 551.913 678.022 448.319 681.399L883.659 682.707Z" stroke="black" stroke-opacity="0.9" stroke-width="4" stroke-linecap="round"/>
<path d="M793.688 594.707C812.599 614.609 832.473 636.005 882.595 682.505M451.696 677.39C468.94 656.956 490.337 636.609 529.797 597.049L451.696 677.39ZM449.109 680.58C482.29 647.357 511.26 616.577 532.455 598.098L449.109 680.58ZM530.257 598.96C606.26 591.445 681.041 594.391 791.518 591.617L530.257 598.96ZM532.197 595.583C630.588 594.807 729.669 594.563 793.875 595.152L532.197 595.583ZM795.484 593.37C818.706 624.208 849.127 649.24 883.917 684.546L795.484 593.37Z" stroke="black" stroke-opacity="0.9" stroke-width="4" stroke-linecap="round"/>
<path d="M846.01 1022.02C850.149 1016.6 855.825 1011.24 867.307 997.922M482.233 743.967C489.059 727.356 502.466 718.461 512.727 708.92L482.233 743.967ZM478.454 742.214C487.464 733.88 497.264 724.051 509.709 706.405L478.454 742.214ZM478.943 776.241C492.494 759.903 508.703 749.356 539.814 706.534L478.943 776.241ZM481.141 776.946C503.329 751.281 524.424 725.229 540.389 709.351L481.141 776.946ZM481.429 811.332C509.22 779.446 540.274 742.286 572.448 709.523L481.429 811.332ZM479.776 813.315C503.012 783.34 528.447 755.204 569.704 707.684L479.776 813.315ZM477.807 848.248C525.2 795.87 568.669 747.56 601.821 709.106L477.807 848.248ZM478.54 847.975C507.525 815.787 539.167 781.903 600.484 706.764L478.54 847.975ZM479.23 882.764C515.529 840.344 553.207 797.853 632.084 708.259L479.23 882.764ZM479.632 883.439C521.909 836.853 562.346 787.234 631.294 707.914L479.632 883.439ZM481.084 916.346C541.941 844.483 608.675 769.042 660.953 707.08L481.084 916.346ZM479.518 919.248C547.186 840.661 615.573 761.053 660.45 710.385L479.518 919.248ZM478.21 953.707C562.432 858.881 643.307 763.108 694.22 710.098L478.21 953.707ZM478.813 954.626C538.794 885.192 597.38 818.028 692.74 709.652L478.813 954.626ZM477.549 988.582C557.417 902.493 635.288 808.789 723.908 710.658L477.549 988.582ZM478.469 988.74C548.106 910.353 615.961 834.51 722.917 709.825L478.469 988.74ZM484.763 1016.98C552.747 939.136 618.864 863.35 751.944 710.96L484.763 1016.98ZM486.674 1017.54C590.066 898.283 694.292 779.388 752.332 708.963L486.674 1017.54ZM508.444 1027.95C612.023 903.298 719.123 781.903 781.431 707.626L508.444 1027.95ZM508.085 1026.55C608.517 910.583 709.05 795.425 783.558 710.198L508.085 1026.55ZM527.14 1037.98C608.517 942.757 694.249 845.273 811.436 711.506L527.14 1037.98ZM528.965 1037.57C597.021 957.27 667.563 875.45 813.304 710.184L528.965 1037.57ZM550.893 1047.81C624.612 958.42 700.629 872.475 844.674 709.739L550.893 1047.81ZM549.255 1047.67C663.842 915.958 775.87 785.51 844.76 710.084L549.255 1047.67ZM572.65 1059.83C673.082 939.007 777.868 818.646 867.422 717.211L572.65 1059.83ZM570.207 1059.27C629.627 987.231 690.354 918.645 867.608 717.498L570.207 1059.27ZM595.182 1068.18C649.371 1001.83 705.385 938.029 870.238 751.468L595.182 1068.18ZM592.351 1067.43C648.408 1007.46 704.006 943.576 868.887 750.735L592.351 1067.43ZM614.064 1079.76C680.109 1005.71 741.239 934.509 868.542 788.254L614.064 1079.76ZM613.978 1078.62C699.91 981.11 783.256 885.163 868.672 787.493L613.978 1078.62ZM636.553 1091.5C706.794 1012.77 771.128 933.805 866.991 822.44L636.553 1091.5ZM634.599 1089.47C727.874 984.386 820.245 880.752 867.867 821.377L634.599 1089.47ZM654.99 1098.18C735.835 1007.05 818.247 917.007 868.758 857.588L654.99 1098.18ZM655.852 1101.64C701.721 1049.71 747.015 996.528 868.183 857.444L655.852 1101.64ZM681.028 1110.61C746.383 1032.22 818.176 951.839 867.723 893.483L681.028 1110.61ZM679.203 1110.15C727.759 1051.74 777.896 997.218 868.068 892.262L679.203 1110.15ZM732.142 1080.98C776.833 1025.87 824.139 974.356 871.014 928.933L732.142 1080.98ZM734.14 1079.48C784.895 1021.14 833.925 965.03 867.968 925.557L734.14 1079.48ZM788.803 1051.28C811.249 1030.07 827.602 1006.5 870.597 962.76L788.803 1051.28ZM789.881 1050.86C805.918 1031.56 824.053 1013.96 869.089 962.875L789.881 1050.86ZM847.634 1023.27C852.894 1013.89 857.075 1007.28 867.292 998.267L847.634 1023.27Z" stroke="#228BE6" stroke-opacity="0.9" stroke-width="2" stroke-linecap="round"/>
<path fill-rule="evenodd" clip-rule="evenodd" d="M478.34 709.538C477.291 791.143 479.029 880.536 479.087 1010.45L478.34 709.538ZM480.265 707.885C482.794 808.544 481.544 910.023 480.136 1009.69L480.265 707.885ZM479.461 1007.84C532.903 1039.97 590.368 1067.57 675.812 1106.46L479.461 1007.84ZM479.504 1010.71C543.709 1041 605.486 1071.65 675.97 1108.24L479.504 1010.71ZM676.833 1108.93C749.444 1067.23 824.125 1027.57 862.623 1008.25L676.833 1108.93ZM674.533 1107.86C721.179 1083.84 767.321 1060.13 858.671 1010.94L674.533 1107.86ZM861.171 1010.68C858.441 894.849 858.312 778.785 857.737 711.88L861.171 1010.68ZM858.872 1010.55C858.498 919.449 860.323 828.59 859.159 709.164L858.872 1010.55ZM857.952 710.084C778.96 711.204 696.189 710.931 480.237 709.092L857.952 710.084ZM859.016 710.443C716.393 707.037 572.837 704.796 480.122 708.345L859.016 710.443Z" stroke="black" stroke-opacity="0.9" stroke-width="4" stroke-linecap="round"/>
<path fill-rule="evenodd" clip-rule="evenodd" d="M1798.43 72.5661L1796.42 140.937L1799.09 148.524L1808.98 165.653L1834.19 182.48L1858.5 189.492L1895.23 194.176L1938.24 196.849L1983.89 198.257L2020.56 188.817L2047.65 184.276L2068.29 169.748L2079.93 155.968L2082.73 146.297L2085.22 89.8384L2075.99 71.474L2062.41 51.9887L2054.05 39.5015L2039.36 34.0841L2012.72 24.2122L1977.05 17.5446L1936.67 16.0646L1891.44 15.5042L1858.23 28.0201L1830.66 40.9384L1817.19 47.1892L1794.74 72.4798" fill="#FE7F80"/>
<path d="M1799.15 74.779C1798.83 81.4609 1794.47 100.371 1794.91 113.017C1795.36 125.676 1795.46 139.04 1801.81 150.68C1808.17 162.305 1817.62 175.05 1833.06 182.824C1848.51 190.598 1869.66 194.895 1894.51 197.309C1919.36 199.738 1956.66 199.68 1982.12 197.367C2007.59 195.039 2031.41 189.909 2047.28 183.371C2063.16 176.818 2071.46 169.964 2077.34 158.08C2083.22 146.196 2082.58 126.51 2082.56 112.04C2082.51 97.5693 2083.83 84.2343 2077.11 71.2872C2070.4 58.3258 2059.32 43.3957 2042.25 34.3141C2025.18 25.2468 1999.71 19.772 1974.67 16.8262C1949.62 13.8804 1916.06 13.2769 1891.95 16.6538C1867.84 20.0306 1845.78 27.1005 1829.97 37.1018C1814.18 47.1174 1802.87 70.0083 1797.12 76.7046M1796.25 75.828C1796.22 82.1794 1796.32 99.1643 1796.64 111.45C1796.97 123.722 1792.24 137.891 1798.19 149.53C1804.14 161.169 1816.64 173.427 1832.32 181.287C1847.98 189.147 1866.76 193.889 1892.2 196.691C1917.62 199.493 1959.23 200.111 1984.88 198.071C2010.53 196.016 2030.42 191.101 2046.08 184.405C2061.75 177.709 2072.47 169.691 2078.83 157.893C2085.19 146.081 2084.58 128.622 2084.25 113.548C2083.91 98.489 2083.92 80.9436 2076.78 67.4792C2069.62 54.0292 2058.14 41.1971 2041.37 32.834C2024.62 24.4565 2001.08 19.7145 1976.2 17.2286C1951.33 14.7426 1916.48 14.4696 1892.15 17.947C1867.82 21.4101 1846.14 28.2645 1830.22 38.0358C1814.31 47.8216 1801.98 70.425 1796.68 76.6327L1796.25 75.828Z" stroke="black" stroke-width="2" stroke-linecap="round"/>
<path d="M1956.83 25.334C1974.97 26.0956 1996.11 30.0041 2010.85 34.2001C2025.58 38.3816 2038.11 44.2301 2045.25 50.4522C2052.41 56.6742 2055.56 64.5057 2053.73 71.5181C2051.91 78.5305 2044.55 86.4194 2034.35 92.5552C2024.13 98.6911 2008.82 105.071 1992.46 108.333C1976.09 111.595 1955.09 112.543 1936.13 112.141C1917.14 111.739 1895.09 109.21 1878.63 105.905C1862.18 102.614 1846.95 98.4324 1837.42 92.3684C1827.89 86.3044 1822.03 77.0073 1821.45 69.4919C1820.88 61.991 1825.25 53.441 1833.97 47.3339C1842.69 41.2268 1858.28 36.8297 1873.77 32.8493C1889.25 28.8546 1909.43 24.6586 1926.87 23.4085C1944.32 22.1727 1966.92 23.9976 1978.46 25.4058C1990 26.8141 1997.04 30.9382 1996.11 31.8866L1956.83 25.334ZM1916.02 26.5267C1933.47 25.061 1956.98 25.5639 1974.58 27.705C1992.18 29.8461 2009.1 34.3725 2021.64 39.3731C2034.19 44.3738 2044.84 50.797 2049.84 57.6657C2054.84 64.5488 2056.3 73.6017 2051.66 80.6715C2047.03 87.7414 2034.59 95.113 2022.04 100.099C2009.49 105.086 1993.46 108.204 1976.38 110.546C1959.3 112.888 1938.08 115.346 1919.56 114.124C1901.03 112.888 1880.36 107.96 1865.24 103.174C1850.14 98.375 1836.27 91.7074 1828.91 85.3848C1821.55 79.0621 1818.95 72.4521 1821.11 65.2242C1823.25 57.9962 1830.42 47.9949 1841.8 42.0028C1853.2 36.0106 1876.94 32.3751 1889.42 29.2569C1901.91 26.1531 1912.19 23.6671 1916.74 23.3366C1921.28 23.0061 1916.64 26.0525 1916.74 27.2452" fill="#FE7F80"/>
<path d="M1887.71 28.2798C1902.99 24.5293 1924.33 24.9173 1942.59 25.2047C1960.86 25.4921 1981.35 26.5123 1997.33 30.0473C2013.31 33.5678 2028.64 39.7755 2038.5 46.3425C2048.34 52.9094 2056.19 62.0197 2056.46 69.4489C2056.72 76.878 2048.77 84.5514 2040.06 90.9315C2031.37 97.2973 2019.79 103.864 2004.27 107.687C1988.75 111.523 1965.92 113.564 1946.99 113.923C1928.05 114.297 1907.62 112.673 1890.66 109.871C1873.72 107.083 1856.57 103.232 1845.26 97.1823C1833.96 91.1183 1825.18 80.959 1822.82 73.5155C1820.45 66.0864 1824.14 58.8153 1831.08 52.5358C1838.04 46.2706 1855.27 40.0485 1864.48 35.9244C1873.69 31.786 1882.3 28.5959 1886.38 27.7769C1890.46 26.9434 1887.79 29.9467 1888.96 30.9957M1899.37 26.6848C1915.42 23.9689 1936.61 23.3797 1955.14 24.7017C1973.66 26.0094 1995.37 29.9898 2010.51 34.5881C2025.62 39.172 2038.51 45.6958 2045.88 52.234C2053.26 58.7722 2056.29 66.7617 2054.72 73.7885C2053.14 80.8009 2047.09 88.8048 2036.43 94.3515C2025.77 99.8982 2007.47 103.864 1990.75 107.04C1974.02 110.201 1954.46 113.291 1936.07 113.377C1917.69 113.449 1896.85 111.164 1880.44 107.5C1864.05 103.835 1847.18 97.7571 1837.63 91.377C1828.11 85.0112 1823.8 76.1307 1823.25 69.2333C1822.7 62.3359 1825.92 56.1857 1834.37 49.9923C1842.81 43.8134 1861.55 36.3986 1873.92 32.1452C1886.28 27.8918 1901.35 25.607 1908.58 24.4575C1915.81 23.2935 1916.9 24.5149 1917.27 25.2334L1899.37 26.6848Z" stroke="black" stroke-width="2" stroke-linecap="round"/>
<path fill-rule="evenodd" clip-rule="evenodd" d="M1797.87 174.461L1796.13 232.026L1805.87 254.773L1816.75 266.801L1839.83 276.96L1864.82 286.3L1899.12 294.75L1945.77 291.89L1989.18 294.204L2020.39 287.076L2042.82 281.716L2061.42 272.52L2075.81 259.673L2075.02 254.055L2079.33 200.787L2079.08 177.723L2069.15 187.193L2058.84 194.981L2039.33 201.864L2015.75 208.014L1981.36 208.661L1923.41 214.624L1871.36 209.638L1839.38 199.738L1824.96 192.452L1796.26 174.72" fill="#FE7F80"/>
<path d="M1800.08 178.844C1800.69 184.578 1800.41 200.284 1800.94 213.044C1801.48 225.804 1797.4 244.068 1803.3 255.42C1809.19 266.758 1820.46 275.25 1836.32 281.113C1852.19 286.99 1873.73 288.542 1898.46 290.64C1923.18 292.752 1960.62 295.109 1984.65 293.729C2008.68 292.364 2027.67 287.824 2042.63 282.377C2057.58 276.946 2068.07 271.198 2074.36 261.096C2080.64 251.008 2079.25 235.317 2080.37 221.824C2081.49 208.316 2082.4 185.741 2081.04 180.08C2079.69 174.418 2079.22 184.477 2072.26 187.839C2065.3 191.188 2053.7 195.944 2039.26 200.226C2024.83 204.494 2008.42 211.075 1985.63 213.475C1962.85 215.86 1927.24 216.78 1902.58 214.581C1877.92 212.368 1855.46 206.549 1837.67 200.212C1819.87 193.86 1802.71 180.367 1795.79 176.502M1797.28 175.711C1797.29 181.359 1796.46 198.617 1797.58 211.592C1798.7 224.568 1797.47 242.257 1804.01 253.566C1810.54 264.875 1820.78 272.635 1836.8 279.475C1852.81 286.3 1874.96 292.077 1900.1 294.563C1925.23 297.034 1964 296.158 1987.61 294.333C2011.21 292.508 2027.13 289.174 2041.71 283.642C2056.3 278.095 2069.03 271.83 2075.12 261.11C2081.22 250.405 2077.54 232.773 2078.27 219.366C2079 205.945 2080.7 186.187 2079.54 180.655C2078.37 175.137 2078.47 182.824 2071.3 186.216C2064.15 189.593 2051.03 196.964 2036.56 200.945C2022.1 204.911 2006.69 207.885 1984.54 210.055C1962.38 212.225 1927.44 215.515 1903.62 213.978C1879.79 212.455 1859.03 207.282 1841.58 200.858C1824.15 194.449 1806.29 179.563 1799.02 175.467L1797.28 175.711Z" stroke="black" stroke-width="2" stroke-linecap="round"/>
<path fill-rule="evenodd" clip-rule="evenodd" d="M1795.66 271.641L1796.94 332.382L1804.5 348.318L1816.05 364.441L1836.13 373.163L1864.08 382L1901.02 389.401L1941.21 390.493L1988.81 389.214L2016.27 384.142L2041.24 377.359L2060.37 369.801L2073.38 353.002L2079.83 346.091L2083.13 296.027L2077.21 274.487L2071.9 284.933L2058.79 291.86L2038.41 300.352L2014.26 301.933L1980.56 308.112L1924.57 311.445L1871.23 303.944L1839.22 295.308L1795.62 272.561" fill="#FE7F80"/>
<path d="M1799.44 276.484C1799.61 282.117 1800 295.509 1800.45 307.479C1800.89 319.464 1795.72 337.67 1802.16 348.347C1808.58 359.023 1822.82 364.843 1839.04 371.539C1855.27 378.236 1874.91 386.239 1899.5 388.51C1924.1 390.795 1963.26 387.159 1986.59 385.219C2009.93 383.279 2024.98 381.44 2039.52 376.87C2054.05 372.301 2067 367.889 2073.81 357.788C2080.62 347.686 2079.3 329.451 2080.36 316.245C2081.42 303.054 2081.67 284.129 2080.2 278.568C2078.74 272.992 2079.05 279.344 2071.58 282.821C2064.09 286.299 2050.34 295.509 2035.34 299.461C2020.35 303.398 2003.29 304.548 1981.62 306.459C1959.95 308.37 1928.74 312.351 1905.3 310.942C1881.87 309.549 1858.95 303.887 1840.97 298.053C1822.98 292.219 1804.11 279.746 1797.4 275.952M1796.91 273.265C1796.64 279.358 1796.24 297.794 1797.3 310.138C1798.36 322.467 1796.41 336.52 1803.29 347.283C1810.19 358.061 1822.37 368.004 1838.63 374.729C1854.88 381.469 1875.77 385.679 1900.83 387.676C1925.88 389.674 1965.21 388.309 1988.94 386.714C2012.66 385.119 2028.86 383.581 2043.17 378.092C2057.48 372.603 2068.95 363.823 2074.81 353.778C2080.66 343.734 2077.61 330.342 2078.32 317.826C2079.01 305.324 2080.26 284.704 2079.02 278.726C2077.79 272.734 2077.83 278.496 2070.9 281.93C2063.98 285.365 2052.31 295.007 2037.48 299.303C2022.66 303.585 2003.95 305.827 1981.95 307.666C1959.94 309.506 1929.04 311.92 1905.45 310.353C1881.85 308.801 1858.47 304.347 1840.35 298.312C1822.22 292.291 1803.81 278.208 1796.67 274.199L1796.91 273.265Z" stroke="black" stroke-width="2" stroke-linecap="round"/>
<path fill-rule="evenodd" clip-rule="evenodd" d="M2284.9 388.343L2282.23 455.78L2290.13 467.908L2299.36 482.062L2321.32 494.808L2346.67 505.154L2381.99 514.077L2429.45 511.749L2474.36 513.977L2509.1 505.312L2534.94 497.883L2554.72 486.775L2569.2 471.874L2568.18 465.106L2570.67 409.05L2567.85 384.19L2550.26 366.329L2543.02 357.793L2530.66 349.229L2501.53 339.112L2461.86 330.002L2422.86 332.445L2383.35 335.606L2345.57 341.555L2315.08 352.62L2304.3 361.658L2286.33 390.743" fill="#FE7F80"/>
<path d="M2286.63 392.366C2286.87 399.221 2284.99 417.786 2285.42 430.547C2285.87 443.292 2283.24 457.993 2289.26 468.87C2295.29 479.748 2306.34 488.902 2321.59 495.799C2336.84 502.711 2355.3 507.453 2380.75 510.298C2406.19 513.143 2449.12 514.925 2474.27 512.87C2499.4 510.815 2515.84 504.306 2531.59 497.955C2547.33 491.618 2562.32 486.689 2568.71 474.819C2575.12 462.936 2569.93 441.683 2569.99 426.696C2570.05 411.694 2576.08 397.654 2569.06 384.808C2562.03 371.961 2545.37 358.727 2527.83 349.602C2510.27 340.492 2488.12 332.517 2463.77 330.131C2439.41 327.746 2405.91 331.109 2381.7 335.304C2357.5 339.5 2334.34 345.636 2318.56 355.264C2302.79 364.892 2292.42 386.978 2287.06 393.056M2284 389.363C2284.34 395.829 2286.07 415.458 2286.4 428.377C2286.71 441.309 2280.2 455.191 2285.92 466.916C2291.66 478.627 2304.65 490.827 2320.76 498.688C2336.87 506.548 2357.34 511.591 2382.59 514.092C2407.84 516.592 2446.81 516.132 2472.25 513.689C2497.69 511.247 2519.64 506.548 2535.21 499.42C2550.79 492.279 2559.57 482.665 2565.69 470.868C2571.82 459.056 2571.69 442.876 2571.97 428.607C2572.27 414.338 2574.8 398.632 2567.46 385.253C2560.12 371.875 2544.96 357.276 2527.89 348.295C2510.81 339.328 2489.45 333.508 2465.03 331.396C2440.62 329.284 2405.78 331.626 2381.4 335.621C2357.01 339.63 2334.59 346.441 2318.72 355.393C2302.82 364.346 2291.67 383.543 2286.05 389.349L2284 389.363Z" stroke="black" stroke-width="2" stroke-linecap="round"/>
<path d="M2455.55 340.866C2472.88 341.57 2492.11 345.924 2505.67 350.71C2519.24 355.495 2530.83 362.565 2536.91 369.577C2542.99 376.589 2545.32 385.743 2542.13 392.77C2538.92 399.811 2529.88 406.449 2517.71 411.766C2505.54 417.097 2486.8 421.739 2469.08 424.728C2451.38 427.702 2430.01 430.432 2411.49 429.628C2392.95 428.823 2373.01 424.455 2357.92 419.899C2342.83 415.344 2328.65 408.519 2320.93 402.325C2313.2 396.132 2310.38 389.838 2311.55 382.754C2312.72 375.67 2317.98 366.229 2327.96 359.806C2337.94 353.382 2354.97 347.39 2371.45 344.243C2387.95 341.096 2411.65 341.24 2426.92 340.953C2442.2 340.665 2455.89 342.131 2463.09 342.505C2470.31 342.878 2470.84 342.562 2470.19 343.209L2455.55 340.866ZM2468.18 344.43C2485.01 346.126 2502.91 350.896 2515.1 356.371C2527.3 361.832 2537.89 370.08 2541.34 377.236C2544.79 384.392 2541.37 392.755 2535.79 399.293C2530.21 405.846 2520.85 411.493 2507.91 416.494C2494.98 421.48 2476.41 427.386 2458.18 429.254C2439.96 431.108 2417.27 429.685 2398.51 427.645C2379.77 425.619 2359.74 421.653 2345.72 417.083C2331.71 412.513 2320.28 407.139 2314.39 400.213C2308.5 393.287 2306.39 382.74 2310.34 375.54C2314.29 368.327 2325.77 362.636 2338.09 356.96C2350.42 351.284 2367.04 344.042 2384.24 341.499C2401.44 338.955 2427.24 341.24 2441.31 341.685C2455.39 342.131 2464.01 343.798 2468.7 344.186C2473.38 344.588 2469.86 343.755 2469.43 344.042" fill="#FE7F80"/>
<path d="M2413.9 339.588C2431.44 338.093 2454.13 340.263 2471.84 343.467C2489.55 346.657 2508.76 352.836 2520.16 358.757C2531.55 364.677 2537.24 371.876 2540.19 378.975C2543.15 386.073 2544.11 394.738 2537.9 401.348C2531.68 407.973 2517.2 414.166 2502.91 418.678C2488.63 423.19 2470.28 426.754 2452.17 428.449C2434.06 430.159 2412.24 431.237 2394.26 428.895C2376.27 426.567 2357.17 419.856 2344.27 414.453C2331.36 409.05 2321.68 402.9 2316.82 396.477C2311.96 390.054 2311.49 382.955 2315.12 375.914C2318.76 368.859 2326.48 359.504 2338.62 354.201C2350.76 348.899 2374.93 346.212 2387.99 344.085C2401.07 341.959 2412.31 341.628 2417.05 341.427C2421.81 341.226 2416.39 342.576 2416.46 342.878M2424.71 341.154C2442.74 340.55 2464.4 343.036 2480.91 346.298C2497.41 349.56 2513.17 354.891 2523.72 360.725C2534.27 366.559 2542.73 374.578 2544.18 381.303C2545.63 388.042 2540.06 394.695 2532.44 401.147C2524.83 407.599 2513.03 415.373 2498.51 420C2483.99 424.627 2464.04 427.875 2445.29 428.909C2426.53 429.944 2403.49 428.895 2385.97 426.208C2368.47 423.521 2352.41 417.917 2340.23 412.772C2328.06 407.642 2316.88 402.167 2312.9 395.385C2308.93 388.602 2310.96 379.377 2316.42 372.077C2321.88 364.778 2332.58 356.759 2345.65 351.601C2358.69 346.442 2380 343.252 2394.76 341.111C2409.52 338.97 2426.18 338.883 2434.19 338.754C2442.2 338.61 2442.7 339.257 2442.82 340.292L2424.71 341.154Z" stroke="black" stroke-width="2" stroke-linecap="round"/>
<path fill-rule="evenodd" clip-rule="evenodd" d="M2288.91 493.859L2286.51 548.435L2293.01 567.087L2304.92 582.462L2326.59 596.861L2356.02 601.2L2389.57 610.455L2434.31 608.385L2476.47 607.825L2506.82 604.103L2532.09 597.622L2546.85 591.343L2561.27 578.884L2566.88 566.771L2567.2 515.141L2568.05 496.029L2560.45 502.352L2547.66 509.881L2524.15 514.322L2501.93 524.38L2473.28 528.763L2410.75 528.16L2355.77 521.32L2326.52 514.221L2316.54 510.715L2288.05 490.511" fill="#FE7F80"/>
<path d="M2285.33 491.1C2285.95 497.811 2287.32 518.359 2288.39 531.249C2289.47 544.124 2285.25 557.919 2291.81 568.395C2298.39 578.87 2312.23 586.931 2327.81 594.102C2343.4 601.272 2360.95 609.046 2385.35 611.417C2409.75 613.788 2450.31 610.383 2474.23 608.328C2498.12 606.287 2514.15 604.549 2528.75 599.117C2543.35 593.685 2555.4 586.371 2561.78 575.752C2568.18 565.118 2566.25 548.751 2567.06 535.359C2567.86 521.952 2568.45 501.073 2566.63 495.368C2564.8 489.663 2563.25 497.207 2556.09 501.13C2548.95 505.053 2538.27 514.666 2523.76 518.877C2509.23 523.087 2490.84 525.243 2468.95 526.378C2447.08 527.499 2415.91 527.614 2392.52 525.674C2369.12 523.719 2346.05 520.256 2328.57 514.695C2311.1 509.134 2294.53 496.072 2287.66 492.293M2287.03 492.652C2287.04 498.932 2284.43 515.917 2285.33 528.964C2286.22 542.026 2285.46 559.658 2292.45 570.967C2299.43 582.29 2311.36 590.337 2327.19 596.875C2343.03 603.413 2362.54 608.098 2387.47 610.167C2412.39 612.251 2453.22 611.604 2476.74 609.348C2500.26 607.092 2514.23 602.135 2528.59 596.602C2542.93 591.084 2556.12 586.084 2562.85 576.169C2569.59 566.254 2568.44 550.476 2568.97 537.126C2569.5 523.791 2567.52 502.251 2566.05 496.13C2564.57 490.008 2566.84 496.633 2560.13 500.369C2553.42 504.119 2540.33 514.106 2525.81 518.618C2511.29 523.13 2495.16 526.062 2473.02 527.412C2450.89 528.763 2417.13 528.634 2392.99 526.708C2368.84 524.768 2345.94 521.722 2328.14 515.816C2310.35 509.91 2293.45 495.311 2286.21 491.273L2287.03 492.652Z" stroke="black" stroke-width="2" stroke-linecap="round"/>
<path fill-rule="evenodd" clip-rule="evenodd" d="M2287.53 589.559L2285.82 647.038L2289.29 664.008L2304.19 678.723L2328.49 691.9L2351.47 699.99L2389.22 705.45L2430.19 705.307L2474.89 703.18L2505.77 700.924L2529.64 690.319L2551.67 682.775L2565.06 672.386L2565.02 661.479L2569.95 612.522L2567.99 593.31L2559.52 601.27L2546.17 604.188L2523.35 614.059L2503.1 621.359L2473.14 622.983L2410.59 623.371L2355.39 618.6L2326.18 614.419L2286.36 591.873" fill="#FE7F80"/>
<path d="M2284.19 591.456C2284.46 596.758 2284.42 611.746 2285.85 623.529C2287.3 635.298 2286.43 650.831 2292.87 662.112C2299.3 673.392 2308.73 683.953 2324.51 691.21C2340.27 698.452 2362.63 703.453 2387.49 705.609C2412.35 707.75 2450.13 706.399 2473.67 704.114C2497.21 701.815 2514.19 697.174 2528.74 691.828C2543.28 686.468 2554.66 681.525 2560.94 671.998C2567.2 662.456 2565.19 647.411 2566.37 634.608C2567.53 621.805 2569.47 600.94 2567.97 595.178C2566.47 589.43 2564.26 596.701 2557.35 600.092C2550.43 603.483 2540.66 611.588 2526.48 615.568C2512.3 619.534 2494.32 622.495 2472.26 623.917C2450.2 625.34 2418.19 626.058 2394.13 624.104C2370.08 622.164 2346.01 617.968 2327.93 612.191C2309.85 606.429 2292.31 593.468 2285.65 589.487M2286.33 588.525C2286.69 594.402 2286.01 613.327 2287.16 626.101C2288.3 638.876 2286.28 654.611 2293.18 665.201C2300.07 675.792 2312.55 683.106 2328.52 689.629C2344.47 696.153 2364.27 702.418 2388.93 704.33C2413.57 706.241 2453.13 702.936 2476.43 701.111C2499.71 699.272 2514.31 698.194 2528.62 693.351C2542.93 688.494 2555.68 682.243 2562.33 671.998C2568.99 661.738 2567.78 644.681 2568.55 631.864C2569.33 619.046 2568.81 600.595 2566.97 595.063C2565.13 589.545 2564.1 595.322 2557.55 598.698C2550.99 602.075 2541.93 610.999 2527.64 615.31C2513.35 619.621 2494.61 623.041 2471.79 624.564C2448.95 626.087 2414.65 626.36 2390.64 624.434C2366.64 622.509 2345.39 619.017 2327.77 613.039C2310.15 607.047 2292.03 592.074 2284.95 588.525H2286.33Z" stroke="black" stroke-width="2" stroke-linecap="round"/>
<path fill-rule="evenodd" clip-rule="evenodd" d="M1714.29 767.875L1710.96 832.338L1715.61 840.356L1725.87 857.858L1746.42 874.829L1776.23 880.189L1810.8 889.931L1856.32 888.394L1899.99 887.718L1933.88 882.473L1962.56 873.938L1978.51 865.733L1993 851.219L1998.39 837.956L1996.88 783.524L1995.17 762.616L1979.92 741.622L1970.18 732.828L1953.81 721.821L1926.05 715.627L1892.11 710.239L1848.55 706.1L1806.1 707.422L1771.04 716.159L1745.01 731.003L1734.42 737.584L1709.92 764.326" fill="#FE7F80"/>
<path d="M1712.42 765.432C1712.34 771.539 1712.06 790.895 1712.29 803.655C1712.54 816.416 1708.08 830.685 1713.84 841.994C1719.59 853.288 1731.02 863.404 1746.82 871.451C1762.62 879.498 1783.34 887.229 1808.66 890.29C1833.98 893.336 1873.06 892.675 1898.73 889.744C1924.39 886.827 1946.8 879.613 1962.63 872.745C1978.47 865.862 1987.65 860.257 1993.74 848.489C1999.84 836.72 1999.58 817.163 1999.16 802.118C1998.74 787.073 1998.44 771.41 1991.24 758.247C1984.03 745.085 1972.68 731.448 1955.92 723.142C1939.17 714.836 1915.02 710.31 1890.7 708.413C1866.37 706.531 1834.68 708.212 1809.98 711.79C1785.29 715.368 1758.88 720.354 1742.56 729.881C1726.22 739.408 1717.32 762.817 1712.02 768.967M1710.08 766.869C1710.21 773.421 1712.42 792.993 1713.18 805.926C1713.95 818.844 1709.12 833.041 1714.66 844.451C1720.21 855.875 1730.57 866.982 1746.48 874.44C1762.37 881.912 1784.9 887.186 1810.07 889.241C1835.23 891.31 1872.26 889.241 1897.46 886.798C1922.67 884.355 1945.09 880.935 1961.3 874.598C1977.51 868.261 1988.8 860.502 1994.72 848.762C2000.66 837.036 1996.85 819.088 1996.83 804.216C1996.82 789.343 2001.52 772.574 1994.63 759.555C1987.74 746.536 1972.61 734.566 1955.48 726.117C1938.36 717.667 1916.25 711.819 1891.86 708.887C1867.46 705.942 1833.82 704.878 1809.12 708.471C1784.4 712.077 1759.87 721.001 1743.6 730.471C1727.35 739.94 1717.18 759.425 1711.59 765.288L1710.08 766.869Z" stroke="black" stroke-width="2" stroke-linecap="round"/>
<path d="M1835.55 715.226C1853.16 713.789 1876.89 716.102 1894.74 718.603C1912.58 721.089 1930.62 724.94 1942.62 730.156C1954.6 735.372 1963.09 742.571 1966.7 749.9C1970.31 757.243 1969.6 767.215 1964.26 774.156C1958.93 781.096 1947.96 786.873 1934.68 791.543C1921.39 796.213 1902.31 799.935 1884.56 802.162C1866.81 804.375 1846.39 806.416 1828.19 804.864C1809.98 803.297 1789.3 797.923 1775.35 792.779C1761.4 787.634 1750.56 780.435 1744.48 773.998C1738.39 767.56 1736.03 760.979 1738.82 754.168C1741.61 747.371 1749.77 739.108 1761.21 733.145C1772.65 727.196 1793.1 721.347 1807.48 718.459C1821.87 715.571 1838.51 716.059 1847.5 715.844C1856.5 715.642 1861.04 716.62 1861.45 717.209L1835.55 715.226ZM1891.4 719.45C1908.67 721.175 1925.04 726.549 1937.8 731.578C1950.56 736.608 1962.95 742.586 1967.98 749.627C1973.02 756.668 1973.1 766.87 1968.04 773.84C1962.96 780.809 1951.22 786.571 1937.59 791.442C1923.95 796.314 1904.45 800.668 1886.2 803.082C1867.96 805.496 1846.55 807.508 1828.16 805.941C1809.75 804.361 1789.58 798.455 1775.84 793.627C1762.1 788.798 1751.91 783.841 1745.72 777.001C1739.54 770.161 1736.26 759.571 1738.71 752.587C1741.16 745.618 1749.48 740.401 1760.45 735.142C1771.41 729.868 1787.39 724.149 1804.52 720.988C1821.65 717.841 1848.62 716.85 1863.24 716.203C1877.85 715.542 1887.45 716.864 1892.24 717.036C1897.03 717.209 1893.11 716.361 1892.01 717.266" fill="#FE7F80"/>
<path d="M1841.15 717.827C1858.49 716.663 1878.17 717.956 1895.51 720.672C1912.86 723.402 1933.28 728.719 1945.17 734.151C1957.07 739.582 1963.84 746.437 1966.93 753.248C1970.02 760.059 1969.46 768.106 1963.7 775.018C1957.92 781.93 1946.04 790.221 1932.3 794.733C1918.56 799.231 1899.09 800.682 1881.3 802.047C1863.5 803.427 1843.2 804.346 1825.53 802.967C1807.85 801.587 1789.17 798.728 1775.23 793.742C1761.28 788.741 1747.7 779.76 1741.85 773.021C1736.02 766.267 1736.21 759.944 1740.16 753.291C1744.09 746.652 1753.56 738.548 1765.51 733.13C1777.45 727.699 1799.32 723.804 1811.82 720.758C1824.34 717.726 1836.16 715.441 1840.55 714.867C1844.94 714.292 1837.87 716.145 1838.18 717.338M1902.64 721.074C1919.61 723.244 1937.77 729.423 1948.65 734.797C1959.54 740.171 1965.58 746.336 1967.94 753.334C1970.31 760.318 1969.32 769.816 1962.85 776.757C1956.38 783.697 1943.75 790.437 1929.15 794.992C1914.54 799.533 1893.5 802.881 1875.21 804.03C1856.91 805.194 1837.07 803.815 1819.36 801.904C1801.65 799.992 1781.83 797.535 1768.95 792.549C1756.08 787.577 1746.74 779.401 1742.13 772.043C1737.5 764.686 1736.94 755.49 1741.24 748.42C1745.53 741.35 1755.33 734.883 1767.91 729.639C1780.48 724.379 1799.12 719.235 1816.68 716.893C1834.24 714.55 1856.27 714.464 1873.27 715.585C1890.25 716.72 1909.38 721.764 1918.63 723.661C1927.9 725.558 1930.01 726.65 1928.85 726.98L1902.64 721.074Z" stroke="black" stroke-width="2" stroke-linecap="round"/>
<path fill-rule="evenodd" clip-rule="evenodd" d="M1714.39 866.307L1713.04 924.231L1718.11 947.122L1734.48 957.511L1755.4 972.7L1782.9 977.844L1815.21 984.21L1859.08 985.561L1904.07 983.865L1930.61 983.046L1955.88 976.968L1977.06 964.193L1987.48 953.373L1994.2 945.196L1996.85 890.419L1995.21 871.063L1983.6 874.943L1972.19 886.396L1954.4 894.558L1927.63 898.05L1896.03 900.579L1836.22 902.777L1785.71 899.716L1756.64 890.132L1740.13 884.298L1711.01 870.445" fill="#FE7F80"/>
<path d="M1712.2 869.483C1712.61 875.317 1712.16 891.928 1712.98 904.358C1713.78 916.788 1709.93 933.299 1717.05 944.047C1724.17 954.781 1739.39 962.325 1755.73 968.82C1772.07 975.33 1791.02 980.647 1815.06 983.032C1839.11 985.417 1876.01 984.828 1899.99 983.118C1923.99 981.408 1943.88 978.118 1959.04 972.786C1974.2 967.47 1985.06 960.975 1990.97 951.174C1996.87 941.389 1993.87 926.875 1994.49 914.043C1995.12 901.211 1996.63 879.93 1994.72 874.153C1992.81 868.391 1990.15 875.892 1983.04 879.427C1975.91 882.962 1966.17 891.77 1952.04 895.363C1937.9 898.955 1920.63 899.947 1898.21 900.996C1875.78 902.03 1841.69 903.453 1817.48 901.585C1793.27 899.717 1770.59 895.65 1752.93 889.759C1735.28 883.867 1718.6 869.799 1711.56 866.25M1713.83 870.187C1714.27 876.481 1713.34 893.753 1714.06 906.514C1714.79 919.274 1711.4 935.813 1718.17 946.72C1724.94 957.641 1738.92 965.932 1754.67 972.025C1770.42 978.118 1787.99 981.193 1812.68 983.276C1837.37 985.36 1878.65 985.992 1902.81 984.541C1926.96 983.075 1943.46 979.971 1957.62 974.511C1971.77 969.05 1981.28 962.282 1987.71 951.778C1994.13 941.259 1995.14 924.404 1996.13 911.428C1997.12 898.452 1995.18 879.542 1993.64 873.938C1992.12 868.348 1993.64 874.943 1986.96 877.86C1980.28 880.778 1968.36 887.373 1953.52 891.469C1938.69 895.578 1920.43 900.622 1897.92 902.49C1875.42 904.344 1842.63 904.516 1818.53 902.634C1794.43 900.751 1770.63 896.728 1753.29 891.181C1735.96 885.634 1721.29 873.248 1714.5 869.368L1713.83 870.187Z" stroke="black" stroke-width="2" stroke-linecap="round"/>
<path fill-rule="evenodd" clip-rule="evenodd" d="M1710.67 965.384L1712.31 1021.45L1720.01 1042.88L1729.93 1056.85L1755.03 1068.08L1778.78 1074.94L1813.65 1079.55L1858.04 1082.24L1901.63 1076.27L1935.42 1074.03L1959.67 1069.85L1975.21 1058.3L1990.23 1049.02L1994.13 1040.44L1995.93 988.994L1993.72 965.787L1982.8 975.098L1973.35 983.763L1954.27 989.065L1927.46 993.434L1895.64 997.759L1835.88 1002.62L1784.46 998.032L1752.78 987.312L1710.63 964.148" fill="#FE7F80"/>
<path d="M1713.24 965.356C1713.53 971.262 1713.93 991.005 1714.92 1003.33C1715.92 1015.66 1712.5 1029.06 1719.19 1039.33C1725.9 1049.6 1739.21 1058.08 1755.17 1064.98C1771.15 1071.88 1790.18 1078.44 1815.05 1080.69C1839.93 1082.94 1880.52 1080.18 1904.41 1078.44C1928.29 1076.72 1944.57 1075.27 1958.35 1070.33C1972.12 1065.37 1980.81 1059.35 1987.05 1048.74C1993.29 1038.15 1994.88 1019.64 1995.74 1006.75C1996.61 993.879 1993.76 977.153 1992.18 971.42C1990.61 965.7 1992.75 969.523 1986.33 972.425C1979.91 975.328 1968.44 984.568 1953.65 988.864C1938.85 993.161 1919.71 995.819 1897.57 998.19C1875.41 1000.55 1844.71 1004.3 1820.73 1003.05C1796.76 1001.8 1771.21 996.61 1753.68 990.661C1736.15 984.712 1721.97 971.046 1715.56 967.353M1714.55 966.577C1714.92 972.267 1714.55 988.563 1715.38 1001.14C1716.23 1013.71 1713.13 1031.48 1719.62 1041.99C1726.12 1052.49 1738.84 1057.87 1754.36 1064.16C1769.86 1070.44 1788.07 1077.17 1812.73 1079.72C1837.37 1082.27 1878.23 1081.49 1902.3 1079.45C1926.38 1077.42 1942.82 1072.68 1957.22 1067.52C1971.6 1062.35 1982.58 1058.26 1988.63 1048.47C1994.69 1038.68 1992.41 1021.64 1993.54 1008.77C1994.68 995.891 1996.78 976.722 1995.47 971.204C1994.16 965.7 1993.1 972.684 1985.73 975.73C1978.34 978.777 1965.88 985.574 1951.18 989.511C1936.48 993.463 1919.87 997.845 1897.55 999.412C1875.22 1000.98 1841.22 1000.36 1817.27 998.894C1793.31 997.429 1771.08 996.164 1753.82 990.632C1736.57 985.114 1720.66 969.681 1713.73 965.729L1714.55 966.577Z" stroke="black" stroke-width="2" stroke-linecap="round"/>
<path fill-rule="evenodd" clip-rule="evenodd" d="M651.111 870.383L613.965 949.977L657.219 947.002L671.775 906.077L690.801 950.264L726.669 951.04L674.463 818.739L652.16 872.654" fill="#FA5252"/>
<path fill-rule="evenodd" clip-rule="evenodd" d="M651.571 868.817C645.651 886.06 634.888 905 614.741 950.092L651.571 868.817ZM652.908 871.432C636.468 900.559 622.946 929.888 614.54 949.416L652.908 871.432ZM614.022 951.256C628.249 947.361 637.805 949.416 659.834 950.207L614.022 951.256ZM615.273 947.548C629.053 948.224 646.671 948.971 658.641 948.123L615.273 947.548ZM656.112 946.212C663.743 936.843 668.485 923.034 671.977 902.959L656.112 946.212ZM657.104 947.879C660.05 939.516 665.956 928.092 672.853 906.394L657.104 947.879ZM672.264 906.02C676.13 912.716 678.831 923.723 691.779 949.186L672.264 906.02ZM672.71 905.632C679.277 922.028 683.846 937.949 690.299 948.094L672.71 905.632ZM689.523 946.341C704.008 946.111 720.849 945.781 725.117 950.135L689.523 946.341ZM689.752 949.373C701.263 949.459 714.613 948.813 726.597 947.577L689.752 949.373ZM726.094 946.255C710.79 904.209 693.115 854.203 673.931 819.4L726.094 946.255ZM725.634 948.123C711.925 915.605 698.418 881.75 676.676 820.937L725.634 948.123ZM676.087 822.863C669.764 835.666 660.078 854.045 652.002 871.633L676.087 822.863ZM675.569 819.831C670.525 832.965 663.7 844.001 651.183 871.288L675.569 819.831Z" stroke="black" stroke-width="2" stroke-linecap="round"/>
<path d="M16.6469 793.049C167.877 792.863 317.253 793.322 449.457 798.337M15.6123 791.153C157.013 791.555 296.575 794.731 448.811 796.915L15.6123 791.153Z" stroke="black" stroke-opacity="0.9" stroke-width="4" stroke-linecap="round"/>
<path d="M16.5746 850.571C149.713 853.215 282.578 854.623 446.727 852.971M14.376 852.051C142.24 850.657 273.525 853.258 448.264 852.439L14.376 852.051Z" stroke="black" stroke-opacity="0.9" stroke-width="4" stroke-linecap="round"/>
<path d="M15.4969 907.03C132.929 908.725 250.015 908.395 448.595 906.512M15.3389 907.806C126.52 907.892 242.04 905.593 446.899 907.403L15.3389 907.806Z" stroke="black" stroke-opacity="0.9" stroke-width="4" stroke-linecap="round"/>
<path fill-rule="evenodd" clip-rule="evenodd" d="M406.678 934.289L449.716 983.16L403.186 1020.62L363.582 983.419" fill="#FA5252" fill-opacity="0.9"/>
<path d="M361.556 980.3C369.402 970.429 379.561 960.212 405.212 937.651M405.83 933.642C424.281 953.415 439.383 971.88 444.284 980.2L405.83 933.642ZM404.752 936.085C415.457 947.782 428.577 961.448 447.948 982.327L404.752 936.085ZM447.574 979.395C431.624 995.159 421.881 1007.42 403.013 1022.37L447.574 979.395ZM446.813 980.43C436.639 992.529 423.993 1004.47 404.278 1023.28L446.813 980.43ZM403.142 1022.04C390.425 1005.1 370.034 990.014 358.222 980.918L403.142 1022.04ZM405.183 1022.73C392.753 1008.65 377.937 996.466 360.435 981.694L405.183 1022.73ZM359.587 979.639C377.291 969.078 389.29 953.731 405.628 934.217L359.587 979.639Z" stroke="black" stroke-opacity="0.9" stroke-linecap="round"/>
<path d="M405.449 970.885H402.513L402.285 952.515H405.695L405.449 970.885ZM402.162 976.474C402.162 975.947 402.32 975.508 402.636 975.156C402.964 974.793 403.445 974.611 404.078 974.611C404.71 974.611 405.191 974.793 405.519 975.156C405.847 975.508 406.011 975.947 406.011 976.474C406.011 977.002 405.847 977.441 405.519 977.793C405.191 978.133 404.71 978.303 404.078 978.303C403.445 978.303 402.964 978.133 402.636 977.793C402.32 977.441 402.162 977.002 402.162 976.474Z" fill="black" fill-opacity="0.9"/>
<path d="M27.8554 990.843C27.8554 990.843 28.3609 990.492 29.3718 989.79C30.3828 989.088 30.3828 989.088 29.3718 989.79C28.3609 990.492 28.3609 990.492 29.3718 989.79C30.3828 989.088 31.5927 988.368 33.0017 987.631C34.4107 986.894 35.9107 986.037 37.5016 985.061C39.0926 984.084 40.4988 983.148 41.7204 982.251C42.9419 981.354 44.0861 980.233 45.153 978.89C46.22 977.546 47.5186 976.115 49.0488 974.596C50.5791 973.077 52.0741 971.629 53.5339 970.253C54.9937 968.877 56.6263 968.122 58.4318 967.987C60.2372 967.853 62.465 968.207 65.1151 969.051C67.7652 969.895 69.7755 970.917 71.146 972.116C72.5165 973.316 73.9408 974.549 75.419 975.815C76.8972 977.082 78.4739 978.272 80.1493 979.386C81.8246 980.499 83.565 981.187 85.3705 981.45C87.1759 981.712 88.7617 981.051 90.1279 979.466C91.494 977.88 92.743 976.559 93.8747 975.502C95.0064 974.445 96.1364 973.322 97.2648 972.132C98.3931 970.941 99.8309 969.789 101.578 968.674C103.325 967.56 105.092 967.004 106.879 967.008C108.666 967.011 110.687 967.61 112.944 968.802C115.2 969.995 117.242 971.411 119.071 973.051C120.899 974.691 122.698 976.296 124.466 977.867C126.235 979.438 127.882 980.784 129.407 981.905C130.932 983.026 132.36 983.831 133.692 984.32C135.024 984.809 136.509 984.62 138.147 983.753C139.786 982.886 141.441 981.97 143.114 981.003C144.787 980.036 146.365 979.032 147.847 977.991C149.33 976.949 150.732 975.804 152.056 974.557C153.379 973.309 154.79 972.088 156.29 970.895C157.789 969.701 159.221 968.459 160.587 967.169C161.953 965.878 163.35 964.823 164.777 964.004C166.205 963.184 167.742 962.872 169.389 963.067C171.036 963.262 172.656 964.074 174.249 965.503C175.842 966.931 177.696 968.481 179.81 970.153C181.924 971.824 183.596 973.096 184.826 973.969C186.057 974.842 187.293 975.682 188.536 976.49C189.779 977.299 191.021 978.14 192.26 979.014C193.5 979.888 194.812 980.47 196.199 980.762C197.585 981.054 199.174 980.425 200.967 978.875C202.76 977.325 204.743 975.859 206.916 974.474C209.089 973.09 211.024 971.875 212.722 970.83C214.42 969.785 215.997 968.95 217.452 968.323C218.908 967.697 220.434 967.049 222.032 966.38C223.63 965.711 225.198 965.189 226.737 964.814C228.276 964.44 229.854 964.606 231.471 965.312C233.088 966.018 234.927 967 236.986 968.258C239.046 969.515 241.046 970.764 242.986 972.003C244.927 973.243 246.847 974.534 248.748 975.878C250.649 977.222 252.466 978.452 254.2 979.569C255.934 980.686 257.602 981.428 259.205 981.795C260.808 982.163 262.202 981.547 263.387 979.946C264.572 978.345 266.148 976.751 268.115 975.162C270.081 973.573 272.16 972.025 274.352 970.519C276.544 969.012 278.554 967.524 280.383 966.055C282.212 964.585 283.932 963.436 285.544 962.606C287.156 961.775 288.931 961.762 290.871 962.566C292.811 963.37 294.908 964.509 297.162 965.983C299.417 967.457 301.719 969.106 304.07 970.93C306.421 972.754 308.259 974.208 309.583 975.293C310.908 976.378 312.265 977.475 313.654 978.584C315.043 979.693 316.44 980.892 317.845 982.18C319.25 983.468 320.574 984.331 321.818 984.769C323.061 985.206 324.326 984.564 325.611 982.843C326.896 981.121 328.023 979.532 328.991 978.075C329.96 976.618 330.872 975.109 331.727 973.546C332.581 971.983 333.786 970.544 335.342 969.229C336.898 967.913 338.413 966.925 339.889 966.264C341.365 965.604 343.104 965.564 345.106 966.145C347.108 966.726 348.78 967.573 350.12 968.686C351.461 969.799 352.758 970.948 354.011 972.132C355.264 973.316 356.54 974.39 357.838 975.353C359.136 976.316 360.498 977.213 361.925 978.045C363.352 978.877 364.706 979.838 365.987 980.93C367.269 982.021 367.732 983.187 367.378 984.429C367.024 985.67 366.241 986.512 365.028 986.956C363.816 987.399 362.674 987.26 361.603 986.54C360.531 985.82 359.972 984.815 359.925 983.525C359.878 982.234 360.363 981.191 361.379 980.395C362.395 979.599 363.524 979.377 364.766 979.732C366.007 980.086 366.849 980.869 367.293 982.081C367.736 983.294 367.598 984.436 366.877 985.507C366.157 986.578 365.152 987.137 363.862 987.184C362.571 987.231 361.528 986.747 360.732 985.731C359.936 984.714 359.622 984.387 359.791 984.747C359.961 985.108 359.499 985.027 358.407 984.504C357.314 983.981 356.1 983.245 354.764 982.295C353.427 981.346 352.003 980.196 350.491 978.845C348.979 977.494 347.456 976.515 345.923 975.907C344.389 975.299 342.701 975.452 340.859 976.366C339.017 977.28 337.42 978.48 336.068 979.968C334.716 981.456 333.693 982.898 332.998 984.295C332.303 985.691 331.335 987.366 330.093 989.319C328.852 991.273 327.533 992.78 326.138 993.841C324.743 994.902 323.118 995.09 321.263 994.405C319.408 993.72 317.788 992.792 316.403 991.621C315.017 990.45 313.718 989.287 312.505 988.13C311.292 986.974 310.071 985.792 308.841 984.585C307.612 983.379 306.396 982.205 305.193 981.065C303.99 979.924 302.572 978.759 300.939 977.569C299.306 976.378 297.534 974.998 295.625 973.428C293.716 971.857 291.8 970.786 289.878 970.213C287.955 969.641 286.007 969.959 284.034 971.169C282.06 972.378 280.103 973.73 278.16 975.226C276.218 976.722 274.326 978.369 272.484 980.168C270.642 981.967 268.842 983.669 267.084 985.274C265.325 986.88 263.399 987.826 261.305 988.114C259.211 988.401 257.304 988.204 255.585 987.523C253.866 986.842 252.167 985.964 250.488 984.888C248.81 983.812 247.048 982.682 245.203 981.499C243.359 980.316 241.459 979.192 239.504 978.125C237.549 977.059 235.278 975.977 232.69 974.879C230.103 973.78 227.772 973.448 225.699 973.882C223.625 974.316 221.686 975.058 219.882 976.106C218.077 977.154 216.185 978.219 214.207 979.301C212.228 980.382 210.138 981.638 207.938 983.07C205.739 984.501 203.83 985.726 202.213 986.745C200.595 987.765 199.053 988.377 197.585 988.581C196.117 988.786 194.693 988.641 193.313 988.147C191.933 987.654 190.487 986.875 188.977 985.812C187.466 984.749 185.989 983.735 184.545 982.772C183.101 981.809 181.758 980.888 180.518 980.009C179.277 979.131 177.883 978.155 176.336 977.081C174.789 976.007 173.061 974.917 171.152 973.809C169.243 972.701 167.387 972.573 165.584 973.425C163.781 974.276 162.201 975.206 160.844 976.214C159.487 977.222 158.054 978.466 156.544 979.947C155.034 981.429 153.459 982.795 151.818 984.047C150.178 985.3 148.671 986.335 147.297 987.153C145.923 987.971 144.558 988.89 143.203 989.91C141.848 990.929 139.972 991.586 137.575 991.88C135.179 992.174 133.011 991.809 131.072 990.785C129.133 989.761 127.286 988.608 125.532 987.325C123.777 986.043 121.95 984.689 120.05 983.264C118.151 981.839 116.321 980.472 114.563 979.161C112.804 977.85 111.138 976.754 109.565 975.874C107.991 974.993 106.582 974.934 105.335 975.695C104.088 976.456 102.681 977.645 101.115 979.261C99.5476 980.876 98.19 982.344 97.0417 983.662C95.8934 984.981 94.7087 986.21 93.4878 987.35C92.2668 988.49 90.7585 989.29 88.9626 989.752C87.1668 990.213 85.5286 990.158 84.048 989.586C82.5674 989.014 80.9943 988.303 79.3285 987.455C77.6628 986.607 76.1182 985.717 74.6946 984.787C73.2711 983.857 71.8046 982.807 70.2953 981.636C68.786 980.466 67.1764 979.137 65.4666 977.649C63.7568 976.162 62.0989 975.612 60.4928 975.998C58.8867 976.385 57.42 977.158 56.0927 978.316C54.7654 979.474 53.5021 980.728 52.3028 982.077C51.1034 983.426 49.5154 984.898 47.5387 986.493C45.562 988.088 43.5856 989.597 41.6095 991.021C39.6333 992.445 37.7434 993.518 35.9395 994.24C34.1357 994.962 33.066 995.503 32.7305 995.863C32.395 996.224 31.9221 996.596 31.3121 996.98C30.702 997.364 30.0372 997.533 29.3177 997.485C28.5983 997.437 27.9616 997.183 27.4076 996.721C26.8536 996.26 26.4881 995.68 26.3112 994.981C26.1342 994.282 26.3474 993.417 26.9506 992.388L27.8554 990.843Z" fill="black" fill-opacity="0.9"/>
<path d="M1245.8 190.702C1415.05 190.156 1584.87 188.604 1800.78 186.075M879.192 793.567C970.873 789.73 1067.84 790.247 1241.95 795.018L879.192 793.567ZM878.315 792.532C1004.61 792.748 1132.43 792.561 1244.89 793.61L878.315 792.532ZM1243.73 792.029C1243.53 652.184 1242.08 511.835 1245.54 189.524L1243.73 792.029ZM1243.62 793.394C1243.1 613.63 1243.62 434.412 1244.68 189.61L1243.62 793.394ZM1244 190.07C1466.94 187.512 1686.67 183.388 1800.3 187.455L1244 190.07Z" stroke="black" stroke-opacity="0.9" stroke-width="4" stroke-linecap="round"/>
<path d="M1425.82 505.868C1673.59 508.929 1921.8 508.311 2286.94 504.877M878.207 854.059C1015.68 847.579 1149.01 847.507 1423.76 850.251L878.207 854.059ZM878.466 852.824C1080.67 850.137 1282.06 849.102 1424.61 849.116L878.466 852.824ZM1425.24 847.694C1423.2 748.126 1420.22 649.622 1426.72 505.394L1425.24 847.694ZM1425.78 849.763C1427.13 723.741 1426.03 601.757 1424.5 505.883L1425.78 849.763ZM1424.83 505.624C1713.64 507.104 2000.68 505.538 2286.61 505.653L1424.83 505.624Z" stroke="black" stroke-opacity="0.9" stroke-width="4" stroke-linecap="round"/>
<path d="M878.545 907.202C1064.91 909.559 1252.44 908.941 1714.94 909.314M878.559 906.728C1093.95 908.035 1309.11 908.811 1715.7 909.947L878.559 906.728Z" stroke="black" stroke-opacity="0.9" stroke-width="4" stroke-linecap="round"/>
</svg>
