<svg width="1781" height="100%" viewBox="0 0 1781 785" fill="none" xmlns="http://www.w3.org/2000/svg">
    <g id="security">
        <g id="shield">
            <g id="Group">
                <g id="Group_2">
                    <path id="Vector"
                        d="M606.262 466.413C536.442 466.933 467.612 467.583 302.492 464.593M302.412 463.033C301.202 553.773 302.922 639.593 301.132 707.423L302.412 463.033ZM302.212 464.373C303.992 514.083 303.762 562.853 302.192 706.443L302.212 464.373ZM302.622 706.403C344.932 728.693 388.872 750.353 458.892 784.773L302.622 706.403ZM302.122 706.573C362.382 735.783 424.962 766.213 459.262 784.023L302.122 706.573ZM459.652 781.723C498.642 764.253 536.992 742.733 604.802 708.203L459.652 781.723ZM459.332 783.903C516.852 752.773 573.042 722.703 606.272 705.743L459.332 783.903ZM605.532 707.433C604.652 610.523 605.792 516.263 604.982 467.013L605.532 707.433ZM605.082 706.653C605.392 637.203 606.362 568.603 605.562 465.903L605.082 706.653ZM604.932 466.103C488.382 464.363 374.072 462.843 301.982 465.193L604.932 466.103Z"
                        stroke="black" stroke-opacity="0.9" stroke-width="4" stroke-linecap="round" />
                </g>
            </g>
            <g id="Group_3">
                <g id="Group_4">
                    <path id="Vector_2"
                        d="M542.322 404.863C555.482 418.713 569.312 433.603 604.192 465.963M304.332 462.403C316.332 448.183 331.222 434.023 358.682 406.493L304.332 462.403ZM302.532 464.623C325.622 441.503 345.782 420.083 360.532 407.223L302.532 464.623ZM359.002 407.823C411.892 402.593 463.932 404.643 540.812 402.713L359.002 407.823ZM360.352 405.473C428.822 404.933 497.772 404.763 542.452 405.173L360.352 405.473ZM543.572 403.933C559.732 425.393 580.902 442.813 605.112 467.383L543.572 403.933Z"
                        stroke="black" stroke-opacity="0.9" stroke-width="4" stroke-linecap="round" />
                </g>
            </g>
            <g id="Group_5">
                <g id="Group_6">
                    <path id="Vector_3"
                        d="M578.733 702.235C581.613 698.465 585.563 694.735 593.553 685.465M325.583 508.735C330.333 497.175 339.663 490.985 346.803 484.345L325.583 508.735ZM322.953 507.515C329.223 501.715 336.043 494.875 344.703 482.595L322.953 507.515ZM323.293 531.195C332.723 519.825 344.003 512.485 365.653 482.685L323.293 531.195ZM324.823 531.685C340.263 513.825 354.943 495.695 366.053 484.645L324.823 531.685ZM325.023 555.615C344.363 533.425 365.973 507.565 388.363 484.765L325.023 555.615ZM323.873 556.995C340.043 536.135 357.743 516.555 386.453 483.485L323.873 556.995ZM322.503 581.305C355.483 544.855 385.733 511.235 408.803 484.475L322.503 581.305ZM323.013 581.115C343.183 558.715 365.203 535.135 407.873 482.845L323.013 581.115ZM323.493 605.325C348.753 575.805 374.973 546.235 429.863 483.885L323.493 605.325ZM323.773 605.795C353.193 573.375 381.333 538.845 429.313 483.645L323.773 605.795ZM324.783 628.695C367.133 578.685 413.573 526.185 449.953 483.065L324.783 628.695ZM323.693 630.715C370.783 576.025 418.373 520.625 449.603 485.365L323.693 630.715ZM322.783 654.695C381.393 588.705 437.673 522.055 473.103 485.165L322.783 654.695ZM323.203 655.335C364.943 607.015 405.713 560.275 472.073 484.855L323.203 655.335ZM322.323 678.965C377.903 619.055 432.093 553.845 493.763 485.555L322.323 678.965ZM322.963 679.075C371.423 624.525 418.643 571.745 493.073 484.975L322.963 679.075ZM327.343 698.725C374.653 644.555 420.663 591.815 513.273 485.765L327.343 698.725ZM328.673 699.115C400.623 616.125 473.153 533.385 513.543 484.375L328.673 699.115ZM343.823 706.365C415.903 619.615 490.433 535.135 533.793 483.445L343.823 706.365ZM343.573 705.385C413.463 624.685 483.423 544.545 535.273 485.235L343.573 705.385ZM356.833 713.345C413.463 647.075 473.123 579.235 554.673 486.145L356.833 713.345ZM358.103 713.055C405.463 657.175 454.553 600.235 555.973 485.225L358.103 713.055ZM373.363 720.185C424.663 657.975 477.563 598.165 577.803 484.915L373.363 720.185ZM372.223 720.085C451.963 628.425 529.923 537.645 577.863 485.155L372.223 720.085ZM388.503 728.545C458.393 644.465 531.313 560.705 593.633 490.115L388.503 728.545ZM386.803 728.155C428.153 678.025 470.413 630.295 593.763 490.315L386.803 728.155ZM404.183 734.355C441.893 688.185 480.873 643.785 595.593 513.955L404.183 734.355ZM402.213 733.835C441.223 692.105 479.913 647.645 594.653 513.445L402.213 733.835ZM417.323 742.415C463.283 690.885 505.823 641.335 594.413 539.555L417.323 742.415ZM417.263 741.625C477.063 673.765 535.063 606.995 594.503 539.025L417.263 741.625ZM432.973 750.585C481.853 695.795 526.623 640.845 593.333 563.345L432.973 750.585ZM431.613 749.175C496.523 676.045 560.803 603.925 593.943 562.605L431.613 749.175ZM445.803 755.235C502.063 691.815 559.413 629.155 594.563 587.805L445.803 755.235ZM446.403 757.645C478.323 721.505 509.843 684.495 594.163 587.705L446.403 757.645ZM463.923 763.885C509.403 709.335 559.363 653.395 593.843 612.785L463.923 763.885ZM462.653 763.565C496.443 722.915 531.333 684.975 594.083 611.935L462.653 763.565ZM499.493 743.265C530.593 704.915 563.513 669.065 596.133 637.455L499.493 743.265ZM500.883 742.225C536.203 701.625 570.323 662.575 594.013 635.105L500.883 742.225ZM538.923 722.595C554.543 707.835 565.923 691.435 595.843 660.995L538.923 722.595ZM539.673 722.305C550.833 708.875 563.453 696.625 594.793 661.075L539.673 722.305ZM579.863 703.105C583.523 696.575 586.433 691.975 593.543 685.705L579.863 703.105Z"
                        stroke="#228BE6" stroke-opacity="0.9" stroke-width="2" stroke-linecap="round" />
                    <path id="Vector_4" fill-rule="evenodd" clip-rule="evenodd"
                        d="M322.873 484.775C322.143 541.565 323.353 603.775 323.393 694.185L322.873 484.775ZM324.213 483.625C325.973 553.675 325.103 624.295 324.123 693.655L324.213 483.625ZM323.653 692.365C360.843 714.725 400.833 733.935 460.293 760.995L323.653 692.365ZM323.683 694.365C368.363 715.445 411.353 736.775 460.403 762.235L323.683 694.365ZM461.003 762.715C511.533 733.695 563.503 706.095 590.293 692.655L461.003 762.715ZM459.403 761.975C491.863 745.255 523.973 728.755 587.543 694.525L459.403 761.975ZM589.283 694.345C587.383 613.735 587.293 532.965 586.893 486.405L589.283 694.345ZM587.683 694.255C587.423 630.855 588.693 567.625 587.883 484.515L587.683 694.255ZM587.043 485.155C532.073 485.935 474.473 485.745 324.193 484.465L587.043 485.155ZM587.783 485.405C488.533 483.035 388.633 481.475 324.113 483.945L587.783 485.405Z"
                        stroke="black" stroke-opacity="0.9" stroke-width="4" stroke-linecap="round" />
                </g>
            </g>
        </g>
        <g id="server1">
            <g id="Group_7">
                <g id="Group_8">
                    <path id="Vector_5" fill-rule="evenodd" clip-rule="evenodd"
                        d="M1241.52 41.4995L1240.12 89.0796L1241.98 94.3596L1248.86 106.28L1266.4 117.99L1283.32 122.87L1308.88 126.13L1338.81 127.99L1370.58 128.97L1396.1 122.4L1414.95 119.24L1429.31 109.13L1437.41 99.5396L1439.36 92.8096L1441.09 53.5196L1434.67 40.7396L1425.22 27.1796L1419.4 18.4895L1409.18 14.7196L1390.64 7.84955L1365.82 3.20955L1337.72 2.17955L1306.24 1.78955L1283.13 10.4995L1263.95 19.4895L1254.57 23.8396L1238.95 41.4395"
                        fill="#FE7F80" />
                    <path id="Vector_6"
                        d="M1242.02 43.0396C1241.8 47.6896 1238.76 60.8496 1239.07 69.6496C1239.38 78.4596 1239.45 87.7596 1243.87 95.8596C1248.3 103.95 1254.87 112.82 1265.62 118.23C1276.37 123.64 1291.09 126.63 1308.38 128.31C1325.67 130 1351.63 129.96 1369.35 128.35C1387.07 126.73 1403.65 123.16 1414.69 118.61C1425.74 114.05 1431.52 109.28 1435.61 101.01C1439.7 92.7396 1439.26 79.0396 1439.24 68.9696C1439.21 58.8996 1440.13 49.6196 1435.45 40.6096C1430.78 31.5896 1423.07 21.1996 1411.19 14.8796C1399.31 8.56959 1381.59 4.75959 1364.16 2.70959C1346.73 0.659588 1323.38 0.239589 1306.6 2.58959C1289.82 4.93959 1274.47 9.85959 1263.47 16.8196C1252.48 23.7896 1244.61 39.7196 1240.61 44.3796M1240 43.7696C1239.98 48.1896 1240.05 60.0096 1240.27 68.5596C1240.5 77.0996 1237.21 86.9596 1241.35 95.0596C1245.49 103.16 1254.19 111.69 1265.1 117.16C1276 122.63 1289.07 125.93 1306.77 127.88C1324.46 129.83 1353.42 130.26 1371.27 128.84C1389.12 127.41 1402.96 123.99 1413.86 119.33C1424.76 114.67 1432.22 109.09 1436.65 100.88C1441.07 92.6596 1440.65 80.5096 1440.42 70.0196C1440.18 59.5396 1440.19 47.3296 1435.22 37.9596C1430.24 28.5996 1422.25 19.6696 1410.58 13.8496C1398.92 8.01959 1382.54 4.71959 1365.23 2.98959C1347.92 1.25959 1323.67 1.06959 1306.74 3.48959C1289.81 5.89959 1274.72 10.6696 1263.64 17.4696C1252.57 24.2796 1243.99 40.0096 1240.3 44.3296L1240 43.7696Z"
                        stroke="black" stroke-width="2" stroke-linecap="round" />
                </g>
            </g>
            <g id="Group_9">
                <path id="Vector_7"
                    d="M1351.75 8.63022C1364.37 9.16022 1379.08 11.8802 1389.34 14.8002C1399.59 17.7102 1408.31 21.7802 1413.28 26.1102C1418.26 30.4402 1420.45 35.8902 1419.18 40.7702C1417.91 45.6502 1412.79 51.1402 1405.69 55.4102C1398.58 59.6802 1387.93 64.1202 1376.54 66.3902C1365.15 68.6602 1350.54 69.3202 1337.34 69.0402C1324.13 68.7602 1308.78 67.0002 1297.33 64.7002C1285.88 62.4102 1275.28 59.5002 1268.65 55.2802C1262.02 51.0602 1257.94 44.5902 1257.54 39.3602C1257.14 34.1402 1260.18 28.1902 1266.25 23.9402C1272.32 19.6902 1283.17 16.6302 1293.95 13.8602C1304.72 11.0802 1318.76 8.16022 1330.9 7.29022C1343.04 6.43022 1358.77 7.70022 1366.8 8.68022C1374.83 9.66022 1379.73 12.5302 1379.08 13.1902L1351.75 8.63022ZM1323.35 9.46022C1335.49 8.44022 1351.85 8.79022 1364.1 10.2802C1376.35 11.7702 1388.12 14.9202 1396.85 18.4002C1405.58 21.8802 1412.99 26.3502 1416.47 31.1302C1419.95 35.9202 1420.97 42.2202 1417.74 47.1402C1414.52 52.0602 1405.86 57.1902 1397.13 60.6602C1388.39 64.1302 1377.24 66.3002 1365.35 67.9302C1353.47 69.5602 1338.7 71.2702 1325.81 70.4202C1312.92 69.5602 1298.53 66.1302 1288.01 62.8002C1277.5 59.4602 1267.85 54.8202 1262.73 50.4202C1257.61 46.0202 1255.8 41.4202 1257.3 36.3902C1258.79 31.3602 1263.78 24.4002 1271.7 20.2302C1279.63 16.0602 1296.15 13.5302 1304.84 11.3602C1313.53 9.20022 1320.68 7.47022 1323.85 7.24022C1327.01 7.01022 1323.78 9.13022 1323.85 9.96022"
                    fill="#FE7F80" />
                <path id="Vector_8"
                    d="M1303.65 10.6803C1314.28 8.07027 1329.13 8.34027 1341.84 8.54027C1354.55 8.74027 1368.81 9.45027 1379.93 11.9103C1391.05 14.3603 1401.72 18.6803 1408.58 23.2503C1415.43 27.8203 1420.89 34.1603 1421.08 39.3303C1421.26 44.5003 1415.73 49.8403 1409.67 54.2803C1403.62 58.7103 1395.56 63.2803 1384.76 65.9403C1373.96 68.6103 1358.07 70.0303 1344.9 70.2803C1331.72 70.5403 1317.5 69.4103 1305.7 67.4603C1293.91 65.5203 1281.98 62.8403 1274.11 58.6303C1266.24 54.4103 1260.13 47.3403 1258.49 42.1603C1256.84 36.9903 1259.41 31.9303 1264.24 27.5603C1269.08 23.2003 1281.07 18.8703 1287.48 16.0003C1293.89 13.1203 1299.88 10.9003 1302.72 10.3303C1305.56 9.75027 1303.7 11.8403 1304.52 12.5703M1311.76 9.57027C1322.93 7.68027 1337.68 7.27027 1350.57 8.19027C1363.46 9.10027 1378.57 11.8703 1389.1 15.0703C1399.62 18.2603 1408.59 22.8003 1413.72 27.3503C1418.85 31.9003 1420.96 37.4603 1419.87 42.3503C1418.77 47.2303 1414.56 52.8003 1407.14 56.6603C1399.72 60.5203 1386.99 63.2803 1375.35 65.4903C1363.71 67.6903 1350.1 69.8403 1337.3 69.9003C1324.51 69.9503 1310.01 68.3603 1298.59 65.8103C1287.18 63.2603 1275.44 59.0303 1268.8 54.5903C1262.17 50.1603 1259.17 43.9803 1258.79 39.1803C1258.41 34.3803 1260.65 30.1003 1266.53 25.7903C1272.4 21.4903 1285.44 16.3303 1294.05 13.3703C1302.65 10.4103 1313.14 8.82027 1318.17 8.02027C1323.2 7.21027 1323.96 8.06027 1324.22 8.56027L1311.76 9.57027Z"
                    stroke="black" stroke-width="2" stroke-linecap="round" />
            </g>
            <g id="Group_10">
                <g id="Group_11">
                    <path id="Vector_9" fill-rule="evenodd" clip-rule="evenodd"
                        d="M1241.13 112.41L1239.92 152.47L1246.7 168.3L1254.27 176.67L1270.33 183.74L1287.72 190.24L1311.59 196.12L1344.05 194.13L1374.26 195.74L1395.98 190.78L1411.59 187.05L1424.53 180.65L1434.55 171.71L1434 167.8L1437 130.73L1436.82 114.68L1429.91 121.27L1422.74 126.69L1409.16 131.48L1392.75 135.76L1368.82 136.21L1328.49 140.36L1292.27 136.89L1270.02 130L1259.98 124.93L1240.01 112.59"
                        fill="#FE7F80" />
                    <path id="Vector_10"
                        d="M1242.67 115.459C1243.09 119.449 1242.9 130.379 1243.27 139.259C1243.64 148.139 1240.8 160.849 1244.91 168.749C1249.01 176.639 1256.85 182.55 1267.89 186.63C1278.93 190.72 1293.92 191.799 1311.13 193.259C1328.33 194.729 1354.39 196.37 1371.11 195.41C1387.83 194.46 1401.05 191.299 1411.46 187.509C1421.86 183.729 1429.16 179.729 1433.54 172.699C1437.91 165.679 1436.94 154.759 1437.72 145.369C1438.5 135.969 1439.13 120.259 1438.19 116.319C1437.25 112.379 1436.92 119.379 1432.08 121.719C1427.23 124.049 1419.16 127.359 1409.11 130.339C1399.07 133.309 1387.65 137.889 1371.79 139.559C1355.94 141.219 1331.16 141.859 1314 140.329C1296.84 138.789 1281.21 134.739 1268.83 130.329C1256.44 125.909 1244.5 116.519 1239.68 113.829M1240.72 113.279C1240.73 117.209 1240.15 129.219 1240.93 138.249C1241.71 147.279 1240.85 159.589 1245.4 167.459C1249.95 175.329 1257.07 180.73 1268.22 185.49C1279.36 190.24 1294.78 194.26 1312.27 195.99C1329.76 197.71 1356.74 197.099 1373.17 195.829C1389.59 194.559 1400.67 192.239 1410.82 188.389C1420.97 184.529 1429.83 180.169 1434.07 172.709C1438.31 165.259 1435.75 152.989 1436.26 143.659C1436.77 134.319 1437.95 120.569 1437.14 116.719C1436.33 112.879 1436.4 118.229 1431.41 120.589C1426.43 122.939 1417.3 128.069 1407.23 130.839C1397.17 133.599 1386.45 135.669 1371.03 137.179C1355.61 138.689 1331.3 140.979 1314.72 139.909C1298.14 138.849 1283.69 135.249 1271.55 130.779C1259.42 126.319 1246.99 115.959 1241.93 113.109L1240.72 113.279Z"
                        stroke="black" stroke-width="2" stroke-linecap="round" />
                </g>
            </g>
            <g id="Group_12">
                <g id="Group_13">
                    <path id="Vector_11" fill-rule="evenodd" clip-rule="evenodd"
                        d="M1239.59 180.038L1240.48 222.308L1245.74 233.398L1253.78 244.618L1267.75 250.688L1287.2 256.838L1312.91 261.988L1340.88 262.748L1374 261.858L1393.11 258.328L1410.49 253.608L1423.8 248.348L1432.85 236.658L1437.34 231.848L1439.64 197.008L1435.52 182.018L1431.82 189.288L1422.7 194.108L1408.52 200.018L1391.71 201.118L1368.26 205.418L1329.3 207.738L1292.18 202.518L1269.9 196.508L1239.56 180.678"
                        fill="#FE7F80" />
                    <path id="Vector_12"
                        d="M1242.22 183.408C1242.34 187.328 1242.61 196.648 1242.92 204.978C1243.23 213.318 1239.63 225.988 1244.11 233.418C1248.58 240.848 1258.49 244.898 1269.78 249.558C1281.07 254.218 1294.74 259.788 1311.85 261.368C1328.97 262.958 1356.22 260.428 1372.46 259.078C1388.7 257.728 1399.17 256.448 1409.29 253.268C1419.4 250.088 1428.41 247.018 1433.15 239.988C1437.89 232.958 1436.97 220.268 1437.71 211.078C1438.45 201.898 1438.62 188.728 1437.6 184.858C1436.58 180.978 1436.8 185.398 1431.6 187.818C1426.39 190.238 1416.82 196.648 1406.38 199.398C1395.95 202.138 1384.08 202.938 1369 204.268C1353.92 205.598 1332.2 208.368 1315.89 207.388C1299.58 206.418 1283.63 202.478 1271.12 198.418C1258.6 194.358 1245.47 185.678 1240.8 183.038M1240.46 181.168C1240.27 185.408 1239.99 198.238 1240.73 206.828C1241.47 215.408 1240.11 225.188 1244.9 232.678C1249.7 240.178 1258.18 247.098 1269.49 251.778C1280.8 256.468 1295.34 259.398 1312.78 260.788C1330.21 262.178 1357.58 261.228 1374.09 260.118C1390.6 259.008 1401.87 257.938 1411.83 254.118C1421.79 250.298 1429.77 244.188 1433.85 237.198C1437.92 230.208 1435.8 220.888 1436.29 212.178C1436.77 203.478 1437.64 189.128 1436.78 184.968C1435.92 180.798 1435.95 184.808 1431.13 187.198C1426.31 189.588 1418.19 196.298 1407.87 199.288C1397.56 202.268 1384.54 203.828 1369.23 205.108C1353.91 206.388 1332.41 208.068 1315.99 206.978C1299.57 205.898 1283.3 202.798 1270.69 198.598C1258.07 194.408 1245.26 184.608 1240.29 181.818L1240.46 181.168Z"
                        stroke="black" stroke-width="2" stroke-linecap="round" />
                </g>
            </g>
        </g>
        <g id="server2">
            <g id="Group_14">
                <g id="Group_15">
                    <path id="Vector_13" fill-rule="evenodd" clip-rule="evenodd"
                        d="M1580.05 261.252L1578.19 308.182L1583.69 316.622L1590.11 326.472L1605.39 335.342L1623.03 342.542L1647.61 348.752L1680.64 347.132L1711.89 348.682L1736.07 342.652L1754.05 337.482L1767.81 329.752L1777.89 319.382L1777.18 314.672L1778.91 275.662L1776.95 258.362L1764.71 245.932L1759.67 239.992L1751.07 234.032L1730.8 226.992L1703.19 220.652L1676.05 222.352L1648.56 224.552L1622.27 228.692L1601.05 236.392L1593.55 242.682L1581.04 262.922"
                        fill="#FE7F80" />
                    <path id="Vector_14"
                        d="M1581.25 264.052C1581.42 268.822 1580.11 281.742 1580.41 290.622C1580.72 299.492 1578.89 309.722 1583.08 317.292C1587.28 324.862 1594.97 331.232 1605.58 336.032C1616.19 340.842 1629.04 344.142 1646.75 346.122C1664.45 348.102 1694.33 349.342 1711.83 347.912C1729.32 346.482 1740.76 341.952 1751.72 337.532C1762.67 333.122 1773.1 329.692 1777.55 321.432C1782.01 313.162 1778.4 298.372 1778.44 287.942C1778.48 277.502 1782.68 267.732 1777.79 258.792C1772.9 249.852 1761.31 240.642 1749.1 234.292C1736.88 227.952 1721.47 222.402 1704.52 220.742C1687.57 219.082 1664.26 221.422 1647.41 224.342C1630.57 227.262 1614.45 231.532 1603.47 238.232C1592.5 244.932 1585.28 260.302 1581.55 264.532M1579.42 261.962C1579.66 266.462 1580.86 280.122 1581.09 289.112C1581.31 298.112 1576.78 307.772 1580.76 315.932C1584.75 324.082 1593.79 332.572 1605 338.042C1616.21 343.512 1630.46 347.022 1648.03 348.762C1665.6 350.502 1692.72 350.182 1710.42 348.482C1728.13 346.782 1743.4 343.512 1754.24 338.552C1765.08 333.582 1771.19 326.892 1775.45 318.682C1779.71 310.462 1779.62 299.202 1779.82 289.272C1780.03 279.342 1781.79 268.412 1776.68 259.102C1771.57 249.792 1761.02 239.632 1749.14 233.382C1737.26 227.142 1722.39 223.092 1705.4 221.622C1688.41 220.152 1664.17 221.782 1647.2 224.562C1630.23 227.352 1614.63 232.092 1603.58 238.322C1592.52 244.552 1584.76 257.912 1580.85 261.952L1579.42 261.962Z"
                        stroke="black" stroke-width="2" stroke-linecap="round" />
                </g>
            </g>
            <g id="Group_16">
                <path id="Vector_15"
                    d="M1698.8 228.213C1710.86 228.703 1724.24 231.733 1733.68 235.063C1743.12 238.393 1751.19 243.313 1755.42 248.193C1759.65 253.073 1761.27 259.443 1759.05 264.333C1756.82 269.233 1750.53 273.853 1742.06 277.553C1733.59 281.263 1720.55 284.493 1708.22 286.573C1695.9 288.643 1681.03 290.543 1668.14 289.983C1655.24 289.423 1641.36 286.383 1630.86 283.213C1620.36 280.043 1610.49 275.293 1605.12 270.983C1599.74 266.673 1597.78 262.293 1598.59 257.363C1599.41 252.433 1603.07 245.863 1610.01 241.393C1616.96 236.923 1628.81 232.753 1640.28 230.563C1651.76 228.373 1668.25 228.473 1678.88 228.273C1689.51 228.073 1699.04 229.093 1704.05 229.353C1709.07 229.613 1709.44 229.393 1708.99 229.843L1698.8 228.213ZM1707.59 230.693C1719.3 231.873 1731.76 235.193 1740.24 239.003C1748.73 242.803 1756.1 248.543 1758.5 253.523C1760.9 258.503 1758.52 264.323 1754.64 268.873C1750.76 273.433 1744.24 277.363 1735.24 280.843C1726.24 284.313 1713.32 288.423 1700.63 289.723C1687.95 291.013 1672.16 290.023 1659.11 288.603C1646.07 287.193 1632.13 284.433 1622.37 281.253C1612.62 278.073 1604.67 274.333 1600.57 269.513C1596.47 264.693 1595 257.353 1597.75 252.343C1600.5 247.323 1608.49 243.363 1617.06 239.413C1625.64 235.463 1637.21 230.423 1649.18 228.653C1661.15 226.883 1679.1 228.473 1688.89 228.783C1698.69 229.093 1704.69 230.253 1707.95 230.523C1711.21 230.803 1708.76 230.223 1708.46 230.423"
                    fill="#FE7F80" />
                <path id="Vector_16"
                    d="M1669.82 227.323C1682.02 226.283 1697.81 227.793 1710.14 230.023C1722.46 232.243 1735.83 236.543 1743.76 240.663C1751.69 244.783 1755.65 249.793 1757.7 254.733C1759.76 259.673 1760.43 265.703 1756.11 270.303C1751.78 274.913 1741.7 279.223 1731.76 282.363C1721.82 285.503 1709.05 287.983 1696.45 289.163C1683.85 290.353 1668.66 291.103 1656.15 289.473C1643.63 287.853 1630.34 283.183 1621.36 279.423C1612.38 275.663 1605.64 271.383 1602.26 266.913C1598.88 262.443 1598.55 257.503 1601.08 252.603C1603.61 247.693 1608.98 241.183 1617.43 237.493C1625.88 233.803 1642.7 231.933 1651.79 230.453C1660.89 228.973 1668.71 228.743 1672.01 228.603C1675.32 228.463 1671.55 229.403 1671.6 229.613M1677.34 228.413C1689.89 227.993 1704.96 229.723 1716.45 231.993C1727.93 234.263 1738.9 237.973 1746.24 242.033C1753.58 246.093 1759.47 251.673 1760.48 256.353C1761.49 261.043 1757.61 265.673 1752.31 270.163C1747.01 274.653 1738.8 280.063 1728.7 283.283C1718.59 286.503 1704.71 288.763 1691.66 289.483C1678.61 290.203 1662.57 289.473 1650.38 287.603C1638.2 285.733 1627.03 281.833 1618.55 278.253C1610.08 274.683 1602.3 270.873 1599.53 266.153C1596.77 261.433 1598.18 255.013 1601.98 249.933C1605.78 244.853 1613.23 239.273 1622.32 235.683C1631.4 232.093 1646.23 229.873 1656.5 228.383C1666.77 226.893 1678.36 226.833 1683.94 226.743C1689.51 226.643 1689.86 227.093 1689.94 227.813L1677.34 228.413Z"
                    stroke="black" stroke-width="2" stroke-linecap="round" />
            </g>
            <g id="Group_17">
                <g id="Group_18">
                    <path id="Vector_17" fill-rule="evenodd" clip-rule="evenodd"
                        d="M1582.84 334.682L1581.17 372.662L1585.69 385.642L1593.98 396.342L1609.06 406.362L1629.54 409.382L1652.89 415.822L1684.02 414.382L1713.36 413.992L1734.48 411.402L1752.07 406.892L1762.34 402.522L1772.37 393.852L1776.28 385.422L1776.5 349.492L1777.09 336.192L1771.8 340.592L1762.9 345.832L1746.54 348.922L1731.08 355.922L1711.14 358.972L1667.63 358.552L1629.37 353.792L1609.01 348.852L1602.07 346.412L1582.24 332.352"
                        fill="#FE7F80" />
                    <path id="Vector_18"
                        d="M1580.35 332.762C1580.78 337.432 1581.73 351.732 1582.48 360.702C1583.23 369.662 1580.29 379.262 1584.86 386.552C1589.44 393.842 1599.07 399.452 1609.91 404.442C1620.76 409.432 1632.97 414.842 1649.95 416.492C1666.93 418.142 1695.16 415.772 1711.8 414.342C1728.43 412.922 1739.58 411.712 1749.74 407.932C1759.9 404.152 1768.29 399.062 1772.73 391.672C1777.18 384.272 1775.84 372.882 1776.4 363.562C1776.96 354.232 1777.37 339.702 1776.1 335.732C1774.83 331.762 1773.75 337.012 1768.77 339.742C1763.8 342.472 1756.37 349.162 1746.27 352.092C1736.16 355.022 1723.36 356.522 1708.13 357.312C1692.91 358.092 1671.22 358.172 1654.94 356.822C1638.66 355.462 1622.6 353.052 1610.44 349.182C1598.28 345.312 1586.75 336.222 1581.97 333.592M1581.53 333.842C1581.54 338.212 1579.72 350.032 1580.35 359.112C1580.97 368.202 1580.44 380.472 1585.3 388.342C1590.16 396.222 1598.46 401.822 1609.48 406.372C1620.5 410.922 1634.08 414.182 1651.43 415.622C1668.77 417.072 1697.18 416.622 1713.55 415.052C1729.92 413.482 1739.64 410.032 1749.63 406.182C1759.61 402.342 1768.79 398.862 1773.47 391.962C1778.16 385.062 1777.36 374.082 1777.73 364.792C1778.1 355.512 1776.72 340.522 1775.7 336.262C1774.67 332.002 1776.25 336.612 1771.58 339.212C1766.91 341.822 1757.8 348.772 1747.7 351.912C1737.59 355.052 1726.37 357.092 1710.96 358.032C1695.56 358.972 1672.07 358.882 1655.27 357.542C1638.46 356.192 1622.53 354.072 1610.14 349.962C1597.76 345.852 1586 335.692 1580.96 332.882L1581.53 333.842Z"
                        stroke="black" stroke-width="2" stroke-linecap="round" />
                </g>
            </g>
            <g id="Group_19">
                <g id="Group_20">
                    <path id="Vector_19" fill-rule="evenodd" clip-rule="evenodd"
                        d="M1581.88 401.281L1580.69 441.281L1583.1 453.091L1593.47 463.331L1610.38 472.501L1626.37 478.131L1652.64 481.931L1681.15 481.831L1712.26 480.351L1733.75 478.781L1750.36 471.401L1765.69 466.151L1775.01 458.921L1774.98 451.331L1778.41 417.261L1777.05 403.891L1771.15 409.431L1761.86 411.461L1745.98 418.331L1731.89 423.411L1711.04 424.541L1667.51 424.811L1629.1 421.491L1608.77 418.581L1581.06 402.891"
                        fill="#FE7F80" />
                    <path id="Vector_20"
                        d="M1579.55 402.601C1579.74 406.291 1579.71 416.721 1580.71 424.921C1581.72 433.111 1581.11 443.921 1585.59 451.771C1590.07 459.621 1596.63 466.971 1607.61 472.021C1618.58 477.061 1634.14 480.541 1651.44 482.041C1668.74 483.531 1695.03 482.591 1711.41 481.001C1727.79 479.401 1739.61 476.171 1749.73 472.451C1759.85 468.721 1767.77 465.281 1772.14 458.651C1776.5 452.011 1775.1 441.541 1775.92 432.631C1776.73 423.721 1778.08 409.201 1777.03 405.191C1775.99 401.191 1774.45 406.251 1769.64 408.611C1764.83 410.971 1758.03 416.611 1748.16 419.381C1738.29 422.141 1725.78 424.201 1710.43 425.191C1695.08 426.181 1672.8 426.681 1656.06 425.321C1639.32 423.971 1622.57 421.051 1609.99 417.031C1597.41 413.021 1585.2 404.001 1580.57 401.231M1581.04 400.561C1581.29 404.651 1580.82 417.821 1581.62 426.711C1582.41 435.601 1581.01 446.551 1585.81 453.921C1590.6 461.291 1599.29 466.381 1610.4 470.921C1621.5 475.461 1635.28 479.821 1652.44 481.151C1669.59 482.481 1697.12 480.181 1713.33 478.911C1729.53 477.631 1739.69 476.881 1749.65 473.511C1759.61 470.131 1768.48 465.781 1773.11 458.651C1777.74 451.511 1776.9 439.641 1777.44 430.721C1777.98 421.801 1777.62 408.961 1776.34 405.111C1775.06 401.271 1774.34 405.291 1769.78 407.641C1765.22 409.991 1758.91 416.201 1748.97 419.201C1739.02 422.201 1725.98 424.581 1710.1 425.641C1694.21 426.701 1670.34 426.891 1653.63 425.551C1636.93 424.211 1622.14 421.781 1609.88 417.621C1597.62 413.451 1585.01 403.031 1580.08 400.561H1581.04Z"
                        stroke="black" stroke-width="2" stroke-linecap="round" />
                </g>
            </g>
        </g>
        <g id="server3">
            <g id="Group_21">
                <g id="Group_22">
                    <path id="Vector_21" fill-rule="evenodd" clip-rule="evenodd"
                        d="M1182.96 525.373L1180.64 570.233L1183.88 575.813L1191.02 587.993L1205.32 599.803L1226.06 603.533L1250.12 610.313L1281.8 609.243L1312.19 608.773L1335.77 605.123L1355.73 599.183L1366.83 593.473L1376.91 583.373L1380.66 574.143L1379.61 536.263L1378.42 521.713L1367.81 507.103L1361.03 500.983L1349.64 493.323L1330.32 489.013L1306.7 485.263L1276.39 482.383L1246.85 483.303L1222.45 489.383L1204.34 499.713L1196.97 504.293L1179.92 522.903"
                        fill="#FE7F80" />
                    <path id="Vector_22"
                        d="M1181.66 523.673C1181.6 527.923 1181.41 541.393 1181.57 550.273C1181.74 559.153 1178.64 569.083 1182.65 576.953C1186.65 584.813 1194.6 591.853 1205.6 597.453C1216.59 603.053 1231.01 608.433 1248.63 610.563C1266.25 612.683 1293.45 612.223 1311.31 610.183C1329.17 608.153 1344.76 603.133 1355.78 598.353C1366.8 593.563 1373.19 589.663 1377.43 581.473C1381.67 573.283 1381.49 559.673 1381.2 549.203C1380.91 538.733 1380.7 527.833 1375.69 518.673C1370.67 509.513 1362.77 500.023 1351.11 494.243C1339.45 488.463 1322.65 485.313 1305.72 483.993C1288.79 482.683 1266.74 483.853 1249.55 486.343C1232.37 488.833 1213.99 492.303 1202.63 498.933C1191.26 505.563 1185.07 521.853 1181.38 526.133M1180.03 524.673C1180.12 529.233 1181.66 542.853 1182.19 551.853C1182.72 560.843 1179.36 570.723 1183.22 578.663C1187.08 586.613 1194.29 594.343 1205.36 599.533C1216.42 604.733 1232.1 608.403 1249.61 609.833C1267.12 611.273 1292.89 609.833 1310.43 608.133C1327.97 606.433 1343.57 604.053 1354.85 599.643C1366.13 595.233 1373.99 589.833 1378.11 581.663C1382.24 573.503 1379.59 561.013 1379.58 550.663C1379.57 540.313 1382.84 528.643 1378.05 519.583C1373.25 510.523 1362.72 502.193 1350.8 496.313C1338.89 490.433 1323.5 486.363 1306.53 484.323C1289.55 482.273 1266.14 481.533 1248.95 484.033C1231.75 486.543 1214.68 492.753 1203.36 499.343C1192.05 505.933 1184.97 519.493 1181.08 523.573L1180.03 524.673Z"
                        stroke="black" stroke-width="2" stroke-linecap="round" />
                </g>
            </g>
            <g id="Group_23">
                <path id="Vector_23"
                    d="M1267.34 488.733C1279.6 487.733 1296.11 489.343 1308.53 491.083C1320.95 492.813 1333.5 495.493 1341.85 499.123C1350.19 502.753 1356.1 507.763 1358.61 512.863C1361.12 517.973 1360.63 524.913 1356.91 529.743C1353.2 534.573 1345.57 538.593 1336.33 541.843C1327.08 545.093 1313.8 547.683 1301.45 549.233C1289.1 550.773 1274.89 552.193 1262.22 551.113C1249.55 550.023 1235.16 546.283 1225.45 542.703C1215.74 539.123 1208.2 534.113 1203.97 529.633C1199.73 525.153 1198.09 520.573 1200.03 515.833C1201.97 511.103 1207.65 505.353 1215.61 501.203C1223.57 497.063 1237.8 492.993 1247.81 490.983C1257.82 488.973 1269.4 489.313 1275.66 489.163C1281.92 489.023 1285.08 489.703 1285.37 490.113L1267.34 488.733ZM1306.21 491.673C1318.23 492.873 1329.62 496.613 1338.5 500.113C1347.38 503.613 1356 507.773 1359.5 512.673C1363.01 517.573 1363.06 524.673 1359.54 529.523C1356.01 534.373 1347.84 538.383 1338.35 541.773C1328.86 545.163 1315.29 548.193 1302.59 549.873C1289.9 551.553 1275 552.953 1262.2 551.863C1249.39 550.763 1235.35 546.653 1225.79 543.293C1216.23 539.933 1209.14 536.483 1204.83 531.723C1200.53 526.963 1198.25 519.593 1199.95 514.733C1201.66 509.883 1207.45 506.253 1215.08 502.593C1222.71 498.923 1233.83 494.943 1245.75 492.743C1257.67 490.553 1276.44 489.863 1286.61 489.413C1296.78 488.953 1303.46 489.873 1306.79 489.993C1310.13 490.113 1307.4 489.523 1306.63 490.153"
                    fill="#FE7F80" />
                <path id="Vector_24"
                    d="M1271.24 490.543C1283.31 489.733 1297 490.633 1309.07 492.523C1321.14 494.423 1335.35 498.123 1343.63 501.903C1351.91 505.683 1356.62 510.453 1358.77 515.193C1360.92 519.933 1360.53 525.533 1356.52 530.343C1352.5 535.153 1344.23 540.923 1334.67 544.063C1325.11 547.193 1311.56 548.203 1299.18 549.153C1286.79 550.113 1272.67 550.753 1260.37 549.793C1248.07 548.833 1235.07 546.843 1225.37 543.373C1215.66 539.893 1206.21 533.643 1202.14 528.953C1198.08 524.253 1198.21 519.853 1200.96 515.223C1203.7 510.603 1210.29 504.963 1218.6 501.193C1226.91 497.413 1242.13 494.703 1250.83 492.583C1259.54 490.473 1267.77 488.883 1270.82 488.483C1273.88 488.083 1268.96 489.373 1269.17 490.203M1314.03 492.803C1325.84 494.313 1338.48 498.613 1346.05 502.353C1353.63 506.093 1357.83 510.383 1359.47 515.253C1361.12 520.113 1360.43 526.723 1355.93 531.553C1351.43 536.383 1342.64 541.073 1332.48 544.243C1322.31 547.403 1307.67 549.733 1294.94 550.533C1282.21 551.343 1268.4 550.383 1256.08 549.053C1243.75 547.723 1229.96 546.013 1221 542.543C1212.04 539.083 1205.54 533.393 1202.33 528.273C1199.11 523.153 1198.72 516.753 1201.71 511.833C1204.7 506.913 1211.52 502.413 1220.27 498.763C1229.02 495.103 1241.99 491.523 1254.21 489.893C1266.43 488.263 1281.76 488.203 1293.59 488.983C1305.41 489.773 1318.72 493.283 1325.16 494.603C1331.61 495.923 1333.08 496.683 1332.27 496.913L1314.03 492.803Z"
                    stroke="black" stroke-width="2" stroke-linecap="round" />
            </g>
            <g id="Group_24">
                <g id="Group_25">
                    <path id="Vector_25" fill-rule="evenodd" clip-rule="evenodd"
                        d="M1183.03 593.873L1182.09 634.183L1185.62 650.113L1197.01 657.343L1211.57 667.913L1230.71 671.493L1253.19 675.923L1283.72 676.863L1315.03 675.683L1333.5 675.113L1351.08 670.883L1365.82 661.993L1373.07 654.463L1377.75 648.773L1379.59 610.653L1378.45 597.183L1370.37 599.883L1362.43 607.853L1350.05 613.533L1331.42 615.963L1309.43 617.723L1267.81 619.253L1232.66 617.123L1212.43 610.453L1200.94 606.393L1180.68 596.753"
                        fill="#FE7F80" />
                    <path id="Vector_26"
                        d="M1181.51 596.083C1181.79 600.143 1181.48 611.703 1182.05 620.353C1182.61 629.003 1179.93 640.493 1184.88 647.973C1189.84 655.443 1200.43 660.693 1211.8 665.213C1223.17 669.743 1236.36 673.443 1253.09 675.103C1269.82 676.763 1295.5 676.353 1312.19 675.163C1328.89 673.973 1342.73 671.683 1353.28 667.973C1363.83 664.273 1371.39 659.753 1375.5 652.933C1379.61 646.123 1377.52 636.023 1377.95 627.093C1378.39 618.163 1379.44 603.353 1378.11 599.333C1376.78 595.323 1374.93 600.543 1369.98 603.003C1365.02 605.463 1358.24 611.593 1348.41 614.093C1338.57 616.593 1326.55 617.283 1310.95 618.013C1295.34 618.733 1271.62 619.723 1254.77 618.423C1237.92 617.123 1222.14 614.293 1209.85 610.193C1197.57 606.093 1185.96 596.303 1181.06 593.833M1182.64 596.573C1182.95 600.953 1182.3 612.973 1182.8 621.853C1183.31 630.733 1180.95 642.243 1185.66 649.833C1190.37 657.433 1200.1 663.203 1211.06 667.443C1222.02 671.683 1234.25 673.823 1251.43 675.273C1268.61 676.723 1297.34 677.163 1314.15 676.153C1330.96 675.133 1342.44 672.973 1352.29 669.173C1362.14 665.373 1368.76 660.663 1373.23 653.353C1377.7 646.033 1378.4 634.303 1379.09 625.273C1379.78 616.243 1378.43 603.083 1377.36 599.183C1376.3 595.293 1377.36 599.883 1372.71 601.913C1368.06 603.943 1359.77 608.533 1349.44 611.383C1339.12 614.243 1326.41 617.753 1310.75 619.053C1295.09 620.343 1272.27 620.463 1255.5 619.153C1238.73 617.843 1222.17 615.043 1210.1 611.183C1198.04 607.323 1187.83 598.703 1183.11 596.003L1182.64 596.573Z"
                        stroke="black" stroke-width="2" stroke-linecap="round" />
                </g>
            </g>
            <g id="Group_26">
                <g id="Group_27">
                    <path id="Vector_27" fill-rule="evenodd" clip-rule="evenodd"
                        d="M1180.45 662.821L1181.59 701.841L1186.95 716.751L1193.85 726.471L1211.32 734.291L1227.85 739.061L1252.11 742.271L1283 744.141L1313.34 739.991L1336.85 738.431L1353.73 735.521L1364.54 727.481L1374.99 721.021L1377.71 715.051L1378.96 679.251L1377.42 663.101L1369.82 669.581L1363.25 675.611L1349.97 679.301L1331.31 682.341L1309.17 685.351L1267.58 688.731L1231.8 685.541L1209.75 678.081L1180.42 661.961"
                        fill="#FE7F80" />
                    <path id="Vector_28"
                        d="M1182.24 662.801C1182.44 666.911 1182.72 680.651 1183.41 689.231C1184.1 697.811 1181.72 707.131 1186.38 714.281C1191.05 721.431 1200.31 727.331 1211.42 732.131C1222.54 736.931 1235.78 741.501 1253.09 743.061C1270.4 744.631 1298.65 742.711 1315.27 741.501C1331.89 740.301 1343.22 739.291 1352.81 735.851C1362.39 732.401 1368.44 728.211 1372.78 720.831C1377.12 713.461 1378.23 700.581 1378.83 691.611C1379.43 682.651 1377.45 671.011 1376.35 667.021C1375.26 663.041 1376.75 665.701 1372.28 667.721C1367.81 669.741 1359.83 676.171 1349.54 679.161C1339.24 682.151 1325.92 684.001 1310.51 685.651C1295.09 687.291 1273.73 689.901 1257.04 689.031C1240.36 688.161 1222.58 684.551 1210.38 680.411C1198.18 676.271 1188.31 666.761 1183.85 664.191M1183.15 663.651C1183.41 667.611 1183.15 678.951 1183.73 687.701C1184.32 696.451 1182.16 708.821 1186.68 716.131C1191.2 723.441 1200.05 727.181 1210.85 731.561C1221.64 735.931 1234.31 740.611 1251.47 742.391C1268.62 744.161 1297.05 743.621 1313.8 742.201C1330.56 740.791 1342 737.491 1352.02 733.901C1362.03 730.301 1369.67 727.451 1373.88 720.641C1378.1 713.831 1376.51 701.971 1377.3 693.011C1378.09 684.051 1379.55 670.711 1378.64 666.871C1377.73 663.041 1376.99 667.901 1371.86 670.021C1366.72 672.141 1358.05 676.871 1347.82 679.611C1337.59 682.361 1326.03 685.411 1310.5 686.501C1294.96 687.591 1271.3 687.161 1254.63 686.141C1237.96 685.121 1222.49 684.241 1210.48 680.391C1198.47 676.551 1187.4 665.811 1182.58 663.061L1183.15 663.651Z"
                        stroke="black" stroke-width="2" stroke-linecap="round" />
                </g>
            </g>
        </g>
        <g id="logo">
            <g id="Group_28">
                <path id="Vector_29" fill-rule="evenodd" clip-rule="evenodd"
                    d="M443.104 596.709L417.254 652.099L447.354 650.029L457.484 621.549L470.724 652.299L495.684 652.839L459.354 560.769L443.834 598.289"
                    fill="#FA5252" />
                <path id="Vector_30" fill-rule="evenodd" clip-rule="evenodd"
                    d="M443.424 595.619C439.304 607.619 431.814 620.799 417.794 652.179L443.424 595.619ZM444.354 597.439C432.914 617.709 423.504 638.119 417.654 651.709L444.354 597.439ZM417.294 652.989C427.194 650.279 433.844 651.709 449.174 652.259L417.294 652.989ZM418.164 650.409C427.754 650.879 440.014 651.399 448.344 650.809L418.164 650.409ZM446.584 649.479C451.894 642.959 455.194 633.349 457.624 619.379L446.584 649.479ZM447.274 650.639C449.324 644.819 453.434 636.869 458.234 621.769L447.274 650.639ZM457.824 621.509C460.514 626.169 462.394 633.829 471.404 651.549L457.824 621.509ZM458.134 621.239C462.704 632.649 465.884 643.729 470.374 650.789L458.134 621.239ZM469.834 649.569C479.914 649.409 491.634 649.179 494.604 652.209L469.834 649.569ZM469.994 651.679C478.004 651.739 487.294 651.289 495.634 650.429L469.994 651.679ZM495.284 649.509C484.634 620.249 472.334 585.449 458.984 561.229L495.284 649.509ZM494.964 650.809C485.424 628.179 476.024 604.619 460.894 562.299L494.964 650.809ZM460.484 563.639C456.084 572.549 449.344 585.339 443.724 597.579L460.484 563.639ZM460.124 561.529C456.614 570.669 451.864 578.349 443.154 597.339L460.124 561.529Z"
                    stroke="black" stroke-width="2" stroke-linecap="round" />
            </g>
        </g>
        <g id="denyLog">
            <g id="Group_29">
                <path id="Vector_31" fill-rule="evenodd" clip-rule="evenodd"
                    d="M273.004 641.182L302.954 675.192L270.574 701.262L243.014 675.372" fill="#FA5252"
                    fill-opacity="0.9" />
                <path id="Vector_32"
                    d="M241.604 673.202C247.064 666.332 254.134 659.222 271.984 643.522M272.414 640.732C285.254 654.492 295.764 667.342 299.174 673.132L272.414 640.732ZM271.664 642.432C279.114 650.572 288.244 660.082 301.724 674.612L271.664 642.432ZM301.464 672.572C290.364 683.542 283.584 692.072 270.454 702.482L301.464 672.572ZM300.934 673.292C293.854 681.712 285.054 690.022 271.334 703.112L300.934 673.292ZM270.544 702.252C261.694 690.462 247.504 679.962 239.284 673.632L270.544 702.252ZM271.964 702.732C263.314 692.932 253.004 684.452 240.824 674.172L271.964 702.732ZM240.234 672.742C252.554 665.392 260.904 654.712 272.274 641.132L240.234 672.742Z"
                    stroke="black" stroke-opacity="0.9" stroke-linecap="round" />
            </g>
            <g id="Group_30">
                <path id="!"
                    d="M272.234 674.487H269.298L269.07 656.118H272.48L272.234 674.487ZM268.947 680.077C268.947 679.55 269.105 679.11 269.421 678.759C269.75 678.395 270.23 678.214 270.863 678.214C271.496 678.214 271.976 678.395 272.304 678.759C272.632 679.11 272.796 679.55 272.796 680.077C272.796 680.604 272.632 681.044 272.304 681.395C271.976 681.735 271.496 681.905 270.863 681.905C270.23 681.905 269.75 681.735 269.421 681.395C269.105 681.044 268.947 680.604 268.947 680.077Z"
                    fill="black" fill-opacity="0.9" />
            </g>
        </g>
        <g id="malReq">
            <path id="Vector_33"
                d="M9.38412 680.538C9.38412 680.538 9.73587 680.294 10.4394 679.805C11.1429 679.317 11.1429 679.317 10.4394 679.805C9.73587 680.294 9.73587 680.294 10.4394 679.805C11.1429 679.317 11.9849 678.816 12.9654 678.303C13.9459 677.79 14.9897 677.194 16.0968 676.514C17.204 675.835 18.1826 675.183 19.0326 674.559C19.8827 673.935 20.6789 673.155 21.4214 672.22C22.1639 671.285 23.0676 670.289 24.1325 669.232C25.1974 668.175 26.2377 667.167 27.2536 666.21C28.2695 665.252 29.4056 664.726 30.662 664.633C31.9184 664.539 33.4687 664.786 35.3129 665.373C37.1571 665.961 38.556 666.672 39.5097 667.506C40.4634 668.341 41.4546 669.199 42.4833 670.081C43.5119 670.962 44.6092 671.79 45.7751 672.565C46.9409 673.34 48.1521 673.819 49.4085 674.001C50.6648 674.184 51.7684 673.724 52.7191 672.621C53.6698 671.518 54.5389 670.598 55.3265 669.863C56.114 669.127 56.9004 668.345 57.6856 667.517C58.4708 666.689 59.4714 665.887 60.6873 665.111C61.9032 664.335 63.1328 663.949 64.3761 663.951C65.6194 663.954 67.0262 664.37 68.5964 665.2C70.1666 666.03 71.5879 667.016 72.8603 668.157C74.1328 669.298 75.3844 670.415 76.6151 671.508C77.8457 672.602 78.9917 673.538 80.053 674.318C81.1142 675.099 82.1083 675.659 83.0351 675.999C83.9619 676.339 84.9954 676.208 86.1355 675.604C87.2755 675.001 88.4277 674.363 89.5919 673.691C90.7561 673.018 91.854 672.319 92.8856 671.594C93.9172 670.869 94.8935 670.073 95.8144 669.205C96.7352 668.336 97.7173 667.487 98.7606 666.656C99.8039 665.826 100.801 664.961 101.751 664.063C102.702 663.165 103.674 662.431 104.667 661.861C105.661 661.29 106.73 661.073 107.876 661.209C109.022 661.345 110.15 661.91 111.258 662.904C112.367 663.898 113.657 664.977 115.128 666.14C116.599 667.303 117.763 668.188 118.619 668.795C119.475 669.403 120.336 669.988 121.201 670.55C122.066 671.113 122.93 671.698 123.792 672.306C124.655 672.914 125.568 673.32 126.533 673.523C127.498 673.726 128.604 673.288 129.852 672.21C131.099 671.131 132.479 670.111 133.991 669.147C135.503 668.184 136.85 667.339 138.032 666.611C139.213 665.884 140.311 665.303 141.323 664.867C142.336 664.431 143.399 663.98 144.51 663.514C145.622 663.048 146.714 662.685 147.785 662.425C148.856 662.164 149.954 662.28 151.079 662.771C152.204 663.263 153.484 663.946 154.917 664.821C156.35 665.696 157.742 666.565 159.092 667.428C160.443 668.29 161.779 669.189 163.102 670.124C164.425 671.059 165.689 671.915 166.896 672.693C168.102 673.47 169.263 673.986 170.379 674.242C171.494 674.498 172.464 674.069 173.289 672.955C174.114 671.841 175.211 670.731 176.579 669.626C177.947 668.52 179.394 667.443 180.92 666.394C182.445 665.346 183.844 664.311 185.117 663.288C186.389 662.265 187.586 661.465 188.708 660.888C189.829 660.31 191.065 660.301 192.415 660.86C193.765 661.42 195.224 662.212 196.793 663.238C198.362 664.264 199.964 665.411 201.6 666.681C203.236 667.95 204.515 668.962 205.437 669.717C206.359 670.472 207.303 671.235 208.27 672.007C209.236 672.779 210.208 673.613 211.186 674.51C212.164 675.406 213.085 676.007 213.951 676.311C214.816 676.616 215.696 676.169 216.59 674.971C217.484 673.773 218.269 672.667 218.943 671.653C219.617 670.639 220.251 669.589 220.846 668.501C221.441 667.414 222.28 666.412 223.362 665.497C224.445 664.581 225.499 663.893 226.527 663.434C227.554 662.974 228.764 662.946 230.157 663.351C231.55 663.755 232.713 664.344 233.646 665.119C234.579 665.894 235.482 666.693 236.354 667.517C237.226 668.341 238.114 669.088 239.017 669.759C239.92 670.429 240.868 671.053 241.861 671.632C242.854 672.211 243.796 672.88 244.688 673.639C245.58 674.399 245.902 675.211 245.656 676.074C245.41 676.938 244.864 677.525 244.021 677.833C243.177 678.142 242.382 678.045 241.637 677.544C240.891 677.043 240.502 676.343 240.469 675.445C240.437 674.548 240.774 673.822 241.481 673.267C242.188 672.713 242.974 672.559 243.838 672.806C244.702 673.052 245.288 673.597 245.596 674.441C245.905 675.285 245.809 676.079 245.307 676.825C244.806 677.57 244.106 677.96 243.209 677.992C242.311 678.025 241.585 677.688 241.031 676.981C240.477 676.273 240.258 676.045 240.376 676.296C240.494 676.547 240.173 676.491 239.413 676.127C238.653 675.763 237.808 675.251 236.878 674.59C235.948 673.929 234.957 673.129 233.904 672.189C232.852 671.249 231.792 670.567 230.725 670.144C229.658 669.721 228.483 669.828 227.201 670.464C225.919 671.099 224.808 671.935 223.867 672.97C222.927 674.006 222.215 675.009 221.731 675.981C221.247 676.953 220.574 678.119 219.709 679.478C218.845 680.837 217.928 681.886 216.957 682.625C215.986 683.363 214.856 683.494 213.565 683.017C212.274 682.54 211.146 681.894 210.182 681.08C209.218 680.265 208.314 679.455 207.47 678.651C206.626 677.846 205.776 677.024 204.92 676.184C204.065 675.344 203.219 674.527 202.382 673.734C201.545 672.94 200.558 672.129 199.421 671.301C198.285 670.472 197.052 669.512 195.723 668.419C194.395 667.326 193.062 666.58 191.724 666.182C190.386 665.784 189.03 666.005 187.657 666.847C186.284 667.688 184.921 668.63 183.57 669.671C182.218 670.712 180.902 671.858 179.62 673.11C178.338 674.362 177.085 675.546 175.862 676.663C174.638 677.78 173.298 678.439 171.84 678.639C170.383 678.839 169.056 678.702 167.86 678.228C166.664 677.754 165.481 677.143 164.313 676.394C163.145 675.645 161.919 674.859 160.635 674.036C159.352 673.213 158.03 672.43 156.669 671.688C155.308 670.946 153.728 670.193 151.927 669.429C150.127 668.664 148.505 668.433 147.062 668.735C145.619 669.037 144.27 669.553 143.014 670.283C141.758 671.012 140.442 671.753 139.065 672.506C137.688 673.258 136.234 674.133 134.703 675.129C133.172 676.125 131.844 676.978 130.718 677.687C129.593 678.396 128.519 678.822 127.498 678.964C126.476 679.107 125.485 679.006 124.525 678.662C123.564 678.319 122.559 677.777 121.507 677.037C120.456 676.297 119.428 675.592 118.423 674.922C117.418 674.252 116.484 673.611 115.621 672.999C114.758 672.388 113.788 671.708 112.711 670.961C111.634 670.214 110.432 669.455 109.103 668.684C107.775 667.913 106.483 667.824 105.228 668.417C103.974 669.009 102.874 669.657 101.93 670.358C100.986 671.059 99.9885 671.925 98.9376 672.956C97.8866 673.987 96.7905 674.938 95.6491 675.809C94.5078 676.681 93.459 677.401 92.5027 677.971C91.5465 678.54 90.5969 679.18 89.6538 679.889C88.7108 680.598 87.4053 681.056 85.7375 681.26C84.0696 681.465 82.561 681.211 81.2118 680.498C79.8627 679.785 78.5775 678.983 77.3565 678.09C76.1354 677.198 74.8639 676.256 73.5419 675.264C72.2199 674.273 70.947 673.321 69.723 672.409C68.4991 671.496 67.3397 670.734 66.245 670.121C65.1503 669.508 64.1691 669.467 63.3016 669.997C62.4341 670.527 61.4551 671.354 60.3647 672.478C59.2743 673.603 58.3295 674.624 57.5304 675.541C56.7313 676.459 55.9069 677.314 55.0572 678.108C54.2076 678.901 53.1579 679.458 51.9082 679.779C50.6585 680.1 49.5185 680.061 48.4882 679.663C47.4579 679.265 46.3631 678.771 45.2039 678.181C44.0447 677.59 42.9698 676.971 41.9792 676.324C40.9886 675.677 39.9681 674.946 38.9177 674.131C37.8674 673.317 36.7473 672.392 35.5575 671.357C34.3676 670.322 33.2139 669.939 32.0962 670.208C30.9786 670.477 29.9579 671.015 29.0343 671.821C28.1106 672.627 27.2315 673.499 26.3969 674.438C25.5623 675.377 24.4572 676.401 23.0816 677.511C21.706 678.621 20.3306 679.672 18.9554 680.662C17.5803 681.653 16.2651 682.4 15.0098 682.902C13.7545 683.405 13.0101 683.781 12.7766 684.032C12.5431 684.283 12.2141 684.542 11.7896 684.809C11.365 685.077 10.9024 685.194 10.4017 685.161C9.90106 685.127 9.45797 684.95 9.07245 684.629C8.68692 684.308 8.4326 683.904 8.30947 683.418C8.18634 682.931 8.33466 682.33 8.75444 681.613L9.38412 680.538Z"
                fill="black" fill-opacity="0.9" />
        </g>
        <g id="req1">
            <g id="req1_2">
                <g id="Group_31">
                    <path id="Vector_34"
                        d="M1.58426 542.892C106.824 542.762 210.774 543.082 302.774 546.572M0.864258 541.572C99.2643 541.852 196.384 544.062 302.324 545.582L0.864258 541.572Z"
                        stroke="black" stroke-opacity="0.9" stroke-width="4" stroke-linecap="round" />
                </g>
            </g>
            <g id="Group_32">
                <g id="Group_33">
                    <path id="Vector_35"
                        d="M856.944 123.712C974.724 123.332 1092.9 122.252 1243.15 120.492M601.824 543.252C665.624 540.582 733.104 540.942 854.264 544.262L601.824 543.252ZM601.214 542.532C689.104 542.682 778.054 542.552 856.314 543.282L601.214 542.532ZM855.504 542.182C855.364 444.862 854.354 347.192 856.764 122.892L855.504 542.182ZM855.424 543.132C855.064 418.032 855.424 293.312 856.164 122.952L855.424 543.132ZM855.694 123.272C1010.83 121.492 1163.74 118.622 1242.81 121.452L855.694 123.272Z"
                        stroke="black" stroke-opacity="0.9" stroke-width="4" stroke-linecap="round" />
                </g>
            </g>
        </g>
        <g id="req2">
            <g id="req2_2">
                <g id="Group_34">
                    <path id="Vector_36"
                        d="M1.53427 582.922C94.1843 584.762 186.644 585.742 300.874 584.592M0.00427246 583.952C88.9843 582.982 180.344 584.792 301.944 584.222L0.00427246 583.952Z"
                        stroke="black" stroke-opacity="0.9" stroke-width="4" stroke-linecap="round" />
                </g>
            </g>
            <g id="Group_35">
                <g id="Group_36">
                    <path id="Vector_37"
                        d="M982.219 343.039C1154.64 345.169 1327.37 344.739 1581.47 342.349M601.139 585.349C696.809 580.839 789.589 580.789 980.789 582.699L601.139 585.349ZM601.319 584.489C742.029 582.619 882.179 581.899 981.379 581.909L601.319 584.489ZM981.819 580.919C980.399 511.629 978.319 443.079 982.849 342.709L981.819 580.919ZM982.189 582.359C983.129 494.659 982.369 409.769 981.299 343.049L982.189 582.359ZM981.529 342.869C1182.51 343.899 1382.26 342.809 1581.24 342.889L981.529 342.869Z"
                        stroke="black" stroke-opacity="0.9" stroke-width="4" stroke-linecap="round" />
                </g>
            </g>
        </g>
        <g id="req3">
            <g id="req3_2">
                <g id="Group_37">
                    <path id="Vector_38"
                        d="M0.784316 622.212C82.5043 623.392 163.984 623.162 302.174 621.852M0.674316 622.752C78.0443 622.812 158.434 621.212 300.994 622.472L0.674316 622.752Z"
                        stroke="black" stroke-opacity="0.9" stroke-width="4" stroke-linecap="round" />
                </g>
            </g>
            <g id="Group_38">
                <g id="Group_39">
                    <path id="Vector_39"
                        d="M601.374 622.332C731.064 623.972 861.564 623.542 1183.41 623.802M601.384 622.002C751.274 622.912 901.004 623.452 1183.94 624.242L601.384 622.002Z"
                        stroke="black" stroke-opacity="0.9" stroke-width="4" stroke-linecap="round" />
                </g>
            </g>
        </g>
    </g>
</svg>