<svg width="1057" viewBox="0 0 1057 640" fill="none" xmlns="http://www.w3.org/2000/svg">
  <g clip-path="url(#clip0)">
    <path d="M386 375l6-7M34 183l5-5-5 5zm0 1l4-7-4 7zm1 4l9-12-9 12zm-1 1l10-12-10 12zm1 6c0-2 7-6 16-17l-16 17zm-2 1c5-4 7-9 15-19l-15 19zm2 5c4-4 9-8 21-23l-21 23zm-1 0l21-24-21 24zm-2 8c7-10 16-14 26-32l-26 32zm2-2c6-5 11-13 26-29l-26 29zm0 8c7-12 17-21 30-39l-30 39zm-1-1c14-15 25-29 32-38l-32 38zm0 8l36-46-36 46zm0-3l37-42-37 42zm-1 8c16-18 34-39 42-51l-42 51zm1-2c10-9 17-18 43-49l-43 49zm-1 8c17-16 29-32 51-57l-51 57zm2 0l46-55-46 55zm1 4l50-59-50 59zm-1 2c17-21 35-43 53-62l-53 62zm1 7c17-25 36-45 58-70l-58 70zm-2-2c16-16 31-33 59-67l-59 67zm1 4c22-25 43-50 63-70l-63 70zm0 1c13-13 27-30 63-71l-63 71zm-1 6c24-24 46-52 70-78l-70 78zm1 1l69-80-69 80zm1 4c22-24 45-48 71-82l-71 82zm-2 2c27-28 50-55 75-84l-75 84zm1 7c26-30 52-65 81-91l-81 91zm0 0c15-21 33-38 78-92l-78 92zm-1 5c17-22 38-44 87-99l-87 99zm0 1l85-99-85 99zm0 5c37-38 73-81 92-101L33 280zm1 0c34-39 70-78 90-103L34 280zm0 8c22-24 42-47 95-110L34 288zm0-1l95-111-95 111zm1 4c32-35 64-74 101-114L35 291zm-1 2l101-116L34 293zm-1 8c36-46 74-87 109-124L33 301zm1-2c35-42 71-83 106-122L34 299zm0 7c38-47 78-93 110-129L34 306zm-1-1c43-46 83-92 111-128L33 305zm3 6c27-35 56-65 114-133L36 311zm-1 0l115-134L35 311zm-1 7c29-37 61-73 121-140L34 318zm-1 0c30-37 61-71 123-140L33 318zm0 4c51-53 95-109 126-146L33 322zm0 0c39-44 78-90 128-145L33 322zm1 9l130-155L34 331zm0-2c34-40 67-80 132-152L34 329zm-2 6c45-50 90-105 138-156L32 335zm1 1l139-158L33 336zm-1 6c53-57 104-116 145-165L32 342zm2-1l142-163L34 341zm-1 8c48-53 90-106 147-172L33 349zm0 0l148-171L33 349zm1 4c35-44 73-85 154-175L34 353zm-1 1l155-178L33 354zm-1 7l159-184L32 361zm2-1l157-183L34 360zm1 6c59-71 123-143 164-189L35 366zm-2 0l166-190L33 366zm1 7l167-195L34 373zm0-1c42-51 86-102 169-195L34 372zm1 4c48-53 91-102 173-200L35 376zm1 0l172-199L36 376zm6 0c35-40 69-82 171-198L42 376zm-1 0c49-57 98-115 172-198L41 376zm7 0l170-200L48 376zm-1-1l171-198L47 375zm4 0c40-42 75-83 173-196L51 375zm1 0l172-198L52 375zm4-1c64-67 123-138 175-196L56 374zm1 1l173-199L57 375zm7 1c59-66 114-133 172-197L64 376zm-1-1l172-197L63 375zm5-1l171-197L68 374zm0 1l173-198L68 375zm7-1l169-196L75 374zm-2 1c60-68 120-136 172-198L73 375zm5 0c59-63 114-128 173-199L78 375zm1 0l171-198L79 375zm5 0c65-76 131-154 171-198L84 375zm0 0c40-46 79-92 173-198L84 375zm5 0c55-61 109-125 173-197L89 375zm0 0l172-199L89 375zm5 1c38-46 77-92 171-198L94 376zm1 0l172-198L95 376zm6-1c42-49 85-100 172-196L101 375zm-1 0l172-198-172 198zm4 0c69-78 134-152 173-199L104 375zm2-1c40-44 80-89 172-197L106 374zm5 2c46-54 92-110 170-197L111 376zm-1 0c65-76 131-151 173-198L110 376zm7 0c43-50 86-104 172-199L117 376zm-2-1l173-198-173 198zm6 0c57-69 114-136 171-197L121 375zm0 0l171-198-171 198zm6-1l172-196-172 196zm0 1l172-198-172 198zm3 0c66-74 128-148 173-197L130 375zm2 0c55-61 109-123 172-198L132 375zm4 0l173-197-173 197zm1 0l172-197-172 197zm5 0c50-57 99-114 173-196L142 375zm1 0l171-197-171 197zm3 1c65-74 131-148 173-198L146 376zm1 0c66-75 130-148 173-199L147 376zm7-2l171-196-171 196zm-2 1c51-61 104-119 172-197L152 375zm6 0c37-40 74-85 173-197L158 375zm-1 0c48-53 94-105 174-199L157 375zm7-1l171-197-171 197zm-1 0c69-76 136-153 173-197L163 374zm5 2l172-200-172 200zm0 0c44-48 85-96 174-199L168 376zm8 0c46-56 94-112 170-199L176 376zm-2-2l171-197-171 197zm5 0l172-196-172 196zm0 1l173-198-173 198zm7 1c33-45 69-86 171-198L186 376zm-2-1l172-197-172 197zm5 1c45-54 94-110 173-199L189 376zm1-1c65-76 131-151 173-198L190 375zm4 1c51-57 98-113 175-198L194 376zm2-2c50-59 101-118 171-197L196 374zm4 0c44-48 90-101 173-198L200 374zm0 2l173-199-173 199zm5 0c52-58 99-114 172-199L205 376zm2 0c33-41 66-80 171-199L207 376zm3 0c65-73 130-147 171-198L210 376zm1-1l173-198-173 198zm4 0c37-42 70-83 173-198L215 375zm1 1c71-80 139-157 172-198L216 376zm5 1l170-198-170 198zm1-2l171-196-171 196zm5-1c66-74 130-149 165-190L227 374zm1 1c33-40 70-83 164-190L228 375zm5 1c37-40 70-81 158-186L233 376zm-1-1c33-40 67-77 160-184L232 375zm6-2c62-68 122-136 153-174L238 373zm1 2l154-178-154 178zm6 0l147-172-147 172zm-2 1l150-173-150 173zm6 0c46-56 94-111 145-167L249 376zm0-1c38-45 76-89 144-165L249 375zm6 1c48-60 99-117 137-161L255 376zm-1-1c31-38 64-76 138-160L254 375zm3 1c42-45 82-90 134-156L257 376zm2-1l134-154-134 154zm4-1l131-145-131 145zm0 2c36-39 69-76 130-147L263 376zm8-1c42-54 91-107 122-140L271 375zm-2 1c50-56 98-112 124-143L269 376zm5-2c46-52 90-105 119-133L274 374zm1 2c24-27 48-54 117-137L275 376zm5-1c26-32 56-66 113-128L280 375zm0 0l113-129-113 129zm5 1l106-123-106 123zm0-2c33-35 65-72 108-122L285 374zm5 1c35-40 71-80 100-115L290 375zm0 0l103-117-103 117zm5-2c21-26 46-53 97-111l-97 111zm2 2l95-112-95 112zm5 0c28-33 56-64 92-103l-92 103zm-1 0l92-104-92 104zm4-1c25-25 46-48 87-97l-87 97zm1 1l85-98-85 98zm6-1c25-31 54-60 80-91l-80 91zm0 1l81-92-81 92zm3-1c26-27 51-54 77-84l-77 84zm3 1c22-24 42-50 74-86l-74 86zm3 0l73-79-73 79zm1 1c14-18 29-33 70-82l-70 82zm4 1c23-25 41-45 65-76l-65 76zm3-2l64-75-64 75zm4 0c20-19 38-41 58-70l-58 70zm-1 1c22-24 42-49 60-70l-60 70zm9-3c17-23 37-45 52-60l-52 60zm-2 2c18-23 38-44 53-63l-53 63zm5-1c8-11 17-22 47-55l-47 55zm0 2c10-15 23-27 49-56l-49 56zm6-1c15-19 28-33 42-52l-42 52zm-1 0l44-51-44 51zm5 0c17-18 29-36 39-45l-39 45zm1 1l38-46-38 46zm4-1l32-36-32 36zm1 0l32-38-32 38zm6-1l27-30-27 30zm0 1c9-12 19-21 26-31l-26 31zm6 2c5-7 10-17 21-29l-21 29zm-2-1l21-26-21 26zm4-3c8-4 13-11 18-18l-18 18zm1 2c5-4 8-10 18-19l-18 19zm6 2c2-4 8-12 12-13l-12 13zm-1-2l12-12-12 12zm6 0c2-1 3-5 6-6l-6 6z" stroke="#000" stroke-width=".5" stroke-linecap="round"/>
    <path d="M33 373c-1-50-1-101 1-196m0 0c120 2 238 1 356-1l-356 1zm0 0c108-2 218-1 356 0H34zm355 0c2 54 5 111 2 196l-2-196zm2 1c-2 66-3 132-2 195l2-195zm-2 196c-73-4-145-3-356-2l356 2zm1-2H34h356zm-358 0c1-61 3-120 0-197v197zM102 327c11-10 44-58 64-57 19 0 47 57 53 59s-25-30-19-47 33-63 54-55 59 86 71 103m-222-2c11-10 44-60 64-60 19 0 47 57 53 60 6 2-26-30-20-47 6-16 34-62 56-54 21 8 59 86 71 103l-224-2z" stroke="#000" stroke-linecap="round"/>
    <path d="M228 423l8-8M36 399l5-5-5 5zm0 1l4-6-4 6zm1 5c1-3 4-7 11-12l-11 12zm-1 1c2-4 5-7 10-12l-10 12zm-2 7c7-4 10-8 16-19l-16 19zm2-1c3-5 6-9 15-17l-15 17zm2 6c5-5 10-13 18-26l-18 26zm-2 0l20-25-20 25zm0 4c11-7 16-19 24-30l-24 30zm1 2c5-8 11-14 25-30l-25 30zm4-2c7-6 10-13 29-29l-29 29zm2 0l24-28-24 28zm5 1c7-11 13-20 25-30l-25 30zm-1 0l26-30-26 30zm4 1c9-11 14-19 25-31l-25 31zm2-1c6-7 12-16 25-30l-25 30zm6 0l24-31-24 31zm-1 1l25-30-25 30zm6 0c5-9 11-15 26-29l-26 29zm-1-1c8-11 19-21 26-29l-26 29zm5 0c8-8 18-21 25-31l-25 31zm1 0l26-29-26 29zm5-1c7-9 17-19 24-31l-24 31zm-1 2l27-30-27 30zm7-1c4-7 10-11 26-28l-26 28zm-1 1l26-31-26 31zm7-2l25-31-25 31zm-1 1l26-29-26 29zm4 2c9-15 22-23 24-30l-24 30zm0-3c10-9 18-20 25-28l-25 28zm5-1l28-28-28 28zm2 2c6-10 15-19 26-30l-26 30zm5 1c6-8 12-12 27-31l-27 31zm-1-1c8-7 15-17 25-30l-25 30zm8-1c6-8 12-15 25-27l-25 27zm-3 1l27-30-27 30zm5 1c7-9 17-18 26-30l-26 30zm0 0l27-31-27 31zm6-3l27-27-27 27zm1 2c5-8 13-15 26-30l-26 30zm3-1l28-30-28 30zm2 1c8-7 13-16 25-30l-25 30zm5-1c8-7 16-18 23-28l-23 28zm0 1c6-7 14-18 25-29l-25 29zm3 0l27-28-27 28zm2-1c8-7 16-16 26-29l-26 29zm7 2c6-11 15-23 24-30l-24 30zm-1-1l24-29-24 29zm6 1c7-11 17-26 24-29l-24 29zm-1-1c8-11 18-22 26-29l-26 29zm4 1c7-11 15-16 25-32l-25 32zm1-1c9-10 20-21 26-30l-26 30zm5 1l25-29-25 29zm1-1l25-30-25 30zm6 2c6-14 16-24 26-32l-26 32zm-2-2l25-29-25 29zm5-2c11-9 22-19 27-26l-27 26zm0 2l26-29-26 29zm6 1c11-12 18-23 28-29l-28 29zm-1 0c8-11 16-20 27-30l-27 30zm6-2c8-8 14-13 28-29l-28 29zm0 2l27-31-27 31zm6-2l24-26-24 26zm-1 2l26-31-26 31zm8-3c3-4 10-14 23-27l-23 27zm-1 1l24-29-24 29zm4 2c6-10 12-14 26-30l-26 30zm-1 0l28-31-28 31zm8-2c7-9 16-23 24-29l-24 29zm-2 1c11-10 18-21 26-30l-26 30zm7 0c5-6 11-12 24-31l-24 31zm0-1c8-10 17-22 25-29l-25 29zm6 1c3-7 11-12 26-29l-26 29zm-1 0l25-30-25 30zm6 2c5-11 16-19 21-29l-21 29zm-2-2l24-28-24 28zm4 0c7-7 14-15 22-21l-22 21zm3-1l16-19-16 19zm5 1c2-4 4-7 13-17l-13 17zm-1 0l13-16-13 16zm7 0c2-4 3-6 7-9l-7 9z" stroke="#000" stroke-width=".5" stroke-linecap="round"/>
    <path d="M37 422l-1-29m0 1h196H36zm-1-1c72 0 143-1 197 1l-197-1zm197-1c2 12 1 22 1 29l-1-29zm1 2l-2 28 2-28zm-2 27c-40 4-83 2-196 2l196-2zm1 2c-59-2-118-3-196-1l196 1zm-198-1c2-4 0-13 1-27l-1 27z" stroke="#000" stroke-linecap="round"/>
    <path d="M384 455l5-7m-354-1l6-6-6 6zm1 0l4-6-4 6zm-1 5c5-5 9-8 10-12l-10 12zm1 1l10-13-10 13zm4 4l11-17-11 17zm-1-1c2-5 5-9 13-15l-13 15zm5 1c6-6 10-13 12-17l-12 17zm0-1l12-15-12 15zm4 1l12-17-12 17zm2-2l12-15-12 15zm3 1l14-15-14 15zm1-1l14-14-14 14zm5 1c2-6 6-8 13-15l-13 15zm0-1c4-2 5-5 13-14l-13 14zm7 1c1-5 4-9 12-16l-12 16zm-1-1c5-4 7-9 12-14l-12 14zm5 2c2-2 4-7 12-15l-12 15zm0 0l14-16-14 16zm7-2c4-7 10-10 13-13l-13 13zm-1 0l13-14-13 14zm4 0c7-3 9-11 12-16l-12 16zm1 2l13-16-13 16zm4-3c6-3 10-9 13-15l-13 15zm2 1l13-15-13 15zm5 1c1-3 7-7 14-13l-14 13zm0 0l12-16-12 16zm4 1c6-8 11-12 12-17l-12 17zm1-2c3-3 7-6 13-14l-13 14zm6 0c1-2 8-11 13-13l-13 13zm-2 2l14-16-14 16zm5-1l14-15-14 15zm2-1l12-15-12 15zm6 2c2-4 7-7 11-17l-11 17zm-1-1l12-15-12 15zm5 0c4-6 10-10 15-15l-15 15zm1-1l12-15-12 15zm5 0c4-3 8-10 13-15l-13 15zm0 1l11-14-11 14zm3 0c4-3 10-8 16-16l-16 16zm2-1c4-4 9-9 12-15l-12 15zm4 1c4-5 9-9 12-16l-12 16zm1 1l13-16-13 16zm4-1c8-6 11-14 14-15l-14 15zm1-1c6-5 9-11 13-13l-13 13zm6 0c3-5 8-9 14-14l-14 14zm-1 1c5-4 8-8 13-15l-13 15zm7-1c2-5 4-7 12-13l-12 13zm-1 1c3-4 6-9 13-14l-13 14zm6-2c4-5 5-8 13-12l-13 12zm-1 1l13-14-13 14zm7-1c0-2 6-6 10-12l-10 12zm-2 1c4-2 7-5 13-14l-13 14zm7 1c2-3 5-8 13-16l-13 16zm-1 0l12-15-12 15zm6-1c1-5 6-6 10-15l-10 15zm-1 2c3-6 7-10 13-15l-13 15zm4-2c6-3 12-9 16-16l-16 16zm1 1c3-3 5-7 14-15l-14 15zm6 1c2-5 4-6 14-16l-14 16zm0-2c3-5 7-8 13-15l-13 15zm4 2c4-6 11-11 14-17l-14 17zm2-1l12-16-12 16zm3-1c5-6 10-9 16-12l-16 12zm2 1l11-16-11 16zm3-2c6-3 7-7 15-12l-15 12zm1 2l13-16-13 16zm6 0c2-6 10-11 12-13l-12 13zm0 1c1-5 5-7 12-15l-12 15zm4-3c7-6 9-10 14-12l-14 12zm2 2l12-16-12 16zm4 0c4-3 8-7 12-14l-12 14zm0 0l13-16-13 16zm6-2c3-1 7-4 14-12l-14 12zm0 2l12-15-12 15zm6-1c4-3 10-12 12-14l-12 14zm-2 0l13-14-13 14zm7-1c4-4 7-5 13-14l-13 14zm-1 2l14-16-14 16zm5 0c6-8 12-10 12-15l-12 15zm0 1c3-6 8-10 13-16l-13 16zm6 0c2-6 6-9 13-17l-13 17zm0-2l14-14-14 14zm7 0c1-4 5-8 12-13l-12 13zm-2 1l14-16-14 16zm7-1c4-4 9-9 11-14l-11 14zm-1-1l13-13-13 13zm5 0c3-3 7-3 12-12l-12 12zm0 2l12-15-12 15zm7-1c3-4 9-10 10-15l-10 15zm-2 0c4-3 8-7 12-13l-12 13zm5 1c3-4 4-8 13-17l-13 17zm0 0l14-16-14 16zm6-1c3-6 10-9 13-12l-13 12zm0 1c4-3 6-8 13-15l-13 15zm7-1c2-3 7-11 13-15l-13 15zm-3 1l15-15-15 15zm5-2c4-4 10-8 16-15l-16 15zm2 1c3-5 7-10 12-14l-12 14zm4 0l13-13-13 13zm1 1l13-15-13 15zm4-1c3-3 7-5 12-14l-12 14zm1 2l13-16-13 16zm3 1c4-7 11-12 15-16l-15 16zm2-3l13-14-13 14zm5 2l15-18-15 18zm1 0c3-6 9-11 12-16l-12 16zm6-1c4-5 6-6 10-15l-10 15zm-2 1l14-16-14 16zm7 0c2-6 9-12 13-15l-13 15zm-2 0l14-16-14 16zm8 0c1-6 8-11 10-15l-10 15zm-2-1c4-3 5-7 13-15l-13 15zm5-1c7-5 9-7 12-14l-12 14zm1 0l13-15-13 15zm6-1c3-3 5-8 12-15l-12 15zm-1 1l14-15-14 15zm6 0c5-5 9-12 13-15l-13 15zm-1 0l14-14-14 14zm6 2c4-7 9-9 13-16l-13 16zm0-1c3-5 7-9 14-15l-14 15zm3-1c6-4 12-10 16-15l-16 15zm1 1l15-14-15 14zm8 0c1-5 5-6 12-16l-12 16zm-2 0l13-16-13 16zm4-1c4-1 8-6 14-13l-14 13zm1 0l13-15-13 15zm7 1c1-5 5-6 13-17l-13 17zm-2 0l14-16-14 16zm5-2c3-2 6-7 15-14l-15 14zm1 1c5-5 10-10 12-14l-12 14zm7 2c1-7 6-7 12-18l-12 18zm-2-2l13-13-13 13zm5 0c1-3 6-4 11-14l-11 14zm0 1l13-14-13 14zm6-1l6-7-6 7z" stroke="#000" stroke-width=".5" stroke-linecap="round"/>
    <path d="M36 454l-1-14m1 0c110-1 221 0 353 2l-353-2zm-1 1c139 2 277 1 355 0H35zm353 1v10-10zm1-2v13-13zm0 13c-82-2-166-2-353 0h353zm0 0H35h354zm-354 0c1-4-1-6 2-13l-2 13z" stroke="#495057" stroke-linecap="round"/>
    <path d="M293 505l3-4m-260-7c2 0 2-1 6-5l-6 5zm0 0c2-2 4-5 6-5l-6 5zm0 6l11-11-11 11zm1 0l10-11-10 11zm3 6c4-5 5-11 11-19l-11 19zm-2-2l14-15-14 15zm7 3c3-6 5-13 12-18l-12 18zm-1-3c3-3 6-9 14-17l-14 17zm6 3c2-8 8-17 12-18l-12 18zm-2-2l14-16-14 16zm6 0c4-7 12-13 15-17l-15 17zm-1 1l16-18-16 18zm6-2l15-17-15 17zm0 2l14-18-14 18zm6-2c3-7 8-11 13-16l-13 16zm-1 2c3-6 7-10 16-19l-16 19zm7-1c6-8 10-14 15-17l-15 17zm0 0c3-6 10-12 13-16l-13 16zm3 1l17-17-17 17zm0-1l16-16-16 16zm6 1l13-19-13 19zm1-1l14-17-14 17zm3 1c4-4 6-10 15-16l-15 16zm1-2c3-2 7-5 15-16l-15 16zm6-1c4-2 8-4 17-14l-17 14zm0 2l14-16-14 16zm6 0l14-18-14 18zm-1 1l16-18-16 18zm4-3c8-3 9-8 17-14l-17 14zm2 3c4-7 9-13 15-18l-15 18zm5-2c5-4 8-7 15-17l-15 17zm-1 0c5-5 11-10 15-17l-15 17zm7 0c4-2 8-9 13-16l-13 16zm0 1c4-5 7-10 14-16l-14 16zm5 0c5-5 12-11 15-16l-15 16zm-1 1l15-18-15 18zm5 0c5-4 6-7 14-17l-14 17zm0 0l16-18-16 18zm6-2c8-5 13-11 14-16l-14 16zm-1 1l16-17-16 17zm6-1l15-16-15 16zm1 2c2-5 7-11 14-17l-14 17zm5 1c4-6 6-11 14-17l-14 17zm-1-1c5-7 9-11 16-17l-16 17zm5-1l16-18-16 18zm0 1l16-18-16 18zm5-1c3-6 8-8 17-17l-17 17zm2-1l15-16-15 16zm2 3c6-10 13-14 19-17l-19 17zm2-2l15-18-15 18zm4-2c4 0 7-7 18-16l-18 16zm1 2c6-4 9-10 15-17l-15 17zm7 1l13-17-13 17zm-1 0l16-18-16 18zm4-2c5-5 14-12 15-16l-15 16zm2 0l15-15-15 15zm4 2c6-4 9-9 14-20l-14 20zm1-1l15-18-15 18zm6 0c3-7 12-11 14-16l-14 16zm-2-1c5-5 12-10 15-15l-15 15zm7 0c4-3 9-7 14-16l-14 16zm0 1l14-17-14 17zm4 0l17-17-17 17zm1 0l14-17-14 17zm3 2c6-9 11-13 19-20l-19 20zm2-2l14-17-14 17zm5-2c5-3 10-10 17-16l-17 16zm1 1l15-15-15 15zm3 2c4-8 10-12 18-18l-18 18zm2 0c2-5 6-9 14-19l-14 19zm5 0c5-4 8-13 16-19l-16 19zm0-1c3-6 9-10 14-17l-14 17zm4 0c5-2 9-6 17-18l-17 18zm1 0l16-16-16 16zm5 1c8-6 10-14 15-16l-15 16zm0-2l16-16-16 16zm5 2c3-5 9-8 15-19l-15 19zm1-2l14-15-14 15zm5 1l15-17-15 17zm1-1l14-16-14 16zm6-1c2-4 7-7 13-14l-13 14zm-2 2c3-4 9-8 16-18l-16 18zm4 0l17-16-17 16zm1 1c6-6 10-11 14-18l-14 18zm5 0c6-5 10-12 17-19l-17 19zm0 0l16-19-16 19zm4-1c6-4 14-13 18-15l-18 15zm2 1c7-7 11-15 16-17l-16 17zm5-1c6-3 9-10 14-17l-14 17zm0 0l16-17-16 17zm6 1c4-7 8-13 13-18l-13 18zm0 0l14-17-14 17zm4-2c5-3 12-9 17-17l-17 17zm2 2l14-17-14 17zm4-2c8-6 12-10 14-18l-14 18zm1 2l15-18-15 18zm3-2c5-3 10-6 14-14l-14 14zm1 0l14-15-14 15zm5 2c3-3 5-7 11-11l-11 11zm1 0l9-12-9 12zm5-1l4-4-4 4z" stroke="#000" stroke-width=".5" stroke-linecap="round"/>
    <path d="M37 504l-1-15m0-1c66-1 134 0 260 2l-260-2zm1 0c92 1 183 2 258 0H37zm259 0l-2 18 2-18zm-2 0v16-16zm1 17c-102-3-203-1-258-2l258 2zm0-1H36h259zm-258 1c-2-6-1-7-1-17l1 17z" stroke="#495057" stroke-linecap="round"/>
    <path d="M410 632l6-7M10 148l6-6-6 6zm0-1l5-6-5 6zm0 6l11-12-11 12zm0 0l11-12-11 12zm1 9c3-8 6-12 13-20l-13 20zm-2-3l17-17-17 17zm3 7c7-11 13-20 20-25l-20 25zm-3-1l22-23-22 23zm3 5c5-8 11-17 25-30l-25 30zm-2 2c10-12 20-25 27-30l-27 30zm-1 5c7-6 15-16 33-36L9 177zm1 1l32-36-32 36zm-1 4c12-11 24-25 36-41L9 182zm2 2l35-42-35 42zm-2 5c9-12 20-22 44-49L9 189zm2 1c13-17 28-33 41-48l-41 48zm-1 8c16-22 33-40 47-55l-47 55zm0-3l48-54-48 54zm0 5c19-18 37-38 54-58l-54 58zm0 3l54-61-54 61zm1 7c15-22 32-43 56-70l-56 70zm-1-1l58-68-58 68zm1 5c20-23 36-45 64-75l-64 75zm-2 0c16-16 30-34 65-74L9 214zm-1 8c26-28 52-55 71-82L8 222zm2 0c18-25 39-48 69-82l-69 82zm0 3c27-28 50-58 73-85l-73 85zm1 2l74-86-74 86zm-3 8l82-93-82 93zm3-3l78-91-78 91zm-2 8l85-99-85 99zm0-1l86-98-86 98zm1 7c30-33 56-68 90-105L10 246zm1-1c19-25 39-48 90-103L11 245zm-1 6c38-41 76-85 97-111L10 251zm0 0c22-27 47-55 96-111L10 251zm1 7c26-32 53-64 101-116L11 258zm-1 0c20-25 40-48 101-116L10 258zm-1 7l108-123L9 265zm1-2c33-35 64-73 107-122L10 263zm-2 6c27-27 51-58 113-128L8 269zm3 0c41-49 83-97 111-128L11 269zm1 6c35-43 72-83 116-133L12 275zm-1 1c36-44 75-87 115-134L11 276zm-1 5c25-29 52-57 121-138L10 281zm1 1c38-42 74-85 121-141L11 282zm-1 4c48-56 101-113 126-146L10 286zm-1 2c44-52 87-99 128-145L9 288zm3 4c42-51 90-101 132-152L12 292zm-2 1l132-152L10 293zm-2 6c38-40 72-79 138-158L8 299zm2 2c45-49 87-101 137-159L10 301zm1 5c41-51 85-101 143-165L11 306zm0-1l142-163L11 305zm-2 6c53-58 105-121 149-168L9 311zm0 1l149-171L9 312zm2 7l151-176L11 319zm-1-1c30-37 62-71 153-176L10 318zm0 5l159-181L10 323zm0 0l159-182L10 323zm-1 9c47-52 91-105 166-192L9 332zm1-1c36-44 74-89 165-190L10 331zm1 4c55-61 109-121 168-193L11 335zm-1 1c42-50 85-100 169-194L10 336zm1 6c68-77 137-154 174-200L11 342zm-1 0l175-200L10 342zm-1 6c57-63 110-124 180-205L9 348zm1 0c36-42 72-85 181-206L10 348zm1 5c60-69 123-138 185-213L11 353zm0 1c44-54 90-106 184-213L11 354zm0 7c72-82 141-163 189-220L11 361zm-1 0l190-220L10 361zm0 6c69-77 137-156 195-227L10 367zm0 0c61-72 124-144 197-225L10 367zm0 7c77-91 154-179 202-232L10 374zm0-1c50-55 99-111 201-232L10 373zm1 5l205-237L11 378zm-1 1l207-238L10 379zm0 5c69-75 134-153 212-242L10 384zm0 1c56-65 111-130 212-244L10 385zm-2 7l220-252L8 392zm1-1c58-63 115-129 218-250L9 391zm1 5l223-255L10 396zm0 2l223-257L10 398zm1 6l226-264L11 404zm0-1c68-79 139-158 227-262L11 403zm-1 5c57-61 111-125 234-265L10 408zm0 2c67-79 133-155 234-269L10 410zm0 7c68-79 134-157 238-276L10 417zm0-1l238-274L10 416zm0 6c92-108 185-215 244-282L10 422zm0 0l244-281L10 422zm-1 5c91-100 180-203 249-285L9 427zm2 1c83-98 167-195 248-286L11 428zm-2 7l254-294L9 435zm1-1l255-293L10 434zm-1 5c80-86 157-175 261-298L9 439zm1 0l260-298L10 439zm0 7l265-304L10 446zm1 1c71-85 145-170 264-306L11 447zm-1 5c102-115 202-231 270-311L10 452zm0 1c88-105 179-209 270-312L10 453zm-1 5l278-317L9 458zm2 0c90-102 179-205 275-317L11 458zm-2 7c113-130 223-257 283-324L9 465zm1 0c73-85 146-170 280-323L10 465zm1 5c58-66 115-134 285-328L11 470zm0 0l286-329L11 470zm-2 7l291-336L9 477zm1-1l291-335L10 476zm-1 7l297-343L9 483zm1 0l297-342L10 483zm1 5c74-83 148-170 300-347L11 488zm0 1l301-347L11 489zm-1 6l307-353L10 495zm0 0l308-354L10 495zm1 6l311-360L11 501zm-1-1c89-101 179-203 313-359L10 500zm0 6l318-366L10 506zm0 1l318-366L10 507zm0 6c73-81 145-164 323-371L10 513zm0 0l323-371L10 513zm0 6c66-77 132-154 329-378L10 519zm0 0l329-378L10 519zm0 7c98-111 194-222 334-385L10 526zm0-1c78-87 155-177 334-384L10 525zm0 6l339-390L10 531zm0 0l339-390L10 531zm0 6c134-153 269-306 345-395L10 537zm0 0c122-138 244-278 344-396L10 537zm-1 6c92-105 183-212 350-402L9 543zm1 1c112-128 224-255 349-402L10 544zm-1 5c124-139 246-281 355-407L9 549zm1 0l355-407L10 549zm0 6c136-154 271-309 361-414L10 555zm0 1l360-415L10 556zm0 6c112-131 228-262 366-421L10 562zm-1 0l367-421L9 562zm2 5c116-134 235-269 369-425L11 567zm-1 1c83-93 165-187 371-427L10 568zm0 6l377-432L10 574zm0 1c108-126 216-251 377-434L10 575zm-1 5l382-438L9 580zm1 0l382-438L10 580zm-1 7l388-446L9 587zm1 0l387-446L10 587zm-1 6l393-452L9 593zm1 0l392-451L10 593zm0 5l398-457L10 598zm0 1l397-458L10 599zm0 7c114-133 225-263 402-464L10 606zm0-1c143-163 285-327 403-464L10 605zm0 6c86-97 170-194 406-467L10 611zm1 0c157-183 317-367 405-468L11 611zm-2 6c123-137 242-275 407-467L9 617zm1 0c113-133 227-264 406-467L10 617zm-1 7l408-469L9 624zm1 0c147-167 294-335 406-468L10 624zm0 4l406-467L10 628zm0 1c135-157 272-314 406-467L10 629zm3 3l403-465L13 632zm-1 1c127-144 253-288 404-466L12 633zm6-1c81-91 162-184 399-458L18 632zm0 0c150-175 301-348 398-458L18 632zm5 1l393-453L23 633zm0 0l393-453L23 633zm6-1l387-446L29 632zm0 0c99-112 197-225 387-446L29 632zm5 0l382-440L34 632zm0 0c138-157 275-315 382-440L34 632zm6 0l377-434L40 632zm-1 0l377-434L39 632zm5 1c76-90 152-177 372-428L44 633zm1-1l371-427L45 632zm5 0l367-421L50 632zm0 0c137-156 273-312 366-421L50 632zm5 0c138-162 280-325 361-415L55 632zm0 0l362-416L55 632zm5 1l357-410L60 633zm0-1c75-84 149-168 356-410L60 632zm5 0c92-104 184-208 352-403L65 632zm1 0l351-404L66 632zm5 0c118-135 236-269 345-397L71 632zm-1 1l346-398L70 633zm6 0l341-391L76 633zm0-1l340-391L76 632zm6 0c68-80 137-159 335-385L82 632zm-1 0c91-107 184-214 336-385L81 632zm6 0c91-105 182-211 330-379L87 632zm0 0l330-378L87 632zm4 1c119-138 239-276 325-373L91 633zm1-1l324-373L92 632zm6 0l318-367L98 632zm-1 0l319-366L97 632zm5 1l313-362-313 362zm1-1l313-360-313 360zm5 0c84-97 168-194 309-354L108 632zm0 0c115-134 232-267 309-354L108 632zm5 0c118-132 233-265 302-349L113 632zm0 0c101-114 201-228 303-349L113 632zm6 0c109-126 218-253 296-341L119 632zm0 0c64-72 127-144 297-342L119 632zm5 1l292-337-292 337zm0 0c93-110 188-219 292-337L124 633zm5-2c108-122 214-244 286-328L129 631zm0 1l287-330-287 330zm5-1l282-324-282 324zm0 1c99-112 198-225 283-324L134 632zm7-1c105-118 208-238 274-317L141 631zm-1 1l276-317-276 317zm4 0c82-92 163-186 271-311L144 632zm1 0l271-311-271 311zm6-1c101-118 204-234 265-305L151 631zm-1 1l266-305-266 305zm6 1c58-69 116-137 260-301L156 633zm0-1l260-299-260 299zm5 1c81-98 164-192 256-296L161 633zm0-1c53-61 107-124 256-293L161 632zm6 1c71-84 143-167 250-288L167 633zm-1-1l250-287-250 287zm4 2c57-67 115-134 247-282L170 634zm1-1c79-90 158-180 245-282L171 633zm6-2c83-93 166-189 239-274L177 631zm0 1l239-276-239 276zm6 0c62-74 128-149 233-269L183 632zm-1 0l235-269-235 269zm6-1c83-93 162-186 229-262L188 631zm-1 1l230-263-230 263zm7 1c76-86 150-172 223-257L194 633zm-2-1c81-91 161-182 224-257L192 632zm5-1c48-52 93-106 218-250L197 631zm1 2c61-72 122-142 218-251L198 633zm4-2l215-244-215 244zm1 1c56-66 113-132 213-245L203 632zm6-1l207-237-207 237zm0 1c64-70 125-143 207-238L209 632zm5 2l201-236-201 236zm0-1c41-50 83-98 202-234L214 633zm5-1l198-227-198 227zm1 0c62-70 125-141 196-227L220 632zm5 0c72-80 144-162 191-220L225 632zm-1 0c41-47 82-95 193-220L224 632zm5-1c70-74 137-154 188-213L229 631zm1 1l186-214-186 214zm6 0c47-55 97-110 180-207L236 632zm-1 0c58-69 118-137 181-208L235 632zm6 0l177-201-177 201zm0 1l176-203-176 203zm6 0c57-69 118-140 170-197L247 633zm-1-1c56-66 114-133 170-196L246 632zm5-1c48-54 97-109 165-189L251 631zm1 1c54-66 109-129 163-189L252 632zm5 1c36-42 73-84 158-186L257 633zm-1 0c40-49 79-95 160-185L256 633zm6 0c58-66 119-135 154-179L262 633zm-1-1l156-177-156 177zm7 2c28-38 61-72 148-175L268 634zm-2-2c37-40 72-79 151-172L266 632zm7 1c36-45 73-89 144-165L273 633zm-1-1l144-165-144 165zm4 0c46-50 93-102 141-158L276 632zm1 0l139-158-139 158zm7-2c52-58 105-120 131-153L284 630zm-1 2c47-56 95-111 133-154L283 632zm4-1c41-44 81-89 130-147L287 631zm1 2c49-58 98-113 129-148L288 633zm6-2c40-44 79-90 122-141L294 631zm-1 2c45-51 89-100 124-142L293 633zm5-3c29-31 59-68 120-131L298 630zm1 2l117-135-117 135zm7-1c35-43 71-84 110-127L306 631zm-2 1c37-41 72-80 113-128L304 632zm4-1c36-39 72-79 107-120L308 631zm2 1c41-48 84-95 106-123L310 632zm4-1l103-114-103 114zm1 2c38-47 78-92 101-118L315 633zm6-2l95-111-95 111zm-1 1l97-111-97 111zm5-1c26-27 50-56 92-105l-92 105zm0 1c24-30 51-59 91-105l-91 105zm4 1l86-97-86 97zm1 0c29-35 60-71 86-99l-86 99zm4-2c29-31 60-64 82-92l-82 92zm1 2c27-28 49-56 81-94l-81 94zm8-1c14-20 32-37 73-88l-73 88zm-3 1l75-86-75 86zm5 1c17-21 35-38 72-84l-72 84zm1-1l71-82-71 82zm7-1c19-23 37-41 61-72l-61 72zm-1 0l64-74-64 74zm6 0c19-22 39-45 57-69l-57 69zm-1-1l60-67-60 67zm5 1c23-25 41-47 53-64l-53 64zm0 1l54-64-54 64zm5 0c12-17 26-30 50-56l-50 56zm0-1l50-55-50 55zm5 1l43-51-43 51zm1-2c18-19 35-38 43-50l-43 50zm4 1c13-17 27-31 40-44l-40 44zm2 0c13-14 26-28 38-44l-38 44zm5-2c10-7 16-19 31-36l-31 36zm0 3c9-12 15-20 32-39l-32 39zm3-3c8-3 12-13 30-30l-30 30zm2 3c5-8 12-15 27-31l-27 31zm6 1c6-11 16-21 22-26l-22 26zm-1-3c9-8 17-18 21-25l-21 25zm4 3l18-20-18 20zm1-2c3-5 8-9 17-19l-17 19zm7 0c0-4 4-8 10-12l-10 12zm-2 1l13-14-13 14zm6-1c2-3 5-4 6-7l-6 7z" stroke="#000" stroke-width=".5" stroke-linecap="round"/>
    <path d="M10 630V141m0 0c130 1 262 2 405 1l-405-1zm0 0h404H10zm404 1c-2 126-2 252 1 488l-1-488zm0-1v489-489zm0 488H9h405zm0 1H10h404zm-403-1l-1-487 1 487z" stroke="#000" stroke-linecap="round"/>
    <path d="M383 479l6-7m-353 0c0-2 2-3 5-6l-5 6zm-1-1l5-5-5 5zm0 5c5-3 6-5 11-10l-11 10zm0 1l11-13-11 13zm6 3c0-5 5-11 11-13l-11 13zm-3-1l13-13-13 13zm7 2c2-7 7-11 11-17l-11 17zm-1-1c3-5 8-10 14-15l-14 15zm4 0c3-5 6-6 12-13l-12 13zm1 0l13-15-13 15zm4-1c6-3 8-6 14-12l-14 12zm1 0l14-14-14 14zm4 0c6-3 9-9 13-13l-13 13zm1 1l14-16-14 16zm4-2l14-12-14 12zm1 1l15-14-15 14zm8 0c2-5 8-8 13-14l-13 14zm-3 2c5-5 10-10 13-15l-13 15zm5 0c7-6 13-12 16-17l-16 17zm2-1c5-5 10-10 13-15l-13 15zm6-1c1-4 4-8 11-14l-11 14zm-1 1l12-15-12 15zm5 1c2-7 6-7 12-18l-12 18zm0 0l13-16-13 16zm6-1c5-3 10-9 10-15l-10 15zm0-1l11-13-11 13zm3 2l14-15-14 15zm2 0c4-6 9-10 13-17l-13 17zm7 0c1-6 9-11 12-17l-12 17zm-3-1c3-4 7-7 13-16l-13 16zm8-2l12-12-12 12zm-2 1c6-4 8-9 13-14l-13 14zm7 3l11-18-11 18zm-1-2c3-6 8-10 13-14l-13 14zm5 1c5-4 8-8 12-17l-12 17zm0-2l12-15-12 15zm7 1c2-5 7-10 11-17l-11 17zm-1 0l13-15-13 15zm7 0c1-2 2-6 12-15l-12 15zm-2 0l13-16-13 16zm4 0c5-5 7-8 14-13l-14 13zm0 0l14-15-14 15zm7 0c1-3 5-5 12-14l-12 14zm0-1c3-4 8-8 12-15l-12 15zm4 2l15-16-15 16zm1 0l12-15-12 15zm4-3c6-3 11-9 12-12l-12 12zm1 1l13-13-13 13zm3-1c6-2 12-7 14-12l-14 12zm1 1c6-4 10-10 13-14l-13 14zm6 2c4-8 11-13 13-15l-13 15zm2-1c2-4 4-8 11-15l-11 15zm4 0c3-4 8-11 12-13l-12 13zm-1 1l14-16-14 16zm4-1c8-6 10-11 16-16l-16 16zm1 1c4-5 10-10 13-16l-13 16zm8 1c1-4 2-10 13-19l-13 19zm-1-3l13-14-13 14zm3 1c8-4 11-10 15-16l-15 16zm0 0c7-5 11-10 14-15l-14 15zm8 0c4-3 5-7 11-17l-11 17zm0-1l12-14-12 14zm2 2c4-3 10-8 16-17l-16 17zm2-2l13-13-13 13zm5 0l15-13-15 13zm0 1c3-5 7-8 14-15l-14 15zm5 2c4-7 11-13 15-19l-15 19zm0-1c6-7 11-11 14-16l-14 16zm4-3c5-2 10-6 14-14l-14 14zm1 2l14-15-14 15zm6 2c4-8 9-11 13-15l-13 15zm-1-3c5-3 7-7 13-13l-13 13zm8 2c5-5 9-12 11-16l-11 16zm-1-2l14-13-14 13zm7 3c1-8 8-12 12-18l-12 18zm-2-1l12-17-12 17zm4-2c8-4 9-10 15-13l-15 13zm2 1l12-15-12 15zm3 2l16-18-16 18zm0-2l14-14-14 14zm7-2c5-3 8-7 12-14l-12 14zm-1 2c6-4 9-9 14-16l-14 16zm5 0c5-5 12-11 14-16l-14 16zm2 0l12-15-12 15zm5 1l11-16-11 16zm-1-2l14-15-14 15zm4 2l17-16-17 16zm2 0c4-7 10-11 13-16l-13 16zm7 0c3-7 6-12 10-16l-10 16zm-1-2l12-13-12 13zm4 0c2-4 5-7 12-14l-12 14zm1 1l13-14-13 14zm4 1l14-15-14 15zm2-1l12-14-12 14zm6-1c3-3 7-13 11-14l-11 14zm-1 1l12-15-12 15zm4 0c3-1 4-6 12-13l-12 13zm0-1l13-14-13 14zm6 2c2-6 8-9 14-17l-14 17zm0-2l12-13-12 13zm3 2l14-15-14 15zm2-1l12-15-12 15zm5 1c1-5 7-6 13-16l-13 16zm0 0l13-15-13 15zm7 1c0-4 4-9 11-18l-11 18zm-2-1l13-17-13 17zm5 0c7-8 11-12 15-14l-15 14zm1-1l12-15-12 15zm5 1c5-5 11-13 12-17l-12 17zm-1 0l14-16-14 16zm7 1c3-9 10-15 11-16l-11 16zm0-3l12-15-12 15zm3 1c7-5 8-10 13-15l-13 15zm2 0c4-4 8-11 13-15l-13 15zm4-1c5-5 8-10 16-13l-16 13zm2 1l13-16-13 16zm4 0l12-15-12 15zm-1 0c6-4 9-9 14-15l-14 15zm5 1c7-7 11-12 13-17l-13 17zm2-1c3-4 8-8 13-16l-13 16zm5 1c2-3 4-9 13-14l-13 14zm-1 0l14-17-14 17zm5-1c8-5 11-13 14-16l-14 16zm2 0c2-4 6-9 13-15l-13 15zm6 1c2-5 6-7 10-17l-10 17zm-2-1l13-16-13 16zm6-1c6-4 7-10 14-12l-14 12zm0 1c3-4 5-8 14-14l-14 14zm4 0l16-14-16 14zm0 0l14-15-14 15zm5 1c8-6 9-12 13-15l-13 15zm2-1l12-14-12 14zm4 0c6-6 7-9 15-14l-15 14zm0 1c3-5 6-8 14-15l-14 15zm5-1c3-3 5-3 7-9l-7 9z" stroke="#000" stroke-width=".5" stroke-linecap="round"/>
    <path d="M36 477l-1-12m0-1c111 2 222 3 355 0H35zm1 1h353H36zm354 0c0 2-2 7 0 13v-13zm-1 0c-1 4-1 9 1 12l-1-12zm-1 12c-93 2-187 1-353 0h353zm1 0H35h354zm-355-1l2-10-2 10z" stroke="#495057" stroke-linecap="round"/>
    <path d="M242 598l7-9M37 559l9-11-9 11zm0 0l9-11-9 11zm0 6c4-3 6-9 15-18l-15 18zm0 0l15-18-15 18zm0 6c6-6 8-11 20-23l-20 23zm0 0l20-23-20 23zm0 6c8-10 14-19 26-30l-26 30zm0 0c7-7 12-16 26-30l-26 30zm1 5l30-34-30 34zm0 0l30-34-30 34zm-1 7l37-42-37 42zm0 0l37-42-37 42zm2 4l40-45-40 45zm0 0c10-12 19-23 40-45l-40 45zm3 3c16-17 32-33 42-48l-42 48zm0 0c13-17 27-33 42-48l-42 48zm3 2l44-51-44 51zm0 0l44-51-44 51zm4 2c11-15 23-28 45-52l-45 52zm0 0l45-52-45 52zm6 0c18-23 35-44 45-53l-45 53zm0 0c11-13 21-27 45-53l-45 53zm4 0l46-52-46 52zm0 0c16-18 30-36 46-52l-46 52zm5 0l46-53-46 53zm0 0l46-53-46 53zm6 0l45-52-45 52zm0 0l45-52-45 52zm5 0l46-53-46 53zm0 0l46-53-46 53zm6 0l45-52-45 52zm0 0c9-12 21-24 45-52l-45 52zm5 0c12-15 24-31 46-53l-46 53zm0 0l46-53-46 53zm5 0c11-14 23-26 46-52l-46 52zm0 0l46-52-46 52zm5 0l46-53-46 53zm0 0l46-53-46 53zm6 0c12-11 21-23 45-52l-45 52zm0 0l45-52-45 52zm5 0c20-21 33-39 46-53l-46 53zm0 0l46-53-46 53zm6 0c13-13 25-27 45-52l-45 52zm0 0l45-52-45 52zm5 0l45-52-45 52zm0 0c13-15 24-30 45-52l-45 52zm5 0c11-12 22-22 46-52l-46 52zm0 0l46-52-46 52zm5 0l46-52-46 52zm0 0c9-12 20-22 46-52l-46 52zm6 0c10-10 17-23 45-52l-45 52zm0 0l45-52-45 52zm5 0c17-22 34-38 45-52l-45 52zm0 0c12-15 25-31 45-52l-45 52zm5 0c16-18 33-39 46-52l-46 52zm0 0l46-52-46 52zm6 0l45-52-45 52zm0 0c16-19 33-40 45-52l-45 52zm5 0c18-19 37-40 45-53l-45 53zm0 0l45-53-45 53zm5 0c12-17 25-30 45-52l-45 52zm0 0l45-52-45 52zm5 0c12-18 28-34 46-53l-46 53zm0 0c18-21 37-40 46-53l-46 53zm6 0c18-17 31-38 45-52l-45 52zm0 0l45-52-45 52zm5 0c12-12 26-26 46-53l-46 53zm0 0l46-53-46 53zm5 0l46-52-46 52zm0 0l46-52-46 52zm5 0c13-12 25-29 46-53l-46 53zm0 0c16-18 32-35 46-53l-46 53zm6 0c14-18 29-33 47-54l-47 54zm0 0l47-54-47 54zm5 0l45-52-45 52zm0 0c11-11 19-23 45-52l-45 52zm6 0c13-16 26-33 43-50l-43 50zm0 0l43-50-43 50zm5 0c10-15 24-30 40-46l-40 46zm0 0c12-16 25-29 40-46l-40 46zm5 0c11-12 23-24 35-40l-35 40zm0 0c13-13 22-27 35-40l-35 40zm5 0l30-34-30 34zm0 0l30-34-30 34zm6 0c8-9 18-19 24-28l-24 28zm0 0l24-28-24 28zm5 0c3-5 10-10 20-23l-20 23zm0 0l20-23-20 23zm6-1c5-4 8-6 13-15l-13 15zm0 0l13-15-13 15zm7-1c3-3 4-7 7-9l-7 9z" stroke="#000" stroke-width=".5" stroke-linecap="round"/>
    <path d="M37 559c1-7 3-12 13-13m0 0h185H50zm0 0h185H50zm185 0c9 2 14 5 13 13l-13-13zm0 0c8-1 11 5 13 13l-13-13zm13 13v26-26zm0 0v26-26zm0 26c2 8-3 13-13 13l13-13zm0 0c-2 10-5 15-13 13l13-13zm-13 13c-67-3-133 1-185 0h185zm0 0H50h185zm-185 0c-10-1-13-5-13-13l13 13zm0 0c-8 2-12-5-13-13l13 13zm-13-13c1-5 2-12 0-26v26zm0 0v-26 26zm0-26c-1-8 2-14 13-13l-13 13z" stroke="#495057" stroke-linecap="round"/>
    <path d="M87 571h-3v6h-2v-14h5l3 1 1 3v3l-2 1 3 6h-2l-3-6zm-3-1h3l2-1 1-2-1-1-2-1h-3v5zm14 7l-4-1-1-4 1-3 1-2h2l3 1 2 4h-7l1 3 2 1 1-1 1-1 1 1-3 2zm-1-9l-1 1-1 2h5l-1-2-2-1zm13 9l-1-1-2 1-3-1-1-2 1-2 4-1h1v-1-1l-2-1h-1l-1 2h-2l1-2 1-1h2l3 1 1 2v7h-1zm-3-1l1-1 1-1v-2h-1c-2 0-3 1-3 2v1l2 1zm6-4l1-4 3-1 3 1v-5h2v14h-2v-1l-3 1-3-1-1-4zm2 0l1 3 2 1 2-2v-4l-2-2-2 1-1 3zm16-5v1l3-1 3 1 1-1h2c2 0 3 1 3 3v7h-2v-7-1l-2-1-1 1-1 1v7h-2v-7c0-1 0-2-2-2l-2 2v7h-2v-10h2zm14 5l1-3 1-2h3l3 1 1 4v3a4 4 0 01-4 2l-4-1-1-4zm2 0l1 3 2 1 2-1 1-3-1-3-2-1-2 1-1 3zm14-4h-1l-2 2v7h-2v-10h2v1l2-1h1v1zm6 9l-4-1-1-4 1-3 1-2h3l3 1 1 4h-7l1 3 2 1 1-1 1-1 1 1-3 2zm0-9l-2 1-1 2h5l-1-2-1-1z" fill="#000"/>
    <path d="M207 585c2-2 12-9 13-13 0-4-9-9-11-10m-1 22c3-2 13-8 13-12s-11-9-13-11v23z" stroke="#000" stroke-linecap="round"/>
    <path d="M52 79l1-4 4-1 4 1 1 4-1 3-4 2-4-2-1-3zm24 0l1-4 4-1 4 1 1 4-1 3-4 2-4-2-1-3zm24 0l1-4 4-1 4 1 1 4-1 3-4 2-4-2-1-3z" fill="#000"/>
    <path d="M1019 364l6-7M666 173l6-6-6 6zm0 0l5-6-5 6zm0 6l12-12-12 12zm0-1l11-11-11 11zm-1 8c9-10 12-16 15-20l-15 20zm2-1l15-18-15 18zm-2 6c6-5 9-13 21-23l-21 23zm1-1c5-4 10-9 21-24l-21 24zm0 5c7-5 13-10 29-28l-29 28zm0 2l26-30-26 30zm1 6l31-38-31 38zm-1 1l33-37-33 37zm-1 3c15-11 23-24 39-39l-39 39zm2 3c12-16 24-30 37-43l-37 43zm0 4l42-49-42 49zm-2 1c14-16 28-30 43-49l-43 49zm3 5c12-11 24-28 45-53l-45 53zm-1 2c14-17 25-32 47-55l-47 55zm0 5l53-59-53 59zm-1 1c14-18 28-32 53-61l-53 61zm-1 6c15-14 25-28 58-66l-58 66zm1 0l59-68-59 68zm1 4c26-25 49-53 62-71l-62 71zm-1 1l64-73-64 73zm0 5c23-24 47-51 69-77l-69 77zm1 3c17-24 37-47 68-79l-68 79zm0 6c21-25 40-49 74-85l-74 85zm-1-1l75-86-75 86zm0 6l80-92-80 92zm0 1c29-33 59-67 80-93l-80 93zm-1 5c20-26 43-48 88-99l-88 99zm2-1l85-97-85 97zm-3 9c35-44 70-81 94-104l-94 104zm2-3l90-103-90 103zm-1 5c23-22 44-50 98-110l-98 110zm0 3c29-30 55-62 97-112l-97 112zm2 5l99-115-99 115zm0 1c24-31 50-62 101-117L667 283zm-2 4l107-121-107 121zm2 0l107-121-107 121zm-1 8c32-33 62-68 110-130L666 295zm1-1l111-128-111 128zm1 6c40-50 85-96 115-133L668 300zm-2 0l116-132-116 132zm2 5c31-33 64-70 120-138L668 305zm-1 1l121-140-121 140zm-1 7c41-48 85-96 129-146L666 313zm1-1l126-146-126 146zm-2 8c44-52 88-101 136-154L665 320zm1-1c47-56 96-112 132-152L666 319zm0 5l139-159-139 159zm1 0l138-157-138 157zm-2 8c45-54 91-105 146-166L665 332zm2-1l142-165-142 165zm-1 7c43-50 87-103 150-172L666 338zm0-1l148-171-148 171zm-1 6c34-37 67-75 156-178L665 343zm2 0c39-47 79-92 153-176L667 343zm-2 7c63-72 123-145 160-182L665 350zm1-1c55-61 109-124 160-183L666 349zm-1 7c35-39 70-77 165-191L665 356zm1-1c52-59 103-119 165-188L666 355zm0 7l170-196-170 196zm1-1l169-195-169 195zm3 2c41-50 85-99 171-196L670 363zm-2 1c44-49 89-99 174-198L668 364zm5 0c56-64 111-128 174-197L673 364zm1 0l172-197-172 197zm5 2c54-62 107-126 174-201L679 366zm0-1c35-42 71-82 173-199L679 365zm5-1l174-196-174 196zm1 0c69-79 136-158 173-197L685 364zm5 0c53-58 104-119 172-198L690 364zm0 1l173-200-173 200zm6-1c54-64 109-128 170-197L696 364zm0 1l171-198-171 198zm4-2l175-198-175 198zm1 2c60-70 119-139 172-198L701 365zm5-2c67-77 132-151 171-198L706 363zm1 2l172-198-172 198zm3-2c52-56 104-114 172-196L710 363zm1 1c37-45 75-88 173-198L711 364zm5 0c47-51 92-105 174-198L716 364zm1 1l172-199-172 199zm4-1c45-52 92-107 174-198L721 364zm2 1c48-59 98-116 171-199L723 365zm6-2c46-52 94-109 171-195L729 363zm-2 2l173-199-173 199zm7-2c49-55 97-113 169-195L734 363zm-1 1l171-198-171 198zm5 1l173-199-173 199zm1-1c59-69 119-139 171-197L739 364zm5-1l172-198-172 198zm0 1l171-197-171 197zm6-1c43-50 87-103 172-198L750 363zm-1 2c39-47 78-92 172-199L749 365zm4 1c40-47 82-93 172-200L753 366zm0-1l172-199-172 199zm6-1l171-198-171 198zm0 1l172-198-172 198zm4 0l173-199-173 199zm1-1l173-197-173 197zm6 1l172-199-172 199zm0-1l173-197-173 197zm4 1c62-68 122-137 172-200L774 365zm1-1l173-198-173 198zm6 0c58-67 117-133 171-198L781 364zm-1 1c46-50 90-102 172-199L780 365zm5-1c69-74 133-152 174-197L785 364zm0 0c40-44 79-89 172-198L785 364zm6-1c42-47 85-94 171-198L791 363zm0 2l172-200-172 200zm4-1c68-78 136-156 173-196L795 364zm1 0c66-77 134-155 173-198L796 364zm7 0c55-66 116-133 169-199L803 364zm-2 0c41-45 80-91 174-199L801 364zm5-1c53-60 109-123 172-198L806 363zm1 1l172-198-172 198zm4 0c65-74 132-152 174-197L811 364zm1 0c39-43 77-87 173-198L812 364zm5 0l171-196-171 196zm1-1l171-196-171 196zm3 3c56-67 112-130 175-201L821 366zm1-1c51-56 101-113 173-199L822 365zm7 0c35-43 74-87 172-197L829 365zm0 0c62-74 125-146 171-198L829 365zm4-2c48-55 97-113 174-197L833 363zm1 1l172-198-172 198zm5-1c65-71 126-143 172-197L839 363zm0 1l173-197-173 197zm6 0c63-74 125-145 171-196L845 364zm-2 0l172-198-172 198zm8 0c49-61 104-121 171-196L851 364zm-2 0c50-59 101-117 173-198L849 364zm7 1c46-52 90-108 168-198L856 365zm-1 0l170-196-170 196zm5-1c46-49 92-103 165-190L860 364zm0 1c62-75 126-146 164-191L860 365zm4-2c41-42 78-89 161-183L864 363zm2 2c60-73 122-143 159-185L866 365zm5-2c43-46 83-92 153-176L871 363zm-1 2l155-179-155 179zm7 0c50-60 104-122 148-173L877 365zm-1 0c35-42 70-83 149-173L876 365zm5 0l145-168-145 168zm0-1l145-166-145 166zm4 0c33-35 63-67 139-158L885 364zm2 0c34-43 72-84 139-159L887 364zm6 1c38-44 75-92 133-155L893 365zm-1-1c40-44 79-91 133-154L892 364zm6 1l127-150-127 150zm-1-1c39-43 78-87 128-147L897 364zm7 1l122-142-122 142zm-2 0c35-40 71-81 123-143L902 365zm6 0l116-134-116 134zm-1 0c34-41 67-81 118-137L907 365zm6-2c34-34 63-73 113-128L913 363zm0 2c40-46 80-91 111-130L913 365zm6 0c40-49 84-99 108-123L919 365zm-1 0c33-38 66-75 106-124L918 365zm7 0c28-40 62-74 100-119L925 365zm-2-1c38-44 76-88 102-115L923 364zm5 0c24-25 47-51 96-109l-96 109zm0 1l98-112-98 112zm4-1c22-23 43-46 93-104l-93 104zm3 1l91-105-91 105zm4 1c25-32 49-60 86-100l-86 100zm0-3c25-27 49-53 86-97l-86 97zm4 1l82-90-82 90zm2 0c30-35 60-68 80-93l-80 93zm5 1c23-26 46-55 76-86l-76 86zm1-1c26-32 52-63 74-85l-74 85zm5 1l69-80-69 80zm0 0l69-80-69 80zm5-2c24-28 48-55 66-73l-66 73zm0 0l63-73-63 73zm4 3c12-16 24-30 60-70l-60 70zm0-2c17-17 33-37 60-67l-60 67zm8-2c18-19 38-41 52-61l-52 61zm-1 2l54-62-54 62zm3 0c15-13 27-32 51-54l-51 54zm1 1c18-21 35-42 50-56l-50 56zm5 0l46-52-46 52zm1-1l44-50-44 50zm7 1c6-10 16-18 35-46l-35 46zm-2-1l38-42-38 42zm4 1l36-39-36 39zm2-1c10-13 20-25 32-37l-32 37zm5-1l28-32-28 32zm1 0c9-11 21-22 26-30l-26 30zm4 2c3-6 9-12 20-26l-20 26zm-1-1l23-24-23 24zm8 2c2-7 11-13 17-23l-17 23zm-1-1l16-21-16 21zm5-1c3-4 9-9 10-14l-10 14zm-1 0l13-13-13 13zm6 1l6-8-6 8z" stroke="#FE7F80" stroke-width=".5" stroke-linecap="round"/>
    <path d="M666 363V166m1 2c103-2 205-3 355-1l-355 1zm0-2h356-356zm358 2c-4 74-4 149-3 195l3-195zm-2-2c2 42 2 82-1 196l1-196zm0 196c-128-2-254-2-356 0h356zm0 0c-103-2-206-1-357 0h357zm-357-2c-2-78 0-154 1-195l-1 195z" stroke="#000" stroke-linecap="round"/>
    <path d="M860 411l8-8m-199-14l5-6-5 6zm-1 0l5-6-5 6zm-1 7c6-5 11-10 13-14l-13 14zm2-1l11-12-11 12zm1 5c2-5 6-10 13-17l-13 17zm-1 1l14-18-14 18zm-1 7c5-9 10-12 20-27l-20 27zm0 0c10-10 17-21 21-25l-21 25zm2 5c9-8 18-18 23-30l-23 30zm0-1l24-29-24 29zm3 1c9-10 14-17 27-29l-27 29zm2 0l26-31-26 31zm7 0c6-11 19-22 24-31l-24 31zm-3-1l26-30-26 30zm8-2l24-26-24 26zm-2 1c10-8 16-18 26-28l-26 28zm7 3l24-32-24 32zm-1-2c7-11 17-20 26-28l-26 28zm5 1c9-8 15-16 25-31l-25 31zm0-2c10-10 18-20 25-29l-25 29zm7 1l24-31-24 31zm-1 0c9-12 20-23 26-30l-26 30zm7 1c4-6 8-13 24-30l-24 30zm-2 0l26-31-26 31zm4-1l26-28-26 28zm0 1c8-11 17-19 26-30l-26 30zm7-1c4-7 11-12 25-29l-25 29zm0-1l26-29-26 29zm4 2l27-30-27 30zm1 0l25-29-25 29zm4-3c10-8 21-20 25-27l-25 27zm1 1l27-28-27 28zm3 0c10-8 21-18 26-27l-26 27zm2 1c9-9 18-21 25-30l-25 30zm5 1c9-13 20-23 26-30l-26 30zm2 0c6-9 11-17 25-31l-25 31zm4 0c8-11 18-22 24-28l-24 28zm-1 0l27-30-27 30zm5-1c13-12 20-22 29-31l-29 31zm1 0c8-9 18-19 26-30l-26 30zm7 2c4-7 8-16 26-33l-26 33zm-1-3l26-28-26 28zm3 1c12-9 20-20 28-30l-28 30zm0 0c12-10 20-21 26-29l-26 29zm8 0c7-6 11-13 23-31l-23 31zm0-1l25-28-25 28zm2 2c8-6 17-15 28-31l-28 31zm2-1c9-11 18-21 26-28l-26 28zm5-1l28-27-28 27zm0 1l27-29-27 29zm5 2l28-33-28 33zm0-1c11-12 21-22 26-30l-26 30zm4-2c8-7 17-14 27-29l-27 29zm1 1c9-10 18-21 27-29l-27 29zm7 2c6-12 15-19 24-29l-24 29zm-2-2c8-7 13-14 26-29l-26 29zm8 1l24-30-24 30zm-1-2l26-28-26 28zm7 3c6-13 18-23 24-32l-24 32zm-2-1c6-9 14-16 24-31l-24 31zm4-1c12-9 17-20 27-28l-27 28zm2 1c5-8 12-15 25-30l-25 30zm3 1l28-32-28 32zm1-2l26-28-26 28zm6-2c9-7 16-15 25-28l-25 28zm-1 2c10-8 16-17 27-30l-27 30zm5 1c10-11 22-23 27-31l-27 31zm2-1l25-29-25 29zm5 2l23-31-23 31zm-1-3l27-29-27 29zm4 2c12-11 19-18 29-30l-29 30zm3 0c8-12 18-22 24-30l-24 30zm6 1c8-13 16-24 23-32l-23 32zm-1-2l25-29-25 29zm4-1l23-26-23 26zm1 1l23-26-23 26zm4 1l20-21-20 21zm2-1c5-7 11-14 18-20l-18 20zm6 0c3-4 7-14 11-14l-11 14zm-1 0l12-15-12 15zm4 0l7-8-7 8z" stroke="#FE7F80" stroke-width=".5" stroke-linecap="round"/>
    <path d="M668 411c2-7 1-14 1-29m1 2c64-4 130-3 195-2l-195 2zm-1-1h197-197zm194 0v30-30zm2 0c0 11-1 22 1 28l-1-28zm-1 27l-196 3 196-3zm1 1c-47 2-94 1-195 1l195-1zm-198-1c2-7 2-17 1-27l-1 27z" stroke="#000" stroke-linecap="round"/>
    <path d="M1017 445l5-8m-354-1l5-5-5 5zm0 0l6-5-6 5zm2 7l8-12-8 12zm-2-1c3-3 6-5 11-12l-11 12zm2 2c3-5 7-8 14-14l-14 14zm1 1l13-15-13 15zm6-2c1-3 7-6 11-11l-11 11zm0 2c4-5 6-9 13-15l-13 15zm5 1c5-4 9-12 13-14l-13 14zm-1-1l14-15-14 15zm7 1c2-7 7-12 14-16l-14 16zm0-1l12-14-12 14zm5-2c3 0 7-4 11-14l-11 14zm-1 2l12-15-12 15zm4 1c6-6 9-11 16-16l-16 16zm1 0c3-5 6-8 14-16l-14 16zm8 1c1-8 7-13 9-16l-9 16zm-3-3l15-14-15 14zm8 3l11-16-11 16zm-3-2l14-15-14 15zm6 0c4-5 9-8 12-13l-12 13zm0 1l13-17-13 17zm7 0l12-16-12 16zm0-1l11-16-11 16zm4 1c3-6 8-10 15-15l-15 15zm0-1l13-16-13 16zm6-2c4-3 9-7 13-13l-13 13zm-1 1c3-2 7-6 13-14l-13 14zm6 0c5-3 6-6 13-15l-13 15zm0 2c3-5 7-10 14-15l-14 15zm4-1c5-2 7-9 15-16l-15 16zm1-1l14-14-14 14zm4 0c5 0 8-6 15-13l-15 13zm1 1c4-4 6-8 13-14l-13 14zm7-1c1-1 3-6 12-15l-12 15zm0 1c1-4 4-6 12-15l-12 15zm4-1c6-5 9-10 15-13l-15 13zm1 1c2-4 7-9 13-14l-13 14zm5 1c1-5 5-6 11-16l-11 16zm0-2c5-4 10-11 12-15l-12 15zm6 1l10-15-10 15zm-2 0l13-14-13 14zm6 2l11-15-11 15zm0-2c3-4 7-7 12-15l-12 15zm6 2c4-8 9-14 11-15l-11 15zm-2-1l15-17-15 17zm8-2c4-1 5-6 10-13l-10 13zm-2 0l14-15-14 15zm5 0c4-1 6-5 15-15l-15 15zm1 0c3-4 8-7 13-14l-13 14zm7 0l9-12-9 12zm-1 1l12-15-12 15zm3-1c4-1 7-7 14-13l-14 13zm2 0l13-14-13 14zm6 1c0-2 5-8 13-16l-13 16zm-2 1c4-6 7-10 14-15l-14 15zm7 1c3-4 4-10 13-17l-13 17zm-2-2l15-14-15 14zm8-1c1-2 6-5 10-15l-10 15zm-2 1l12-15-12 15zm5 2c4-6 6-9 16-18l-16 18zm1-3l13-14-13 14zm6 2c1-5 6-8 11-16l-11 16zm-1-1l14-15-14 15zm4 1l14-16-14 16zm1 0l13-15-13 15zm6-2c3-1 6-6 12-14l-12 14zm-1 1l14-14-14 14zm8 0c1-4 4-10 11-15l-11 15zm-3-1c4-2 5-5 13-14l-13 14zm7 3c1-4 6-6 12-15l-12 15zm0-2l12-14-12 14zm6 0c2-5 6-10 11-16l-11 16zm-2 1c4-5 7-10 15-17l-15 17zm4-2l15-14-15 14zm2 1l13-15-13 15zm7 1c2-3 4-8 12-15l-12 15zm-1-2l13-13-13 13zm4 1c6-5 6-9 14-17l-14 17zm0 1l13-17-13 17zm6-1c5-5 6-8 15-15l-15 15zm-1-1c5-3 7-7 14-15l-14 15zm7 0l12-13-12 13zm-2 2c5-6 8-11 15-16l-15 16zm8-1c0-3 5-7 12-14l-12 14zm-2 0l14-16-14 16zm7-1c4-4 11-12 12-15l-12 15zm-1 1c2-3 5-7 14-15l-14 15zm7-2c4-5 9-9 10-12l-10 12zm-1 2l11-14-11 14zm5 1c1-4 7-9 14-17l-14 17zm-1 0l13-15-13 15zm7-1c4-4 6-11 10-16l-10 16zm-1-1l12-13-12 13zm6 0c3-3 7-12 13-14l-13 14zm-2 1l13-15-13 15zm6 1c2-5 5-10 13-15l-13 15zm0-1l13-14-13 14zm4-1c4-5 7-5 16-14l-16 14zm1 1c4-4 8-7 13-15l-13 15zm5-1c5-3 5-7 13-14l-13 14zm0 2l13-15-13 15zm7 0l11-16-11 16zm0-2c5-3 9-9 11-15l-11 15zm5 1c3-4 3-6 14-16l-14 16zm0 0l11-14-11 14zm5 2l12-18-12 18zm0-2l13-16-13 16zm6 0l10-16-10 16zm-2 0l13-14-13 14zm6 2c5-9 8-11 15-19l-15 19zm0-2l14-16-14 16zm5-2c5-2 8-3 14-14l-14 14zm0 3l13-15-13 15zm7 1c5-10 8-15 12-19l-12 19zm-1-3l13-15-13 15zm5 3c1-6 4-7 13-18l-13 18zm1-3l13-14-13 14zm5 1c1-3 7-9 11-14l-11 14zm-1 1c3-4 7-10 14-16l-14 16zm4-3c6-3 9-5 14-12l-14 12zm1 1l14-13-14 13zm5-1c5-1 5-5 13-15l-13 15zm2 3c2-5 5-9 13-16l-13 16zm6-1c3-4 8-8 11-15l-11 15zm-2 1c4-7 11-12 14-16l-14 16zm5-3c3-1 8-6 15-15l-15 15zm0 2c6-5 11-11 14-16l-14 16zm5-1l14-15-14 15zm1 2l13-16-13 16zm4-2c8-5 12-11 13-13l-13 13zm1 1l13-15-13 15zm4 1l16-15-16 15zm1 0l13-15-13 15zm7-2l6-8-6 8z" stroke="#FE7F80" stroke-width=".5" stroke-linecap="round"/>
    <path d="M668 443v-13m1-1c134-1 270 0 352 1l-352-1zm-1 1c128 0 255 1 354-1l-354 1zm354-1c-1 5 1 9 1 15l-1-15zm0 1l-1 12 1-12zm-1 14c-116-2-232-3-351-2l351 2zm0-2H669h352zm-354 1c1-4 0-9 2-14l-2 14z" stroke="#495057" stroke-linecap="round"/>
    <path d="M925 494l4-3m-260-8l6-5-6 5zm0 1l6-6-6 6zm1 6l11-14-11 14zm0 0l10-13-10 13zm0 3c4-6 10-11 15-14l-15 14zm1 1l14-17-14 17zm3-1c6-2 10-11 19-16l-19 16zm2 2c2-4 5-7 15-18l-15 18zm7 0c4-4 3-8 15-18l-15 18zm-2-1l14-16-14 16zm6-1l15-16-15 16zm0 2l15-18-15 18zm3 0c6-3 9-9 15-16l-15 16zm1-1c7-6 12-14 15-16l-15 16zm7 0c3-4 6-6 14-19l-14 19zm0 0c2-4 5-7 15-16l-15 16zm6-1c2-4 6-10 14-15l-14 15zm-2 0c6-4 12-10 15-15l-15 15zm7 3c4-5 7-13 15-19l-15 19zm-1-2c5-5 9-12 15-17l-15 17zm5 1c4-5 9-13 16-17l-16 17zm1-2l13-15-13 15zm5 3c2-5 7-10 14-20l-14 20zm0-2l14-17-14 17zm6-1l14-14-14 14zm-2 1c7-6 12-13 15-16l-15 16zm4 1c8-5 14-13 17-19l-17 19zm1-1l16-17-16 17zm6 1c5-7 11-11 14-18l-14 18zm1-1l15-17-15 17zm5 1l14-17-14 17zm-1-1c5-3 8-6 16-18l-16 18zm5 1c8-6 11-13 16-19l-16 19zm1-1l15-17-15 17zm4-1c6-4 7-6 15-18l-15 18zm2 1l15-17-15 17zm3 2l17-18-17 18zm1-2c7-6 13-12 16-17l-16 17zm8-1c1-3 7-9 13-14l-13 14zm-3 2c5-4 7-9 15-18l-15 18zm6 1c3-9 11-15 15-18l-15 18zm0-1c4-6 9-10 16-17l-16 17zm7 1l14-20-14 20zm-1-1l13-17-13 17zm6 0c2-4 4-9 16-17l-16 17zm-1 0l14-18-14 18zm4 1c8-7 11-13 17-18l-17 18zm1-2c4-5 9-9 14-17l-14 17zm5 1c8-7 13-12 15-18l-15 18zm-1-1c5-4 11-9 16-17l-16 17zm6 0l17-15-17 15zm1 0c4-3 6-6 14-17l-14 17zm4 0c7-5 10-12 17-15l-17 15zm0 0l16-17-16 17zm6-1c7-6 10-9 14-16l-14 16zm1 1c3-6 8-10 14-17l-14 17zm6 1c4-7 6-10 14-17l-14 17zm-1-1c4-3 8-8 15-17l-15 17zm3 0c7-4 12-12 16-18l-16 18zm2 0l15-17-15 17zm7 1c3-7 9-11 12-18l-12 18zm-3 0l16-18-16 18zm7-2l14-14-14 14zm0 0l14-15-14 15zm6 1l13-18-13 18zm-1 1l15-18-15 18zm4 0c6-5 9-10 16-18l-16 18zm1 0l15-18-15 18zm5-1l15-19-15 19zm-1 1c8-8 14-15 16-19l-16 19zm9-2l14-15-14 15zm-3 1l16-17-16 17zm6 0c3-5 7-10 15-17l-15 17zm1 0l14-17-14 17zm3-1l16-15-16 15zm1 2l15-18-15 18zm7 0l15-17-15 17zm-2 0l17-18-17 18zm6 1c2-8 6-9 13-18l-13 18zm1-1l13-19-13 19zm4 1c2-5 5-8 16-20l-16 20zm-1-1l16-19-16 19zm5-1c7-5 12-11 17-16l-17 16zm2 1l14-18-14 18zm5-2l16-15-16 15zm0 1l14-16-14 16zm3 0c6-1 8-6 16-18l-16 18zm2 1l15-17-15 17zm4 1c3-4 8-10 17-17l-17 17zm2-2c2-4 6-8 14-16l-14 16zm6-1c5-5 11-10 12-14l-12 14zm-1 1c5-5 9-12 15-16l-15 16zm5 1c4-6 6-9 13-15l-13 15zm-1-1l16-15-16 15zm5-1l16-14-16 14zm1 1l15-17-15 17zm7-1l13-16-13 16zm-1 2c4-7 11-13 14-17l-14 17zm4-1c2-3 8-5 10-11l-10 11zm0 1l10-11-10 11zm6 0l4-5-4 5z" stroke="#FE7F80" stroke-width=".5" stroke-linecap="round"/>
    <path d="M670 493v-16m-1 0c102 0 204-1 258 1l-258-1zm0 0l258 1-258-1zm257-1c0 8 0 15 3 17l-3-17zm1 1v17-17zm2 16c-74-1-148 1-260-1l260 1zm-2 1c-91-2-182-2-258-1l258 1zm-257-1l-1-17 1 17z" stroke="#495057" stroke-linecap="round"/>
    <path d="M1043 621l6-7M642 138l7-7-7 7zm1-1l5-6-5 6zm1 6l8-12-8 12zm-1 0l10-12-10 12zm-2 4l18-15-18 15zm2 2c4-7 9-12 15-18l-15 18zm-2 4c10-7 12-10 22-24l-22 24zm3 1l20-24-20 24zm0 9c9-14 17-21 25-32l-25 32zm-2-2l28-30-28 30zm-1 6c7-9 17-16 34-36l-34 36zm2 1l31-38-31 38zm1 6c14-16 27-36 37-41l-37 41zm-1-1l37-43-37 43zm-1 7c15-18 32-35 41-51l-41 51zm1-1l43-49-43 49zm-1 6c18-20 33-39 49-53l-49 53zm0 0c19-19 37-39 49-54l-49 54zm2 7c16-20 28-35 52-61l-52 61zm-1-1l53-61-53 61zm0 6c23-24 41-47 58-66l-58 66zm-1 2l59-69-59 69zm2 4c24-27 48-57 61-73l-61 73zm-2 1l64-74-64 74zm-1 6l72-77-72 77zm1 0c16-16 29-33 70-78l-70 78zm1 5c25-25 46-51 73-83l-73 83zm0 1l74-86-74 86zm1 6c19-22 40-48 78-90l-78 90zm-2 0c26-31 54-60 80-92l-80 92zm1 8c19-26 40-47 86-102l-86 102zm0-1c28-31 56-63 84-98l-84 98zm1 6c20-24 38-43 88-105l-88 105zm-1-1c22-27 45-51 89-104l-89 104zm-2 8c24-30 51-60 96-111l-96 111zm1-2l97-110-97 110zm2 5c33-37 68-74 100-113L644 245zm-2 2c24-27 48-54 101-117L642 247zm0 5c24-26 46-54 109-123L642 252zm1 1c27-31 53-63 106-122L643 253zm1 4c37-44 77-92 111-127L644 257zm-1 3l112-130-112 130zm1 5l114-135-114 135zm-1-1l117-134-117 134zm0 7c43-53 85-100 123-141L643 271zm0 0l121-140-121 140zm2 7c23-30 47-58 125-147L645 278zm-3-2c42-44 83-91 127-144L642 276zm1 9l132-155-132 155zm0-2c30-32 58-65 132-153L643 283zm-1 8c34-41 69-82 139-162L642 291zm0-1l138-159-138 159zm1 6l144-164-144 164zm0-2c28-32 59-65 143-163L643 294zm-2 9c46-56 95-110 150-172L641 303zm1-2c35-39 69-77 148-170L642 301zm2 7c51-64 106-125 153-178L644 308zm-1-1c53-58 104-117 153-176L643 307zm0 7l157-184-157 184zm-1 0l159-183-159 183zm1 5l165-190-165 190zm0 1l164-189-164 189zm-1 5c35-39 69-81 172-195L642 325zm0 1l171-196-171 196zm0 6c57-64 109-125 175-203L642 332zm1 0c39-47 79-92 174-202L643 332zm0 6l179-207-179 207zm0-1l180-206-180 206zm-1 7c59-71 120-139 185-212L642 344zm1 0c48-53 95-107 185-214L643 344zm-1 7c43-49 83-97 192-220L642 351zm0 0l191-220-191 220zm1 4c71-83 144-166 196-224L643 355zm-1 2c68-80 137-158 197-227L642 357zm0 4c57-62 111-124 203-229L642 361zm1 1c67-76 135-154 201-232L643 362zm1 7c46-58 97-115 206-237L644 369zm0-1l206-238-206 238zm0 6c82-96 167-193 211-243L644 374zm-1 1l211-245-211 245zm1 4c54-62 109-124 216-250L644 379zm-1 1c51-56 101-114 217-250L643 380zm0 7l223-255-223 255zm0 0c86-101 174-200 222-256L643 387zm-1 6l230-262-230 262zm1 0l229-263-229 263zm0 6l232-267-232 267zm0 0c64-76 130-152 233-269L643 399zm1 5l238-274-238 274zm-1 1c78-92 156-182 238-274L643 405zm-1 7c59-70 120-140 246-281L642 412zm0-1c78-91 155-179 245-281L642 411zm1 7c75-90 153-180 250-287L643 418zm0-1l249-287-249 287zm-1 7c76-90 155-179 256-292L642 424zm1 0c90-102 178-204 254-293L643 424zm-1 5c66-77 131-151 260-297L642 429zm2-1l258-297-258 297zm-1 6c69-76 138-156 264-303L643 434zm0 1c106-120 210-241 265-304L643 435zm0 6c82-94 165-188 269-310L643 441zm0 1c57-68 115-134 270-311L643 442zm0 5c61-73 123-144 276-317L643 447zm1 1c75-88 152-178 274-318L644 448zm-1 5l281-323-281 323zm0 1c68-80 137-159 281-323L643 454zm1 5c70-83 140-165 285-329L644 459zm-1 0l286-329-286 329zm0 8c114-134 228-266 290-336L643 467zm0-2c65-73 130-148 291-335L643 465zm0 7l298-342-298 342zm-1 0l297-342-297 342zm2 6c75-84 149-171 300-347L644 478zm-1 0l302-348-302 348zm0 5c62-74 126-147 307-353L643 483zm0 2c114-131 229-262 307-355L643 485zm-1 5c78-90 156-180 314-359L642 490zm1 0l312-359-312 359zm-1 7l319-367-319 367zm1 0l318-367-318 367zm0 5c99-111 196-223 323-372L643 502zm-1 0c82-92 164-185 324-371L642 502zm2 7l327-378-327 378zm-1-1c100-117 202-233 329-378L643 508zm0 7c78-90 155-180 334-384L643 515zm0 0l334-385-334 385zm0 6c93-105 185-212 340-391L643 521zm0 0l339-391-339 391zm0 6l344-397-344 397zm0 0l345-397-345 397zm0 6c107-121 212-242 349-402L643 533zm-1 0l351-402-351 402zm1 6c80-91 158-180 355-408L643 539zm0 0l355-408-355 408zm-1 6l361-414-361 414zm1 0c142-166 284-331 360-414L643 545zm-1 7c114-134 231-267 367-421L642 552zm1-1l365-421-365 421zm0 6c120-136 240-275 371-426L643 557zm0 0c84-95 167-190 371-426L643 557zm0 6l375-432-375 432zm0 1c138-158 277-317 376-433L643 564zm0 5c81-95 164-189 381-438L643 569zm0 0l381-438-381 438zm-1 7c79-95 161-188 387-446L642 576zm1 0c131-150 261-299 387-446L643 576zm0 6l392-451-392 451zm0 0l392-451-392 451zm-1 6c143-165 287-331 399-458L642 588zm1 0l398-457-398 457zm-1 6l403-463-403 463zm1 0c91-107 183-213 403-463L643 594zm0 6l406-467-406 467zm0-1c139-161 279-322 406-466L643 599zm0 7l405-467-405 467zm-1 0c120-137 241-275 407-467L642 606zm0 7c143-164 286-331 407-468L642 613zm1-1c89-101 179-204 406-467L643 612zm-1 7l407-467-407 467zm1-1c161-184 322-368 406-467L643 618zm2 3c107-121 214-243 404-465L645 621zm0 1l404-465-404 465zm6-2c124-142 246-285 397-456L651 620zm0 2c102-115 202-231 398-459L651 622zm5 0l393-453-393 453zm0 0c140-163 281-325 393-452L656 622zm5-1c103-116 205-232 388-447L661 621zm1 0l387-446-387 446zm5 1c138-156 274-313 382-441L667 622zm0-1l382-439-382 439zm5 1l378-435-378 435zm0-1c108-121 214-243 378-434L672 621zm5 0c121-139 241-278 373-427L677 621zm1 0l371-428-371 428zm4 1c128-147 255-291 367-423L682 622zm1-1c80-94 160-186 366-421L683 621zm5 1l361-417-361 417zm0 0c117-137 236-274 362-417L688 622zm6 0c107-128 218-255 355-410L694 622zm-1 0c89-104 178-208 356-410L693 622zm5 0l351-404-351 404zm0 0c119-135 236-271 351-404L698 622zm5 0c85-100 171-198 346-398L703 622zm1 0c74-88 150-175 345-398L704 622zm6-1c91-106 184-214 339-391L710 621zm-1 0l340-390-340 390zm5 1l336-386-336 386zm0 0c114-130 227-259 335-386L714 622zm6 0c73-85 146-170 330-380L720 622zm0-1l329-379-329 379zm5 0l323-372-323 372zm0 1l324-373-324 373zm6 0c71-87 144-171 318-367L731 622zm0-1l318-367-318 367zm5 0c71-84 144-167 313-361L736 621zm-1 1c64-72 127-144 314-361L735 622zm7 0c76-90 156-180 308-356L742 622zm-1-1l308-354-308 354zm5 0l302-347-302 347zm0 1c90-102 177-203 303-349L746 622zm5-1c114-129 225-257 297-342L751 621zm0 0c73-82 145-165 298-341L751 621zm5 0c113-127 225-257 294-337L756 621zm0 1l294-337-294 337zm6-1c117-131 230-264 287-331L762 621zm0 0l287-329-287 329zm6 0l280-324-280 324zm-1 0c86-96 171-193 282-324L767 621zm7-1c65-73 130-147 276-317L774 620zm-1 1l276-317-276 317zm4 0c60-67 120-134 271-312L777 621zm0 0l272-311-272 311zm7 1c83-98 169-197 265-307L784 622zm0-1l265-306-265 306zm4 1c61-73 123-143 261-300L788 622zm1-1l260-300-260 300zm5 1l256-295-256 295zm0-1c62-73 126-146 256-294L794 621zm6 1c58-68 117-137 249-288L800 622zm-1-1c67-80 136-160 250-287L799 621zm6 0c94-111 189-219 244-281L805 621zm-1 1l245-282-245 282zm6 1l238-277-238 277zm0-1l239-276-239 276zm6 1c54-67 109-130 232-271L816 623zm-1-1l234-270-234 270zm6-2c49-57 98-114 228-261L821 620zm-1 1c84-94 167-190 229-263L820 621zm7 0c62-68 123-139 223-256L827 621zm-1 0c59-66 119-136 223-256L826 621zm6 0c72-82 142-166 217-250L832 621zm-1 0c80-89 160-181 218-250L831 621zm4-1c73-79 142-158 213-243L835 620zm1 1l213-245-213 245zm6 1c55-65 110-127 208-238L842 622zm-1-1c58-63 115-130 208-238L841 621zm4 2c71-83 142-162 206-235L845 623zm1-2c66-73 132-149 203-232L846 621zm7-1c76-87 151-175 197-226L853 620zm-1 1l197-226-197 226zm6 2l191-223-191 223zm0-2l190-220-190 220zm4 0c70-77 139-156 186-215L862 621zm1 0c55-61 108-124 187-215L863 621zm6 2c49-57 95-114 180-211L869 623zm-2-1c56-61 111-124 182-208L867 622zm6-1c37-44 75-84 176-202L873 621zm1 0c49-56 100-112 175-202L874 621zm5 2c43-54 88-103 171-198L879 623zm0-1l170-196-170 196zm5-1l165-190-165 190zm1 1c58-70 118-139 163-191L885 622zm3-2c37-35 66-73 160-182L888 620zm2 1l159-183-159 183zm4 0c38-40 75-85 154-177L894 621zm0 1c38-43 75-85 155-179L894 622zm6 1c34-42 73-86 151-173L900 623zm0-1l149-173-149 173zm4 1c32-35 64-71 144-167L904 623zm1-2c56-62 111-126 145-165L905 621zm5 0c32-37 62-74 139-159L910 621zm0 1c40-45 79-89 138-160L910 622zm6-2l133-152-133 152zm-1 2l134-155-134 155zm6-2c46-50 93-102 130-148L921 620zm0 0c49-55 98-110 127-147L921 620zm5 4l123-146-123 146zm-1-1c38-46 75-90 124-142L925 623zm7-1c37-44 73-83 118-137L932 622zm0 0l117-136-117 136zm6-1c44-51 89-101 111-129L938 621zm-1 2c40-48 79-95 113-130L937 623zm7-1c30-38 65-77 106-124L944 622zm-1-1c26-34 56-65 106-122L943 621zm6 1c28-37 58-70 100-117L949 622zm-2 1l101-118-101 118zm4-1c30-38 62-72 99-113l-99 113zm1 0l97-112-97 112zm5 1c32-33 57-66 91-107l-91 107zm1-1c23-27 45-54 91-106l-91 106zm4 0c31-35 64-73 89-99l-89 99zm1 0c20-25 42-48 86-100l-86 100zm4-1c26-26 49-53 81-91l-81 91zm2 2c20-26 40-50 80-94l-80 94zm4-3c16-19 32-37 78-84l-78 84zm0 1l76-86-76 86zm5-1c15-16 28-33 72-79l-72 79zm1 1l71-80-71 80zm5 2c27-30 52-60 64-76l-64 76zm1-2c14-18 31-36 63-74l-63 74zm4 2c23-26 44-54 59-69l-59 69zm2-2l57-67-57 67zm3-1c16-15 31-33 56-62l-56 62zm1 1l55-61-55 61zm7 2c10-15 20-27 47-56l-47 56zm-1-2c11-11 21-25 47-56l-47 56zm6 1c8-10 17-23 43-52l-43 52zm0-1l43-49-43 49zm6 1c9-12 17-23 37-43l-37 43zm-2 0c15-17 29-32 38-44l-38 44zm7-1c6-10 15-21 31-37l-31 37zm-2 0l32-37-32 37zm4 2c9-6 14-16 31-33l-31 33zm2-2l27-31-27 31zm4-1c8-6 17-16 24-23l-24 23zm1 1c10-9 18-19 21-25l-21 25zm5 1c8-9 14-17 19-21l-19 21zm1 0c4-6 8-11 17-19l-17 19zm3 1l12-17-12 17zm1-2l12-13-12 13zm6 1c1-3 3-4 7-7l-7 7z" stroke="#FE7F80" stroke-width=".5" stroke-linecap="round"/>
    <path d="M643 619V130m-1 0c140 1 278 2 405-1l-405 1zm0 1c119 2 237 1 405 0H642zm404-1l1 489-1-489zm1 0v489-489zm-1 489c-101 2-202 2-404 1l404-1zm1 0H643h404zm-404 0c1-113 2-225-1-488l1 488z" stroke="#000" stroke-linecap="round"/>
    <path d="M1016 469c2-4 5-6 7-8m-354 0l4-7-4 7zm-1 0c2-3 5-5 5-7l-5 7zm1 6l10-12-10 12zm0 0c3-4 5-8 11-12l-11 12zm1 1c3-2 7-4 15-13l-15 13zm2 1l12-15-12 15zm3 2c4-8 12-12 13-18l-13 18zm1-2l13-14-13 14zm8 1c0-6 7-10 11-14l-11 14zm-2-1l13-15-13 15zm5-1l14-13-14 13zm1 1l11-14-11 14zm5 2c5-8 7-11 14-18l-14 18zm-1-2l13-14-13 14zm6-1c3-1 6-7 11-14l-11 14zm-1 1l14-14-14 14zm5 1c5-8 12-12 15-14l-15 14zm1 0c4-3 7-8 13-16l-13 16zm6 1c3-8 10-13 14-17l-14 17zm-1-1c2-4 6-7 14-15l-14 15zm4 1c6-8 11-11 15-15l-15 15zm2-2l12-14-12 14zm4 1c6-6 10-13 14-16l-14 16zm1-1l12-15-12 15zm5 1c3-3 8-7 15-18l-15 18zm0 0l14-16-14 16zm5 1c5-6 9-12 15-16l-15 16zm1-2l13-15-13 15zm5 0c5-4 7-10 14-14l-14 14zm0 0l13-15-13 15zm7-1c-1-1 4-4 10-14l-10 14zm-1 1l13-16-13 16zm6 2c0-4 5-9 10-18l-10 18zm-2-2l13-15-13 15zm7-2c4-3 8-11 13-11l-13 11zm-2 1c6-4 11-10 14-14l-14 14zm5 2c4-4 11-10 16-17l-16 17zm2-1l12-16-12 16zm4 0c6-6 9-7 12-16l-12 16zm1 0c4-5 7-10 13-14l-13 14zm3-1c8-6 12-9 14-13l-14 13zm2 1c3-3 6-5 12-15l-12 15zm6 0l11-16-11 16zm-1 1c3-6 7-9 12-15l-12 15zm5 0c3-7 10-9 13-14l-13 14zm0-1l14-16-14 16zm8 0c3-6 8-10 10-14l-10 14zm-3-1c4-1 5-6 14-14l-14 14zm8 1l11-16-11 16zm-3 1l13-16-13 16zm8-3c5-5 9-8 9-14l-9 14zm-1 3l12-16-12 16zm6-1c0-4 5-5 13-17l-13 17zm-2-1c5-3 8-8 14-14l-14 14zm7 1l12-16-12 16zm-2 0l14-14-14 14zm7-1l12-13-12 13zm-1 2l14-15-14 15zm5 1l12-17-12 17zm1-2c3-5 8-10 13-15l-13 15zm4-1c5-1 7-7 12-13l-12 13zm0 2l14-17-14 17zm6-1c6-6 9-9 11-16l-11 16zm0 0c3-3 8-8 12-15l-12 15zm5 1c2-5 6-9 12-17l-12 17zm1-1l12-16-12 16zm5 1c4-6 8-11 13-14l-13 14zm-2 0l15-15-15 15zm8-2c2-5 9-13 14-15l-14 15zm-1 0l13-15-13 15zm6 3l12-15-12 15zm0-1c4-7 10-13 12-15l-12 15zm4-1c4-6 10-12 14-14l-14 14zm2-1l12-14-12 14zm2 2l16-15-16 15zm1 0l13-16-13 16zm8-2l13-12-13 12zm-2 2l13-15-13 15zm4-3c5-2 7-5 15-11l-15 11zm2 3c3-5 5-9 12-16l-12 16zm3 0c4-4 11-12 13-18l-13 18zm1-1l14-15-14 15zm7 0c5-5 9-10 14-13l-14 13zm-1-1l13-14-13 14zm6 1l15-14-15 14zm-1 0l13-15-13 15zm7 2c3-7 8-14 13-17l-13 17zm-1-2l12-14-12 14zm4 1c6-8 12-11 12-15l-12 15zm1-2l13-14-13 14zm6 1c5-3 8-9 13-14l-13 14zm-1 1c3-6 9-10 12-16l-12 16zm7-3c2-4 6-6 11-14l-11 14zm-1 2c4-5 9-9 11-14l-11 14zm6-2l14-12-14 12zm-1 2l14-15-14 15zm5-2c2-2 8-8 15-11l-15 11zm0 2l13-15-13 15zm3 0c7-2 9-8 17-13l-17 13zm2 1l14-16-14 16zm4-2l15-15-15 15zm2 2l12-16-12 16zm5-2l12-14-12 14zm1 2c4-7 8-13 12-16l-12 16zm3-2c6-2 9-9 13-15l-13 15zm2 1l12-15-12 15zm4 0c4-6 8-9 14-13l-14 13zm0-1c6-4 10-10 13-13l-13 13zm7 2c2-7 7-13 12-17l-12 17zm-2-1c3-4 8-7 13-15l-13 15zm5-1c5-1 7-5 15-14l-15 14zm1 0c5-2 7-8 13-15l-13 15zm5 3c6-5 7-12 13-18l-13 18zm1-2c4-4 8-8 12-16l-12 16zm3-1c5-4 10-11 14-13l-14 13zm3 0l11-15-11 15zm3 0c7-3 8-7 14-15l-14 15zm1 1c6-5 10-12 13-16l-13 16zm6 1c2-8 9-11 12-15l-12 15zm0-1l12-15-12 15zm3 2c5-6 8-8 13-18l-13 18zm1-1l14-16-14 16zm7-3c2-4 5-7 14-13l-14 13zm-1 2l14-16-14 16zm6 2l14-16-14 16zm-1-1l12-16-12 16zm7-1c4-3 4-7 11-13l-11 13zm-1 0l12-14-12 14zm5 0c3-4 6-8 12-13l-12 13zm1 1l11-16-11 16zm5 0c2-5 6-9 12-16l-12 16zm-1-2l13-14-13 14zm6 3c2-3 5-9 12-15l-12 15zm0-2l12-13-12 13zm4-1c4-1 5-5 8-6l-8 6z" stroke="#FE7F80" stroke-width=".5" stroke-linecap="round"/>
    <path d="M668 466v-12m0 1c124 0 248 1 353-1l-353 1zm1-1c98 2 196 3 353 0H669zm352 1c0 4 2 6 0 12v-12zm0-1l1 12-1-12zm1 13c-86 0-172-2-353-1l353 1zm0 0c-76 1-153 1-354-1l354 1zm-353-1c-1-2-1-6 1-12l-1 12z" stroke="#495057" stroke-linecap="round"/>
    <path d="M874 587l8-8m-209-28l12-15-12 15zm0 0l12-15-12 15zm0 12l23-27-23 27zm0 0l23-27-23 27zm1 11l32-38-32 38zm0 0l32-38-32 38zm0 11c18-17 31-35 42-48l-42 48zm0 0l42-48-42 48zm8 4c10-11 22-27 45-52l-45 52zm0 0l45-52-45 52zm10 0c13-18 29-33 46-52l-46 52zm0 0l46-52-46 52zm11 0c11-13 21-21 45-52l-45 52zm0 0l45-52-45 52zm11 0l45-52-45 52zm0 0l45-52-45 52zm10 0c15-19 32-34 45-52l-45 52zm0 0l45-52-45 52zm11 0c14-15 28-30 45-52l-45 52zm0 0l45-52-45 52zm10 0l46-52-46 52zm0 0l46-52-46 52zm11 0c13-17 28-31 45-52l-45 52zm0 0l45-52-45 52zm11 0c17-19 37-40 45-52l-45 52zm0 0l45-52-45 52zm10 1c17-17 32-39 46-53l-46 53zm0 0c13-15 25-31 46-53l-46 53zm10 0c9-12 21-24 46-53l-46 53zm0 0l46-53-46 53zm11 0c12-14 25-27 46-53l-46 53zm0 0l46-53-46 53zm11-1c12-14 23-24 46-52l-46 52zm0 0l46-52-46 52zm10 0l46-52-46 52zm0 0l46-52-46 52zm11 0c15-15 26-33 44-51l-44 51zm0 0l44-51-44 51zm10 0c12-13 28-27 41-46l-41 46zm0 0c10-12 21-22 41-46l-41 46zm11 0c9-14 21-23 30-34l-30 34zm0 0l30-34-30 34zm11 0l19-22-19 22zm0 0l19-22-19 22zm12-2l8-8-8 8z" stroke="#FE7F80" stroke-linecap="round"/>
    <path d="M670 548c0-9 5-13 13-13m0 0c73 0 144-2 185 0H683zm0 0c71-3 143-2 185 0H683zm185 0c10 1 14 5 13 13l-13-13zm0 0c7 0 14 4 13 13l-13-13zm13 13v26-26zm0 0v26-26zm0 26c-1 9-3 12-13 14l13-14zm0 0c-1 9-5 15-13 14l13-14zm-13 14c-62 2-121 1-185 0h185zm0 0H683h185zm-185 0c-9 0-15-4-13-14l13 14zm0 0c-9 2-13-4-13-14l13 14zm-13-14v-26 26zm0 0v-26 26zm0-26c-1-8 3-12 13-13l-13 13z" stroke="#495057" stroke-width="2" stroke-linecap="round"/>
    <path d="M720 561h-3v5h-2v-13h4l4 1 1 3-1 2-1 1 3 6h-2l-3-5zm-3-2h2l3-1v-1-2l-3-1h-2v5zm13 7l-3-1-1-4v-3l2-1 2-1 3 1 1 4v1h-6v2l3 1 1-1 1-1 1 1c-1 2-2 2-4 2zm0-9l-1 1-1 2h5l-1-2-2-1zm12 9v-1l-3 1-2-1-1-2 1-2 4-1h1v-1-1l-2-1-1 1-1 1h-2l1-2 1-1h2l3 1 1 2v7h-2zm-2-1l1-1 1-1v-2h-1c-2 0-3 1-3 2v1l2 1zm6-4l1-4 3-1 3 1v-5h2v14h-2v-1l-3 1-3-1-1-4zm2 0l1 3 2 1 2-2v-4l-2-2-2 1-1 3zm16-5v1l3-1 2 1 2-1h2c2 0 3 1 3 3v7h-2v-7-1l-2-1-2 1v8h-2v-6c0-2-1-3-2-3l-2 2v7h-2v-10h2zm14 5l1-3 1-1 3-1 3 1 1 4v3a4 4 0 01-4 2l-4-1-1-4zm2 0v3l3 1 2-1v-3-3l-2-1-3 1v3zm14-3h-1l-2 1v7h-2v-10h2v1l2-1h1v2zm6 8l-4-1-1-4 1-3 1-1 2-1 3 1 1 4v1h-6l1 2 2 1 1-1 1-1 1 1c-1 2-2 2-3 2zm-1-9l-1 1-1 2h5l-1-2-2-1z" fill="#000"/>
    <path d="M844 572c2-2 9-5 9-9 0-3-7-10-9-12m-2 23c2-2 13-8 13-11 0-4-10-8-12-10l-1 21z" stroke="#000" stroke-linecap="round"/>
    <path d="M694 80h8l-23-64h-8l-23 64h8l5-13h28l5 13zm-31-19l12-34 12 34h-24zm47 19h7V56h18c13 0 21-8 21-20s-8-20-21-20h-25v64zm7-31V24h17c10 0 14 4 14 12 0 9-4 13-14 13h-17zm49 31h8V16h-8v64zm19-21c1 15 10 23 26 23 13 0 22-7 22-18 0-10-6-15-23-21-11-3-15-6-15-11 0-6 5-10 13-10s14 5 16 13l7-1c-1-6-3-11-8-14-4-3-9-5-15-5-12 0-20 7-20 17 0 9 5 13 20 18 13 4 18 8 18 14s-6 11-15 11c-12 0-18-6-19-17l-7 1zm59 21h8V16h-8v64zm16 0h9l16-26 15 26h9l-20-32 19-32h-8l-15 26-15-26h-9l19 32-20 32z" fill="#000"/>
    <path fill-rule="evenodd" clip-rule="evenodd" d="M551 191l-58 66 34-2-34 53 79-70-43 5 19-50" fill="#FAB005"/>
    <path clip-rule="evenodd" d="M549 191c-22 24-42 52-55 69l55-69zm0 0l-56 68 56-68zm-57 66c11 3 20-2 35-2l-35 2zm0 2l35-3-35 3zm34-4c-9 21-23 37-33 56l33-56zm2 0l-34 56 34-56zm-34 53c30-24 56-51 78-72l-78 72zm1 2l75-73-75 73zm75-72c-14-1-24 1-41 4l41-4zm0 0c-11 0-22 2-42 4l42-4zm-41 3c4-16 14-30 19-49l-19 49zm-1 1l21-51-21 51z" stroke="#000" stroke-width="2" stroke-linecap="round"/>
    <path d="M431 341c61 1 121 1 204-2m-205 2c62 2 124 1 206 0H430z" stroke="#000" stroke-width="2" stroke-linecap="round"/>
    <path d="M607 350c9-2 16-5 29-11m-30 11l30-9-30 9z" stroke="#000" stroke-width="2" stroke-linecap="round"/>
    <path d="M607 330c9 4 16 6 29 9m-30-10c8 5 17 8 30 12l-30-12z" stroke="#000" stroke-width="2" stroke-linecap="round"/>
    <path fill-rule="evenodd" clip-rule="evenodd" d="M823 246l-37 79 45 3 14-48 17 46 41-2-54-131-24 53" fill="#FA5252"/>
    <path clip-rule="evenodd" d="M824 242c-14 33-31 65-39 85l39-85zm1 2l-41 82 41-82zm-39 81c11 1 23 2 43 0h-43zm0 1h44-44zm46-2c1-11 7-18 17-41l-17 41zm-2 3l18-45-18 45zm16-45c8 14 12 26 17 43l-17-43zm1-2l17 47-17-47zm16 45c16 0 28 2 41 1l-41-1zm0 1h40-40zm39 0l-52-135 52 135zm0 1c-14-34-26-65-51-134l51 134zm-52-136c-8 21-17 38-26 52l26-52zm1 2c-10 15-16 30-27 51l27-51z" stroke="#000" stroke-width="2" stroke-linecap="round"/>
  </g>
  <defs>
    <clipPath id="clip0">
      <path fill="#fff" d="M0 0h1057v640H0z"/>
    </clipPath>
  </defs>
</svg>
